<svg width="375" height="328" viewBox="0 0 375 328" fill="none" xmlns="http://www.w3.org/2000/svg">
<path d="M42.7785 282.627C30.714 282.113 20.6585 274.406 21.6631 256.551C23.2226 228.827 46.2993 226.469 63.0743 223.001C71.3884 221.283 83.606 223.042 87.3023 210.63C89.3593 203.723 88.1506 195.763 85.5515 189.177C84.8817 187.476 84.0812 185.779 82.863 184.718C81.5331 183.563 79.8748 183.31 78.2866 183.078C60.3444 180.475 42.5074 176.627 24.8746 171.556C22.3871 170.838 19.756 169.997 17.9701 167.618C16.0853 165.109 15.5272 161.413 15.1477 157.928C13.0428 138.556 13.8401 118.654 17.4821 99.6773C18.2316 95.7727 19.2776 91.5825 21.8449 89.3711C23.6755 87.7921 25.9653 87.5147 28.1499 87.2821C55.1939 84.3975 82.2347 81.517 109.279 78.6324C114.981 78.0244 121.885 76.2619 123.732 69.1748C125.575 62.1081 121.04 53.4543 124.226 47.2567C126.328 43.1603 130.672 42.5647 134.438 42.377C165.242 40.8388 196.065 40.0799 226.892 40.1003C234.597 40.1044 242.305 40.1574 250.01 40.2594C256.292 40.341 263.293 39.4393 269.658 40.5899C270.577 40.7572 271.482 40.9653 272.372 41.2264C281.863 44.0131 295.143 47.8402 300.743 59.2072C304.882 67.6121 304.538 78.9873 300.937 87.8084C297.337 96.6295 290.885 103.039 283.831 106.887C279.468 109.27 274.075 111.852 273.262 117.944C272.512 123.554 276.317 128.364 280.048 131.286C292.212 140.792 306.869 142.477 320.803 145.831C332.995 148.769 353.048 155.28 358.677 172.062C362.003 181.984 360.817 198.688 360.699 209.345C360.555 222.32 359.551 235.278 357.682 248.024C356.821 253.895 355.708 259.926 352.914 264.654C347.923 273.1 339.013 275.275 330.915 276.576C304.021 280.901 276.907 282.301 249.825 283.28C180.821 285.773 111.766 285.557 42.7785 282.627Z" fill="#CFE9FC"/>
<path d="M224.905 194.524V197.028H231.281L231.916 187.65C232.149 182.916 232.954 175.915 232.954 175.915L238.769 170L241.422 211.19L248.592 211.95L248.324 231.123L250.794 231.411L251.663 192.164L256.346 190.291L262.222 192.164V207.5H273.075L272.455 230.039H274.515L275.328 213.71L281.762 212.915V205.002L293.206 204.955L294.024 219.072H298.238L297.377 186.698L301.884 186.217L300.862 175.267L308.397 172.611L312.547 175.664L312.536 186.189L317.937 186.698L317.949 231.416H320.689L321.711 198.511L328.282 193.185L340 198.999L339.791 259H192.937L192 187.042H219.822L220.687 194.479L224.905 194.524Z" fill="#7AC0F8"/>
<path d="M225.214 165.418L224.057 254.431L223.964 261.654H59.1149L52.7267 251.417L48.0804 243.98C46.121 240.216 44.4222 236.031 43 231.556V184.666L57.5816 183.385L57.5963 164.965L64.7846 164.284L64.7698 150.207L70.2933 146.126L80.3215 149.678L78.9616 164.322L84.9599 164.965L83.821 208.258H89.4306L90.5197 189.379L105.748 189.44V200.022L114.313 201.085L115.395 222.925H118.137L117.312 192.782H131.757V172.271L139.576 169.766L145.809 172.271L146.966 224.758L150.252 224.374L149.898 198.733L159.439 197.715L162.97 142.63L170.71 150.54C170.71 150.54 171.781 159.905 172.093 166.235L172.936 178.776H181.423V175.426L187.039 175.355L188.189 165.408L225.214 165.418Z" fill="#7AC0F8"/>
<path d="M95.2927 259.965C95.2927 259.965 86.4916 150.919 37.1557 171.709C-12.1802 192.499 86.7426 238.697 89.6106 260.723L95.2927 259.965Z" fill="#63A5A2"/>
<path d="M94.6708 257.358C94.6708 257.358 136.042 200.793 103.332 189.789C70.621 178.785 99.4176 243.409 91.5818 255.294L94.6708 257.358Z" fill="#28645B"/>
<path d="M93.6035 257.032C93.5072 257.045 93.4093 257.023 93.3269 256.971C93.2313 256.911 93.1628 256.816 93.1366 256.706C93.1103 256.596 93.1284 256.479 93.1869 256.383C93.2343 256.305 97.9688 248.463 101.434 237.274C104.625 226.973 107.362 211.641 102.287 197.106C102.254 197 102.263 196.886 102.312 196.786C102.361 196.687 102.446 196.611 102.549 196.574C102.653 196.538 102.767 196.543 102.867 196.589C102.967 196.636 103.045 196.719 103.085 196.823C105.364 203.348 106.296 210.565 105.86 218.276C105.509 224.435 104.29 230.917 102.234 237.553C98.7366 248.837 93.956 256.753 93.907 256.833C93.8742 256.887 93.83 256.933 93.7775 256.967C93.725 257.001 93.6656 257.023 93.6035 257.032Z" fill="#498981"/>
<path d="M105.624 212.069C105.545 212.08 105.465 212.067 105.393 212.034C105.321 212 105.259 211.947 105.215 211.88C105.171 211.813 105.147 211.735 105.145 211.655C105.143 211.575 105.164 211.496 105.204 211.427L111.61 200.534C111.638 200.484 111.675 200.44 111.719 200.405C111.764 200.369 111.815 200.344 111.87 200.329C111.925 200.314 111.982 200.31 112.038 200.318C112.094 200.326 112.148 200.345 112.197 200.374C112.246 200.404 112.289 200.443 112.322 200.489C112.356 200.535 112.38 200.588 112.393 200.643C112.406 200.699 112.408 200.757 112.399 200.814C112.389 200.87 112.369 200.924 112.338 200.972L105.932 211.864C105.899 211.92 105.855 211.967 105.801 212.003C105.748 212.038 105.687 212.061 105.624 212.069Z" fill="#498981"/>
<path d="M105.183 208.015C105.124 208.023 105.064 208.017 105.006 208C104.949 207.982 104.896 207.952 104.851 207.912L92.6095 197.217C92.5613 197.183 92.5207 197.138 92.4905 197.087C92.4604 197.035 92.4412 196.978 92.4342 196.919C92.4273 196.859 92.4327 196.799 92.4502 196.742C92.4677 196.685 92.4969 196.632 92.5358 196.587C92.5748 196.543 92.6226 196.506 92.6763 196.481C92.73 196.456 92.7882 196.443 92.8474 196.442C92.9065 196.441 92.9653 196.453 93.0197 196.476C93.0742 196.5 93.1233 196.535 93.1637 196.578L105.405 207.273C105.467 207.327 105.512 207.398 105.535 207.477C105.558 207.556 105.558 207.64 105.535 207.719C105.511 207.798 105.466 207.868 105.404 207.922C105.343 207.975 105.267 208.009 105.186 208.02L105.183 208.015Z" fill="#498981"/>
<path d="M105.329 220.92C105.27 220.928 105.21 220.924 105.153 220.907C105.097 220.89 105.044 220.861 104.999 220.823L91.9353 209.71C91.8494 209.637 91.7957 209.532 91.786 209.419C91.7764 209.306 91.8115 209.194 91.8838 209.108C91.956 209.021 92.0595 208.967 92.1713 208.958C92.2832 208.948 92.3943 208.984 92.4802 209.057L105.543 220.17C105.606 220.223 105.652 220.294 105.676 220.373C105.7 220.452 105.7 220.537 105.678 220.616C105.655 220.695 105.61 220.766 105.548 220.82C105.486 220.874 105.41 220.909 105.329 220.92Z" fill="#498981"/>
<path d="M103.415 232.321C103.355 232.33 103.294 232.325 103.236 232.307C103.177 232.289 103.124 232.258 103.079 232.217L93.167 223.361C93.1215 223.325 93.0837 223.28 93.056 223.229C93.0282 223.177 93.0111 223.121 93.0057 223.063C93.0003 223.005 93.0067 222.946 93.0244 222.891C93.0422 222.836 93.0711 222.785 93.1092 222.741C93.1472 222.697 93.1938 222.662 93.2459 222.637C93.2981 222.612 93.3547 222.599 93.4124 222.597C93.4701 222.595 93.5275 222.605 93.5813 222.626C93.635 222.648 93.6839 222.68 93.7249 222.721L103.636 231.578C103.697 231.632 103.741 231.703 103.763 231.782C103.786 231.86 103.785 231.944 103.762 232.022C103.739 232.1 103.693 232.17 103.632 232.223C103.571 232.276 103.495 232.31 103.415 232.321Z" fill="#498981"/>
<path d="M104.422 227.588C104.328 227.599 104.232 227.579 104.151 227.529C104.069 227.479 104.007 227.403 103.973 227.313C103.94 227.223 103.937 227.124 103.966 227.033C103.994 226.941 104.053 226.863 104.132 226.809L110.645 222.348C110.737 222.299 110.844 222.287 110.945 222.313C111.046 222.34 111.134 222.403 111.192 222.491C111.25 222.578 111.274 222.685 111.259 222.789C111.245 222.893 111.192 222.988 111.112 223.055L104.599 227.519C104.546 227.555 104.485 227.578 104.422 227.588Z" fill="#498981"/>
<path d="M105.545 217.623C105.456 217.635 105.365 217.618 105.286 217.574C105.208 217.531 105.144 217.463 105.106 217.381C105.068 217.299 105.056 217.206 105.073 217.117C105.09 217.028 105.135 216.947 105.2 216.885L112.979 209.673C113.062 209.596 113.171 209.556 113.284 209.561C113.396 209.565 113.501 209.615 113.578 209.698C113.654 209.782 113.694 209.892 113.69 210.006C113.685 210.119 113.636 210.226 113.554 210.302L105.775 217.515C105.711 217.574 105.631 217.612 105.545 217.623Z" fill="#498981"/>
<path d="M101.964 237.599C101.868 237.611 101.77 237.589 101.687 237.536C101.605 237.484 101.542 237.405 101.511 237.311C101.479 237.218 101.481 237.117 101.514 237.025C101.548 236.933 101.612 236.855 101.696 236.806L106.31 234.118C106.407 234.061 106.523 234.046 106.631 234.076C106.74 234.106 106.832 234.178 106.888 234.276C106.944 234.374 106.96 234.491 106.931 234.601C106.901 234.71 106.83 234.803 106.733 234.86L102.118 237.537C102.072 237.567 102.019 237.589 101.964 237.599Z" fill="#498981"/>
<path d="M100.023 243.29C99.9507 243.3 99.8775 243.291 99.8102 243.263C99.7428 243.236 99.6835 243.191 99.6382 243.134L93.4322 235.415C93.3613 235.327 93.3279 235.214 93.3395 235.102C93.351 234.989 93.4064 234.885 93.4936 234.814C93.5807 234.743 93.6924 234.709 93.8041 234.721C93.9159 234.733 94.0184 234.789 94.0893 234.878L100.294 242.597C100.329 242.64 100.355 242.69 100.371 242.744C100.387 242.798 100.392 242.855 100.386 242.91C100.381 242.966 100.364 243.02 100.338 243.07C100.311 243.119 100.275 243.163 100.232 243.198C100.172 243.248 100.1 243.28 100.023 243.29Z" fill="#498981"/>
<path d="M89.4297 260.652C89.4297 260.652 77.1009 229.416 55.7856 222.113C34.4702 214.811 14.9619 231.308 22.291 244.94C28.6127 256.694 45.7864 238.91 61.5274 242.903C77.2683 246.897 81.6409 261.689 81.6409 261.689L89.4297 260.652Z" fill="#498981"/>
<path d="M87.7627 261.305C87.6677 261.318 87.5711 261.298 87.4888 261.248C87.4066 261.198 87.3436 261.121 87.3102 261.03C87.29 260.977 85.2745 255.558 81.148 249.087C77.3581 243.127 70.9686 235.026 62.0432 230.273C53.1815 225.552 43.6688 227.391 37.2499 229.766C32.9909 231.349 28.9606 233.498 25.2648 236.155C25.2204 236.189 25.1697 236.214 25.1158 236.228C25.0618 236.243 25.0055 236.246 24.9502 236.238C24.8949 236.23 24.8416 236.212 24.7934 236.183C24.7452 236.155 24.703 236.117 24.6692 236.072C24.6354 236.027 24.6107 235.976 24.5965 235.921C24.5823 235.867 24.5788 235.81 24.5863 235.754C24.5938 235.698 24.6122 235.644 24.6403 235.596C24.6684 235.547 24.7057 235.505 24.7502 235.471C28.506 232.766 32.6027 230.579 36.9325 228.966C43.5198 226.525 53.289 224.639 62.4344 229.517C71.5248 234.36 78.0173 242.591 81.8624 248.643C86.0253 255.19 88.0742 260.678 88.0947 260.734C88.1141 260.786 88.1231 260.842 88.1211 260.898C88.1192 260.954 88.1063 261.009 88.0833 261.059C88.0604 261.11 88.0277 261.156 87.9871 261.194C87.9466 261.232 87.899 261.261 87.8471 261.281C87.8198 261.292 87.7916 261.3 87.7627 261.305Z" fill="#63A5A2"/>
<path d="M33.0372 231.533C32.9792 231.541 32.9203 231.537 32.864 231.521L27.5808 229.989C27.4789 229.952 27.3944 229.878 27.3447 229.781C27.295 229.684 27.2838 229.572 27.3134 229.467C27.343 229.362 27.4112 229.273 27.5039 229.217C27.5967 229.162 27.7071 229.144 27.8125 229.168L33.0964 230.706C33.19 230.733 33.2715 230.792 33.3274 230.872C33.3833 230.953 33.4101 231.05 33.4032 231.148C33.3964 231.246 33.3564 231.339 33.2899 231.41C33.2234 231.482 33.1345 231.528 33.0382 231.541L33.0372 231.533Z" fill="#63A5A2"/>
<path d="M44.8992 227.712C44.8361 227.721 44.7719 227.716 44.7108 227.698L34.1431 224.316C34.0359 224.281 33.9465 224.206 33.8944 224.105C33.8423 224.004 33.8319 223.887 33.8654 223.779C33.899 223.671 33.9737 223.581 34.0732 223.528C34.1726 223.476 34.2887 223.466 34.3959 223.5L44.9637 226.883C45.0556 226.912 45.1348 226.973 45.1881 227.054C45.2415 227.136 45.2657 227.233 45.2569 227.33C45.2481 227.427 45.2068 227.518 45.1397 227.588C45.0727 227.658 44.9839 227.702 44.8882 227.714L44.8992 227.712Z" fill="#63A5A2"/>
<path d="M55.2605 227.817C55.1995 227.826 55.1374 227.82 55.0785 227.802C55.0197 227.783 54.9655 227.752 54.92 227.71L48.9251 222.229C48.8839 222.191 48.8505 222.146 48.8267 222.095C48.8029 222.045 48.7893 221.99 48.7865 221.934C48.7837 221.878 48.7918 221.822 48.8104 221.769C48.829 221.716 48.8578 221.668 48.895 221.627C48.9322 221.585 48.9771 221.551 49.0272 221.528C49.0773 221.504 49.1316 221.49 49.187 221.487C49.2424 221.485 49.2978 221.493 49.35 221.512C49.4022 221.531 49.4503 221.56 49.4914 221.598L55.4861 227.077C55.546 227.132 55.5892 227.202 55.6106 227.281C55.6321 227.359 55.6309 227.442 55.6072 227.52C55.5835 227.598 55.5383 227.667 55.4768 227.72C55.4154 227.772 55.3404 227.806 55.2605 227.817Z" fill="#63A5A2"/>
<path d="M32.0682 243.309C31.992 243.318 31.9145 243.307 31.8439 243.276C31.7928 243.254 31.7466 243.221 31.708 243.181C31.6694 243.14 31.639 243.092 31.6187 243.04C31.5983 242.988 31.5884 242.932 31.5895 242.875C31.5906 242.819 31.6027 242.764 31.625 242.712L37.576 228.886C37.5981 228.835 37.6301 228.788 37.6701 228.749C37.71 228.71 37.7572 228.68 37.809 228.659C37.8607 228.639 37.9159 228.629 37.9715 228.63C38.0271 228.631 38.0819 228.643 38.1329 228.666C38.1839 228.688 38.23 228.721 38.2687 228.761C38.3073 228.802 38.3377 228.849 38.3581 228.902C38.3785 228.954 38.3885 229.01 38.3876 229.066C38.3866 229.122 38.3747 229.177 38.3526 229.229L32.3998 243.055C32.3709 243.123 32.3252 243.182 32.2671 243.226C32.209 243.27 32.1405 243.299 32.0682 243.309Z" fill="#63A5A2"/>
<path d="M45.3579 239.666C45.2794 239.677 45.1994 239.664 45.1276 239.631C45.0769 239.608 45.0312 239.575 44.9931 239.534C44.955 239.493 44.9252 239.445 44.9056 239.392C44.8859 239.34 44.8767 239.284 44.8785 239.228C44.8803 239.172 44.8931 239.117 44.916 239.066L50.4189 226.729C50.4649 226.625 50.5498 226.545 50.6548 226.505C50.7597 226.465 50.8762 226.469 50.9787 226.516C51.0811 226.562 51.161 226.648 51.2009 226.754C51.2407 226.86 51.2373 226.978 51.1912 227.081L45.6865 239.419C45.6574 239.485 45.6118 239.542 45.5543 239.586C45.4967 239.629 45.4291 239.657 45.3579 239.666Z" fill="#63A5A2"/>
<path d="M57.0584 236.326C56.9522 236.339 56.8448 236.311 56.758 236.247C56.6712 236.184 56.6113 236.089 56.5905 235.983C56.5698 235.877 56.5896 235.767 56.646 235.675C56.7024 235.584 56.7912 235.517 56.8945 235.489L67.281 232.752C67.3357 232.734 67.3933 232.728 67.4503 232.734C67.5074 232.74 67.5627 232.758 67.6129 232.786C67.6632 232.814 67.7072 232.852 67.7425 232.898C67.7777 232.943 67.8034 232.996 67.818 233.052C67.8325 233.108 67.8357 233.167 67.8272 233.224C67.8187 233.281 67.7988 233.336 67.7687 233.385C67.7385 233.434 67.6988 233.477 67.6519 233.51C67.605 233.543 67.5518 233.566 67.4957 233.578L57.1111 236.315L57.0584 236.326Z" fill="#63A5A2"/>
<path d="M76.5416 242.349C76.4974 242.354 76.4527 242.353 76.4088 242.346L70.0957 241.143C69.9893 241.118 69.8963 241.053 69.8363 240.961C69.7762 240.869 69.7537 240.757 69.7734 240.648C69.7931 240.54 69.8535 240.444 69.942 240.379C70.0305 240.315 70.1403 240.288 70.2484 240.303L76.5724 241.505C76.6708 241.524 76.7592 241.578 76.822 241.657C76.8847 241.736 76.9178 241.835 76.9152 241.936C76.9126 242.037 76.8745 242.134 76.8078 242.21C76.741 242.285 76.6499 242.334 76.5507 242.347L76.5416 242.349Z" fill="#63A5A2"/>
<path d="M93.2796 260.665C93.171 260.679 93.061 260.651 92.9728 260.585C92.8847 260.519 92.8253 260.421 92.8074 260.312C92.7883 260.169 90.3911 246.067 83.1289 229.334C76.4354 213.915 64.1142 193.041 43.4415 181.168C43.3931 181.141 43.3506 181.103 43.3163 181.059C43.2821 181.015 43.2569 180.964 43.242 180.91C43.212 180.801 43.2263 180.684 43.2816 180.585C43.3369 180.487 43.4288 180.414 43.537 180.384C43.6453 180.354 43.761 180.369 43.8587 180.425C53.0844 185.724 61.4436 193.217 68.7033 202.697C74.5042 210.272 79.6228 219.132 83.9119 229.013C91.2126 245.839 93.6181 260.03 93.6408 260.172C93.6592 260.284 93.6331 260.398 93.5681 260.49C93.5032 260.582 93.4047 260.644 93.2942 260.663L93.2796 260.665Z" fill="#498981"/>
<path d="M61.9034 195.489C61.7958 195.503 61.6869 195.475 61.5992 195.41C61.5114 195.346 61.4515 195.249 61.4319 195.142L57.9113 175.754C57.8984 175.698 57.897 175.64 57.907 175.583C57.9171 175.526 57.9384 175.472 57.9698 175.424C58.0012 175.375 58.0419 175.334 58.0896 175.302C58.1372 175.27 58.1908 175.249 58.247 175.238C58.3033 175.228 58.361 175.229 58.4168 175.242C58.4726 175.255 58.5253 175.279 58.5717 175.313C58.618 175.347 58.6571 175.39 58.6865 175.44C58.716 175.489 58.7352 175.544 58.743 175.602L62.2636 194.989C62.2737 195.044 62.2729 195.101 62.2613 195.156C62.2497 195.211 62.2275 195.263 62.1959 195.309C62.1643 195.356 62.124 195.395 62.0773 195.425C62.0305 195.456 61.9783 195.477 61.9235 195.487L61.9034 195.489Z" fill="#498981"/>
<path d="M57.294 191.183L57.239 191.19L32.1314 191.233C32.0749 191.235 32.0185 191.225 31.9657 191.205C31.9129 191.184 31.8647 191.153 31.8239 191.113C31.7831 191.073 31.7506 191.026 31.7284 190.973C31.7061 190.921 31.6945 190.864 31.6942 190.807C31.6939 190.75 31.705 190.693 31.7268 190.64C31.7485 190.588 31.7806 190.54 31.821 190.5C31.8613 190.46 31.9093 190.429 31.9619 190.408C32.0145 190.387 32.0708 190.377 32.1274 190.379L57.229 190.333C57.3362 190.333 57.4395 190.374 57.518 190.448C57.5965 190.522 57.6444 190.623 57.652 190.731C57.6595 190.839 57.6262 190.946 57.5587 191.03C57.4913 191.114 57.3947 191.169 57.2885 191.184L57.294 191.183Z" fill="#498981"/>
<path d="M70.5002 206.187L70.4508 206.194L43.9588 206.606C43.9011 206.611 43.8431 206.603 43.7884 206.584C43.7336 206.565 43.6832 206.535 43.6404 206.496C43.5975 206.457 43.563 206.409 43.5391 206.356C43.5152 206.302 43.5023 206.245 43.5013 206.186C43.5002 206.128 43.5111 206.07 43.5331 206.016C43.5551 205.962 43.5879 205.913 43.6293 205.873C43.6708 205.832 43.7201 205.8 43.7741 205.78C43.8282 205.759 43.8859 205.75 43.9437 205.753L70.4357 205.341C70.5425 205.341 70.6455 205.381 70.724 205.455C70.8025 205.528 70.8507 205.629 70.8589 205.736C70.8671 205.844 70.8348 205.951 70.7684 206.035C70.7019 206.119 70.6063 206.175 70.5007 206.191L70.5002 206.187Z" fill="#498981"/>
<path d="M79.7824 221.545C79.7626 221.549 79.7423 221.552 79.722 221.553L59.1889 221.367C59.0803 221.361 58.978 221.313 58.9034 221.233C58.8287 221.153 58.7875 221.046 58.7881 220.937C58.7888 220.827 58.8314 220.721 58.907 220.643C58.9827 220.564 59.0855 220.517 59.1943 220.513L79.7273 220.699C79.8329 220.702 79.9336 220.745 80.0097 220.819C80.0857 220.893 80.1317 220.994 80.1384 221.1C80.1451 221.206 80.1122 221.312 80.0461 221.395C79.98 221.478 79.8855 221.533 79.7811 221.549L79.7824 221.545Z" fill="#498981"/>
<path d="M76.168 214.944C76.1132 214.951 76.0575 214.947 76.0042 214.932C75.95 214.918 75.8991 214.893 75.8544 214.859C75.8098 214.825 75.7722 214.782 75.744 214.733C75.7158 214.684 75.6975 214.63 75.6901 214.574C75.6828 214.518 75.6865 214.461 75.7011 214.407L78.8057 202.456C78.8386 202.352 78.9099 202.264 79.0049 202.212C79.0999 202.159 79.2114 202.146 79.3164 202.174C79.4213 202.202 79.5117 202.269 79.5688 202.363C79.626 202.456 79.6456 202.568 79.6236 202.675L76.5189 214.626C76.4987 214.708 76.4544 214.782 76.3919 214.839C76.3293 214.896 76.2514 214.932 76.168 214.944Z" fill="#498981"/>
<path d="M67.422 202.095C67.388 202.099 67.3536 202.1 67.3195 202.095C67.208 202.082 67.1059 202.025 67.0357 201.936C66.9655 201.847 66.9329 201.734 66.945 201.621L68.7513 185.141C68.7546 185.083 68.7696 185.027 68.7953 184.975C68.8209 184.923 68.8568 184.877 68.9006 184.84C68.9444 184.803 68.9953 184.775 69.0502 184.758C69.105 184.741 69.1627 184.736 69.2198 184.742C69.2768 184.749 69.332 184.767 69.3819 184.796C69.4319 184.824 69.4756 184.863 69.5104 184.909C69.5452 184.955 69.5703 185.008 69.5843 185.064C69.5983 185.12 69.6008 185.179 69.5917 185.236L67.7857 201.718C67.7754 201.813 67.7341 201.902 67.6682 201.97C67.6023 202.038 67.5156 202.082 67.422 202.095Z" fill="#498981"/>
<path d="M83.4178 229.238C83.3539 229.245 83.2891 229.238 83.2285 229.216C83.1761 229.197 83.1279 229.168 83.0865 229.131C83.0451 229.094 83.0115 229.048 82.9874 228.998C82.9633 228.947 82.9494 228.893 82.9463 228.837C82.9432 228.781 82.9511 228.725 82.9695 228.672L85.6594 220.779C85.6995 220.677 85.777 220.595 85.8759 220.549C85.9747 220.503 86.0873 220.498 86.1903 220.534C86.2932 220.57 86.3786 220.644 86.4287 220.742C86.4787 220.84 86.4897 220.953 86.4592 221.058L83.7693 228.951C83.7434 229.028 83.6966 229.095 83.6345 229.146C83.5723 229.196 83.4972 229.228 83.4178 229.238Z" fill="#498981"/>
<path d="M86.8978 237.917C86.855 237.923 86.8116 237.922 86.769 237.915L71.7191 235.244C71.6084 235.224 71.5099 235.161 71.4452 235.068C71.3806 234.975 71.355 234.86 71.3742 234.749C71.3934 234.637 71.4558 234.538 71.5476 234.472C71.6395 234.407 71.7533 234.382 71.8639 234.402L86.9132 237.082C87.0123 237.1 87.1019 237.154 87.1658 237.233C87.2297 237.311 87.2637 237.41 87.2618 237.512C87.2599 237.614 87.2221 237.711 87.1553 237.787C87.0885 237.863 86.997 237.912 86.8972 237.926L86.8978 237.917Z" fill="#498981"/>
<path d="M197.42 270.24C278.838 270.24 344.84 265.709 344.84 260.12C344.84 254.531 278.838 250 197.42 250C116.002 250 50 254.531 50 260.12C50 265.709 116.002 270.24 197.42 270.24Z" fill="#4D4D4D"/>
<path d="M79.5579 140.006H72.8828L83.5614 150.672H90.2393L79.5579 140.006Z" fill="#4D4A49"/>
<path d="M221.084 212.002H198.387C196.912 212.002 195.715 211.107 195.715 210.003V206.002L205.062 204.003C205.062 204.003 210.731 205.03 216.642 205.793C219.978 206.223 223.755 207.384 223.755 209.92V209.989C223.753 211.11 222.559 212.002 221.084 212.002Z" fill="#2C140F"/>
<path d="M171.684 126.672C171.684 126.672 211.737 134.673 215.743 144.004C219.749 153.337 210.403 164.004 210.403 164.004C210.403 164.004 202.393 145.339 194.381 144.004H171.684V126.672Z" fill="#995B00"/>
<path d="M171.683 128.004C171.683 128.004 202.393 134.67 213.074 152.002C223.756 169.334 205.065 201.333 205.065 201.333C205.065 201.333 207.734 202.665 206.399 203.998C205.065 205.331 203.73 211.996 197.052 210.664C190.377 209.331 191.712 199.997 191.712 199.997C191.712 199.997 195.718 165.333 201.058 160L193.394 154.433C188.83 151.118 183.33 149.334 177.689 149.334H142.311C142.311 149.334 135.636 145.333 135.636 137.335C135.636 129.337 140.977 120.003 140.977 120.003L171.683 128.004Z" fill="#FF9800"/>
<path d="M156.864 131.812C150.111 131.856 143.287 131.773 136.684 130.463C138.239 124.802 140.974 120.003 140.974 120.003L171.683 128.004C171.683 128.004 173.848 128.478 177.209 129.485C176.848 129.64 176.473 129.769 176.1 129.874C169.875 131.622 163.326 131.771 156.864 131.812Z" fill="#A34733"/>
<path d="M197.049 197.335C193.043 202.668 195.715 205.336 197.049 206.669C198.384 208.001 202.39 201.335 205.062 201.335C205.062 201.335 207.731 202.668 206.396 204.001C205.062 205.333 203.727 211.999 197.049 210.666C190.374 209.334 191.709 200 191.709 200C191.709 200 195.715 165.336 201.056 160.003C207.731 162.671 201.056 192.002 197.049 197.335Z" fill="#995B00"/>
<path d="M221.084 216.002H198.387C196.912 216.002 195.715 214.807 195.715 213.337V208.004L205.062 205.339C205.062 205.339 210.731 206.707 216.642 207.723C219.978 208.296 223.755 209.846 223.755 213.227V213.321C223.753 214.81 222.559 216.002 221.084 216.002Z" fill="#4D2720"/>
<path d="M198.387 214.502H221.084C222.347 214.502 223.397 213.626 223.675 212.451C223.722 212.698 223.753 212.952 223.753 213.224V213.315C223.753 214.81 222.556 216.002 221.084 216.002H198.387C196.912 216.002 195.715 214.807 195.715 213.337V211.837C195.715 213.307 196.912 214.502 198.387 214.502Z" fill="#D9D9D9"/>
<path d="M292.514 260C275.924 260 262.472 246.569 262.472 230C262.472 213.433 275.921 200.003 292.514 200.003C309.107 200.003 322.553 213.433 322.553 230C322.553 246.569 309.104 260 292.514 260ZM292.514 207.715C280.189 207.715 270.197 217.693 270.197 230C270.197 242.307 280.189 252.285 292.514 252.285C304.838 252.285 314.83 242.307 314.83 230C314.83 217.693 304.838 207.715 292.514 207.715Z" fill="#1A1A1A"/>
<path d="M292.514 252.285C280.189 252.285 270.197 242.307 270.197 230C270.197 217.693 280.189 207.715 292.514 207.715C304.838 207.715 314.83 217.693 314.83 230C314.83 242.307 304.838 252.285 292.514 252.285Z" fill="#2A2928"/>
<path d="M292.514 207.715C304.838 207.715 314.83 217.693 314.83 230C314.83 242.307 304.838 252.285 292.514 252.285C280.189 252.285 270.197 242.307 270.197 230C270.197 217.693 280.189 207.715 292.514 207.715ZM303.206 246.112C299.812 244.948 293.17 241.908 293.209 235.95L298.566 233.318C298.566 233.318 300.708 242.024 307.044 242.751C310.041 239.347 311.875 234.893 311.875 230.003C311.875 225.862 310.56 222.035 308.34 218.891C307.507 222.445 305.183 229.105 299.365 229.705L296.162 224.672C296.162 224.672 304.863 221.506 304.626 214.934C301.309 212.272 297.102 210.669 292.514 210.669C289.28 210.669 286.236 211.473 283.556 212.872C285.8 214.166 293.647 219.221 291.924 225.876L286.084 227.123C286.084 227.123 286.159 217.5 279.541 215.677C275.626 219.215 273.153 224.312 273.153 230C273.153 233.769 274.25 237.272 276.117 240.245C276.999 237.294 279.98 229.334 286.506 229.334L289.178 234.667C289.178 234.667 279.266 237.164 279.767 244.524C283.175 247.508 287.628 249.334 292.517 249.334C296.468 249.334 300.14 248.144 303.206 246.112Z" fill="#B7B2B0"/>
<path d="M285.169 230C285.169 234.05 288.455 237.332 292.511 237.332C296.567 237.332 299.854 234.05 299.854 230C299.854 225.95 296.567 222.668 292.511 222.668C288.455 222.668 285.169 225.95 285.169 230Z" fill="#E2DDDA"/>
<path d="M249.121 231.966V214.667C249.121 214.667 253.128 188.001 273.153 181.336C273.153 181.336 306.531 170.669 322.553 200C322.553 200 315.878 209.334 297.185 209.334C297.185 209.334 294.623 233.632 251.876 234.634C250.373 234.67 249.121 233.472 249.121 231.966Z" fill="#E2DDDA"/>
<path d="M249.237 232.698C249.171 232.464 249.121 232.222 249.121 231.966V214.667C249.121 214.667 252.011 195.471 265.121 185.581C277.184 186.492 284.711 189.865 289.409 193.802C282.362 208.706 269.312 228.888 249.237 232.698Z" fill="#9B9695"/>
<path d="M265.121 185.584C267.462 183.819 270.12 182.346 273.153 181.338C273.153 181.338 283.233 178.131 294.971 180.094C293.984 183.018 292.15 188.01 289.409 193.805C284.714 189.868 277.184 186.492 265.121 185.584Z" fill="#9B9695"/>
<path d="M289.409 193.802C292.153 188.007 293.983 183.015 294.971 180.091C304.596 181.702 315.335 186.784 322.553 200C322.553 200 315.878 209.334 297.185 209.334C297.187 209.334 297.656 200.713 289.409 193.802Z" fill="#B7B2B0"/>
<path d="M110.935 252.285C98.6101 252.285 88.6181 242.307 88.6181 230C88.6181 217.693 98.6101 207.715 110.935 207.715C123.259 207.715 133.251 217.693 133.251 230C133.248 242.307 123.259 252.285 110.935 252.285Z" fill="#2A2928"/>
<path d="M110.935 207.715C123.259 207.715 133.251 217.693 133.251 230C133.251 242.307 123.259 252.285 110.935 252.285C98.6101 252.285 88.6181 242.307 88.6181 230C88.6181 217.693 98.6073 207.715 110.935 207.715ZM121.624 246.112C118.23 244.948 111.588 241.908 111.627 235.95L116.984 233.318C116.984 233.318 119.126 242.024 125.462 242.751C128.459 239.347 130.293 234.893 130.293 230.003C130.293 225.862 128.978 222.035 126.758 218.891C125.925 222.445 123.601 229.105 117.783 229.705L114.58 224.672C114.58 224.672 123.281 221.506 123.044 214.934C119.727 212.272 115.52 210.669 110.932 210.669C107.698 210.669 104.654 211.473 101.974 212.872C104.218 214.166 112.065 219.221 110.342 225.876L104.502 227.123C104.502 227.123 104.577 217.5 97.9594 215.677C94.0442 219.215 91.571 224.312 91.571 230C91.571 233.769 92.6683 237.272 94.535 240.245C95.4172 237.294 98.3978 229.334 104.924 229.334L107.593 234.667C107.593 234.667 97.6809 237.164 98.1827 244.524C101.591 247.508 106.043 249.334 110.932 249.334C114.888 249.334 118.561 248.144 121.624 246.112Z" fill="#B7B2B0"/>
<path d="M103.589 230C103.589 234.05 106.876 237.332 110.932 237.332C114.988 237.332 118.274 234.05 118.274 230C118.274 225.95 114.988 222.668 110.932 222.668C106.879 222.668 103.589 225.95 103.589 230Z" fill="#E2DDDA"/>
<path d="M110.935 260C94.3447 260 80.8952 246.569 80.8952 230C80.8952 213.433 94.3447 200.003 110.935 200.003C127.525 200.003 140.977 213.433 140.977 230C140.974 246.569 127.525 260 110.935 260ZM110.935 207.715C98.6101 207.715 88.6181 217.693 88.6181 230C88.6181 242.307 98.6101 252.285 110.935 252.285C123.259 252.285 133.251 242.307 133.251 230C133.248 217.693 123.259 207.715 110.935 207.715Z" fill="#1A1A1A"/>
<path d="M111.602 174.67C111.602 174.67 67.5421 172.002 68.8766 218.667V224.001C68.8766 226.947 71.2671 229.334 74.2172 229.334H147.649C150.599 229.334 152.99 226.947 152.99 224.001V220C152.99 220 152.99 174.67 111.602 174.67Z" fill="#E2DDDA"/>
<path d="M241.109 126.672H235.769L229.634 132.798C227.858 134.571 227.544 137.349 228.917 139.45C233.306 146.165 241.774 162.393 239.775 185.336C237.106 216.002 222.418 213.334 222.418 213.334H199.721H195.715V220H239.775L258.466 164.004L241.109 126.672Z" fill="#7A7776"/>
<path d="M214.406 112.118C214.406 112.118 221.249 102.674 225.255 102.674H238.823C241.418 102.674 243.864 103.913 245.352 106.036C246.88 108.211 248.606 111.27 249.287 114.673C250.621 121.338 249.287 122.671 249.287 122.671C249.287 122.671 243.946 121.338 242.612 118.67H230.596L214.409 118.781V112.118H214.406Z" fill="#E2DDDA"/>
<path d="M111.602 174.67C152.993 174.67 152.993 220 152.993 220V224.001C152.993 226.947 150.602 229.334 147.652 229.334H142.311V224.001C142.311 206.327 127.966 194.67 110.267 194.67C92.5718 194.67 78.2235 206.33 78.2235 224.001V229.334H74.2173C71.2671 229.334 68.8766 226.947 68.8766 224.001V218.667C67.5422 172.005 111.602 174.67 111.602 174.67Z" fill="#D3CDCB"/>
<path d="M243.671 104.436C244.241 104.893 244.757 105.422 245.187 106.036C246.714 108.211 248.44 111.27 249.122 114.673C250.456 121.338 249.122 122.671 249.122 122.671C249.122 122.671 243.781 121.338 242.446 118.67V106.672C242.446 105.733 242.934 104.912 243.671 104.436Z" fill="#FFAE30"/>
<path d="M228.713 107.065L225.087 85.3418C225.087 85.3418 221.081 77.3435 215.74 77.3435H214.406C212.931 77.3435 211.737 78.5384 211.737 80.0087V88.007C211.737 89.48 212.934 90.6722 214.406 90.6722H215.74H221.257C221.922 90.6722 222.484 91.1595 222.578 91.8176L224.845 107.66C224.982 108.624 225.807 109.337 226.78 109.337C227.993 109.34 228.914 108.255 228.713 107.065Z" fill="#CEC8C6"/>
<path d="M249.121 122.674L239.775 126.672L229.093 118.673H242.446L249.121 122.674Z" fill="#CEC8C6"/>
<path d="M239.775 126.672H235.768L229.093 133.34L215.743 120.006L214.409 118.673H229.093L239.775 126.672Z" fill="#B7B2B0"/>
<path d="M202.39 161.338C202.39 169.876 198.993 178.062 192.95 184.1L187.703 189.339L197.049 209.339V214.672H194.378L156.494 172.007V161.341H202.39V161.338Z" fill="#353433"/>
<path d="M245.115 124.006L239.775 126.674L235.768 133.34L255.797 164.006C255.797 164.006 239.775 218.67 229.093 220.003H155.661L157.909 224.491C160.622 229.912 166.169 233.334 172.24 233.334H229.733C241.652 233.334 252.587 226.726 258.118 216.184L278.494 177.338C278.494 177.338 289.175 177.338 289.175 169.339C289.175 161.338 271.819 136.005 245.115 124.006Z" fill="#B7B2B0"/>
<path d="M255.788 164.034C255.794 164.02 255.797 164.004 255.797 164.004L235.768 133.337L239.775 126.672L245.115 124.006C271.819 136.005 289.175 161.338 289.175 169.337C289.175 171.093 288.643 172.445 287.84 173.513V173.334C276.539 167.068 257.961 164.337 255.788 164.034Z" fill="#E2DDDA"/>
<path d="M255.788 164.034C257.961 164.337 276.539 167.068 287.841 173.337V173.516C284.984 177.321 278.494 177.338 278.494 177.338C278.494 177.338 264.416 167.965 254.953 166.793C255.449 165.179 255.742 164.188 255.788 164.034Z" fill="#A09B9A"/>
<path d="M155.662 220L143.172 201.291C142.609 200.452 142.311 199.463 142.311 198.453C142.311 195.628 144.605 193.334 147.437 193.334H179.696L195.718 214.667V220H155.662Z" fill="#7A7776"/>
<path d="M107.596 146.672H156.996C182.365 146.672 202.39 153.436 202.39 161.782C202.39 167.426 194.692 172.005 189.04 172.005H142.309L102.255 146.672H107.596Z" fill="#625F5E"/>
<path d="M142.308 224.001V227.313C139.047 218.819 133.408 205.782 128.958 204.003C125.923 202.792 116.537 199.37 106.325 194.876C107.618 194.747 108.93 194.672 110.265 194.672C127.963 194.67 142.308 206.33 142.308 224.001Z" fill="#D3CDCB"/>
<path d="M142.309 224.001C142.309 206.327 127.963 194.67 110.265 194.67C108.93 194.67 107.618 194.744 106.325 194.873C98.3454 191.36 89.8643 187.192 83.5117 182.902C88.2293 179.403 93.4266 177.376 98.0614 176.209L142.639 200.223C142.777 200.595 142.945 200.958 143.169 201.291L152.684 215.545C152.984 218.288 152.987 220 152.987 220V224.001C152.987 226.947 150.597 229.334 147.646 229.334H143.072C142.835 228.698 142.579 228.02 142.306 227.313V224.001H142.309Z" fill="#B7B2B0"/>
<path d="M144.98 204.001L143.172 201.289C142.609 200.449 142.311 199.46 142.311 198.45C142.311 195.625 144.605 193.334 147.437 193.334H179.696L195.718 214.667V220H188.932L178.361 204.001H144.98Z" fill="#595756"/>
<path d="M179.693 193.337L156.582 168.86C143.213 154.7 124.585 146.674 105.095 146.674H83.5642C79.1389 146.674 75.5546 150.256 75.5546 154.673C75.5546 159.984 76.2521 161.795 78.4027 164.147C80.2445 166.159 82.453 167.8 84.8573 169.094L142.642 200.226H179.693V193.337Z" fill="#9E9997"/>
<path d="M144.195 187.93H142.807L142.566 187.93C142.137 187.93 142 188.063 142 188.476C142 188.999 142.053 189.416 142.164 189.749C142.841 191.781 143.588 193.728 144.325 195.381C144.494 195.771 144.596 195.918 145.006 195.918H145.995C146.413 195.918 146.514 195.772 146.675 195.384C147.118 194.367 147.585 193.096 148.078 191.75L148.077 191.749L148.113 191.653C148.361 190.977 148.617 190.28 148.873 189.611C148.954 189.392 149 189.247 149 188.838V188.53C149.002 188.112 149.002 187.955 148.464 187.93L145.497 187.93C145.499 188.448 145.499 188.966 145.488 189.484C145.483 189.732 145.567 189.79 145.807 189.782C146.166 189.771 146.525 189.773 146.901 189.775C147.059 189.776 147.221 189.777 147.386 189.777C147.061 190.523 146.74 191.258 146.421 191.99C146.132 192.653 145.844 193.314 145.554 193.979C145.485 193.921 145.491 193.857 145.496 193.799C145.498 193.784 145.499 193.77 145.499 193.756C145.499 193.634 145.498 193.513 145.498 193.392C145.495 192.725 145.492 192.059 145.502 191.392C145.506 191.187 145.435 191.134 145.234 191.139C144.891 191.147 144.548 191.145 144.204 191.143C144.076 191.143 143.949 191.142 143.821 191.142C143.809 191.142 143.797 191.142 143.785 191.143C143.698 191.145 143.644 191.147 143.673 190.985C143.884 189.812 144.025 188.971 144.195 187.93Z" fill="#B3B3B3"/>
<path d="M83.5642 146.672H105.098C124.588 146.672 143.213 154.697 156.582 168.858L179.693 193.334V200.223H167.901L139.127 171.49C132.617 164.989 123.786 161.336 114.58 161.336H79.558C78.5682 161.336 77.6749 161.707 76.9773 162.299C75.9296 160.576 75.5518 158.563 75.5518 154.67C75.5518 150.254 79.1389 146.672 83.5642 146.672Z" fill="#83807F"/>
<path d="M83.5641 146.672H95.5798V161.338H79.5579C78.568 161.338 77.6747 161.71 76.9772 162.302C75.9294 160.578 75.5517 158.566 75.5517 154.673C75.5517 150.254 79.1388 146.672 83.5641 146.672Z" fill="#F2624C"/>
<path d="M57.5281 140.006H126.957C128.062 140.006 128.958 139.111 128.958 138.007C128.958 136.903 128.062 136.008 126.957 136.008H57.5281C56.4225 136.008 55.5264 136.903 55.5264 138.007C55.5236 139.108 56.4225 140.006 57.5281 140.006Z" fill="#353433"/>
<path d="M110.935 157.338C112.04 157.338 112.936 156.443 112.936 155.339V140.006H108.93V155.339C108.93 156.443 109.826 157.338 110.935 157.338Z" fill="#4D4A49"/>
<path d="M218.255 109.519L210.245 109.483C208.77 109.477 207.571 110.664 207.563 112.137L207.552 114.802C207.546 116.275 208.734 117.473 210.209 117.481L218.219 117.517C219.694 117.522 220.894 116.333 220.902 114.863L220.913 112.197C220.918 110.724 219.727 109.524 218.255 109.519Z" fill="#CEC8C6"/>
<path d="M203.584 105.455C203.584 105.455 210.27 102.817 214.271 104.169C218.271 105.521 219.581 110.859 218.23 114.852C218.04 115.413 217.657 115.829 217.116 116.077C216.934 116.162 216.725 116.223 216.532 116.168C216.154 116.063 216.016 115.609 215.964 115.223C215.914 115.738 215.429 116.085 214.99 116.358C214.704 116.537 214.392 116.724 214.056 116.699C213.719 116.677 213.389 116.336 213.513 116.022C213.287 116.272 213.041 116.504 212.779 116.71C212.688 116.782 212.583 116.853 212.47 116.842C212.379 116.834 212.299 116.771 212.233 116.707C211.698 116.201 211.511 115.435 211.351 114.717C210.984 113.084 211.574 110.818 210.245 109.477C208.911 109.472 207.568 110.799 207.563 112.131C207.563 112.131 207.557 113.464 206.192 113.571C205.145 113.654 204.091 113.549 203.041 113.56C202.561 112.25 202.498 110.826 202.478 109.43C202.459 108.062 202.743 106.545 203.584 105.455Z" fill="#FFAE8D"/>
<path d="M203.584 105.455C203.584 105.455 204.102 105.254 204.921 104.992L204.913 106.795C204.907 108.269 206.096 109.466 207.571 109.474L210.24 109.485C208.905 109.48 207.563 110.807 207.557 112.14C207.557 112.14 207.551 113.472 206.187 113.58C205.139 113.662 204.086 113.558 203.035 113.569C202.555 112.258 202.492 110.835 202.473 109.439C202.459 108.062 202.743 106.545 203.584 105.455Z" fill="#FF887D"/>
<path d="M213.366 115.413C213.529 115.405 213.653 115.262 213.645 115.094L213.479 111.226C213.449 110.49 213.132 109.786 212.611 109.29L212.082 108.783C211.96 108.668 211.776 108.679 211.665 108.803C211.555 108.929 211.566 109.122 211.687 109.238L212.217 109.744C212.622 110.13 212.867 110.678 212.892 111.25L213.058 115.119C213.063 115.289 213.201 115.422 213.366 115.413C213.364 115.413 213.364 115.413 213.366 115.413Z" fill="#FF887D"/>
<path d="M215.396 114.51C215.58 114.51 215.729 114.384 215.732 114.224L215.771 110.603C215.776 109.918 215.459 109.243 214.899 108.753L214.326 108.255C214.196 108.142 213.984 108.142 213.854 108.252C213.725 108.365 213.722 108.547 213.852 108.659L214.425 109.158C214.861 109.538 215.109 110.064 215.103 110.598L215.065 114.218C215.062 114.378 215.211 114.507 215.396 114.51Z" fill="#FF887D"/>
<path d="M217.238 113.75C217.422 113.75 217.571 113.624 217.574 113.464L217.612 109.843C217.618 109.158 217.301 108.483 216.741 107.993L216.168 107.495C216.038 107.382 215.826 107.382 215.696 107.492C215.564 107.605 215.564 107.787 215.693 107.9L216.267 108.398C216.703 108.778 216.951 109.304 216.945 109.838L216.907 113.458C216.904 113.618 217.053 113.748 217.238 113.75Z" fill="#FF887D"/>
<path d="M167.801 43.9707L165.102 50.6255C165.102 50.6255 169.083 55.9751 175.761 56.0054L178.45 52.0186C178.45 52.0159 171.808 43.9873 167.801 43.9707Z" fill="#FF7165"/>
<path d="M186.622 27.3518C186.622 27.3518 187.579 29.9675 187.934 33.3237C188.29 36.68 187.901 39.4361 188.044 40.7797C188.188 42.1233 190.347 43.2521 190.487 44.5957C190.631 45.9394 188.612 46.1514 188.612 46.1514C188.612 46.1514 188.122 54.3507 182.001 54.3176C177.76 54.2956 173.181 51.055 170.765 49.0616C169.676 48.164 168.979 46.8892 168.83 45.4878L167.981 37.4675C167.981 37.4675 176.467 27.7456 186.622 27.3518Z" fill="#FFAE8D"/>
<path d="M186.109 35.4631C186.633 35.6255 187.256 35.3529 187.325 34.9289C187.471 34.0148 187.311 32.707 185.097 32.941C181.742 33.2962 182.709 34.4086 182.709 34.4086L186.109 35.4631Z" fill="#8C2E14"/>
<path d="M184.474 38.8744C184.273 40.3529 184.557 41.6112 185.114 41.6883C185.668 41.7654 186.283 40.6283 186.484 39.1497C186.685 37.6712 186.401 36.413 185.844 36.3359C185.29 36.2615 184.678 37.3986 184.474 38.8744Z" fill="#72240E"/>
<path d="M174.956 45.5567C175.193 47.7813 177.189 49.3948 179.417 49.158C181.645 48.9239 183.261 46.9278 183.024 44.7031C182.787 42.4785 180.79 40.865 178.563 41.1018C176.335 41.3359 174.719 43.332 174.956 45.5567Z" fill="#FF887D"/>
<path d="M186.142 48.4889L182.635 47.4592C182.635 47.4592 182.028 48.1585 182.177 49.5434C182.199 49.7554 182.241 49.9674 182.304 50.1739C182.475 50.7026 182.836 51.1266 183.366 51.3193C184.038 51.5643 184.824 51.2808 185.376 50.8623C185.748 50.5814 185.877 50.229 186.018 49.805C186.159 49.381 186.192 48.9322 186.142 48.4889Z" fill="#E25F55"/>
<path d="M190.57 28.0677C190.57 28.0677 194.557 32.3987 193.209 35.6283C191.86 38.8579 175.847 36.6332 175.847 36.6332L175.861 33.3375C175.874 30.3915 178.276 28.0154 181.223 28.0264L190.57 28.0677Z" fill="#6A0604"/>
<path d="M190.57 28.0677L181.223 28.0264C178.273 28.0126 175.872 30.3915 175.861 33.3375L175.827 41.1018C175.816 43.5633 174.135 45.7411 171.728 46.267C170.705 46.49 169.442 46.6359 167.887 46.6359C162.37 46.6332 157.867 42.4399 157.346 36.9526C156.318 26.1376 159.513 15.9339 174.603 16C190.62 16.0688 190.57 28.0677 190.57 28.0677Z" fill="#2E2E2E"/>
<path d="M175.861 33.3375C175.874 30.3915 178.276 28.0154 181.223 28.0264L190.57 28.0677C190.57 28.0677 191.612 29.2048 192.45 30.7439L183.884 30.7054C181.673 30.6971 179.869 32.4785 179.861 34.6866L179.85 37.071C177.531 36.8645 175.847 36.6305 175.847 36.6305L175.861 33.3375Z" fill="#550303"/>
<path d="M165.477 41.2863C169.825 41.1293 173.172 37.3463 173.189 33.0016L173.194 31.9939C173.216 26.8397 177.418 22.6795 182.58 22.7015L188.999 22.7291C190.576 25.4961 190.567 28.0677 190.567 28.0677L181.221 28.0264C178.27 28.0126 175.869 30.3915 175.858 33.3375L175.825 41.1018C175.814 43.5495 174.148 45.7301 171.755 46.2587C170.729 46.4873 169.456 46.6359 167.884 46.6332C162.45 46.6304 157.922 42.6134 157.368 37.2142C157.239 35.9669 157.183 34.7279 157.178 33.5082C157.299 37.9218 160.986 41.4487 165.477 41.2863Z" fill="#1A1A1A"/>
<path d="M168.708 39.973C168.703 40.9559 169.497 41.7543 170.481 41.7571C171.466 41.7626 172.265 40.9697 172.268 39.9867C172.271 39.0038 171.479 38.2053 170.495 38.2026C169.514 38.1998 168.714 38.9928 168.708 39.973Z" fill="#EBF0FC"/>
<path d="M170.501 37.316C171.976 37.3215 173.167 38.522 173.159 39.995C173.153 41.468 171.951 42.6574 170.476 42.6492C169.001 42.6437 167.81 41.4432 167.818 39.9702C167.826 38.4972 169.026 37.3078 170.501 37.316ZM170.481 41.7599C171.466 41.7654 172.265 40.9724 172.268 39.9895C172.273 39.0066 171.479 38.2081 170.495 38.2054C169.511 38.1998 168.711 38.9928 168.708 39.9757C168.706 40.9559 169.5 41.7544 170.481 41.7599Z" fill="#2E2E2E"/>
<path d="M186.299 40.0418C186.376 39.7637 186.443 39.4664 186.487 39.1497C186.578 38.4834 186.564 37.8667 186.478 37.3794C187.027 37.3739 187.565 37.3546 188.083 37.3271C188.061 38.4091 188.014 39.3342 188.02 40.0473C187.452 40.0556 186.878 40.0528 186.299 40.0418Z" fill="#FF887D"/>
<path d="M169.081 46.6057C170.101 46.5534 170.98 46.4322 171.725 46.2698C174.132 45.7439 175.814 43.5633 175.825 41.1046L175.844 36.636C175.844 36.636 180.407 37.2692 184.865 37.3711C184.692 37.7896 184.551 38.3072 184.474 38.8799C184.422 39.2681 184.402 39.6398 184.413 39.9785C180.597 39.7857 177.167 39.3094 177.167 39.3094L177.159 41.5313C175.703 42.2692 174.774 43.8414 174.956 45.5594C175.031 46.2615 175.295 46.892 175.673 47.4344C174.981 48.1695 174.088 48.7174 173.048 48.9432C172.45 49.0754 171.758 49.1745 170.986 49.2378C170.917 49.1827 170.834 49.1194 170.765 49.0644C169.977 48.4091 169.4 47.5556 169.081 46.6057Z" fill="#FF887D"/>
<path d="M186.476 37.3794C186.564 37.8694 186.575 38.4834 186.484 39.1497C186.44 39.4664 186.376 39.7637 186.299 40.0418C185.671 40.028 185.036 40.006 184.416 39.9757C184.405 39.6343 184.424 39.2654 184.477 38.8771C184.554 38.3072 184.695 37.7896 184.868 37.3711C185.409 37.3794 185.946 37.3849 186.476 37.3794Z" fill="#3C0201"/>
<path d="M175.673 47.4316C175.295 46.8892 175.031 46.2587 174.956 45.5566C174.774 43.8386 175.703 42.2665 177.159 41.5286L177.148 43.7753C177.143 45.1712 176.586 46.4652 175.673 47.4316Z" fill="#FF7165"/>
<path d="M171.044 19.973C170.961 20.7742 170.583 21.5066 170.12 22.1344C168.995 23.6624 167.396 24.6591 165.982 25.8651C164.586 27.0573 163.415 28.4229 161.532 27.6492C159.913 26.9857 160.247 24.2269 160.851 22.8612C161.556 21.2643 162.872 20.0942 164.239 19.1415C165.422 18.3155 167.087 17.3436 168.524 17.2417C169.933 17.1399 171.206 18.4009 171.044 19.973Z" fill="#4D4D4D"/>
<path d="M175.736 61.3358C175.736 61.3358 179.759 57.3545 177.101 54.6756C174.443 51.9966 166.456 46.6304 163.779 47.952C161.101 49.2736 162.425 51.9471 162.425 51.9471C162.425 51.9471 159.761 50.6007 159.748 53.2686L159.737 55.9338C159.737 55.9338 149.033 61.2202 146.339 66.5423C143.646 71.8644 132.849 98.4833 132.838 101.148C132.827 103.814 134.144 107.82 136.808 109.166C136.808 109.166 132.807 107.814 132.796 110.482C132.785 113.15 131.404 123.808 139.413 123.844C147.423 123.88 171.41 134.648 176.784 126.672C176.784 126.672 178.124 125.344 175.466 122.665C175.466 122.665 179.478 121.349 178.155 118.679C176.831 116.005 175.524 109.334 175.524 109.334L175.736 61.3358Z" fill="#006CCE"/>
<path d="M164.926 59.3479C164.184 58.7257 163.393 58.164 162.648 57.5445C162.4 57.338 162.138 56.9884 162.337 56.7323C162.411 56.6359 162.535 56.5891 162.654 56.5561C164.377 56.088 166.282 57.4509 167.931 56.7653C166.519 55.7549 165.163 54.6646 163.87 53.5054C163.332 53.0236 162.803 52.506 162.381 51.925C162.406 51.9361 162.422 51.9443 162.422 51.9443C162.422 51.9443 161.099 49.2736 163.776 47.9493C166.453 46.6277 174.441 51.9966 177.098 54.6728C179.756 57.3518 175.734 61.3331 175.734 61.3331L175.679 73.7917C173.991 71.0164 172.218 68.2934 170.346 65.642C168.744 63.376 167.057 61.1321 164.926 59.3479Z" fill="#03598E"/>
<path d="M171.049 63.9404C172.957 67.1838 174.556 74.0698 176.958 88.007L178.27 93.3456C178.27 93.3456 180.934 94.6892 180.928 96.0246C180.928 96.0246 188.224 97.5967 195.596 100.088C199.597 101.438 199.597 101.438 202.261 102.784C202.261 102.784 204.924 104.128 204.913 106.795C204.902 109.461 204.877 114.794 202.208 114.783C199.539 114.772 168.83 114.64 166.177 110.628C163.525 106.617 160.906 94.6067 159.613 85.2675C158.678 78.5329 155.717 59.9179 166.392 61.2973C168.303 61.3055 170.082 62.2967 171.049 63.9404Z" fill="#006CCE"/>
<path d="M139.764 112.985C141.515 115.873 144.63 117.514 147.658 118.767C151.214 120.24 154.531 122.189 158.204 123.373C161.885 124.56 165.745 125.185 169.613 125.21C170.308 125.215 171.168 125.086 171.389 124.428C171.535 123.993 171.3 123.505 170.942 123.216C170.586 122.927 170.131 122.795 169.687 122.671C166.927 121.892 164.082 121.248 161.366 120.322C158.857 119.469 156.243 118.957 153.778 117.916C151.683 117.03 149.259 116.52 148.159 114.295C148.002 113.979 147.892 113.569 148.121 113.302C148.267 113.134 148.504 113.081 148.727 113.051C150.577 112.787 152.449 113.178 154.316 113.216C155.67 113.246 157.117 113.057 158.297 112.343C159.637 111.534 160.01 110.066 160.112 108.58C160.25 106.597 160.236 104.604 160.07 102.622C159.864 100.157 159.425 97.7151 159.199 95.2537C158.841 91.3743 159.012 87.4811 159.373 83.5962C159.455 84.2075 159.538 84.7719 159.604 85.2675C160.9 94.6067 163.517 106.617 166.169 110.628C167.076 111.996 171.256 112.916 176.473 113.53C176.947 115.402 177.548 117.459 178.152 118.679C179.475 121.352 175.464 122.668 175.464 122.668C178.122 125.347 176.782 126.674 176.782 126.674C171.408 134.651 147.42 123.88 139.411 123.847C131.401 123.811 132.783 113.153 132.794 110.485C132.805 107.82 136.805 109.169 136.805 109.169C137.803 109.667 139.187 112.032 139.764 112.985Z" fill="#03598E"/>
<path d="M159.615 84.2653C159.637 84.2653 159.659 84.2625 159.681 84.2598C159.863 84.224 159.979 84.0478 159.946 83.8688C159.908 83.6706 156.174 64.1111 163.828 61.6001C164.002 61.5423 164.098 61.3523 164.041 61.1789C163.983 61.0027 163.792 60.909 163.619 60.9669C155.411 63.6596 159.13 83.1667 159.293 83.9954C159.323 84.1551 159.461 84.2653 159.615 84.2653Z" fill="#0057A5"/>
<path d="M86.8617 108.178C86.8617 108.321 86.7459 108.437 86.6025 108.437L86.8617 108.178Z" fill="#D4D8E0"/>
<path d="M81.9512 108.954C81.8078 108.954 81.692 108.839 81.692 108.695L81.9512 108.954Z" fill="#D4D8E0"/>
</svg>
