<svg width="327" height="223" viewBox="0 0 327 223" fill="none" xmlns="http://www.w3.org/2000/svg">
<g clip-path="url(#clip0_4120_22931)">
<path d="M176.42 223.313C257.838 223.313 323.84 218.782 323.84 213.193C323.84 207.604 257.838 203.073 176.42 203.073C95.0023 203.073 29 207.604 29 213.193C29 218.782 95.0023 223.313 176.42 223.313Z" fill="#4D4D4D"/>
<path d="M64.5191 199.605C64.5191 199.605 34.9031 128.893 6.57239 153.487C-21.7584 178.081 54.1915 187.302 60.8999 201.348L64.5191 199.605Z" fill="#63A5A2"/>
<path d="M63.5372 198.004C63.5372 198.004 78.7702 151.317 54.5866 151.114C30.403 150.91 63.66 187.679 61.0301 197.302L63.5372 198.004Z" fill="#28645B"/>
<path d="M62.7551 198.019C62.6938 198.049 62.6239 198.056 62.5576 198.039C62.481 198.02 62.4146 197.971 62.3731 197.904C62.3316 197.836 62.3184 197.755 62.3363 197.678C62.3509 197.616 63.796 191.361 63.6668 183.154C63.5479 175.598 62.0312 164.79 55.485 156.215C55.4398 156.152 55.4206 156.073 55.4315 155.997C55.4424 155.92 55.4826 155.851 55.5436 155.804C55.6045 155.756 55.6814 155.735 55.7581 155.744C55.8348 155.753 55.9051 155.792 55.9544 155.852C58.8935 159.702 61.0864 164.306 62.4757 169.537C63.5839 173.715 64.1839 178.298 64.2603 183.166C64.3888 191.443 62.9292 197.757 62.914 197.821C62.9038 197.864 62.8843 197.904 62.8569 197.938C62.8294 197.972 62.7946 198 62.7551 198.019Z" fill="#498981"/>
<path d="M60.9667 165.454C60.9165 165.478 60.8605 165.487 60.8051 165.481C60.7497 165.474 60.6971 165.452 60.6534 165.417C60.6096 165.382 60.5765 165.335 60.5577 165.282C60.539 165.229 60.5353 165.172 60.5473 165.117L62.4412 156.467C62.4485 156.428 62.4636 156.39 62.4856 156.357C62.5076 156.324 62.536 156.295 62.5692 156.274C62.6024 156.252 62.6397 156.237 62.6789 156.23C62.718 156.223 62.7583 156.224 62.7972 156.233C62.8361 156.242 62.8729 156.258 62.9054 156.282C62.9379 156.305 62.9654 156.335 62.9863 156.369C63.0072 156.404 63.0211 156.442 63.0271 156.481C63.0331 156.521 63.0312 156.561 63.0213 156.6L61.1274 165.25C61.1177 165.294 61.0983 165.336 61.0704 165.371C61.0426 165.406 61.0072 165.435 60.9667 165.454Z" fill="#498981"/>
<path d="M59.7901 162.85C59.7522 162.868 59.7108 162.877 59.6688 162.878C59.6268 162.879 59.585 162.87 59.5463 162.854L49.0634 158.397C49.0237 158.384 48.987 158.364 48.9557 158.336C48.9243 158.308 48.8991 158.274 48.8815 158.236C48.864 158.198 48.8545 158.157 48.8537 158.115C48.853 158.073 48.8609 158.032 48.8771 157.994C48.8932 157.955 48.9172 157.921 48.9475 157.892C48.9778 157.864 49.0137 157.842 49.0529 157.829C49.0922 157.816 49.1338 157.811 49.1752 157.814C49.2166 157.818 49.2568 157.83 49.2933 157.851L59.7762 162.307C59.8291 162.33 59.8745 162.367 59.907 162.415C59.9396 162.462 59.9578 162.518 59.9596 162.576C59.9614 162.634 59.9466 162.69 59.917 162.739C59.8875 162.788 59.8443 162.828 59.7929 162.853L59.7901 162.85Z" fill="#498981"/>
<path d="M62.698 171.413C62.6607 171.431 62.62 171.441 62.5785 171.443C62.5369 171.444 62.4956 171.436 62.457 171.42L51.3357 166.865C51.2625 166.834 51.2039 166.777 51.1729 166.703C51.1419 166.63 51.1409 166.548 51.1701 166.475C51.1994 166.401 51.2565 166.343 51.329 166.312C51.4014 166.281 51.4832 166.281 51.5564 166.311L62.6777 170.867C62.7311 170.889 62.7772 170.926 62.8103 170.973C62.8434 171.021 62.8622 171.077 62.8643 171.135C62.8665 171.193 62.8519 171.25 62.8224 171.299C62.7928 171.348 62.7496 171.388 62.698 171.413Z" fill="#498981"/>
<path d="M63.9072 179.424C63.8689 179.442 63.8271 179.452 63.7845 179.453C63.7419 179.454 63.6996 179.445 63.6605 179.428L55.1297 175.688C55.0915 175.674 55.0566 175.652 55.0269 175.624C54.9973 175.596 54.9737 175.562 54.9574 175.525C54.9412 175.487 54.9327 175.447 54.9324 175.406C54.9322 175.366 54.9403 175.325 54.9562 175.288C54.972 175.25 54.9953 175.217 55.0247 175.189C55.054 175.161 55.0887 175.14 55.1267 175.126C55.1647 175.112 55.2052 175.106 55.2456 175.109C55.2861 175.111 55.3256 175.122 55.3619 175.14L63.8927 178.88C63.945 178.903 63.9898 178.941 64.0217 178.988C64.0537 179.036 64.0715 179.092 64.073 179.149C64.0745 179.206 64.0597 179.262 64.0303 179.311C64.0009 179.36 63.9582 179.399 63.9072 179.424Z" fill="#498981"/>
<path d="M63.5465 176.052C63.4863 176.08 63.4181 176.087 63.353 176.072C63.2879 176.056 63.2297 176.019 63.1878 175.966C63.1458 175.914 63.1226 175.849 63.1218 175.782C63.1211 175.714 63.1428 175.649 63.1835 175.596L66.5498 171.206C66.6008 171.154 66.6695 171.122 66.7425 171.118C66.8156 171.113 66.8879 171.136 66.9455 171.182C67.0032 171.228 67.0423 171.293 67.0551 171.366C67.068 171.439 67.0538 171.513 67.0153 171.576L63.6496 175.967C63.622 176.003 63.5868 176.031 63.5465 176.052Z" fill="#498981"/>
<path d="M62.1239 169.17C62.0672 169.197 62.0031 169.206 61.9411 169.194C61.8791 169.182 61.8222 169.151 61.7788 169.104C61.7353 169.058 61.7075 168.999 61.6994 168.936C61.6913 168.873 61.7034 168.809 61.7337 168.754L65.3438 162.256C65.382 162.186 65.4461 162.136 65.5218 162.115C65.5976 162.093 65.6789 162.103 65.7478 162.142C65.8167 162.181 65.8676 162.246 65.8893 162.323C65.911 162.399 65.9017 162.481 65.8635 162.55L62.2535 169.048C62.2238 169.101 62.1786 169.144 62.1239 169.17Z" fill="#498981"/>
<path d="M64.0904 183.255C64.0287 183.284 63.9587 183.29 63.8923 183.273C63.8259 183.257 63.7671 183.217 63.7259 183.162C63.6846 183.107 63.6634 183.039 63.6658 182.971C63.6683 182.902 63.6942 182.836 63.7392 182.785L66.2265 179.99C66.279 179.931 66.3527 179.896 66.4314 179.892C66.5101 179.888 66.5874 179.916 66.6463 179.969C66.7051 180.022 66.7407 180.097 66.7452 180.176C66.7496 180.255 66.7226 180.333 66.6701 180.392L64.1795 183.18C64.1551 183.21 64.1249 183.236 64.0904 183.255Z" fill="#498981"/>
<path d="M64.037 187.468C63.9913 187.49 63.9405 187.5 63.8897 187.497C63.8389 187.493 63.7897 187.477 63.7471 187.448L57.9322 183.659C57.8658 183.616 57.819 183.548 57.8021 183.47C57.7852 183.393 57.7996 183.312 57.8421 183.245C57.8846 183.179 57.9517 183.132 58.0287 183.116C58.1057 183.099 58.1863 183.115 58.2527 183.158L64.0664 186.947C64.0993 186.969 64.1277 186.997 64.1501 187.029C64.1724 187.061 64.1882 187.098 64.1966 187.136C64.205 187.175 64.2057 187.214 64.1989 187.253C64.192 187.292 64.1776 187.328 64.1566 187.361C64.1276 187.408 64.0861 187.445 64.037 187.468Z" fill="#498981"/>
<path d="M60.7637 201.339C60.7637 201.339 45.748 183.221 29.9604 183C14.1729 182.78 4.77322 198.017 12.6242 205.5C19.3952 211.952 26.9595 196.365 38.3135 195.596C49.6674 194.827 55.8021 203.727 55.8021 203.727L60.7637 201.339Z" fill="#498981"/>
<path d="M59.7959 202.138C59.7354 202.167 59.6667 202.175 59.601 202.159C59.5353 202.144 59.4766 202.106 59.4346 202.053C59.4094 202.022 56.8866 198.852 52.7286 195.441C48.9061 192.297 42.8858 188.293 35.9058 187.072C28.9751 185.858 23.0399 189.154 19.282 192.135C16.7903 194.117 14.5741 196.426 12.6914 199.001C12.6692 199.034 12.6409 199.061 12.608 199.082C12.5751 199.104 12.5384 199.118 12.4999 199.125C12.4614 199.132 12.4218 199.131 12.3835 199.123C12.3452 199.114 12.3088 199.098 12.2765 199.075C12.2442 199.053 12.2166 199.024 12.1952 198.991C12.1739 198.958 12.1592 198.921 12.152 198.882C12.1449 198.843 12.1454 198.803 12.1535 198.765C12.1617 198.726 12.1773 198.69 12.1994 198.657C14.1118 196.038 16.3639 193.688 18.8964 191.671C22.7521 188.611 28.8479 185.226 36.0015 186.483C43.1112 187.729 49.2284 191.796 53.1078 194.99C57.3065 198.443 59.8667 201.652 59.8924 201.685C59.9168 201.715 59.9349 201.751 59.9458 201.788C59.9567 201.826 59.9601 201.865 59.9559 201.904C59.9516 201.943 59.9398 201.981 59.9211 202.015C59.9023 202.049 59.8771 202.079 59.8467 202.103C59.831 202.116 59.8139 202.128 59.7959 202.138Z" fill="#63A5A2"/>
<path d="M16.8612 194.23C16.8243 194.248 16.7841 194.258 16.7431 194.259L12.8906 194.389C12.8148 194.388 12.7423 194.357 12.6881 194.303C12.6339 194.249 12.6019 194.177 12.5988 194.1C12.5957 194.024 12.6217 193.95 12.6714 193.893C12.7211 193.836 12.7908 193.8 12.8662 193.793L16.7205 193.666C16.7887 193.664 16.8558 193.685 16.9105 193.726C16.9653 193.768 17.0043 193.827 17.0211 193.894C17.0379 193.96 17.0314 194.031 17.0027 194.093C16.974 194.155 16.9248 194.205 16.8635 194.235L16.8612 194.23Z" fill="#63A5A2"/>
<path d="M23.9294 189.101C23.8893 189.12 23.8455 189.131 23.8008 189.132L16.0254 189.181C15.9466 189.182 15.8705 189.151 15.8139 189.095C15.7574 189.04 15.7249 188.964 15.7236 188.885C15.7224 188.805 15.7526 188.729 15.8074 188.672C15.8623 188.616 15.9374 188.584 16.0162 188.583L23.7916 188.534C23.8593 188.534 23.9252 188.557 23.9785 188.6C24.0317 188.642 24.069 188.702 24.0843 188.768C24.0996 188.835 24.0918 188.904 24.0624 188.965C24.0329 189.027 23.9835 189.076 23.9224 189.104L23.9294 189.101Z" fill="#63A5A2"/>
<path d="M30.8534 186.913C30.8146 186.932 30.7721 186.942 30.7289 186.943C30.6856 186.943 30.6427 186.934 30.6032 186.916L25.4164 184.572C25.3808 184.556 25.3487 184.533 25.3218 184.504C25.2949 184.475 25.2739 184.442 25.2598 184.405C25.2458 184.369 25.239 184.33 25.2399 184.29C25.2408 184.251 25.2494 184.213 25.2652 184.177C25.2809 184.141 25.3035 184.109 25.3317 184.082C25.3598 184.055 25.393 184.034 25.4293 184.021C25.4656 184.007 25.5044 184 25.5433 184.002C25.5822 184.003 25.6206 184.012 25.6562 184.028L30.8424 186.371C30.8942 186.395 30.9384 186.432 30.9698 186.48C31.0012 186.528 31.0184 186.583 31.0196 186.64C31.0207 186.697 31.0057 186.753 30.9763 186.802C30.9468 186.85 30.9042 186.889 30.8534 186.913Z" fill="#63A5A2"/>
<path d="M18.7809 202.284C18.7322 202.307 18.6782 202.316 18.6245 202.311C18.5856 202.307 18.5477 202.296 18.5131 202.277C18.4786 202.258 18.4479 202.233 18.423 202.203C18.398 202.172 18.3792 202.137 18.3677 202.099C18.3562 202.062 18.3522 202.022 18.3558 201.983L19.3075 191.478C19.3111 191.439 19.3223 191.401 19.3404 191.366C19.3586 191.332 19.3833 191.301 19.4133 191.276C19.4433 191.251 19.4779 191.233 19.5152 191.221C19.5524 191.21 19.5916 191.206 19.6305 191.21C19.6694 191.214 19.7071 191.225 19.7417 191.244C19.7762 191.262 19.8069 191.287 19.8318 191.318C19.8568 191.348 19.8757 191.383 19.8873 191.421C19.8988 191.458 19.903 191.498 19.8994 191.537L18.9466 202.043C18.942 202.094 18.9244 202.143 18.8954 202.185C18.8663 202.227 18.8269 202.261 18.7809 202.284Z" fill="#63A5A2"/>
<path d="M26.8387 196.962C26.7888 196.987 26.7329 196.996 26.6777 196.989C26.6389 196.985 26.6013 196.973 26.567 196.954C26.5327 196.935 26.5024 196.909 26.4779 196.879C26.4534 196.848 26.4351 196.813 26.424 196.775C26.413 196.737 26.4095 196.698 26.4137 196.659L27.3914 187.243C27.3996 187.165 27.4385 187.093 27.4998 187.043C27.561 186.994 27.6394 186.971 27.7178 186.98C27.7962 186.988 27.8682 187.028 27.9178 187.09C27.9675 187.152 27.9908 187.231 27.9826 187.31L27.0038 196.726C26.9988 196.777 26.981 196.825 26.9521 196.866C26.9232 196.908 26.8842 196.941 26.8387 196.962Z" fill="#63A5A2"/>
<path d="M33.9042 192.189C33.8363 192.221 33.7586 192.226 33.687 192.202C33.6153 192.179 33.5549 192.129 33.5179 192.063C33.481 191.997 33.4702 191.919 33.4878 191.846C33.5053 191.772 33.55 191.708 33.6126 191.667L39.9342 187.582C39.9668 187.558 40.0039 187.542 40.0432 187.533C40.0825 187.525 40.1232 187.524 40.1627 187.532C40.2023 187.54 40.2399 187.556 40.2734 187.578C40.3068 187.601 40.3354 187.631 40.3573 187.665C40.3792 187.699 40.394 187.737 40.4008 187.777C40.4077 187.817 40.4064 187.858 40.397 187.897C40.3877 187.937 40.3704 187.974 40.3464 188.006C40.3224 188.038 40.292 188.065 40.2572 188.085L33.9369 192.17L33.9042 192.189Z" fill="#63A5A2"/>
<path d="M48.1928 191.956C48.1645 191.97 48.1346 191.979 48.1037 191.983L43.637 192.558C43.5607 192.564 43.4846 192.541 43.4245 192.493C43.3644 192.444 43.325 192.375 43.3145 192.298C43.304 192.222 43.3233 192.144 43.3682 192.082C43.4132 192.02 43.4804 191.978 43.5558 191.965L48.0295 191.387C48.0992 191.379 48.1699 191.396 48.2289 191.435C48.288 191.474 48.3315 191.532 48.3518 191.6C48.3721 191.668 48.3678 191.741 48.3398 191.806C48.3117 191.87 48.2617 191.923 48.1986 191.954L48.1928 191.956Z" fill="#63A5A2"/>
<path d="M63.3308 200.509C63.2617 200.543 63.1821 200.548 63.109 200.523C63.036 200.498 62.9751 200.446 62.9393 200.377C62.8956 200.286 58.2271 191.416 49.7451 181.853C41.9282 173.042 29.1747 161.823 12.8196 158.418C12.7813 158.41 12.7449 158.395 12.7124 158.373C12.68 158.351 12.6521 158.323 12.6304 158.29C12.5866 158.223 12.5707 158.142 12.586 158.065C12.6014 157.987 12.6469 157.919 12.7124 157.875C12.778 157.832 12.8583 157.816 12.9356 157.833C20.2344 159.352 27.4343 162.522 34.3346 167.254C39.8484 171.036 45.1876 175.822 50.1967 181.469C58.7246 191.085 63.418 200.013 63.464 200.103C63.5006 200.173 63.5081 200.255 63.4849 200.33C63.4617 200.406 63.4096 200.468 63.3401 200.505L63.3308 200.509Z" fill="#498981"/>
<path d="M28.2354 163.935C28.1668 163.968 28.0881 163.973 28.0156 163.949C27.9431 163.925 27.8822 163.874 27.8457 163.806L21.2776 151.66C21.2567 151.626 21.243 151.587 21.2373 151.547C21.2316 151.507 21.2341 151.466 21.2445 151.427C21.2549 151.388 21.273 151.352 21.2978 151.32C21.3226 151.289 21.3535 151.263 21.3888 151.244C21.424 151.224 21.4628 151.213 21.5027 151.209C21.5427 151.206 21.583 151.21 21.6213 151.223C21.6596 151.235 21.695 151.255 21.7254 151.282C21.7558 151.309 21.7806 151.341 21.7983 151.378L28.3664 163.523C28.3852 163.558 28.397 163.596 28.4013 163.635C28.4055 163.674 28.402 163.714 28.3911 163.751C28.3801 163.789 28.3618 163.824 28.3373 163.855C28.3128 163.885 28.2826 163.91 28.2483 163.929L28.2354 163.935Z" fill="#498981"/>
<path d="M24.2273 162.071L24.1923 162.088L7.47905 167.586C7.44176 167.599 7.40211 167.605 7.36243 167.603C7.32275 167.601 7.28385 167.59 7.24804 167.573C7.21223 167.555 7.18024 167.531 7.15395 167.5C7.12766 167.47 7.10759 167.435 7.09496 167.397C7.08233 167.359 7.07737 167.319 7.0804 167.279C7.08342 167.239 7.09436 167.2 7.11256 167.165C7.13076 167.13 7.15586 167.098 7.18636 167.073C7.21687 167.048 7.25217 167.029 7.29018 167.017L23.9988 161.519C24.0703 161.496 24.148 161.501 24.2164 161.533C24.2849 161.565 24.3388 161.622 24.3674 161.692C24.3959 161.763 24.397 161.841 24.3704 161.912C24.3437 161.982 24.2914 162.04 24.2238 162.073L24.2273 162.071Z" fill="#498981"/>
<path d="M36.2916 169.187L36.2601 169.203L18.7052 175.248C18.6678 175.264 18.6276 175.271 18.587 175.271C18.5464 175.27 18.5063 175.261 18.4692 175.244C18.4321 175.227 18.3987 175.203 18.3712 175.173C18.3436 175.142 18.3225 175.107 18.3091 175.068C18.2957 175.03 18.2903 174.989 18.2932 174.948C18.2961 174.907 18.3073 174.867 18.3261 174.831C18.3448 174.795 18.3708 174.764 18.4023 174.738C18.4338 174.713 18.4703 174.694 18.5094 174.683L36.0642 168.638C36.1354 168.614 36.2129 168.619 36.2811 168.651C36.3494 168.683 36.4034 168.739 36.4323 168.809C36.4612 168.879 36.4629 168.957 36.437 169.028C36.4111 169.098 36.3596 169.156 36.2927 169.19L36.2916 169.187Z" fill="#498981"/>
<path d="M45.8194 177.394C45.8071 177.402 45.7943 177.408 45.7809 177.413L32.0647 181.762C31.991 181.782 31.9124 181.772 31.8452 181.735C31.778 181.697 31.7274 181.636 31.7039 181.562C31.6804 181.489 31.6859 181.41 31.7191 181.341C31.7523 181.272 31.8107 181.218 31.8822 181.192L45.5984 176.843C45.6694 176.822 45.7458 176.829 45.8127 176.861C45.8795 176.894 45.9319 176.951 45.9596 177.02C45.9873 177.09 45.9882 177.167 45.9623 177.237C45.9363 177.306 45.8854 177.364 45.8194 177.397L45.8194 177.394Z" fill="#498981"/>
<path d="M41.9741 173.785C41.9391 173.802 41.9011 173.811 41.8624 173.813C41.8232 173.815 41.7839 173.81 41.7467 173.797C41.7096 173.784 41.6753 173.763 41.6459 173.737C41.6164 173.711 41.5925 173.679 41.5754 173.643C41.5583 173.607 41.5484 173.569 41.5462 173.529L41.0107 164.893C41.0099 164.817 41.0383 164.743 41.0901 164.687C41.142 164.631 41.2133 164.598 41.2893 164.594C41.3653 164.59 41.4402 164.615 41.4986 164.665C41.557 164.714 41.5943 164.785 41.603 164.861L42.1385 173.497C42.143 173.556 42.1297 173.615 42.1004 173.667C42.0711 173.718 42.0271 173.759 41.9741 173.785Z" fill="#498981"/>
<path d="M33.3501 167.132C33.3285 167.143 33.3056 167.15 33.2819 167.155C33.2048 167.17 33.1243 167.154 33.0583 167.111C32.9922 167.067 32.9458 166.999 32.9293 166.921L30.5423 155.551C30.532 155.512 30.5296 155.471 30.5355 155.431C30.5413 155.391 30.5551 155.352 30.5762 155.318C30.5973 155.283 30.6251 155.254 30.658 155.231C30.6909 155.207 30.7281 155.191 30.7675 155.183C30.8069 155.175 30.8476 155.175 30.8871 155.183C30.9266 155.192 30.9641 155.208 30.9974 155.231C31.0306 155.254 31.0588 155.284 31.0804 155.318C31.102 155.352 31.1164 155.391 31.1228 155.431L33.5103 166.802C33.5242 166.868 33.5159 166.936 33.4869 166.995C33.4578 167.055 33.4097 167.103 33.3501 167.132Z" fill="#498981"/>
<path d="M49.9166 181.726C49.8758 181.745 49.8309 181.754 49.7858 181.753C49.7469 181.752 49.7084 181.743 49.6728 181.727C49.6371 181.711 49.6048 181.688 49.5777 181.66C49.5507 181.632 49.5295 181.598 49.5153 181.562C49.501 181.525 49.4941 181.486 49.4948 181.447L49.567 175.604C49.5715 175.527 49.6052 175.455 49.6611 175.403C49.717 175.351 49.7908 175.323 49.8672 175.325C49.9436 175.326 50.0167 175.357 50.0713 175.412C50.1259 175.466 50.1579 175.539 50.1606 175.616L50.0884 181.459C50.0877 181.515 50.0713 181.57 50.0409 181.618C50.0105 181.665 49.9675 181.702 49.9166 181.726Z" fill="#498981"/>
<path d="M54.1248 186.749C54.0976 186.762 54.0686 186.771 54.0386 186.776L43.433 188.275C43.355 188.286 43.2756 188.265 43.2123 188.217C43.149 188.17 43.1069 188.099 43.0954 188.02C43.0838 187.941 43.1037 187.862 43.1507 187.798C43.1977 187.735 43.268 187.693 43.346 187.682L53.9533 186.189C54.0233 186.18 54.0945 186.196 54.1542 186.235C54.214 186.273 54.2582 186.332 54.2791 186.4C54.3 186.468 54.2961 186.541 54.2681 186.606C54.2401 186.671 54.1899 186.724 54.1265 186.755L54.1248 186.749Z" fill="#498981"/>
<path d="M41.1342 186.528C31.0166 186.209 22.584 181.427 23.4264 170.35C24.7343 153.15 44.0868 151.687 58.1545 149.535C65.1269 148.47 75.3728 149.561 78.4725 141.861C80.1976 137.575 79.184 132.636 77.0043 128.551C76.4426 127.495 75.7713 126.442 74.7497 125.784C73.6344 125.068 72.2437 124.911 70.9118 124.767C55.8652 123.152 40.9068 120.765 26.1197 117.618C24.0336 117.173 21.8271 116.651 20.3294 115.176C18.7488 113.619 18.2808 111.325 17.9625 109.164C16.1973 97.1451 16.8659 84.7974 19.9202 73.0243C20.5487 70.6018 21.4259 68.0022 23.5789 66.6302C25.114 65.6506 27.0343 65.4785 28.8663 65.3342C51.5459 63.5446 74.2228 61.7575 96.9024 59.9678C101.684 59.5907 107.475 58.4972 109.023 54.1003C110.569 49.7161 106.766 44.3472 109.438 40.5021C111.2 37.9607 114.843 37.5911 118.001 37.4747C143.834 36.5204 169.683 36.0496 195.534 36.0622C201.996 36.0648 208.46 36.0977 214.922 36.1609C220.19 36.2116 226.061 35.6522 231.399 36.366C232.169 36.4698 232.929 36.5989 233.675 36.7609C241.634 38.4897 252.771 40.8641 257.467 47.9163C260.939 53.1308 260.65 60.1881 257.63 65.6607C254.611 71.1334 249.2 75.1101 243.285 77.4971C239.626 78.9754 235.103 80.5777 234.421 84.3569C233.793 87.8375 236.983 90.8219 240.113 92.6343C250.313 98.5322 262.605 99.5776 274.29 101.658C284.514 103.481 301.331 107.521 306.052 117.932C308.841 124.088 307.846 134.451 307.747 141.063C307.627 149.113 306.785 157.152 305.217 165.06C304.495 168.702 303.562 172.444 301.219 175.377C297.034 180.617 289.561 181.966 282.771 182.774C260.217 185.457 237.478 186.325 214.767 186.933C156.899 188.479 98.9885 188.345 41.1342 186.528Z" fill="#CFE9FC"/>
<path d="M121.961 1.06213H57.3993C55.4269 1.06213 53.8279 2.6891 53.8279 4.69606V205.262C53.8279 207.269 55.4269 208.896 57.3993 208.896H121.961C123.934 208.896 125.533 207.269 125.533 205.262V4.69606C125.533 2.6891 123.934 1.06213 121.961 1.06213Z" fill="#0060C6"/>
<path d="M129.737 -0.31311H65.1749C63.2025 -0.31311 61.6035 1.31385 61.6035 3.32081V205.263C61.6035 207.27 63.2025 208.897 65.1749 208.897H129.737C131.71 208.897 133.309 207.27 133.309 205.263V3.32081C133.309 1.31385 131.71 -0.31311 129.737 -0.31311Z" fill="white"/>
<path d="M132.761 -0.31311H68.1987C66.2263 -0.31311 64.6273 1.31385 64.6273 3.32081V205.263C64.6273 207.27 66.2263 208.897 68.1987 208.897H132.761C134.733 208.897 136.332 207.27 136.332 205.263V3.32081C136.332 1.31385 134.733 -0.31311 132.761 -0.31311Z" fill="url(#paint0_linear_4120_22931)"/>
<path d="M283.686 209.065C283.686 209.065 280.394 146.049 310.188 154.17C339.981 162.29 286.951 196.253 286.992 209.065H283.686Z" fill="#63A5A2"/>
<path d="M283.843 207.528C283.843 207.528 255.872 178.346 273.734 169.558C291.595 160.77 280.064 199.914 285.451 206.112L283.843 207.528Z" fill="#28645B"/>
<path d="M284.428 207.259C284.484 207.26 284.538 207.24 284.581 207.203C284.632 207.162 284.664 207.102 284.67 207.037C284.677 206.972 284.657 206.907 284.617 206.857C284.584 206.816 281.278 202.694 278.443 196.561C275.832 190.915 273.097 182.359 274.889 173.661C274.9 173.598 274.886 173.533 274.851 173.48C274.815 173.427 274.761 173.39 274.699 173.377C274.637 173.364 274.572 173.376 274.519 173.41C274.465 173.444 274.427 173.498 274.412 173.56C273.607 177.465 273.625 181.662 274.463 186.037C275.133 189.532 276.325 193.144 278.007 196.782C280.868 202.966 284.205 207.127 284.239 207.169C284.262 207.197 284.291 207.22 284.324 207.236C284.356 207.251 284.392 207.259 284.428 207.259Z" fill="#498981"/>
<path d="M274.124 182.471C274.17 182.471 274.214 182.458 274.253 182.433C274.292 182.408 274.323 182.373 274.343 182.332C274.363 182.29 274.371 182.243 274.366 182.197C274.361 182.151 274.343 182.108 274.315 182.071L269.821 176.333C269.801 176.306 269.777 176.284 269.749 176.267C269.72 176.25 269.689 176.24 269.657 176.235C269.624 176.231 269.591 176.233 269.56 176.242C269.528 176.251 269.499 176.266 269.473 176.286C269.447 176.307 269.426 176.332 269.41 176.361C269.395 176.39 269.385 176.422 269.382 176.455C269.378 176.488 269.382 176.521 269.391 176.553C269.401 176.584 269.417 176.614 269.438 176.639L273.932 182.377C273.955 182.407 273.984 182.43 274.017 182.446C274.05 182.463 274.087 182.471 274.124 182.471Z" fill="#498981"/>
<path d="M274.066 180.119C274.101 180.119 274.135 180.111 274.166 180.097C274.198 180.082 274.226 180.061 274.248 180.035L280.431 172.986C280.456 172.963 280.475 172.934 280.489 172.902C280.502 172.871 280.509 172.837 280.508 172.802C280.508 172.768 280.5 172.734 280.486 172.702C280.471 172.671 280.45 172.643 280.425 172.621C280.399 172.598 280.369 172.581 280.336 172.571C280.304 172.56 280.269 172.557 280.236 172.561C280.202 172.565 280.169 172.576 280.14 172.594C280.11 172.612 280.085 172.635 280.065 172.663L273.883 179.712C273.852 179.748 273.831 179.792 273.824 179.839C273.817 179.885 273.823 179.933 273.843 179.977C273.862 180.02 273.893 180.057 273.933 180.083C273.972 180.109 274.018 180.122 274.065 180.122L274.066 180.119Z" fill="#498981"/>
<path d="M274.968 187.508C275.002 187.509 275.036 187.502 275.067 187.488C275.098 187.474 275.126 187.453 275.149 187.428L281.77 180.077C281.813 180.029 281.836 179.965 281.833 179.9C281.83 179.834 281.801 179.773 281.753 179.729C281.705 179.685 281.642 179.662 281.577 179.665C281.513 179.668 281.452 179.697 281.408 179.746L274.788 187.096C274.756 187.131 274.735 187.175 274.728 187.222C274.72 187.269 274.726 187.318 274.745 187.361C274.764 187.405 274.796 187.442 274.835 187.468C274.875 187.494 274.921 187.508 274.968 187.508Z" fill="#498981"/>
<path d="M276.932 193.881C276.967 193.881 277.002 193.873 277.034 193.859C277.066 193.844 277.094 193.823 277.117 193.796L282.107 187.976C282.131 187.952 282.149 187.923 282.161 187.892C282.173 187.86 282.178 187.827 282.177 187.793C282.176 187.76 282.167 187.727 282.153 187.696C282.139 187.666 282.118 187.639 282.093 187.617C282.068 187.595 282.039 187.578 282.007 187.568C281.975 187.558 281.942 187.554 281.909 187.558C281.876 187.561 281.844 187.571 281.815 187.587C281.785 187.604 281.76 187.626 281.74 187.653L276.749 193.473C276.718 193.508 276.699 193.552 276.692 193.599C276.685 193.646 276.692 193.693 276.711 193.736C276.731 193.779 276.762 193.816 276.801 193.841C276.84 193.867 276.886 193.881 276.932 193.881Z" fill="#498981"/>
<path d="M275.996 191.251C276.05 191.251 276.103 191.232 276.146 191.197C276.189 191.162 276.219 191.114 276.231 191.06C276.244 191.006 276.237 190.949 276.214 190.899C276.191 190.849 276.151 190.809 276.102 190.784L272.038 188.73C271.981 188.71 271.919 188.711 271.863 188.734C271.808 188.757 271.762 188.8 271.736 188.854C271.709 188.909 271.704 188.971 271.72 189.03C271.737 189.088 271.774 189.138 271.825 189.171L275.889 191.225C275.922 191.242 275.959 191.251 275.996 191.251Z" fill="#498981"/>
<path d="M274.593 185.64C274.645 185.64 274.695 185.623 274.737 185.592C274.779 185.561 274.81 185.518 274.825 185.468C274.841 185.418 274.841 185.365 274.824 185.315C274.808 185.265 274.776 185.222 274.734 185.192L269.736 181.662C269.683 181.625 269.617 181.61 269.553 181.621C269.489 181.633 269.433 181.669 269.396 181.723C269.358 181.776 269.344 181.842 269.355 181.907C269.366 181.971 269.402 182.029 269.455 182.066L274.453 185.596C274.494 185.625 274.543 185.64 274.593 185.64Z" fill="#498981"/>
<path d="M278.165 196.787C278.221 196.787 278.275 196.767 278.318 196.731C278.362 196.694 278.391 196.644 278.402 196.588C278.413 196.533 278.404 196.475 278.378 196.425C278.352 196.375 278.309 196.335 278.257 196.313L275.415 195.129C275.355 195.104 275.287 195.104 275.228 195.13C275.168 195.155 275.12 195.203 275.096 195.264C275.071 195.324 275.071 195.392 275.096 195.452C275.121 195.513 275.169 195.561 275.229 195.586L278.072 196.764C278.101 196.778 278.132 196.786 278.165 196.787Z" fill="#498981"/>
<path d="M279.709 199.893C279.751 199.893 279.792 199.882 279.829 199.861C279.865 199.841 279.895 199.811 279.917 199.774L282.876 194.888C282.91 194.832 282.92 194.765 282.905 194.701C282.89 194.638 282.85 194.583 282.795 194.549C282.74 194.515 282.673 194.504 282.61 194.519C282.547 194.535 282.493 194.575 282.459 194.63L279.501 199.517C279.485 199.545 279.473 199.575 279.468 199.607C279.463 199.639 279.465 199.672 279.472 199.704C279.48 199.735 279.493 199.765 279.512 199.791C279.531 199.817 279.555 199.839 279.582 199.856C279.62 199.88 279.664 199.893 279.709 199.893Z" fill="#498981"/>
<path d="M287.091 209.01C287.091 209.01 291.755 190.211 303.384 184.409C315.013 178.607 327.426 186.55 324.276 194.903C321.559 202.106 310.383 193.249 301.688 196.733C292.994 200.218 291.623 209.009 291.623 209.009L287.091 209.01Z" fill="#498981"/>
<path d="M288.093 209.257C288.149 209.257 288.202 209.238 288.246 209.203C288.289 209.168 288.319 209.12 288.331 209.065C288.339 209.033 289.077 205.781 290.943 201.766C292.654 198.07 295.689 192.951 300.429 189.552C305.135 186.176 310.714 186.501 314.565 187.369C317.121 187.95 319.589 188.871 321.905 190.108C321.933 190.124 321.964 190.134 321.996 190.138C322.028 190.142 322.06 190.14 322.091 190.131C322.122 190.122 322.152 190.108 322.177 190.088C322.202 190.068 322.224 190.043 322.239 190.015C322.255 189.986 322.266 189.955 322.269 189.923C322.273 189.891 322.271 189.858 322.263 189.826C322.254 189.795 322.239 189.766 322.22 189.74C322.2 189.714 322.175 189.693 322.147 189.677C319.793 188.417 317.284 187.479 314.686 186.888C310.733 185.995 305.004 185.663 300.148 189.149C295.32 192.612 292.237 197.813 290.5 201.567C288.62 205.628 287.867 208.922 287.86 208.955C287.853 208.987 287.852 209.019 287.857 209.051C287.863 209.083 287.874 209.113 287.891 209.141C287.908 209.168 287.931 209.192 287.957 209.21C287.983 209.229 288.012 209.242 288.043 209.249C288.06 209.254 288.077 209.256 288.093 209.257Z" fill="#63A5A2"/>
<path d="M317.109 188.059C317.143 188.059 317.176 188.052 317.207 188.038L320.111 186.759C320.166 186.73 320.209 186.681 320.23 186.622C320.251 186.563 320.249 186.498 320.224 186.44C320.199 186.383 320.153 186.337 320.096 186.312C320.038 186.287 319.974 186.286 319.915 186.308L317.012 187.59C316.96 187.613 316.918 187.652 316.893 187.703C316.867 187.753 316.859 187.811 316.87 187.866C316.882 187.922 316.912 187.972 316.955 188.007C316.998 188.043 317.053 188.063 317.109 188.063V188.059Z" fill="#63A5A2"/>
<path d="M310.035 186.779C310.072 186.78 310.108 186.772 310.142 186.757L315.926 184.016C315.984 183.989 316.03 183.938 316.052 183.877C316.074 183.815 316.071 183.748 316.043 183.688C316.016 183.629 315.966 183.583 315.906 183.561C315.845 183.539 315.778 183.542 315.719 183.569L309.935 186.31C309.885 186.334 309.844 186.375 309.82 186.425C309.796 186.476 309.789 186.533 309.802 186.588C309.814 186.643 309.845 186.692 309.888 186.726C309.932 186.761 309.986 186.78 310.042 186.779H310.035Z" fill="#63A5A2"/>
<path d="M304.12 187.63C304.155 187.63 304.19 187.623 304.222 187.607C304.255 187.592 304.283 187.57 304.306 187.543L307.315 183.952C307.336 183.927 307.351 183.898 307.361 183.868C307.371 183.837 307.375 183.804 307.372 183.772C307.369 183.74 307.36 183.709 307.346 183.68C307.331 183.651 307.311 183.626 307.286 183.605C307.262 183.584 307.234 183.568 307.203 183.558C307.173 183.549 307.141 183.545 307.109 183.548C307.077 183.55 307.046 183.559 307.017 183.574C306.989 183.589 306.964 183.609 306.943 183.634L303.934 187.224C303.904 187.26 303.885 187.304 303.878 187.35C303.872 187.397 303.879 187.444 303.899 187.487C303.918 187.529 303.949 187.566 303.988 187.591C304.028 187.616 304.073 187.63 304.12 187.63Z" fill="#63A5A2"/>
<path d="M318.562 194.717C318.606 194.717 318.649 194.704 318.687 194.681C318.715 194.664 318.739 194.642 318.758 194.616C318.777 194.59 318.791 194.56 318.798 194.529C318.806 194.497 318.807 194.465 318.802 194.433C318.797 194.4 318.786 194.37 318.77 194.342L314.312 186.891C314.295 186.864 314.274 186.84 314.248 186.82C314.222 186.801 314.193 186.787 314.161 186.78C314.13 186.772 314.098 186.77 314.066 186.775C314.035 186.78 314.004 186.791 313.977 186.808C313.949 186.825 313.925 186.847 313.906 186.873C313.887 186.899 313.874 186.929 313.866 186.96C313.858 186.992 313.857 187.024 313.862 187.056C313.866 187.088 313.877 187.119 313.894 187.147L318.353 194.597C318.374 194.634 318.405 194.664 318.442 194.685C318.478 194.706 318.52 194.717 318.562 194.717Z" fill="#63A5A2"/>
<path d="M310.686 193.648C310.731 193.649 310.776 193.636 310.815 193.611C310.842 193.594 310.866 193.571 310.884 193.545C310.903 193.519 310.916 193.489 310.923 193.458C310.931 193.426 310.932 193.393 310.926 193.361C310.921 193.33 310.91 193.299 310.893 193.272L306.805 186.638C306.771 186.583 306.716 186.543 306.653 186.528C306.59 186.514 306.523 186.525 306.468 186.559C306.413 186.594 306.374 186.649 306.36 186.713C306.345 186.776 306.356 186.843 306.39 186.899L310.479 193.532C310.501 193.568 310.531 193.597 310.567 193.618C310.603 193.638 310.644 193.649 310.686 193.648Z" fill="#63A5A2"/>
<path d="M303.741 192.632C303.803 192.631 303.862 192.607 303.907 192.564C303.952 192.521 303.979 192.463 303.983 192.4C303.986 192.338 303.967 192.277 303.927 192.229C303.888 192.18 303.832 192.149 303.771 192.141L297.624 191.369C297.591 191.363 297.558 191.364 297.526 191.372C297.494 191.379 297.463 191.394 297.437 191.414C297.41 191.434 297.388 191.459 297.371 191.488C297.355 191.516 297.344 191.548 297.34 191.582C297.336 191.615 297.338 191.648 297.348 191.68C297.357 191.712 297.372 191.742 297.393 191.768C297.414 191.794 297.44 191.815 297.47 191.831C297.499 191.846 297.531 191.855 297.564 191.858L303.71 192.63L303.741 192.632Z" fill="#63A5A2"/>
<path d="M293.062 197.563C293.088 197.562 293.113 197.558 293.138 197.551L296.655 196.381C296.714 196.359 296.762 196.315 296.79 196.257C296.817 196.2 296.821 196.134 296.802 196.074C296.782 196.013 296.74 195.963 296.685 195.933C296.629 195.903 296.564 195.896 296.504 195.913L292.98 197.082C292.925 197.101 292.879 197.139 292.849 197.189C292.819 197.239 292.808 197.298 292.817 197.355C292.826 197.413 292.855 197.465 292.899 197.503C292.943 197.541 292.999 197.562 293.057 197.563H293.062Z" fill="#63A5A2"/>
<path d="M284.89 209.312C284.954 209.312 285.014 209.287 285.06 209.243C285.105 209.198 285.131 209.138 285.133 209.074C285.133 208.991 285.428 200.746 288.302 190.625C290.952 181.298 296.403 168.424 307.316 160.058C307.342 160.038 307.363 160.014 307.379 159.986C307.396 159.958 307.406 159.927 307.41 159.895C307.419 159.83 307.402 159.764 307.363 159.712C307.324 159.66 307.266 159.626 307.202 159.617C307.138 159.608 307.072 159.625 307.021 159.665C302.151 163.398 297.944 168.32 294.517 174.295C291.778 179.068 289.528 184.524 287.83 190.501C284.94 200.678 284.648 208.975 284.646 209.058C284.644 209.123 284.668 209.186 284.712 209.234C284.756 209.282 284.817 209.31 284.882 209.312H284.89Z" fill="#498981"/>
<path d="M297.854 169.655C297.917 169.654 297.977 169.63 298.022 169.586C298.067 169.543 298.094 169.483 298.097 169.42L298.63 158.067C298.633 158.034 298.63 158 298.62 157.968C298.61 157.937 298.593 157.907 298.572 157.882C298.55 157.857 298.524 157.837 298.494 157.822C298.464 157.807 298.432 157.799 298.399 157.798C298.366 157.796 298.333 157.801 298.302 157.813C298.271 157.824 298.243 157.842 298.219 157.865C298.195 157.888 298.176 157.916 298.163 157.946C298.15 157.977 298.143 158.01 298.143 158.043L297.61 169.396C297.609 169.429 297.613 169.461 297.624 169.491C297.635 169.522 297.652 169.55 297.673 169.574C297.695 169.598 297.721 169.618 297.75 169.631C297.779 169.645 297.811 169.653 297.843 169.655H297.854Z" fill="#498981"/>
<path d="M300.161 166.841H300.193L314.551 164.949C314.583 164.946 314.615 164.936 314.643 164.92C314.672 164.904 314.697 164.883 314.717 164.857C314.738 164.831 314.753 164.801 314.761 164.769C314.77 164.738 314.772 164.704 314.768 164.672C314.764 164.639 314.753 164.608 314.737 164.579C314.72 164.551 314.698 164.526 314.672 164.506C314.646 164.486 314.616 164.472 314.585 164.464C314.553 164.456 314.52 164.455 314.488 164.46L300.133 166.35C300.072 166.358 300.016 166.389 299.977 166.438C299.938 166.486 299.918 166.548 299.922 166.61C299.926 166.672 299.953 166.731 299.998 166.774C300.043 166.816 300.102 166.841 300.164 166.841H300.161Z" fill="#498981"/>
<path d="M293.756 176.427H293.785L308.962 174.641C308.995 174.639 309.028 174.63 309.058 174.615C309.088 174.6 309.114 174.579 309.136 174.553C309.157 174.528 309.173 174.498 309.183 174.465C309.192 174.433 309.195 174.399 309.192 174.366C309.188 174.332 309.177 174.3 309.16 174.271C309.144 174.242 309.121 174.216 309.094 174.196C309.068 174.176 309.037 174.162 309.005 174.154C308.972 174.146 308.938 174.146 308.906 174.152L293.728 175.938C293.667 175.946 293.611 175.977 293.572 176.025C293.533 176.073 293.513 176.135 293.516 176.197C293.52 176.259 293.546 176.317 293.591 176.36C293.635 176.404 293.694 176.428 293.756 176.429V176.427Z" fill="#498981"/>
<path d="M289.621 185.916C289.633 185.917 289.645 185.917 289.656 185.916L301.381 184.242C301.443 184.231 301.498 184.195 301.534 184.144C301.571 184.092 301.586 184.028 301.578 183.966C301.569 183.903 301.537 183.846 301.487 183.807C301.438 183.767 301.376 183.749 301.313 183.755L289.588 185.428C289.528 185.438 289.474 185.47 289.436 185.518C289.398 185.567 289.379 185.627 289.384 185.689C289.388 185.75 289.415 185.808 289.459 185.85C289.503 185.893 289.561 185.917 289.622 185.918L289.621 185.916Z" fill="#498981"/>
<path d="M291.184 181.866C291.216 181.866 291.247 181.859 291.277 181.846C291.306 181.834 291.334 181.816 291.357 181.793C291.38 181.77 291.398 181.743 291.41 181.713C291.423 181.683 291.429 181.651 291.429 181.618C291.429 181.586 291.422 181.553 291.41 181.523L288.723 174.928C288.696 174.871 288.648 174.826 288.59 174.803C288.532 174.781 288.467 174.781 288.409 174.805C288.351 174.829 288.305 174.875 288.279 174.933C288.254 174.99 288.251 175.056 288.272 175.115L290.959 181.711C290.977 181.756 291.008 181.796 291.048 181.823C291.088 181.851 291.135 181.866 291.184 181.866Z" fill="#498981"/>
<path d="M295.203 173.852C295.223 173.852 295.243 173.85 295.262 173.845C295.325 173.829 295.379 173.788 295.412 173.732C295.445 173.676 295.455 173.609 295.44 173.545L293.149 164.261C293.143 164.228 293.13 164.197 293.111 164.169C293.093 164.142 293.069 164.118 293.041 164.1C293.013 164.082 292.982 164.07 292.949 164.065C292.916 164.059 292.883 164.061 292.851 164.069C292.819 164.077 292.789 164.091 292.762 164.112C292.736 164.132 292.714 164.157 292.697 164.186C292.681 164.215 292.671 164.247 292.667 164.28C292.663 164.314 292.666 164.347 292.676 164.379L294.967 173.665C294.98 173.718 295.01 173.766 295.053 173.8C295.096 173.834 295.149 173.852 295.203 173.852Z" fill="#498981"/>
<path d="M288.13 190.592C288.167 190.591 288.203 190.582 288.236 190.565C288.265 190.55 288.29 190.53 288.311 190.505C288.332 190.481 288.348 190.452 288.358 190.422C288.367 190.391 288.371 190.359 288.369 190.326C288.366 190.294 288.357 190.263 288.343 190.234L286.203 185.927C286.172 185.871 286.121 185.83 286.061 185.812C286.001 185.793 285.936 185.799 285.88 185.827C285.824 185.855 285.781 185.904 285.76 185.964C285.739 186.024 285.741 186.09 285.767 186.147L287.907 190.455C287.928 190.496 287.959 190.531 287.999 190.556C288.038 190.58 288.084 190.592 288.13 190.592Z" fill="#498981"/>
<path d="M286.803 195.819C286.828 195.819 286.853 195.816 286.876 195.808L295.277 193.133C295.339 193.113 295.39 193.069 295.42 193.011C295.45 192.953 295.456 192.885 295.436 192.823C295.417 192.761 295.373 192.709 295.316 192.678C295.258 192.648 295.191 192.642 295.13 192.662L286.73 195.343C286.675 195.361 286.628 195.399 286.597 195.448C286.567 195.498 286.555 195.558 286.564 195.616C286.573 195.674 286.602 195.727 286.646 195.765C286.69 195.803 286.746 195.824 286.804 195.825L286.803 195.819Z" fill="#498981"/>
<path d="M133.309 7.33484H68.5146V191.315H133.309V7.33484Z" fill="#87C791"/>
<path d="M58.0303 41.0018H56.5376C56.2342 41.0018 55.9882 41.2521 55.9882 41.5609V76.9506C55.9882 77.2594 56.2342 77.5097 56.5376 77.5097H58.0303C58.3337 77.5097 58.5797 77.2594 58.5797 76.9506V41.5609C58.5797 41.2521 58.3337 41.0018 58.0303 41.0018Z" fill="white"/>
<path d="M133.424 87.1079H68.631V202.147H133.424V87.1079Z" fill="#87C791"/>
<path d="M87 36H79V101H87V36Z" fill="#F2F2F2"/>
<path d="M87.4376 133.585H79.3387V202.146H87.4376V133.585Z" fill="#F2F2F2"/>
<path d="M133.417 111.83H103.527V117.434H133.417V111.83Z" fill="#F2F2F2"/>
<path d="M68.6318 160.944L133.425 183.029V170.503L68.6382 153.653L68.6318 160.944Z" fill="#F2F2F2"/>
<path d="M68.6383 149.829L75.2097 152.027V137.962L68.6383 134.666V149.829Z" fill="#F2F2F2"/>
<path d="M68.6383 193.561L75.2097 195.978V169.387L68.6383 166.75V193.561Z" fill="#F2F2F2"/>
<path d="M99.6154 133.583C99.6154 133.583 98.968 135.982 92.7042 137.082L94 145.654H110.85L108.687 133.583H99.6154Z" fill="#F2F2F2"/>
<path d="M93.7838 148.731V155.543L112.574 159.938L111.711 148.731H93.7838Z" fill="#F2F2F2"/>
<path d="M117.973 159.938L133.425 164.773V148.731H116.03L117.973 159.938Z" fill="#F2F2F2"/>
<path d="M112.907 133.584L115.743 145.653H133.425V135.211L132.746 133.584H112.907Z" fill="#F2F2F2"/>
<path d="M110.846 120.602L112.907 130.576H132.489L129.139 120.602H110.846Z" fill="#F2F2F2"/>
<path d="M89.8966 202.146H113.654V180.376L89.8966 172.464V202.146Z" fill="#F2F2F2"/>
<path d="M119.023 202.146H133.425V187.305L119.023 182.133V202.146Z" fill="#F2F2F2"/>
<path d="M85.0028 99.2209C78.5687 99.2209 72.7592 101.375 68.631 104.834V130.034C72.7592 133.493 78.5687 135.646 85.0028 135.646C97.5275 135.646 107.68 127.491 107.68 117.434C107.68 107.378 97.5275 99.2209 85.0028 99.2209Z" fill="#F2F2F2"/>
<path d="M85.0028 130.575C94.0406 130.575 101.367 124.692 101.367 117.434C101.367 110.176 94.0406 104.292 85.0028 104.292C75.9649 104.292 68.6383 110.176 68.6383 117.434C68.6383 124.692 75.9649 130.575 85.0028 130.575Z" fill="#7C8CB0"/>
<path d="M93.6803 94.7839H93.8882C93.8882 94.7839 93.8515 94.7457 93.7838 94.6711L93.6803 94.7839Z" fill="#E22D2D"/>
<path d="M120.681 71.6425C118.079 69.2918 114.709 67.9947 111.218 68C103.366 68 97 74.4314 97 82.3641C97 86.0792 100.118 91.0738 103.433 95.3358C107.198 100.174 111.218 104.068 111.218 104.068C111.218 104.068 125.438 90.2968 125.438 82.3634C125.44 80.3383 125.018 78.3356 124.197 76.4877C123.377 74.6397 122.179 72.9883 120.681 71.6425ZM111.139 75.0119C112.468 75.0119 113.767 75.41 114.872 76.156C115.977 76.9019 116.838 77.9621 117.347 79.2026C117.855 80.443 117.989 81.8079 117.729 83.1248C117.47 84.4416 116.83 85.6512 115.89 86.6006C114.95 87.55 113.753 88.1966 112.45 88.4585C111.146 88.7204 109.795 88.586 108.567 88.0722C107.339 87.5584 106.29 86.6883 105.551 85.5719C104.813 84.4556 104.419 83.1431 104.419 81.8004C104.419 80.9089 104.593 80.0261 104.93 79.2024C105.268 78.3788 105.763 77.6304 106.387 77C107.011 76.3696 107.752 75.8696 108.567 75.5284C109.382 75.1873 110.256 75.0118 111.139 75.0119Z" fill="#FF6342"/>
<path d="M120.747 71.7266C121.656 74.7596 123.047 81.0975 120.813 86.2481C117.757 93.2909 112.218 98.5975 110.021 98.3083C109.009 98.1737 106.231 96.8109 103.529 95.3795C107.288 100.21 111.301 104.097 111.301 104.097C111.301 104.097 125.496 90.3493 125.496 82.4293C125.498 80.4076 125.076 78.4084 124.257 76.5636C123.439 74.7188 122.242 73.0702 120.747 71.7266Z" fill="#D93D26"/>
<path d="M125.061 7.07397V35.9944H148.71V40.4986C148.707 41.1966 148.885 41.883 149.225 42.4893C149.564 43.0956 150.055 43.6005 150.646 43.9536C151.72 44.5863 153.127 45.0196 154.576 44.3496C155.95 43.7151 156.785 42.2774 156.785 40.7455V35.9935L134.105 7.07397H125.061Z" fill="white"/>
<path d="M116.961 7.07397V35.9944H140.609V40.4986C140.606 41.1966 140.784 41.883 141.124 42.4893C141.464 43.0956 141.954 43.6005 142.546 43.9536C143.619 44.5863 145.026 45.0196 146.474 44.3496C147.848 43.7151 148.684 42.2774 148.684 40.7455V35.9935L126.006 7.07397H116.961Z" fill="url(#paint1_linear_4120_22931)"/>
<path d="M108.862 7.07397V35.9944H132.51V40.4986C132.507 41.1966 132.685 41.8831 133.025 42.4894C133.365 43.0957 133.855 43.6006 134.447 43.9536C135.519 44.5863 136.927 45.0196 138.375 44.3496C139.749 43.7151 140.585 42.2774 140.585 40.7455V35.9935L117.907 7.07397H108.862Z" fill="white"/>
<path d="M100.844 6.96411V35.9721H124.386V40.4987C124.384 41.1909 124.559 41.8718 124.895 42.4739C125.23 43.076 125.715 43.5784 126.3 43.9314C127.363 44.565 128.756 44.9992 130.191 44.3283C131.548 43.6938 132.377 42.2663 132.377 40.7466V35.9721L109.836 6.96411H100.844Z" fill="url(#paint2_linear_4120_22931)"/>
<path d="M92.663 7.07397V35.9944H116.311V40.4986C116.309 41.1966 116.486 41.883 116.826 42.4893C117.166 43.0956 117.656 43.6005 118.248 43.9536C119.321 44.5863 120.729 45.0196 122.177 44.3496C123.55 43.7151 124.386 42.2774 124.386 40.7455V35.9935L101.71 7.07397H92.663Z" fill="white"/>
<path d="M84.5641 7.07397V35.9944H108.211V40.4986C108.209 41.1966 108.386 41.8831 108.726 42.4894C109.066 43.0957 109.556 43.6006 110.148 43.9536C111.221 44.5863 112.628 45.0196 114.077 44.3496C115.45 43.7151 116.287 42.2774 116.287 40.7455V35.9935L93.6099 7.07397H84.5641Z" fill="url(#paint3_linear_4120_22931)"/>
<path d="M76.4642 7.07397V35.9944H100.113V40.4986C100.111 41.1965 100.288 41.8829 100.628 42.4892C100.968 43.0955 101.458 43.6005 102.049 43.9536C103.123 44.5863 104.53 45.0196 105.979 44.3496C107.352 43.7151 108.188 42.2774 108.188 40.7455V35.9935L85.51 7.07397H76.4642Z" fill="white"/>
<path d="M68.3654 7.07397V37.1079H92.0137V40.4986C92.0112 41.1966 92.1888 41.883 92.5287 42.4893C92.8685 43.0956 93.3588 43.6005 93.9505 43.9536C95.0237 44.5863 96.4313 45.0196 97.8791 44.3496C99.2527 43.7151 100.089 42.2774 100.089 40.7455V35.9935L77.4111 7.07397H68.3654Z" fill="url(#paint4_linear_4120_22931)"/>
<path d="M303.041 204.059C311.59 195.361 311.59 181.259 303.041 172.56C294.492 163.862 280.632 163.862 272.084 172.56C263.535 181.259 263.535 195.361 272.084 204.059C280.632 212.758 294.492 212.758 303.041 204.059Z" fill="#1A1A1A"/>
<path d="M288.006 205.569C297.374 205.569 304.969 197.842 304.969 188.31C304.969 178.778 297.374 171.051 288.006 171.051C278.638 171.051 271.044 178.778 271.044 188.31C271.044 197.842 278.638 205.569 288.006 205.569Z" fill="#C3CADA"/>
<path d="M290.64 195.975C294.488 194.792 296.666 190.659 295.503 186.744C294.341 182.828 290.279 180.613 286.43 181.796C282.582 182.978 280.405 187.111 281.567 191.027C282.73 194.943 286.792 197.158 290.64 195.975Z" fill="#94A1BC"/>
<path d="M270.286 104.395C263.58 103.538 261.212 108.302 261.212 108.302L264.326 118.245L271.506 117.768C271.841 117.747 272.162 117.624 272.426 117.414C272.691 117.204 272.887 116.917 272.988 116.592C273.402 115.232 273.773 112.399 272.854 106.92C272.749 106.275 272.442 105.681 271.98 105.227C271.517 104.772 270.924 104.48 270.286 104.395Z" fill="#4D4D4D"/>
<path d="M273.424 146.242L271.987 163.805L286.706 159.239C286.566 158.936 286.024 157.723 284.198 153.572C281.145 146.628 273.424 146.242 273.424 146.242Z" fill="#B3B3B3"/>
<path d="M286.706 159.24C286.799 159.444 286.713 159.24 286.713 159.24H286.706Z" fill="#7DC3BE"/>
<path d="M286.713 159.237C274.611 160.355 270.119 165.084 270.119 165.084L260.439 186.022L307.724 176.052C307.724 176.052 298.814 158.121 286.713 159.237Z" fill="#808080"/>
<mask id="mask0_4120_22931" style="mask-type:luminance" maskUnits="userSpaceOnUse" x="260" y="159" width="48" height="28">
<path d="M307.724 176.056C307.724 176.056 298.815 158.121 286.713 159.237C274.611 160.352 270.116 165.084 270.116 165.084L260.437 186.022L307.724 176.056Z" fill="white"/>
</mask>
<g mask="url(#mask0_4120_22931)">
<path d="M308.567 173.964C307.204 172.676 305.141 172.621 303.283 172.699C294.299 173.077 285.435 174.835 276.519 176.029C275.804 176.122 275.064 176.215 274.371 176.011C273.677 175.807 273.037 175.228 272.988 174.494C272.934 173.708 273.546 173.037 274.193 172.601C274.84 172.165 275.582 171.83 276.057 171.203C276.531 170.576 276.58 169.516 275.91 169.12C275.613 168.944 275.223 168.924 274.994 168.665C274.501 168.106 275.236 167.322 275.818 166.854C277.71 165.326 278.578 162.599 277.925 160.234C277.858 159.994 277.77 159.746 277.582 159.587C277.303 159.35 276.896 159.378 276.537 159.432C272.149 160.084 268.172 162.584 265.06 165.8C261.948 169.016 259.623 172.926 257.545 176.912C256.683 178.565 255.848 180.267 255.535 182.112C255.223 183.957 255.498 185.983 256.666 187.423C258.26 189.393 261.033 189.817 263.541 189.894C268.686 190.052 273.818 189.35 278.904 188.546C288.487 187.031 298.317 185.024 306.336 179.473C307.424 178.718 308.548 177.785 308.808 176.472C308.968 175.663 308.77 174.831 308.573 174.03L308.567 173.964Z" fill="#4D4D4D"/>
</g>
<path d="M170.959 212.176C183.048 212.176 192.849 202.204 192.849 189.903C192.849 177.602 183.048 167.63 170.959 167.63C158.869 167.63 149.069 177.602 149.069 189.903C149.069 202.204 158.869 212.176 170.959 212.176Z" fill="#1A1A1A"/>
<path d="M183.397 202.108C190.021 195.368 190.021 184.44 183.397 177.699C176.772 170.959 166.032 170.959 159.408 177.699C152.784 184.44 152.784 195.368 159.408 202.108C166.032 208.848 176.772 208.848 183.397 202.108Z" fill="#D8D2D5"/>
<path d="M170.959 197.288C174.967 197.288 178.217 193.982 178.217 189.903C178.217 185.824 174.967 182.518 170.959 182.518C166.95 182.518 163.7 185.824 163.7 189.903C163.7 193.982 166.95 197.288 170.959 197.288Z" fill="#422B18"/>
<path d="M269.951 131.645C268.036 123.924 267.797 111.789 261.93 107.278C256.064 102.767 253.909 110.692 253.909 110.692C258.579 113.007 262.05 133.959 263.966 143.218C265.882 152.476 260.373 177.693 238.824 181.104C217.275 184.514 207.576 164.292 210.287 153.085C202.581 152.598 197.878 144.598 197.878 144.598C197.878 144.598 191.533 145.167 167.469 145.289C147.575 152.201 145.223 178.401 145.045 188.08C145.036 188.553 145.119 189.023 145.29 189.463C145.462 189.903 145.717 190.303 146.042 190.642C146.366 190.98 146.754 191.25 147.182 191.435C147.61 191.62 148.07 191.716 148.535 191.718L194.885 191.945C194.885 191.945 234.394 198.645 255.465 188.943C276.536 179.24 276.297 149.431 275.1 144.07C273.902 138.71 271.538 138.041 269.951 131.645Z" fill="#808080"/>
<path d="M198.038 140.49H167.852C167.279 140.49 166.815 140.963 166.815 141.546V144.47C166.815 145.053 167.279 145.526 167.852 145.526H198.038C198.611 145.526 199.076 145.053 199.076 144.47V141.546C199.076 140.963 198.611 140.49 198.038 140.49Z" fill="#1A1A1A"/>
<path d="M194.406 138.496C194.406 138.496 198.178 152.293 210.286 153.085C215.211 149.309 220.26 138.496 220.26 138.496C220.26 138.496 202.128 134.751 197.998 133.107C193.868 131.462 194.406 138.496 194.406 138.496Z" fill="#1A1A1A"/>
<path d="M184.23 149.065C153.7 143.583 139.907 189.916 146.949 191.324C153.101 192.554 194.885 191.945 194.885 191.945C194.885 191.945 214.759 154.548 184.23 149.065Z" fill="#4D4D4D"/>
<path d="M170.881 168.703C157.739 168.703 147.086 179.233 147.086 192.231H194.676C194.676 179.24 184.023 168.703 170.881 168.703Z" fill="white"/>
<path d="M179.04 179.09H162.882C162.833 179.09 162.787 179.11 162.752 179.145C162.718 179.18 162.699 179.227 162.699 179.276C162.699 179.326 162.718 179.373 162.752 179.408C162.787 179.443 162.833 179.463 162.882 179.463H179.044C179.092 179.463 179.139 179.443 179.173 179.408C179.208 179.373 179.227 179.326 179.227 179.276C179.227 179.227 179.208 179.18 179.173 179.145C179.139 179.11 179.092 179.09 179.044 179.09H179.04Z" fill="#1A1A1A"/>
<path d="M177.962 181.93H163.596C163.547 181.93 163.501 181.95 163.466 181.985C163.432 182.02 163.413 182.067 163.413 182.116C163.413 182.166 163.432 182.213 163.466 182.248C163.501 182.283 163.547 182.303 163.596 182.303H177.962C178.011 182.303 178.057 182.283 178.092 182.248C178.126 182.213 178.145 182.166 178.145 182.116C178.145 182.067 178.126 182.02 178.092 181.985C178.057 181.95 178.011 181.93 177.962 181.93Z" fill="#1A1A1A"/>
<path d="M176.287 184.937H165.629C165.58 184.937 165.534 184.957 165.5 184.991C165.465 185.026 165.446 185.074 165.446 185.123C165.446 185.173 165.465 185.22 165.5 185.255C165.534 185.29 165.58 185.31 165.629 185.31H176.284C176.332 185.31 176.379 185.29 176.413 185.255C176.448 185.22 176.467 185.173 176.467 185.123C176.467 185.074 176.448 185.026 176.413 184.991C176.379 184.957 176.332 184.937 176.284 184.937H176.287Z" fill="#1A1A1A"/>
<path d="M255.765 108.775C255.321 108.775 254.887 108.908 254.518 109.159C254.149 109.41 253.862 109.767 253.692 110.184C253.522 110.601 253.478 111.06 253.564 111.503C253.651 111.946 253.864 112.352 254.178 112.672C254.492 112.991 254.892 113.208 255.327 113.296C255.762 113.384 256.213 113.339 256.623 113.166C257.033 112.994 257.384 112.701 257.63 112.326C257.877 111.95 258.008 111.509 258.008 111.057C258.008 110.758 257.95 110.461 257.838 110.184C257.725 109.907 257.56 109.655 257.351 109.443C257.143 109.231 256.896 109.063 256.623 108.948C256.351 108.833 256.059 108.774 255.765 108.775Z" fill="#1A1A1A"/>
<path d="M178.816 198.727C178.816 198.727 172.975 206.613 167.329 207.797C161.682 208.981 161.934 211.766 165.406 212.353C168.877 212.939 184.17 212.353 186.603 210.887C189.036 209.421 187.309 201.047 187.309 201.047L178.816 198.727Z" fill="#1C5376"/>
<mask id="mask1_4120_22931" style="mask-type:luminance" maskUnits="userSpaceOnUse" x="162" y="198" width="26" height="15">
<path d="M178.816 198.727C178.816 198.727 172.975 206.613 167.329 207.797C161.682 208.981 161.934 211.766 165.406 212.353C168.877 212.939 184.17 212.353 186.603 210.887C189.036 209.421 187.309 201.047 187.309 201.047L178.816 198.727Z" fill="white"/>
</mask>
<g mask="url(#mask1_4120_22931)">
<path d="M187.312 208.943C175.413 212.44 161.657 210.071 161.657 210.071L164.13 215.066L189.687 213.193C189.687 213.193 191.318 207.765 187.312 208.943Z" fill="white"/>
<path d="M177.789 203.875C177.283 203.875 176.788 204.028 176.367 204.314C175.946 204.6 175.617 205.007 175.424 205.483C175.23 205.958 175.179 206.482 175.278 206.987C175.377 207.493 175.62 207.957 175.978 208.321C176.336 208.685 176.792 208.933 177.289 209.034C177.786 209.134 178.3 209.083 178.768 208.885C179.236 208.688 179.636 208.354 179.917 207.926C180.198 207.497 180.348 206.994 180.348 206.479C180.346 205.789 180.076 205.127 179.597 204.639C179.117 204.152 178.467 203.877 177.789 203.875ZM177.789 208.71C177.355 208.71 176.932 208.58 176.571 208.335C176.21 208.09 175.929 207.742 175.763 207.334C175.596 206.927 175.552 206.478 175.637 206.046C175.721 205.613 175.929 205.215 176.235 204.903C176.542 204.59 176.932 204.377 177.357 204.291C177.782 204.204 178.223 204.247 178.624 204.415C179.025 204.584 179.368 204.869 179.609 205.235C179.851 205.602 179.98 206.033 179.981 206.474C179.981 207.066 179.751 207.634 179.34 208.053C178.929 208.473 178.371 208.709 177.789 208.71Z" fill="white"/>
</g>
<path d="M188.574 113.53L163.472 116.38C163.347 116.394 163.229 116.446 163.133 116.529C163.038 116.612 162.969 116.722 162.936 116.846C161.913 120.532 154.426 147.789 154.627 154.769C154.821 161.478 160.397 187.952 161.547 193.369C161.638 193.817 162.517 196.472 162.885 196.209C164.581 194.99 167.723 193.623 171.042 194.67C171.457 194.801 173.817 194.532 173.8 194.091C173.544 187.36 169.723 165.474 167.764 158.051C167.731 157.928 167.735 157.798 167.777 157.678C169.974 151.272 173.255 142.989 175.011 138.635C175.274 137.983 176.223 138.178 176.223 138.879V164.783C176.223 173.438 176.486 198.14 176.207 202.686C176.183 203.073 176.207 202.686 176.586 202.659C178.864 202.499 181.407 200.276 187.364 204.113C187.767 204.373 188.293 204.04 188.296 203.554C188.334 196.456 188.677 200.129 188.296 189.95C187.892 179.234 188.838 167.867 188.479 162.776C188.475 162.725 188.478 162.674 188.486 162.625C190.366 151.975 189.402 138.328 190.371 133.598C191.225 129.425 189.655 117.012 189.266 114.093C189.247 113.925 189.164 113.772 189.034 113.667C188.904 113.562 188.739 113.512 188.574 113.53Z" fill="#FEAA40"/>
<mask id="mask2_4120_22931" style="mask-type:luminance" maskUnits="userSpaceOnUse" x="154" y="113" width="37" height="92">
<path d="M163.472 116.38C163.347 116.394 163.229 116.446 163.133 116.529C163.038 116.612 162.969 116.722 162.936 116.846C161.913 120.532 154.426 147.789 154.627 154.769C154.821 161.478 160.397 187.952 161.547 193.369C161.638 193.817 162.517 196.472 162.885 196.209C164.581 194.99 167.723 193.623 171.042 194.67C171.457 194.801 173.817 194.532 173.8 194.091C173.544 187.36 169.723 165.474 167.764 158.051C167.731 157.928 167.735 157.798 167.777 157.678C169.974 151.272 173.255 142.989 175.011 138.635C175.274 137.983 176.223 138.178 176.223 138.879V164.783C176.223 173.437 176.486 198.14 176.207 202.685C176.183 203.072 176.207 202.685 176.587 202.658C178.864 202.498 184.513 202.565 187.364 204.112C187.459 204.165 187.567 204.192 187.676 204.19C187.785 204.189 187.892 204.158 187.986 204.102C188.08 204.045 188.158 203.965 188.212 203.869C188.266 203.773 188.295 203.664 188.296 203.553C188.334 196.456 188.677 200.129 188.296 189.949C187.892 179.234 188.838 167.866 188.479 162.775C188.475 162.724 188.478 162.674 188.486 162.624C190.366 151.974 189.402 138.327 190.371 133.597C191.225 129.425 189.655 117.011 189.266 114.092C189.244 113.927 189.159 113.776 189.029 113.674C188.9 113.571 188.736 113.524 188.572 113.542L163.472 116.38Z" fill="white"/>
</mask>
<g mask="url(#mask2_4120_22931)">
<path d="M163.288 159.187C165.899 156.786 166.035 158.702 169.17 158.702C164.491 154.717 159.628 158.702 159.628 158.702C159.628 158.702 155.707 153.237 158.278 143.009C160.85 132.781 166.038 114.632 166.038 114.632L163.897 113.527L154.624 129.724L149.069 158.854L157.402 199.653L166.812 198.727L166.035 192.231C166.035 192.231 165.639 187.3 163.593 181.365C161.548 175.429 161.752 172.356 163.593 166.037C165.435 159.718 160.675 161.589 163.288 159.187Z" fill="#EA8C26"/>
<path d="M179.477 159.938C179.477 159.938 181.841 136.536 179.68 134.666C177.52 132.796 173.984 141.188 173.984 141.188L174.426 161.644L173.193 204.611L179.092 202.096C179.092 202.096 179.465 196.971 177.962 189.901C176.46 182.832 178.684 185.265 179.039 174.965C179.395 164.665 176.492 169.829 180.545 166.421C184.598 163.012 193.936 170.376 190.373 166.749C186.81 163.121 179.477 159.938 179.477 159.938Z" fill="#EA8C26"/>
</g>
<path d="M173.047 193.036C173.047 193.036 168.672 187.911 162.537 194.261C162.41 194.396 162.331 194.57 162.312 194.756C162.294 194.941 162.337 195.128 162.434 195.286C162.886 196.042 161.663 198.986 159.05 202.389C153.86 209.152 149.285 214.231 154.415 215.017C159.545 215.804 177.217 206.918 176.585 202.649C175.953 198.38 173.047 193.036 173.047 193.036Z" fill="#1C5376"/>
<mask id="mask3_4120_22931" style="mask-type:luminance" maskUnits="userSpaceOnUse" x="152" y="191" width="25" height="25">
<path d="M162.539 194.261C162.413 194.396 162.334 194.57 162.315 194.756C162.297 194.941 162.339 195.128 162.437 195.286C162.889 196.042 161.666 198.986 159.053 202.389C153.863 209.152 149.288 214.231 154.418 215.017C159.548 215.804 177.22 206.918 176.589 202.649C175.958 198.38 173.047 193.036 173.047 193.036C173.047 193.036 168.675 187.906 162.539 194.261Z" fill="white"/>
</mask>
<g mask="url(#mask3_4120_22931)">
<path d="M177.017 201.509C171.463 199.769 161.107 206.305 157.219 208.942C156.703 207.03 156.604 205.027 156.931 203.072L150.74 207.161L149.444 218.281L172.122 211.397C172.122 211.397 182.571 203.252 177.017 201.509Z" fill="white"/>
<path d="M166.087 196.45C165.558 196.45 165.041 196.61 164.601 196.909C164.161 197.208 163.818 197.633 163.616 198.13C163.413 198.627 163.36 199.175 163.464 199.703C163.567 200.231 163.821 200.716 164.196 201.096C164.57 201.477 165.046 201.736 165.565 201.841C166.084 201.946 166.622 201.892 167.111 201.686C167.599 201.48 168.017 201.131 168.311 200.684C168.605 200.236 168.762 199.71 168.762 199.172C168.761 198.45 168.479 197.758 167.978 197.248C167.476 196.738 166.796 196.451 166.087 196.45ZM166.087 201.521C165.63 201.521 165.184 201.383 164.804 201.125C164.425 200.867 164.129 200.5 163.954 200.071C163.779 199.641 163.734 199.169 163.823 198.713C163.912 198.258 164.132 197.839 164.455 197.511C164.777 197.182 165.189 196.958 165.637 196.868C166.084 196.777 166.549 196.824 166.97 197.001C167.392 197.179 167.753 197.48 168.007 197.867C168.26 198.253 168.396 198.707 168.396 199.172C168.395 199.794 168.151 200.391 167.719 200.832C167.286 201.272 166.699 201.52 166.087 201.521Z" fill="white"/>
</g>
<path d="M166.658 211.502C172.753 208.418 177.134 204.773 176.443 203.36C175.753 201.948 170.252 203.302 164.158 206.386C158.063 209.47 153.683 213.115 154.373 214.527C155.063 215.94 160.564 214.586 166.658 211.502Z" fill="black"/>
<path d="M143.937 78.6297C143.937 81.2667 145.72 84.7795 145.72 84.7795L152.649 83.5225V76.4652L146.636 70.9342C146.636 70.9342 143.937 75.9928 143.937 78.6297Z" fill="#FF8A65"/>
<path d="M141.614 66.1029L140.967 67.8062L148.634 80.6069L155.761 75.9481L147.5 62.9722L141.614 66.1029Z" fill="#808080"/>
<path d="M143.018 67.0925L149.779 77.6951L153.656 75.0582L147.284 64.7295L143.018 67.0925Z" fill="#C6DBE0"/>
<mask id="mask4_4120_22931" style="mask-type:luminance" maskUnits="userSpaceOnUse" x="140" y="62" width="16" height="19">
<path d="M141.614 66.1029L140.967 67.8062L148.634 80.6069L155.761 75.9481L147.5 62.9722L141.614 66.1029Z" fill="white"/>
</mask>
<g mask="url(#mask4_4120_22931)">
<path d="M149.168 79.091L140.967 65.2542L139.37 68.2358L147.746 81.5602L156.311 76.8082L155.761 75.131L149.168 79.091Z" fill="#125145"/>
</g>
<path d="M163.076 39.6479L161.535 42.9735L175.714 56.965C175.714 56.965 183.05 54.233 181.879 47.2233C180.708 40.2135 163.076 39.6479 163.076 39.6479Z" fill="#601416"/>
<path d="M174.253 52.8912C174.253 52.8912 170.659 50.1891 170.659 45.9831C169.179 47.2382 164.987 46.4853 165.048 42.9725C165.11 39.4597 161.535 42.9725 161.535 42.9725C161.535 42.9725 163.684 50.5311 158.822 52.075C161.287 54.3113 161.229 57.5054 163.057 59.9783C164.156 61.4626 167.395 60.8905 168.504 60.3967C168.799 62.9936 168.809 66.7328 168.809 66.7328L176.749 63.6057L175.714 55.708L174.253 52.8912Z" fill="#FF8A65"/>
<mask id="mask5_4120_22931" style="mask-type:luminance" maskUnits="userSpaceOnUse" x="158" y="41" width="19" height="26">
<path d="M161.535 42.9734C161.535 42.9734 163.684 50.532 158.822 52.0759C161.287 54.3122 161.229 57.5063 163.057 59.9793C164.156 61.4636 167.395 60.8915 168.504 60.3976C168.799 62.9945 168.809 66.7337 168.809 66.7337L176.749 63.6067L175.714 55.7089L174.249 52.894C174.249 52.894 170.656 50.1919 170.656 45.9859C169.176 47.24 164.983 46.4881 165.045 42.9753C165.106 39.4625 161.535 42.9734 161.535 42.9734Z" fill="white"/>
</mask>
<g mask="url(#mask5_4120_22931)">
<path d="M168.505 40.166H162.461L161.218 43.963C161.218 43.963 162.408 42.8635 163.81 45.1743C165.213 47.4851 168.904 49.9599 169.987 48.5902C172.035 53.3329 173.962 57.2874 176.067 58.3738C178.172 59.4603 177.741 51.9325 177.741 51.9325L168.505 40.166Z" fill="#E54F2C"/>
<path d="M166.282 60.9046C162.942 61.0499 165.588 65.0044 165.588 65.0044C165.588 65.0044 173.039 63.1912 171.77 58.1372C171.77 58.1372 169.621 60.7583 166.282 60.9046Z" fill="#E54F2C"/>
</g>
<path d="M164.761 46.9941C164.714 47.0052 164.673 47.035 164.647 47.077C164.621 47.1189 164.613 47.1695 164.624 47.2177C164.635 47.2659 164.664 47.3077 164.705 47.3339C164.746 47.3601 164.796 47.3686 164.843 47.3575C164.864 47.3528 166.994 46.873 167.599 48.061C167.609 48.0841 167.624 48.1049 167.642 48.122C167.66 48.1392 167.682 48.1524 167.705 48.1607C167.729 48.1691 167.754 48.1725 167.779 48.1708C167.804 48.169 167.828 48.1621 167.85 48.1505C167.872 48.1389 167.892 48.1228 167.907 48.1032C167.923 48.0837 167.935 48.061 167.942 48.0367C167.949 48.0124 167.951 47.9868 167.948 47.9617C167.945 47.9366 167.937 47.9123 167.924 47.8905C167.186 46.4453 164.86 46.9708 164.761 46.9941Z" fill="black"/>
<path d="M165.82 50.532C166.211 50.532 166.528 50.0964 166.528 49.5592C166.528 49.022 166.211 48.5864 165.82 48.5864C165.428 48.5864 165.111 49.022 165.111 49.5592C165.111 50.0964 165.428 50.532 165.82 50.532Z" fill="black"/>
<path d="M174.851 34.8027C166.193 31.9645 164.17 37.1545 162.367 40.9655C162.367 40.9655 155.292 43.1766 157.605 45.0122C159.918 46.8478 170.598 45.5293 173.095 44.0711C180.124 47.5522 182.253 48.5436 182.253 48.5436C182.253 48.5436 185.902 38.4254 174.851 34.8027Z" fill="#FEAA40"/>
<path d="M168.504 60.3976C169.892 60.3976 172.135 58.2723 173.083 56.8271C174.031 55.3819 176.813 49.5592 177.496 46.2412C175.756 45.3877 174.938 44.9833 174.938 44.9833C174.938 44.9833 172.166 56.7115 168.504 60.3976Z" fill="black"/>
<mask id="mask6_4120_22931" style="mask-type:luminance" maskUnits="userSpaceOnUse" x="157" y="33" width="26" height="16">
<path d="M162.367 40.9646C162.367 40.9646 155.292 43.1757 157.605 45.0113C159.918 46.8469 170.598 45.5284 173.095 44.0702C180.124 47.5513 182.253 48.5427 182.253 48.5427C182.253 48.5427 185.906 38.4283 174.854 34.8055C166.193 31.9646 164.17 37.1545 162.367 40.9646Z" fill="white"/>
</mask>
<g mask="url(#mask6_4120_22931)">
<path d="M173.094 44.0711C166.075 38.8531 162.367 40.9655 162.367 40.9655L157.507 40.0616L154.485 47.0705C154.485 47.0705 180.112 49.2918 173.094 44.0711Z" fill="#EA8C26"/>
<path d="M179.536 44.1643C178.6 49.4381 178.219 49.5592 178.219 49.5592L184.361 51.1209L186.304 36.8368L176.749 34.6396C176.749 34.6396 180.472 38.8904 179.536 44.1643Z" fill="#EA8C26"/>
<g opacity="0.51">
<path d="M176.009 39.0367C176.009 39.0367 177.664 38.7329 179.32 41.4118C180.976 44.0906 179.392 35.4475 176.009 39.0367Z" fill="white"/>
</g>
<g opacity="0.51">
<path d="M175.16 38.7497C175.629 38.7497 176.009 38.363 176.009 37.886C176.009 37.4089 175.629 37.0222 175.16 37.0222C174.691 37.0222 174.311 37.4089 174.311 37.886C174.311 38.363 174.691 38.7497 175.16 38.7497Z" fill="white"/>
</g>
</g>
<path d="M167.35 56.364C165.525 57.3219 163.369 56.7898 163.348 56.7842C163.301 56.7719 163.251 56.7791 163.209 56.8042C163.167 56.8294 163.137 56.8705 163.124 56.9184C163.112 56.9664 163.119 57.0172 163.144 57.0599C163.169 57.1025 163.209 57.1334 163.256 57.1458C163.764 57.2611 164.282 57.3177 164.802 57.3144C165.594 57.3144 166.585 57.184 167.515 56.6957C167.537 56.6845 167.556 56.6692 167.571 56.6505C167.587 56.6318 167.599 56.6102 167.606 56.5869C167.614 56.5635 167.616 56.539 167.614 56.5146C167.612 56.4902 167.606 56.4664 167.595 56.4446C167.584 56.4228 167.569 56.4035 167.55 56.3876C167.532 56.3718 167.511 56.3598 167.488 56.3523C167.465 56.3448 167.441 56.342 167.417 56.344C167.393 56.346 167.369 56.3528 167.348 56.364H167.35Z" fill="#E54F2C"/>
<path d="M169.108 53.3301C170.362 53.3301 171.379 52.9212 171.379 52.4169C171.379 51.9126 170.362 51.5038 169.108 51.5038C167.854 51.5038 166.837 51.9126 166.837 52.4169C166.837 52.9212 167.854 53.3301 169.108 53.3301Z" fill="#E54F2C"/>
<path d="M186.715 65.965C185.25 64.1145 183.836 63.4968 181.612 63.0644C180.942 62.9368 180.197 62.8221 179.357 62.6973C179.033 61.1589 178.061 61.5987 171.769 62.6973C165.477 63.7959 164.802 66.7319 164.802 66.7319L164.532 66.7952C163.988 66.9275 162.679 67.2509 161.165 67.6814C159.569 68.1342 157.746 68.7063 156.355 69.2896C153.223 70.6081 151.064 83.4638 151.064 83.4638L150.524 82.805C150.524 82.805 149.444 83.0249 145.233 85.0021C143.937 96.3204 149.983 103.901 153.548 105.77C157.044 107.602 160.233 97.3724 160.349 96.9904C160.303 97.2009 159.584 100.689 159.271 106.706C158.947 112.916 163.05 113.571 163.05 113.571C163.05 113.571 162.187 113.9 163.05 116.428C168.018 120.603 188.319 115.768 188.319 115.768L190.221 76.4652L190.356 73.6699L190.372 73.3596C190.372 73.3596 190.48 72.0411 187.996 67.8621C187.61 67.2019 187.182 66.5682 186.715 65.965Z" fill="url(#paint5_linear_4120_22931)"/>
<path d="M147.802 78.7284C147.802 78.7284 149.061 76.5304 147.802 75.7616C146.543 74.9929 145.713 79.5241 145.713 79.5241L149.743 81.9151C150.098 80.7066 147.802 78.7284 147.802 78.7284Z" fill="#FF8A65"/>
<path d="M148.033 78.6865C148.214 78.3346 148.354 77.9629 148.452 77.5787C148.679 76.6469 148.487 75.963 147.896 75.6014C147.798 75.5367 147.685 75.4983 147.567 75.4898C147.45 75.4814 147.333 75.5031 147.226 75.553C146.195 76.0254 145.598 79.1366 145.534 79.4897C145.529 79.514 145.529 79.5391 145.533 79.5634C145.538 79.5878 145.547 79.611 145.561 79.6316C145.574 79.6522 145.592 79.6699 145.612 79.6836C145.632 79.6973 145.655 79.7067 145.679 79.7113C145.703 79.7159 145.728 79.7156 145.752 79.7104C145.775 79.7051 145.798 79.6951 145.818 79.6809C145.838 79.6667 145.855 79.6486 145.868 79.6276C145.881 79.6066 145.89 79.5832 145.894 79.5587C146.059 78.6511 146.65 76.2248 147.376 75.8921C147.429 75.8673 147.488 75.8569 147.546 75.8619C147.604 75.867 147.66 75.8874 147.708 75.921C148.798 76.5873 147.656 78.6139 147.644 78.6344L147.567 78.7695L147.684 78.871C148.297 79.3993 149.83 80.9666 149.566 81.8611C149.559 81.8846 149.557 81.9092 149.559 81.9336C149.562 81.958 149.569 81.9817 149.58 82.0032C149.592 82.0248 149.607 82.0438 149.626 82.0592C149.645 82.0747 149.666 82.0862 149.69 82.0931C149.706 82.0986 149.724 82.1014 149.742 82.1015C149.781 82.1016 149.82 82.0886 149.851 82.0646C149.883 82.0406 149.906 82.0068 149.918 81.9683C150.083 81.4036 149.791 80.6563 149.047 79.7488C148.733 79.3711 148.395 79.0162 148.033 78.6865Z" fill="#E54F2C"/>
<path d="M164.53 66.7952C163.986 66.9275 162.677 67.2508 161.163 67.6813L162.472 71.2127L167.431 84.7756C167.431 84.7756 171.186 87.6017 170.247 80.6069C169.536 75.2734 166.115 69.3203 164.53 66.7952Z" fill="#CC1717"/>
<path d="M190.354 73.6699L186.713 65.9697C185.248 64.1192 183.834 63.5014 181.61 63.0691C183.102 66.4114 187.026 75.4803 186.738 77.861C186.482 79.9417 188.832 77.861 190.218 76.4717C190.788 75.9052 191.196 75.4524 191.196 75.4524L190.354 73.6699Z" fill="#CC1717"/>
<path d="M162.699 67.2611C158.281 66.2818 158.281 68.5712 158.281 68.5712C158.281 68.5712 165.573 84.0871 166.004 92.5839C166.436 101.081 169.173 95.4408 169.173 95.4408C169.173 95.4408 166.303 68.0615 162.699 67.2611Z" fill="#B70000"/>
<path d="M188.294 65.774C184.382 63.4678 182.849 63.2582 182.849 63.2582C182.849 63.2582 190.141 78.7741 190.572 87.2719C191.003 95.7697 193.743 90.125 193.743 90.125C193.743 90.125 193.019 68.5581 188.294 65.774Z" fill="#B70000"/>
<path d="M164.706 114.632L184.145 122.032L200.991 110.604V85.6907L165.368 87.9381L164.706 114.632Z" fill="#B70000"/>
<mask id="mask7_4120_22931" style="mask-type:luminance" maskUnits="userSpaceOnUse" x="164" y="85" width="37" height="38">
<path d="M165.368 87.9381L164.706 114.632L184.145 122.032L200.991 110.604V85.6907L165.368 87.9381Z" fill="white"/>
</mask>
<g mask="url(#mask7_4120_22931)">
<path d="M184.324 127.086L202.574 111.83L203.546 81.9152L183.785 85.3404L184.324 127.086Z" fill="#910000"/>
</g>
<path d="M167.33 81.9152L164.13 83.2076V87.5068L183.712 94.3423L202.143 85.114V80.607L191.343 73.6848L167.33 81.9152Z" fill="#910000"/>
<mask id="mask8_4120_22931" style="mask-type:luminance" maskUnits="userSpaceOnUse" x="164" y="73" width="39" height="22">
<path d="M167.33 81.9152L191.343 73.6848L202.143 80.607V85.114L183.712 94.3423L164.13 87.5068V83.2076L167.33 81.9152Z" fill="white"/>
</mask>
<g mask="url(#mask8_4120_22931)">
<path d="M163.215 82.9047L162.834 89.5623L183.137 96.6289L203.979 86.7054V79.6733L183.785 89.9145L163.215 82.9047Z" fill="#7A0000"/>
</g>
<path d="M169.958 105.237C169.699 106.782 170.965 107.087 172.325 106.996C173.733 106.903 175.236 106.387 175.236 106.387L175.642 100.817L175.75 99.344L170.238 98.9349C170.238 98.9349 170.582 101.53 169.958 105.237Z" fill="white"/>
<path d="M172.341 106.895C172.335 106.929 172.33 106.963 172.325 106.996C173.733 106.903 175.236 106.387 175.236 106.387L175.642 100.817L172.62 100.593C172.62 100.593 172.964 103.188 172.341 106.895Z" fill="#D3D3D3"/>
<path d="M173.138 107.798C172.609 110.945 178.417 108.949 178.417 108.949L178.93 101.904L173.418 101.496C173.418 101.496 173.758 104.091 173.138 107.798Z" fill="white"/>
<path d="M173.073 105.218L169.17 103.859V111.828L179.06 115.245L179.677 106.076L174.942 105.63C174.305 105.568 173.678 105.43 173.073 105.218Z" fill="#910000"/>
</g>
<defs>
<linearGradient id="paint0_linear_4120_22931" x1="100.48" y1="-0.31311" x2="100.48" y2="208.897" gradientUnits="userSpaceOnUse">
<stop stop-color="#2D74BF"/>
<stop offset="1" stop-color="#114E8E"/>
</linearGradient>
<linearGradient id="paint1_linear_4120_22931" x1="132.822" y1="7.07397" x2="132.822" y2="44.6865" gradientUnits="userSpaceOnUse">
<stop stop-color="#0060C6"/>
<stop offset="1" stop-color="#004084"/>
</linearGradient>
<linearGradient id="paint2_linear_4120_22931" x1="116.611" y1="6.96411" x2="116.611" y2="44.6655" gradientUnits="userSpaceOnUse">
<stop stop-color="#0060C6"/>
<stop offset="1" stop-color="#004084"/>
</linearGradient>
<linearGradient id="paint3_linear_4120_22931" x1="100.425" y1="7.07397" x2="100.425" y2="44.6865" gradientUnits="userSpaceOnUse">
<stop stop-color="#0060C6"/>
<stop offset="1" stop-color="#004084"/>
</linearGradient>
<linearGradient id="paint4_linear_4120_22931" x1="84.2271" y1="7.07397" x2="84.2271" y2="44.6865" gradientUnits="userSpaceOnUse">
<stop stop-color="#0060C6"/>
<stop offset="1" stop-color="#004084"/>
</linearGradient>
<linearGradient id="paint5_linear_4120_22931" x1="167.713" y1="61.7017" x2="167.713" y2="118.127" gradientUnits="userSpaceOnUse">
<stop stop-color="#0060C6"/>
<stop offset="1" stop-color="#004084"/>
</linearGradient>
<clipPath id="clip0_4120_22931">
<rect width="327" height="223" fill="white"/>
</clipPath>
</defs>
</svg>
