<svg width="80" height="80" viewBox="0 0 80 80" fill="none" xmlns="http://www.w3.org/2000/svg">
<path d="M19.4969 8.46396C16.4583 9.58188 13.7942 11.5296 11.8072 14.0859C9.82015 16.6421 8.58993 19.7044 8.25625 22.9249C7.65625 28.7218 7.34375 34.3124 7.34375 43.2812C7.34375 52.2499 7.65625 57.839 8.25313 63.6358C8.66655 67.5913 10.4268 71.2846 13.239 74.0968C16.0512 76.909 19.7445 78.6693 23.7 79.0827C23.7 79.0827 29.5016 79.9999 39.5609 79.9999C49.6859 79.9999 56.2797 79.0905 56.2797 79.0905C60.2357 78.6787 63.9297 76.9189 66.7419 74.1064C69.5542 71.2938 71.3136 67.5997 71.725 63.6437C72.3297 57.8468 72.6359 52.2546 72.6359 43.289C72.6359 34.3233 72.3234 28.7312 71.725 22.9327C71.3955 19.7285 70.1781 16.6798 68.2099 14.1299C66.2416 11.5801 63.6007 9.63022 60.5844 8.4999L60.1 8.32646C58.8625 7.90149 57.5809 7.61792 56.2797 7.48115C56.2797 7.48115 49.6828 6.57178 39.5609 6.57178C29.5016 6.57178 23.7063 7.48115 23.7063 7.48115C22.4133 7.61762 21.1397 7.89854 19.9094 8.31865L19.4969 8.46396Z" fill="url(#paint0_linear_4111_15338)"/>
<path d="M60.5875 8.4999L60.1031 8.32646C58.8657 7.90149 57.5841 7.61792 56.2828 7.48115C56.2828 7.48115 49.6859 6.57178 39.5641 6.57178C29.5047 6.57178 23.7094 7.48115 23.7094 7.48115C22.4164 7.61762 21.1429 7.89854 19.9125 8.31865L19.5 8.46396C16.4614 9.58188 13.7973 11.5296 11.8103 14.0859C9.82328 16.6421 8.59305 19.7044 8.25938 22.9249C7.65625 28.7218 7.34375 34.3124 7.34375 43.2812C7.34375 51.0249 7.57187 56.2499 8.02344 61.2671C11.5313 62.1553 15.1361 62.6035 18.7547 62.6015C42.8125 62.6015 62.3016 43.1077 62.3016 19.0624C62.3017 15.5665 61.8821 12.0832 61.0516 8.6874C60.8953 8.62334 60.7391 8.56084 60.5828 8.50146L60.5875 8.4999Z" fill="#0060C6"/>
<path d="M56.9312 15.0203C56.8054 16.2356 56.2652 17.3706 55.4014 18.2347C54.5376 19.0988 53.4028 19.6394 52.1875 19.7656C50.4078 19.95 42.7484 20.0438 40 20.0438C37.2515 20.0438 29.5875 19.95 27.8125 19.7656C26.5972 19.6389 25.4625 19.0982 24.5985 18.2342C23.7346 17.3703 23.1939 16.2356 23.0672 15.0203C22.8834 13.315 22.7905 11.6011 22.789 9.88594C22.789 9.88594 22.7515 6.81562 23.0672 5.01562C23.193 3.80202 23.7319 2.66849 24.5938 1.80489C25.4557 0.941285 26.5882 0.400065 27.8015 0.271875C29.5812 0.0859375 37.2406 0 40 0C42.7594 0 50.414 0.09375 52.1875 0.279687C53.402 0.40385 54.5366 0.942507 55.4006 1.80504C56.2645 2.66757 56.8051 3.80135 56.9312 5.01562C57.1259 6.63164 57.2194 8.25826 57.2109 9.88594C57.2109 9.88594 57.2172 12.9937 56.9312 15.0203Z" fill="#242B37"/>
<path d="M42.2172 56.2094H24.1781C23.7186 56.2192 23.2617 56.1371 22.8343 55.968C22.4069 55.7989 22.0175 55.5461 21.6891 55.2246C21.3606 54.903 21.0996 54.5192 20.9215 54.0954C20.7433 53.6717 20.6516 53.2167 20.6516 52.757C20.6516 52.2974 20.7433 51.8424 20.9215 51.4186C21.0996 50.9949 21.3606 50.611 21.6891 50.2895C22.0175 49.9679 22.4069 49.7152 22.8343 49.5461C23.2617 49.377 23.7186 49.2949 24.1781 49.3047H42.2172C42.6767 49.2949 43.1336 49.377 43.561 49.5461C43.9884 49.7152 44.3778 49.9679 44.7063 50.2895C45.0347 50.611 45.2957 50.9949 45.4738 51.4186C45.652 51.8424 45.7438 52.2974 45.7438 52.757C45.7438 53.2167 45.652 53.6717 45.4738 54.0954C45.2957 54.5192 45.0347 54.903 44.7063 55.2246C44.3778 55.5461 43.9884 55.7989 43.561 55.968C43.1336 56.1371 42.6767 56.2192 42.2172 56.2094ZM55.8109 41.4375H24.1781C23.2623 41.4375 22.384 41.0737 21.7364 40.4261C21.0888 39.7785 20.725 38.9002 20.725 37.9844C20.725 37.0686 21.0888 36.1902 21.7364 35.5426C22.384 34.8951 23.2623 34.5313 24.1781 34.5312H55.8109C56.7268 34.5313 57.6051 34.8951 58.2527 35.5426C58.9002 36.1902 59.2641 37.0686 59.2641 37.9844C59.2641 38.9002 58.9002 39.7785 58.2527 40.4261C57.6051 41.0737 56.7268 41.4375 55.8109 41.4375Z" fill="white"/>
<defs>
<linearGradient id="paint0_linear_4111_15338" x1="39.9898" y1="6.57178" x2="39.9898" y2="79.9999" gradientUnits="userSpaceOnUse">
<stop stop-color="#0060C6"/>
<stop offset="1" stop-color="#004084"/>
</linearGradient>
</defs>
</svg>
