<svg width="375" height="332" viewBox="0 0 375 332" fill="none" xmlns="http://www.w3.org/2000/svg">
<path d="M270.8 16.9898C257.688 12.8727 243.602 14.0418 229.87 14.5366C195.635 15.7706 160.935 12.5723 127.391 19.549C93.8504 26.5258 60.2891 46.4017 48.9157 78.7499C43.0054 95.563 56.597 112.589 59.8184 130.121C63.0398 147.652 55.785 166.084 59.8184 183.448C63.8694 200.877 66.3376 218.945 74.1867 235.022C84.907 256.983 105.059 273.404 127.509 283.022C149.956 292.641 174.638 295.96 199.047 296.575C218.396 297.064 238.895 295.557 254.887 284.642C267.691 275.901 276.14 262.039 282.115 247.726C288.09 233.414 291.964 218.294 297.892 203.96C307.712 180.218 323.034 158.94 331.583 134.708C338.07 116.317 340.165 94.5764 332.154 76.3055C328.706 68.4394 323.625 63.4711 317.8 57.5339C310.887 50.4865 305.638 41.9754 298.619 34.9574C290.735 27.0677 281.521 20.356 270.8 16.9898Z" fill="#CFE9FC"/>
<path d="M153.4 82.5944C153.06 81.1591 152.614 79.7144 151.948 78.1623C150.186 74.0584 148.304 69.9954 146.259 66.0113C142.193 58.0872 137.481 50.4376 131.805 43.4725C128.639 39.5894 125.181 35.9239 121.41 32.5738C106.29 19.142 84.9618 10.9688 64.8092 15.0538C61.2502 15.7762 57.6818 16.9087 54.8739 19.1263C50.3167 22.7287 48.4532 28.6496 48.0824 34.3056C47.2901 46.4062 52.291 58.3333 59.5991 68.2257C66.9072 78.1182 76.4273 86.2788 85.8587 94.3448C98.8173 105.427 111.307 116.997 124.088 128.265C130.563 133.971 137.11 139.608 143.829 145.053C147.083 147.693 150.379 150.29 153.723 152.826C154.61 153.498 157.646 156.523 158.743 156.11C160.099 155.599 159.979 152.091 159.988 151.028C160.166 130.454 158.331 109.915 154.674 89.6478C154.211 87.0895 153.938 84.8593 153.4 82.5944Z" fill="#50C65E"/>
<path d="M149.717 141.825C141.887 141.019 134.035 140.214 126.163 140.291C113.787 140.415 101.546 142.722 89.223 143.881C80.6421 144.685 72.0111 144.934 63.4011 144.619C58.2188 144.431 53.0153 144.034 47.9783 142.799C45.6633 142.23 43.3509 141.468 41.4032 140.093C39.4556 138.717 37.8937 136.651 37.566 134.288C37.2304 131.865 38.232 129.394 39.8176 127.534C41.4032 125.675 43.5253 124.352 45.7056 123.249C51.575 120.283 58.0576 118.733 64.5507 117.714C89.186 113.847 114.947 117.468 137.563 127.982C141.982 130.034 146.562 132.624 148.681 137.016C149.659 139.037 149.516 139.59 149.717 141.825Z" fill="#369C3D"/>
<path d="M146.324 147.765C150.721 148.378 155.079 149.296 159.323 150.609C162.447 151.571 167.542 152.378 169.781 154.918C167.83 156.317 165.573 157.016 163.42 157.931C153.362 162.206 143.726 167.474 134.699 173.635C125.753 179.738 118.539 187.696 108.523 192.307C105.275 193.802 101.8 194.963 98.2241 195.003C94.6485 195.042 90.9487 193.841 88.5253 191.209C85.8853 188.341 85.0845 184.103 85.7558 180.259C86.4297 176.418 88.4196 172.921 90.7716 169.812C94.8626 164.402 100.106 159.944 105.766 156.212C110.032 153.4 114.577 150.963 119.432 149.378C128.042 146.561 137.352 146.513 146.324 147.765Z" fill="#50C65E"/>
<path d="M237.122 93.0503C244.271 74.8968 254.527 57.2381 270.412 45.9259C276.414 41.6508 283.383 38.3043 290.745 38.1588C291.831 38.1376 292.978 38.2011 293.898 38.7804C295.156 39.5688 295.698 41.1111 296.012 42.5635C297.447 49.217 295.864 56.2275 292.968 62.3863C290.071 68.545 285.925 74.0106 281.921 79.5106C278.84 83.7461 275.819 88.0265 272.696 92.2275C269.974 95.8889 266.784 99.2275 264.72 103.36C275.166 96.5926 286.961 91.0873 299.572 90.3889C301.472 90.2831 303.618 90.381 304.918 91.7725C306.107 93.045 306.171 95.0688 305.521 96.6852C304.87 98.3016 303.634 99.6005 302.402 100.831C286.049 117.164 265.716 128.979 244.699 138.577C263.716 128.55 285.669 124.19 307.069 126.193C310.388 126.503 313.901 127.05 316.427 129.228C316.908 129.64 317.365 130.148 317.466 130.775C317.619 131.714 316.942 132.569 316.295 133.267C303.858 146.696 286.282 154.201 268.634 159.021C256.461 162.344 244.033 164.564 231.752 167.429C229.109 168.045 216.982 172.772 215.283 170.921C212.566 167.955 215.898 161.019 216.416 157.783C218.153 146.929 222.577 136.989 225.888 126.553C229.453 115.323 232.801 104.016 237.122 93.0503Z" fill="#50C65E"/>
<path d="M154.974 151.04C155.143 151.942 155.93 152.569 156.816 152.569C156.932 152.569 157.048 152.558 157.167 152.534C158.184 152.341 158.853 151.36 158.66 150.341C149.881 103.892 88.7103 53.1164 86.1099 50.9789C85.3118 50.3201 84.1279 50.4365 83.4698 51.2381C82.8118 52.0397 82.9281 53.2223 83.7288 53.881C84.3525 54.3969 146.446 105.918 154.974 151.04Z" fill="#369C3D"/>
<path d="M147.437 140.677C148.145 140.677 148.821 140.275 149.138 139.59C149.575 138.648 149.168 137.532 148.227 137.095C113.105 120.773 49.7965 130.27 47.1194 130.683C46.0967 130.841 45.3937 131.799 45.5497 132.823C45.7056 133.849 46.6702 134.553 47.6876 134.394C48.3324 134.294 112.542 124.648 146.646 140.5C146.903 140.622 147.172 140.677 147.437 140.677Z" fill="#01753F"/>
<path d="M166.863 152.569C112.532 151.28 94.0618 185.778 93.8821 186.127C93.4065 187.045 93.7632 188.177 94.6829 188.656C94.9577 188.802 95.2537 188.868 95.547 188.868C96.2236 188.868 96.8763 188.5 97.212 187.86C97.3837 187.532 114.865 155.122 166.779 156.325C167.814 156.378 168.673 155.529 168.697 154.492C168.718 153.452 167.899 152.593 166.863 152.569Z" fill="#369C3D"/>
<path d="M296.163 134.421C271.179 135.421 241.311 151.746 229.292 158.939C243.05 128.709 287.23 106.291 287.698 106.056C288.623 105.593 289.001 104.463 288.536 103.537C288.074 102.611 286.948 102.233 286.02 102.698C284.276 103.571 249.395 121.267 231.646 147.233C250.1 91.3307 288.422 50.418 288.845 49.9709C289.559 49.2196 289.527 48.0291 288.776 47.3175C288.026 46.6059 286.839 46.635 286.126 47.3863C285.653 47.8836 238.708 97.9524 223.142 163.402C222.965 164.151 223.261 164.931 223.89 165.373C224.213 165.601 224.59 165.714 224.968 165.714C225.325 165.714 225.685 165.611 225.996 165.407C226.393 165.148 265.943 139.392 296.316 138.175C297.352 138.132 298.155 137.259 298.116 136.222C298.068 135.185 297.212 134.394 296.163 134.421Z" fill="#369C3D"/>
<path d="M247.471 160.079H233.716V176.352H247.471V160.079Z" fill="#D48468"/>
<path d="M245.444 116.27H237.466V162.585L246.218 170.095C243.718 172.598 243.718 180.109 243.718 180.109C243.718 213.905 266.226 232.683 266.226 232.683C266.226 232.683 274.979 236.437 281.232 238.942C287.484 241.444 384.5 331.055 384.5 331.055L382 241.238L303.739 198.884C301.53 191.143 282.73 168.717 278.377 155.511C276.625 150.193 274.096 145.146 270.624 140.757C269.511 139.349 268.417 138.175 267.479 137.55C263.729 135.048 257.476 127.537 256.226 123.78C256.136 123.513 256.036 123.243 255.922 122.976C254.17 118.825 249.944 116.27 245.444 116.27Z" fill="#FFBDA6"/>
<path d="M184.95 220.164L164.21 240.926C162.635 242.503 163.75 245.198 165.978 245.198H167.492C178.792 245.198 189.754 241.349 198.578 234.283L216.208 220.164H184.95Z" fill="#FFBDA6"/>
<path d="M138.684 163.836L121.179 175.101C121.179 175.101 126.181 187.619 134.934 186.365C143.687 185.114 147.439 176.352 147.439 176.352V163.833H138.684V163.836Z" fill="#FFBDA6"/>
<path d="M139.934 127.534L122.429 138.799C122.429 138.799 127.431 151.318 136.184 150.064C144.937 148.812 148.689 140.05 148.689 140.05V127.534H139.934Z" fill="#FFBDA6"/>
<path d="M266.226 195.855V195.13C266.226 177.077 255.172 166.185 249.006 161.513C246.483 159.601 244.968 156.646 244.968 153.476V116.27H237.466V162.585L246.218 170.095C245.653 170.661 245.222 171.487 244.884 172.418L255.666 178.201C262.17 181.685 266.226 188.471 266.226 195.855Z" fill="#EA9680"/>
<path d="M226.213 233.931H149.939C141.652 233.931 134.934 227.206 134.934 218.91V53.6826C134.934 45.3863 141.652 38.6614 149.939 38.6614H226.213C234.5 38.6614 241.218 45.3863 241.218 53.6826V218.91C241.218 227.206 234.5 233.931 226.213 233.931Z" fill="white"/>
<path d="M142.894 40.4233C138.158 42.9498 134.934 47.9365 134.934 53.6826V218.91C134.934 227.206 141.652 233.931 149.939 233.931H226.213C234.231 233.931 240.761 227.632 241.179 219.709C172.082 211.394 148.819 83.754 142.894 40.4233Z" fill="#F4F6FB"/>
<path d="M226.213 38.6614H209.958H166.194H149.939C141.652 38.6614 134.934 45.3863 134.934 53.6826V218.91C134.934 227.206 141.652 233.931 149.939 233.931H226.213C234.5 233.931 241.218 227.206 241.218 218.91V53.6826C241.218 45.3863 234.5 38.6614 226.213 38.6614ZM237.468 218.91C237.468 225.122 232.421 230.175 226.216 230.175H149.939C143.734 230.175 138.687 225.122 138.687 218.91V53.6826C138.687 47.4709 143.734 42.418 149.939 42.418H167.133L167.275 42.9868C168.11 46.3307 171.11 48.6746 174.553 48.6746H201.601C205.045 48.6746 208.044 46.3281 208.879 42.9868L209.022 42.418H226.216C232.421 42.418 237.468 47.4709 237.468 53.6826V218.91Z" fill="#3D4045"/>
<path d="M199.329 44.9207H178.071C177.035 44.9207 176.194 44.0794 176.194 43.0424C176.194 42.0053 177.035 41.1641 178.071 41.1641H199.329C200.365 41.1641 201.205 42.0053 201.205 43.0424C201.205 44.0794 200.365 44.9207 199.329 44.9207Z" fill="#323439"/>
<path d="M255.669 178.201L232.143 165.585C231.512 165.246 230.848 164.976 230.159 164.78C226.102 163.624 211.047 159.519 196.72 158.048C193.771 157.743 191.205 160.061 191.205 163.029V163.048C191.205 170.333 195.848 176.714 202.682 179.217C211.72 182.526 221.216 188.87 221.216 188.87C221.216 188.87 236.221 200.135 241.221 207.646C241.221 207.646 248.724 232.68 266.229 232.68V195.854C266.226 188.471 262.17 181.685 255.669 178.201Z" fill="#FFBDA6"/>
<g filter="url(#filter0_d_4003_1436)">
<path d="M319.945 122.461C333.374 109.018 333.374 87.2229 319.945 73.7799C306.516 60.3369 284.744 60.3369 271.315 73.7799C257.886 87.2229 257.886 109.018 271.315 122.461C284.744 135.904 306.516 135.904 319.945 122.461Z" fill="#F2F2F2"/>
<path d="M272.022 74.4872C285.06 61.4351 306.2 61.435 319.239 74.4872C332.277 87.5395 332.277 108.702 319.239 121.754C306.2 134.806 285.06 134.806 272.022 121.754C258.983 108.702 258.983 87.5395 272.022 74.4872Z" stroke="#E6E6E6" stroke-width="2"/>
</g>
<g filter="url(#filter1_d_4003_1436)">
<path d="M111.106 180.039C124.534 166.596 124.534 144.801 111.106 131.358C97.6768 117.915 75.9045 117.915 62.4757 131.358C49.0469 144.801 49.0469 166.596 62.4757 180.039C75.9045 193.482 97.6768 193.482 111.106 180.039Z" fill="#F2F2F2"/>
<path d="M63.1825 132.065C76.221 119.013 97.3608 119.013 110.399 132.065C123.438 145.117 123.438 166.28 110.399 179.332C97.3608 192.384 76.221 192.384 63.1825 179.332C50.1441 166.28 50.1441 145.118 63.1825 132.065Z" stroke="#E6E6E6" stroke-width="2"/>
</g>
<g filter="url(#filter2_d_4003_1436)">
<path d="M120.92 72.9804C133.608 60.2791 133.608 39.6863 120.92 26.985C108.232 14.2837 87.6612 14.2837 74.9734 26.985C62.2855 39.6863 62.2855 60.2791 74.9734 72.9804C87.6612 85.6816 108.232 85.6816 120.92 72.9804Z" fill="#F2F2F2"/>
<path d="M75.6802 27.6924C87.9777 15.3819 107.916 15.3819 120.214 27.6924C132.511 40.003 132.511 59.9624 120.214 72.2729C107.916 84.5835 87.9777 84.5834 75.6802 72.2729C63.3826 59.9624 63.3826 40.003 75.6802 27.6924Z" stroke="#E6E6E6" stroke-width="2"/>
</g>
<path d="M89.3398 63V63.2544C89.3398 66.2019 93.4585 68.5914 98.5392 68.5914C103.62 68.5914 107.739 66.2019 107.739 63.2544V63" fill="url(#paint0_linear_4003_1436)"/>
<path d="M77.9666 45.1068C77.9666 56.4687 87.1773 65.6793 98.5392 65.6793C109.901 65.6793 119.112 56.4687 119.112 45.1068C119.112 38.5151 109.901 33.1715 98.5392 33.1715C87.1773 33.1715 77.9666 38.5151 77.9666 45.1068Z" fill="url(#paint1_linear_4003_1436)"/>
<path d="M98.5392 55.1046C108.64 55.1046 117.174 50.5261 117.174 45.1067C117.174 39.6874 108.64 35.109 98.5392 35.109C88.438 35.109 79.9042 39.6875 79.9042 45.1067C79.9042 50.5262 88.438 55.1046 98.5392 55.1046Z" fill="url(#paint2_linear_4003_1436)"/>
<path d="M88.0185 44.9265C89.6142 44.0052 88.8954 42.6657 90.3732 41.7231C87.7855 42.5985 85.5883 43.8679 84.0241 45.3867C85.6077 44.5314 86.4082 45.8562 88.0185 44.9265Z" fill="#FFC166"/>
<path d="M86.4384 49.7522C88.0758 48.8069 88.8759 50.1926 90.5132 49.2473C92.1506 48.3019 91.3505 46.9162 92.9879 45.9709C94.6253 45.0255 95.4254 46.4112 97.0627 45.4659C98.7006 44.5203 97.9005 43.1346 99.5383 42.189C101.175 41.2439 101.975 42.6296 103.612 41.6845C103.896 41.5273 104.146 41.3161 104.348 41.0628C102.442 40.6346 100.493 40.4195 98.5392 40.4215C98.2751 40.4215 98.0122 40.4253 97.7506 40.4329C96.8255 41.34 97.2325 42.4874 95.8154 43.3055C94.178 44.2508 93.378 42.8651 91.7406 43.8105C90.1032 44.7559 90.9032 46.1415 89.2659 47.0869C87.6285 48.0323 86.8285 46.6465 85.1911 47.5918C83.6974 48.4543 84.233 49.6838 83.0937 50.6103C83.6978 51.0851 84.337 51.5136 85.0056 51.8922C85.3407 51.1531 85.3837 50.3611 86.4384 49.7522Z" fill="#FFC166"/>
<path d="M85.1911 47.5918C86.8285 46.6464 87.6285 48.0322 89.2659 47.0869C90.9033 46.1415 90.1032 44.7558 91.7406 43.8105C93.378 42.8652 94.178 44.2508 95.8154 43.3055C97.2325 42.4873 96.8256 41.3399 97.7506 40.4329C95.2413 40.497 92.7554 40.9318 90.3733 41.7231C88.8954 42.6657 89.6143 44.0052 88.0186 44.9265C86.4082 45.8562 85.6077 44.5314 84.0241 45.3866C82.8234 46.5524 81.9949 47.8644 81.6494 49.2572C82.0897 49.7502 82.5731 50.203 83.0937 50.6102C84.233 49.6837 83.6974 48.4543 85.1911 47.5918Z" fill="#FF9800"/>
<path d="M87.6857 51.9126C89.3231 50.9674 90.1231 52.3531 91.7605 51.4077C93.3979 50.4623 92.5978 49.0766 94.2352 48.1313C95.8726 47.1859 96.6727 48.5717 98.3101 47.6263C99.9479 46.6807 99.1478 45.295 100.786 44.3494C102.423 43.4043 103.223 44.79 104.86 43.845C105.963 43.2082 105.96 42.3719 106.341 41.6048C105.698 41.3993 105.034 41.2187 104.348 41.0628C104.146 41.3161 103.896 41.5273 103.612 41.6845C101.975 42.6296 101.175 41.2439 99.5383 42.189C97.9005 43.1345 98.7005 44.5203 97.0627 45.4659C95.4253 46.4112 94.6253 45.0255 92.9879 45.9709C91.3505 46.9163 92.1506 48.3019 90.5132 49.2473C88.8758 50.1926 88.0758 48.8069 86.4384 49.7522C85.3837 50.3611 85.3407 51.1531 85.0056 51.8921C85.5813 52.2205 86.1733 52.5193 86.7793 52.7876C86.9968 52.4194 87.3101 52.117 87.6857 51.9126Z" fill="#FF9800"/>
<path d="M105.775 52.991C107.412 52.046 108.212 53.4317 109.849 52.4866C111.487 51.5407 110.687 50.155 112.325 49.2091C113.58 48.4846 114.343 49.1261 115.367 49.0429C115.138 48.2616 114.781 47.5236 114.31 46.8587C113.187 47.0492 112.409 46.2801 111.078 47.0487C109.44 47.9946 110.24 49.3803 108.601 50.3262C106.965 51.2713 106.164 49.8856 104.528 50.8306C102.89 51.7763 103.69 53.162 102.052 54.1075C100.415 55.0529 99.6145 53.6672 97.9771 54.6125C97.754 54.738 97.5505 54.8957 97.3734 55.0806C97.7598 55.0941 98.1477 55.1045 98.5392 55.1045C100.563 55.1051 102.582 54.9156 104.57 54.5384C104.77 53.9863 104.999 53.4392 105.775 52.991Z" fill="#FF9800"/>
<path d="M93.0078 53.5681C94.6452 52.6228 93.8452 51.2371 95.4825 50.2917C97.1199 49.3462 97.92 50.732 99.5574 49.7867C101.195 48.8411 100.395 47.4554 102.033 46.5098C103.67 45.5647 104.47 46.9504 106.107 46.0054C107.745 45.0595 106.945 43.6737 108.584 42.7278C108.673 42.6758 108.766 42.6285 108.86 42.5861C108.042 42.2058 107.201 41.878 106.341 41.6048C105.96 42.3719 105.963 43.2081 104.86 43.8449C103.223 44.79 102.423 43.4043 100.786 44.3494C99.1478 45.2949 99.9479 46.6807 98.3101 47.6263C96.6727 48.5716 95.8726 47.1859 94.2352 48.1313C92.5979 49.0766 93.3979 50.4624 91.7605 51.4077C90.1232 52.353 89.3231 50.9673 87.6857 51.9126C87.3101 52.117 86.9969 52.4194 86.7794 52.7876C87.6753 53.1854 88.5948 53.5281 89.5326 53.8135C90.7922 53.45 91.5834 54.3906 93.0078 53.5681Z" fill="#FFC166"/>
<path d="M102.052 54.1075C103.69 53.162 102.89 51.7763 104.528 50.8306C106.165 49.8856 106.965 51.2713 108.602 50.3262C110.24 49.3803 109.44 47.9946 111.078 47.0487C112.409 46.2801 113.187 47.0492 114.311 46.8587C113.738 46.0498 113.057 45.324 112.285 44.702C111.525 44.6038 110.835 44.3083 109.831 44.8883C108.193 45.8342 108.993 47.2199 107.354 48.1658C105.717 49.1109 104.917 47.7251 103.28 48.6702C101.642 49.6158 102.443 51.0016 100.805 51.9471C99.1673 52.8925 98.3673 51.5068 96.7299 52.4521C95.5163 53.1528 95.6414 54.0954 95.121 54.9211C95.8597 54.9982 96.6101 55.0538 97.3735 55.0806C97.5506 54.8957 97.754 54.738 97.9772 54.6125C99.6146 53.6672 100.415 55.0529 102.052 54.1075Z" fill="#FFC166"/>
<path d="M115.429 49.2572C115.411 49.1853 115.388 49.1144 115.367 49.0429C114.343 49.1261 113.58 48.4846 112.326 49.2091C110.687 50.1549 111.487 51.5407 109.849 52.4866C108.212 53.4317 107.412 52.046 105.775 52.991C104.999 53.4392 104.77 53.9862 104.57 54.5384C109.334 53.631 113.285 51.6986 115.429 49.2572Z" fill="#FFC166"/>
<path d="M96.7299 52.4521C98.3673 51.5068 99.1673 52.8925 100.805 51.9471C102.443 51.0016 101.642 49.6158 103.28 48.6702C104.917 47.7251 105.717 49.1109 107.354 48.1658C108.993 47.2199 108.193 45.8342 109.831 44.8883C110.835 44.3083 111.525 44.6038 112.285 44.702C111.236 43.8574 110.085 43.1467 108.86 42.5861C108.766 42.6286 108.673 42.6759 108.584 42.7278C106.945 43.6737 107.745 45.0595 106.107 46.0054C104.47 46.9504 103.67 45.5647 102.033 46.5099C100.395 47.4554 101.195 48.8411 99.5574 49.7867C97.92 50.7321 97.1199 49.3464 95.4825 50.2917C93.8452 51.237 94.6452 52.6228 93.0079 53.5681C91.5834 54.3906 90.7922 53.45 89.5326 53.8135C91.3559 54.3598 93.2272 54.7307 95.121 54.9212C95.6414 54.0954 95.5163 53.1528 96.7299 52.4521Z" fill="#FF9800"/>
<path d="M91.6794 56.8802C91.6443 56.8803 91.6092 56.8767 91.5747 56.8696C87.7775 56.0906 84.4527 54.693 81.9602 52.8278C81.9057 52.787 81.8598 52.7359 81.8251 52.6774C81.7904 52.6189 81.7675 52.5542 81.7578 52.4868C81.7481 52.4195 81.7518 52.3509 81.7686 52.285C81.7854 52.2191 81.815 52.1571 81.8557 52.1027C81.8965 52.0482 81.9476 52.0023 82.0061 51.9676C82.0646 51.9328 82.1293 51.91 82.1967 51.9003C82.264 51.8906 82.3326 51.8942 82.3985 51.911C82.4644 51.9278 82.5264 51.9575 82.5809 51.9982C84.9519 53.7729 88.1341 55.1063 91.7831 55.8549C91.9088 55.8807 92.0203 55.9522 92.0963 56.0556C92.1722 56.1589 92.2071 56.2868 92.1942 56.4144C92.1813 56.542 92.1215 56.6602 92.0264 56.7463C91.9313 56.8323 91.8077 56.8801 91.6794 56.8802Z" fill="white"/>
<path d="M77.7831 34.9569L115.255 56.5911L115.255 57.7446L114.256 58.3214L76.7842 36.6871V35.5336L77.7831 34.9569Z" fill="#FFC48F"/>
<path d="M81.6464 32.7264L119.118 54.3607L119.118 55.5142L118.119 56.0909L80.6475 34.4567V33.3032L81.6464 32.7264Z" fill="#FFC48F"/>
<path d="M282.733 87.3621H281.2C280.539 87.3625 279.906 87.6251 279.44 88.0921C278.973 88.559 278.711 89.1922 278.711 89.8524V98.3275C278.711 104.782 283.941 107.281 290.395 107.281H319.075C319.468 107.281 319.845 107.125 320.123 106.847C320.401 106.569 320.557 106.191 320.557 105.798V98.4808C320.558 97.9336 320.451 97.3917 320.242 96.886C320.033 96.3802 319.727 95.9207 319.34 95.5336C318.953 95.1465 318.494 94.8394 317.989 94.63C317.483 94.4205 316.941 94.3128 316.394 94.313H304.26C303.156 94.3129 302.081 94.6665 301.193 95.3219C300.304 95.9772 299.649 96.9 299.323 97.9548L297.256 104.653H296.21C294.854 104.654 293.554 104.116 292.594 103.158C291.635 102.2 291.095 100.901 291.093 99.545L290.547 91.809C290.547 90.6296 290.079 89.4985 289.245 88.6646C288.411 87.8306 287.28 87.3621 286.1 87.3621H282.733Z" fill="url(#paint3_linear_4003_1436)"/>
<path d="M289.713 91.6633L290.297 100.557C290.297 100.557 290.911 105.582 297.248 104.663H296.204C295.532 104.663 294.867 104.53 294.247 104.273C293.626 104.015 293.063 103.638 292.588 103.163C292.114 102.688 291.737 102.123 291.481 101.503C291.224 100.882 291.093 100.217 291.093 99.545L290.547 91.809C290.547 90.6296 290.079 89.4985 289.245 88.6646C288.411 87.8306 287.28 87.3621 286.1 87.3621C286.1 87.3621 289.54 88.0721 289.713 91.6633Z" fill="url(#paint4_linear_4003_1436)"/>
<path d="M300.001 103.053C300.258 102.588 300.46 102.094 300.603 101.581L301.706 97.7678C301.706 97.7678 302.353 94.6703 306.033 94.3176H304.26C303.156 94.3175 302.081 94.6711 301.193 95.3265C300.304 95.9818 299.649 96.9046 299.323 97.9594L297.254 104.657H297.707C298.963 104.495 299.554 103.848 300.001 103.053Z" fill="url(#paint5_linear_4003_1436)"/>
<path d="M286.953 101.681C286.702 100.638 286.106 99.7104 285.262 99.0483C284.418 98.3862 283.375 98.0285 282.302 98.0331L278.709 97.8153V98.3275C278.709 104.782 283.94 107.281 290.394 107.281H291.706C288.583 106.907 287.494 104.021 286.953 101.681Z" fill="url(#paint6_linear_4003_1436)"/>
<path d="M285.167 85.8794H282.733V87.3622H285.167V85.8794Z" fill="#B3B3B3"/>
<path d="M279.646 83.2634H275.922C275.814 83.2636 275.708 83.2426 275.609 83.2016C275.509 83.1606 275.419 83.1004 275.343 83.0244C275.267 82.9485 275.207 82.8583 275.166 82.7591C275.125 82.6598 275.104 82.5534 275.104 82.4461C275.104 82.2293 275.19 82.0214 275.344 81.8681C275.497 81.7149 275.705 81.6288 275.922 81.6288H279.646C279.754 81.6288 279.86 81.6499 279.959 81.691C280.058 81.732 280.148 81.7923 280.224 81.8681C280.3 81.944 280.36 82.0341 280.401 82.1333C280.442 82.2325 280.464 82.3387 280.464 82.4461C280.464 82.5534 280.443 82.6598 280.402 82.7591C280.361 82.8583 280.301 82.9485 280.225 83.0244C280.149 83.1004 280.059 83.1606 279.959 83.2016C279.86 83.2426 279.754 83.2636 279.646 83.2634Z" fill="#B3B3B3"/>
<path d="M283.688 86.577C286.106 86.577 288.066 84.617 288.066 82.1992C288.066 79.7814 286.106 77.8214 283.688 77.8214C281.271 77.8214 279.31 79.7814 279.31 82.1992C279.31 84.617 281.271 86.577 283.688 86.577Z" fill="url(#paint7_linear_4003_1436)"/>
<path d="M279.31 82.1992C279.31 82.908 279.482 83.6063 279.812 84.2338C280.141 84.8613 280.619 85.3992 281.203 85.8012C282.186 85.9835 283.203 85.8232 284.083 85.347C284.963 84.8709 285.653 84.1076 286.039 83.1844C286.424 82.2611 286.482 81.2337 286.202 80.2731C285.921 79.3126 285.321 78.4771 284.5 77.9057C283.868 77.7854 283.217 77.8061 282.594 77.9662C281.971 78.1264 281.391 78.422 280.895 78.8321C280.4 79.2422 280.001 79.7566 279.727 80.3386C279.453 80.9206 279.311 81.5559 279.31 82.1992Z" fill="url(#paint8_linear_4003_1436)"/>
<path d="M280.913 79.0818H279.583V85.1525H280.913C282.255 85.1525 283.342 83.7939 283.342 82.1164C283.342 80.4388 282.255 79.0818 280.913 79.0818Z" fill="url(#paint9_linear_4003_1436)"/>
<path d="M291.185 83.2634H287.46C287.353 83.2636 287.247 83.2426 287.147 83.2016C287.048 83.1606 286.958 83.1004 286.882 83.0244C286.806 82.9485 286.746 82.8583 286.705 82.7591C286.664 82.6598 286.643 82.5534 286.643 82.4461C286.643 82.3387 286.664 82.2325 286.705 82.1333C286.746 82.0341 286.807 81.944 286.883 81.8681C286.958 81.7923 287.049 81.732 287.148 81.691C287.247 81.6499 287.353 81.6288 287.46 81.6288H291.185C291.402 81.6288 291.61 81.7149 291.763 81.8681C291.916 82.0214 292.002 82.2293 292.002 82.4461C292.003 82.5534 291.982 82.6598 291.941 82.7591C291.9 82.8583 291.839 82.9485 291.763 83.0244C291.688 83.1004 291.597 83.1606 291.498 83.2016C291.399 83.2426 291.292 83.2636 291.185 83.2634Z" fill="#B3B3B3"/>
<path d="M279.583 85.1525C280.925 85.1525 282.012 83.7932 282.012 82.1164C282.012 80.4396 280.925 79.0803 279.583 79.0803C278.242 79.0803 277.155 80.4396 277.155 82.1164C277.155 83.7932 278.242 85.1525 279.583 85.1525Z" fill="url(#paint10_linear_4003_1436)"/>
<path d="M279.583 84.3659C280.577 84.3659 281.382 83.3587 281.382 82.1164C281.382 80.874 280.577 79.8669 279.583 79.8669C278.59 79.8669 277.785 80.874 277.785 82.1164C277.785 83.3587 278.59 84.3659 279.583 84.3659Z" fill="#FF9800"/>
<path d="M319.429 101.224C319.298 99.0328 318.095 97.9104 316.994 97.3384C316.225 96.9518 315.375 96.7556 314.514 96.7665H308.881C306.173 96.7665 304.93 99.4959 304.93 99.4959L302.775 107.289H319.075C319.402 107.29 319.72 107.182 319.979 106.982L319.429 101.224Z" fill="url(#paint11_linear_4003_1436)"/>
<path d="M279.832 101.909H277.576C275.949 101.909 274.389 102.556 273.239 103.706C272.089 104.856 271.443 106.416 271.443 108.043C271.443 109.67 272.089 111.23 273.239 112.38C274.389 113.53 275.949 114.177 277.576 114.177H279.832V101.909Z" fill="#30342F"/>
<path d="M279.832 114.18C283.22 114.18 285.967 111.433 285.967 108.045C285.967 104.656 283.22 101.909 279.832 101.909C276.444 101.909 273.697 104.656 273.697 108.045C273.697 111.433 276.444 114.18 279.832 114.18Z" fill="#454744"/>
<path d="M279.832 109.905C280.859 109.905 281.692 109.072 281.692 108.045C281.692 107.017 280.859 106.185 279.832 106.185C278.805 106.185 277.972 107.017 277.972 108.045C277.972 109.072 278.805 109.905 279.832 109.905Z" fill="#999999"/>
<path d="M279.183 103.973H280.464V108.574C280.464 108.744 280.396 108.907 280.276 109.027C280.156 109.147 279.993 109.215 279.823 109.215C279.738 109.215 279.655 109.198 279.577 109.166C279.5 109.134 279.429 109.086 279.369 109.027C279.31 108.967 279.263 108.897 279.23 108.819C279.198 108.741 279.182 108.658 279.182 108.574V103.973H279.183Z" fill="#F2F2F2"/>
<path d="M280.464 105.856V103.976H279.183V105.134L280.464 105.856Z" fill="#B3B3B3"/>
<path d="M285.604 104.631H273.169C273.045 104.631 272.922 104.606 272.808 104.557C272.694 104.508 272.592 104.436 272.507 104.346C272.421 104.256 272.356 104.149 272.313 104.033C272.271 103.916 272.253 103.792 272.26 103.668C272.37 101.79 273.343 97.8169 279.583 97.8169C279.583 97.8169 285.941 97.6144 286.33 103.851C286.337 103.951 286.324 104.051 286.29 104.145C286.257 104.239 286.205 104.326 286.136 104.399C286.068 104.472 285.986 104.53 285.894 104.57C285.802 104.61 285.704 104.631 285.604 104.631Z" fill="url(#paint12_linear_4003_1436)"/>
<path d="M312.958 101.909H310.704C309.898 101.909 309.101 102.068 308.356 102.376C307.612 102.685 306.936 103.136 306.367 103.706C305.797 104.276 305.345 104.952 305.037 105.696C304.729 106.44 304.57 107.238 304.57 108.043C304.57 108.849 304.729 109.646 305.037 110.39C305.345 111.134 305.797 111.811 306.367 112.38C306.936 112.95 307.612 113.402 308.356 113.71C309.101 114.018 309.898 114.177 310.704 114.177H312.958V101.909Z" fill="#30342F"/>
<path d="M312.958 114.18C316.346 114.18 319.093 111.433 319.093 108.045C319.093 104.656 316.346 101.909 312.958 101.909C309.569 101.909 306.823 104.656 306.823 108.045C306.823 111.433 309.569 114.18 312.958 114.18Z" fill="#454744"/>
<path d="M312.958 109.905C313.985 109.905 314.818 109.072 314.818 108.045C314.818 107.017 313.985 106.185 312.958 106.185C311.931 106.185 311.098 107.017 311.098 108.045C311.098 109.072 311.931 109.905 312.958 109.905Z" fill="#999999"/>
<path d="M317.975 108.912H304.901C304.693 108.911 304.488 108.863 304.302 108.772C304.115 108.68 303.951 108.547 303.823 108.384C303.695 108.22 303.605 108.03 303.561 107.826C303.517 107.623 303.519 107.413 303.567 107.21C304.01 105.424 304.731 102.586 305.345 100.437C305.601 99.5393 306.143 98.7491 306.889 98.1868C307.634 97.6245 308.543 97.3208 309.477 97.3216H314.583C315.662 97.3203 316.702 97.7254 317.496 98.4562C318.29 99.187 318.78 100.19 318.868 101.265L319.374 107.399C319.389 107.592 319.364 107.786 319.301 107.969C319.237 108.152 319.137 108.319 319.005 108.462C318.874 108.604 318.715 108.717 318.537 108.795C318.36 108.872 318.169 108.912 317.975 108.912Z" fill="url(#paint13_linear_4003_1436)"/>
<path d="M318.974 92H301.362C301.045 92 300.741 92.158 300.517 92.4391C300.293 92.7202 300.167 93.1015 300.167 93.4991C300.167 93.8968 300.293 94.2783 300.517 94.5597C300.741 94.8412 301.045 94.9995 301.362 95H318.974C319.291 94.998 319.594 94.8388 319.818 94.5572C320.041 94.2756 320.167 93.8945 320.167 93.4972C320.166 93.1008 320.04 92.7208 319.817 92.4403C319.593 92.1598 319.29 92.0015 318.974 92Z" fill="#4D4D4D"/>
<path d="M84.939 131.646L68.2566 140.505C68.0295 140.626 67.8396 140.806 67.7071 141.026C67.5745 141.246 67.5045 141.498 67.5044 141.755V163.998C67.5045 164.439 67.6265 164.871 67.8569 165.246C68.0873 165.621 68.4171 165.925 68.8097 166.125L85.1732 174.425C85.4308 174.556 85.7155 174.624 86.0044 174.624C86.2932 174.624 86.578 174.556 86.8356 174.425L103.195 166.119C103.587 165.919 103.917 165.615 104.147 165.24C104.378 164.865 104.5 164.433 104.5 163.993V141.749C104.5 141.492 104.43 141.24 104.297 141.02C104.165 140.8 103.975 140.62 103.748 140.5L87.0653 131.64C86.7376 131.467 86.3723 131.376 86.0014 131.377C85.6306 131.378 85.2658 131.471 84.939 131.646Z" fill="#FFC166"/>
<path d="M86 174.617C86.2887 174.617 86.5734 174.549 86.8312 174.419L103.195 166.119C103.587 165.919 103.917 165.615 104.147 165.24C104.378 164.865 104.5 164.433 104.5 163.993V141.749C104.499 141.522 104.444 141.299 104.338 141.098L86 150.872V174.617Z" fill="#FFAD33"/>
<path d="M86 150.872L67.6624 141.104C67.5564 141.305 67.5007 141.528 67.5 141.755V163.998C67.5001 164.439 67.6221 164.871 67.8525 165.246C68.0829 165.621 68.4127 165.925 68.8053 166.125L85.1688 174.425C85.4266 174.555 85.7113 174.623 86 174.622V150.872Z" fill="#FF9800"/>
<path d="M92.5383 134.561L73.9783 144.437V147.6C73.9774 147.75 74.0179 147.898 74.0953 148.027C74.1727 148.156 74.2842 148.261 74.4174 148.331L77.6368 150.051C77.6953 150.082 77.761 150.098 77.8275 150.097C77.8939 150.095 77.9588 150.076 78.0158 150.042C78.0727 150.008 78.1198 149.959 78.1524 149.901C78.185 149.843 78.202 149.778 78.2016 149.711V146.753L96.7865 136.812L92.5383 134.561Z" fill="url(#paint14_linear_4003_1436)"/>
<path d="M88.6736 168.307L93.6242 165.939C93.9338 165.79 94.1938 165.555 94.3729 165.262C94.5521 164.969 94.6427 164.63 94.6339 164.287V164.268C94.6307 164.135 94.5938 164.005 94.5267 163.89C94.4595 163.775 94.3643 163.679 94.2499 163.611C94.1356 163.543 94.0058 163.505 93.8728 163.501C93.7398 163.497 93.6079 163.526 93.4895 163.587L88.6692 166.062L88.6736 168.307Z" fill="white"/>
<path d="M88.6736 171.759L91.3925 170.496C91.7063 170.349 91.9703 170.113 92.1522 169.818C92.3341 169.523 92.4261 169.181 92.4169 168.835C92.4136 168.701 92.3764 168.571 92.3088 168.456C92.2412 168.341 92.1454 168.245 92.0305 168.177C91.9156 168.11 91.7853 168.072 91.6519 168.069C91.5185 168.065 91.3865 168.096 91.2681 168.157L88.6663 169.512L88.6736 171.759Z" fill="white"/>
<path d="M73.9783 144.47V147.6C73.9774 147.75 74.0179 147.898 74.0953 148.027C74.1727 148.156 74.2842 148.262 74.4174 148.332L77.6368 150.051C77.6953 150.082 77.761 150.098 77.8275 150.097C77.8939 150.095 77.9588 150.076 78.0158 150.042C78.0727 150.008 78.1198 149.959 78.1524 149.901C78.185 149.843 78.202 149.778 78.2016 149.711V146.753L78.2324 146.736L73.9783 144.47Z" fill="url(#paint15_linear_4003_1436)"/>
<path d="M197.938 124.544C196.203 124.544 194.936 125.026 194.174 125.979C193.569 126.736 193.274 127.778 193.274 129.164V131.445C193.354 134.365 194.864 135.973 197.526 135.973C200.577 135.973 202.19 134.428 202.19 131.505V128.817C202.19 126.221 200.52 124.543 197.937 124.543L197.938 124.544ZM195.905 129.253C195.918 128.126 196.077 127.497 196.435 127.153C196.696 126.902 197.083 126.783 197.649 126.783C197.687 126.783 197.725 126.783 197.765 126.785C198.855 126.785 199.581 127.211 199.581 129.295V131.245C199.581 133.308 198.891 133.711 197.7 133.711C196.508 133.711 195.924 133.018 195.905 131.397V129.253Z" fill="#0573EA"/>
<path d="M208.889 124.674H206.358V121.297C206.358 120.946 206.358 120.123 205.616 120.123H205.356C204.348 120.123 203.77 120.819 203.77 122.034V124.675C203.439 124.681 203.181 124.722 203.003 124.877C202.782 125.068 202.752 125.373 202.752 125.675V126.022C202.752 126.657 203.002 126.876 203.77 126.892V132.394C203.77 133.523 204.014 134.397 204.495 134.992C205.01 135.629 205.796 135.952 206.83 135.952C208.612 135.952 209.955 134.898 209.955 133.499V132.35C209.955 131.612 209.802 131.154 209.041 131.154H208.434C207.867 131.154 207.541 131.527 207.541 132.177V133.076C207.402 133.276 207.29 133.365 206.96 133.365C206.669 133.365 206.358 133.166 206.358 132.61V126.893H208.431C208.842 126.895 209.199 126.893 209.47 126.78C209.797 126.642 209.955 126.359 209.955 125.914V125.676C209.955 125.012 209.597 124.675 208.889 124.675V124.674Z" fill="#0573EA"/>
<path d="M215.389 124.544C213.654 124.544 212.388 125.026 211.626 125.979C211.02 126.736 210.725 127.778 210.725 129.164V131.445C210.806 134.365 212.316 135.973 214.977 135.973C218.028 135.973 219.641 134.428 219.641 131.505V128.817C219.641 126.221 217.971 124.543 215.389 124.543L215.389 124.544ZM213.356 129.253C213.369 128.126 213.528 127.497 213.886 127.153C214.147 126.902 214.534 126.783 215.101 126.783C215.138 126.783 215.177 126.783 215.216 126.785C216.307 126.785 217.033 127.211 217.033 129.295V131.245C217.033 133.308 216.343 133.711 215.151 133.711C213.96 133.711 213.376 133.018 213.356 131.397V129.253Z" fill="#0573EA"/>
<path d="M192.419 131.805C192.419 130.923 192.415 130.04 192.42 129.158C192.424 128.552 192.301 127.977 192.046 127.427C190.864 124.876 187.582 123.854 185.042 125.149C185.725 125.591 186.301 126.193 186.695 126.93C186.805 126.901 186.917 126.879 187.03 126.868C188.295 126.739 189.29 127.266 189.716 128.293C189.875 128.677 189.921 129.084 189.921 129.496C189.922 131.211 189.923 132.926 189.921 134.641C189.921 134.973 189.962 135.283 190.194 135.544C190.546 135.939 191.124 136.074 191.665 135.88C192.131 135.712 192.413 135.305 192.417 134.751C192.424 133.77 192.42 132.788 192.42 131.806L192.419 131.805Z" fill="#0573EA"/>
<path d="M186.889 131.835C186.889 132.816 186.895 133.798 186.887 134.78C186.883 135.333 186.601 135.741 186.135 135.908C185.595 136.102 185.016 135.967 184.664 135.572C184.432 135.312 184.391 135.001 184.392 134.669C184.395 132.954 184.393 131.24 184.392 129.524C184.392 129.112 184.346 128.706 184.186 128.321C183.761 127.295 182.765 126.768 181.501 126.896C180.492 126.999 179.59 127.837 179.415 128.847C179.375 129.078 179.355 129.315 179.354 129.55C179.348 131.289 179.348 133.029 179.352 134.769C179.354 135.25 179.16 135.62 178.739 135.839C178.291 136.071 177.824 136.068 177.39 135.792C177.053 135.579 176.871 135.261 176.871 134.856C176.871 132.868 176.824 130.878 176.893 128.892C176.946 127.36 177.808 126.245 179.064 125.435C181.65 123.766 185.262 124.752 186.516 127.456C186.771 128.006 186.894 128.582 186.89 129.187C186.885 130.07 186.889 130.952 186.889 131.835H186.889Z" fill="#0573EA"/>
<path d="M180.194 135.111C180.194 135.885 180.192 136.658 180.194 137.431C180.196 138.431 180.966 139.174 181.963 139.141C182.8 139.112 183.539 138.385 183.546 137.546C183.557 135.921 183.558 134.296 183.546 132.672C183.539 131.828 182.826 131.135 181.948 131.078C181.131 131.025 180.351 131.651 180.22 132.46C180.201 132.579 180.194 132.697 180.195 132.816C180.195 133.581 180.195 134.346 180.195 135.111H180.194Z" fill="#02DF80"/>
<path d="M181.88 119.858C183.174 119.862 184.219 120.912 184.22 122.209C184.222 123.51 183.17 124.565 181.872 124.565C180.573 124.565 179.523 123.51 179.525 122.208C179.528 120.905 180.581 119.855 181.879 119.858H181.88ZM181.871 120.868C181.131 120.869 180.533 121.472 180.535 122.214C180.536 122.957 181.135 123.555 181.875 123.554C182.616 123.552 183.214 122.95 183.212 122.209C183.209 121.466 182.609 120.866 181.871 120.868Z" fill="#02DF80"/>
<path d="M178.73 122.882C178.278 122.882 177.825 122.885 177.373 122.88C177.011 122.876 176.727 122.629 176.68 122.293C176.634 121.965 176.848 121.659 177.186 121.565C177.263 121.544 177.34 121.54 177.419 121.54C178.311 121.54 179.203 121.541 180.095 121.538C180.194 121.538 180.231 121.559 180.23 121.659C180.224 122.025 180.223 122.391 180.23 122.757C180.232 122.865 180.192 122.884 180.088 122.883C179.636 122.878 179.183 122.881 178.73 122.881V122.882Z" fill="#02DF80"/>
<path d="M185.146 122.882C185.598 122.882 186.051 122.885 186.503 122.88C186.865 122.876 187.15 122.629 187.196 122.293C187.242 121.965 187.029 121.659 186.69 121.565C186.614 121.544 186.536 121.54 186.458 121.54C185.565 121.54 184.673 121.541 183.781 121.538C183.683 121.538 183.645 121.559 183.647 121.659C183.653 122.025 183.653 122.391 183.647 122.757C183.644 122.865 183.685 122.884 183.788 122.883C184.241 122.878 184.693 122.881 185.146 122.881V122.882Z" fill="#02DF80"/>
<path d="M164.807 125.775C163.925 124.843 162.757 124.647 161.932 124.647C158.152 124.647 157.359 127.134 157.359 129.22V131.085C157.359 132.543 157.769 133.769 158.544 134.63C159.356 135.532 160.559 136.008 162.025 136.008C163.293 136.008 164.254 135.615 165.103 135.191C165.475 134.995 165.523 134.851 165.526 134.599L165.295 133.263C165.249 132.99 165.157 132.798 165.047 132.75C164.947 132.705 164.804 132.776 164.701 132.842C163.735 133.486 163.049 133.738 162.258 133.738C161.23 133.738 160.161 133.472 160.025 131.496L160.01 131.277H164.821C165.634 131.277 165.903 131.18 165.968 130.026C166.072 128.129 165.68 126.699 164.807 125.777L164.807 125.775ZM162.771 129.519C162.69 129.519 162.468 129.523 162.186 129.528C161.584 129.539 161.015 129.549 160.649 129.549C160.478 129.549 160.351 129.547 160.285 129.542L160.096 129.527V129.337C160.096 127.642 160.391 126.592 161.862 126.592C162.941 126.592 163.559 127.372 163.559 128.731C163.559 129.195 163.235 129.519 162.771 129.519Z" fill="#0173EC"/>
<path fill-rule="evenodd" clip-rule="evenodd" d="M169.733 124.648H167.835L167.836 124.649H167.507C166.921 124.649 166.733 124.837 166.733 125.422C166.733 126.163 166.806 126.752 166.957 127.225C167.883 130.102 168.903 132.86 169.91 135.201C170.141 135.754 170.28 135.962 170.841 135.962H172.192C172.764 135.962 172.901 135.754 173.12 135.205C173.727 133.765 174.364 131.965 175.039 130.058L175.037 130.057L175.085 129.921L175.085 129.921C175.425 128.963 175.774 127.976 176.124 127.029C176.235 126.719 176.297 126.514 176.297 125.935V125.499C176.3 124.906 176.301 124.683 175.565 124.648L175.446 124.648H171.511C171.514 125.382 171.514 126.116 171.499 126.85C171.493 127.201 171.607 127.282 171.935 127.272C172.426 127.255 172.917 127.259 173.429 127.262C173.646 127.263 173.866 127.265 174.092 127.265C173.648 128.321 173.21 129.361 172.774 130.398C172.379 131.337 171.985 132.273 171.589 133.215C171.495 133.133 171.503 133.043 171.51 132.961C171.512 132.94 171.514 132.919 171.514 132.899C171.513 132.727 171.513 132.556 171.512 132.384C171.508 131.44 171.504 130.496 171.519 129.552C171.523 129.262 171.427 129.186 171.153 129.193C170.684 129.205 170.214 129.202 169.745 129.199C169.57 129.199 169.396 129.198 169.221 129.197C169.204 129.197 169.188 129.198 169.172 129.198C169.053 129.202 168.979 129.204 169.019 128.975C169.308 127.314 169.501 126.122 169.733 124.648Z" fill="#0173EC"/>
<circle cx="4.5" cy="4.5" r="4.5" transform="matrix(1 0 0 -1 211.5 208)" fill="white"/>
<defs>
<filter id="filter0_d_4003_1436" x="251.243" y="52.6976" width="88.7731" height="88.8459" filterUnits="userSpaceOnUse" color-interpolation-filters="sRGB">
<feFlood flood-opacity="0" result="BackgroundImageFix"/>
<feColorMatrix in="SourceAlpha" type="matrix" values="0 0 0 0 0 0 0 0 0 0 0 0 0 0 0 0 0 0 127 0" result="hardAlpha"/>
<feMorphology radius="2" operator="dilate" in="SourceAlpha" result="effect1_dropShadow_4003_1436"/>
<feOffset dy="-1"/>
<feGaussianBlur stdDeviation="4"/>
<feColorMatrix type="matrix" values="0 0 0 0 0 0 0 0 0 0 0 0 0 0 0 0 0 0 0.1 0"/>
<feBlend mode="normal" in2="BackgroundImageFix" result="effect1_dropShadow_4003_1436"/>
<feBlend mode="normal" in="SourceGraphic" in2="effect1_dropShadow_4003_1436" result="shape"/>
</filter>
<filter id="filter1_d_4003_1436" x="42.4041" y="110.276" width="88.7731" height="88.8459" filterUnits="userSpaceOnUse" color-interpolation-filters="sRGB">
<feFlood flood-opacity="0" result="BackgroundImageFix"/>
<feColorMatrix in="SourceAlpha" type="matrix" values="0 0 0 0 0 0 0 0 0 0 0 0 0 0 0 0 0 0 127 0" result="hardAlpha"/>
<feMorphology radius="2" operator="dilate" in="SourceAlpha" result="effect1_dropShadow_4003_1436"/>
<feOffset dy="-1"/>
<feGaussianBlur stdDeviation="4"/>
<feColorMatrix type="matrix" values="0 0 0 0 0 0 0 0 0 0 0 0 0 0 0 0 0 0 0.1 0"/>
<feBlend mode="normal" in2="BackgroundImageFix" result="effect1_dropShadow_4003_1436"/>
<feBlend mode="normal" in="SourceGraphic" in2="effect1_dropShadow_4003_1436" result="shape"/>
</filter>
<filter id="filter2_d_4003_1436" x="55.4575" y="6.45904" width="84.9785" height="85.0473" filterUnits="userSpaceOnUse" color-interpolation-filters="sRGB">
<feFlood flood-opacity="0" result="BackgroundImageFix"/>
<feColorMatrix in="SourceAlpha" type="matrix" values="0 0 0 0 0 0 0 0 0 0 0 0 0 0 0 0 0 0 127 0" result="hardAlpha"/>
<feMorphology radius="2" operator="dilate" in="SourceAlpha" result="effect1_dropShadow_4003_1436"/>
<feOffset dy="-1"/>
<feGaussianBlur stdDeviation="4"/>
<feColorMatrix type="matrix" values="0 0 0 0 0 0 0 0 0 0 0 0 0 0 0 0 0 0 0.1 0"/>
<feBlend mode="normal" in2="BackgroundImageFix" result="effect1_dropShadow_4003_1436"/>
<feBlend mode="normal" in="SourceGraphic" in2="effect1_dropShadow_4003_1436" result="shape"/>
</filter>
<linearGradient id="paint0_linear_4003_1436" x1="98.5392" y1="63" x2="98.5392" y2="68.5914" gradientUnits="userSpaceOnUse">
<stop stop-color="#2D74BF"/>
<stop offset="1" stop-color="#114E8E"/>
</linearGradient>
<linearGradient id="paint1_linear_4003_1436" x1="98.5392" y1="33.1715" x2="98.5392" y2="65.6793" gradientUnits="userSpaceOnUse">
<stop stop-color="#2D74BF"/>
<stop offset="1" stop-color="#114E8E"/>
</linearGradient>
<linearGradient id="paint2_linear_4003_1436" x1="98.5392" y1="35.109" x2="98.5392" y2="55.1046" gradientUnits="userSpaceOnUse">
<stop offset="0.458837" stop-color="white"/>
<stop offset="1" stop-color="#C3CADA"/>
</linearGradient>
<linearGradient id="paint3_linear_4003_1436" x1="299.634" y1="87.3621" x2="299.634" y2="107.281" gradientUnits="userSpaceOnUse">
<stop stop-color="#2D74BF"/>
<stop offset="1" stop-color="#114E8E"/>
</linearGradient>
<linearGradient id="paint4_linear_4003_1436" x1="291.674" y1="87.3621" x2="291.674" y2="104.776" gradientUnits="userSpaceOnUse">
<stop stop-color="#0060C6"/>
<stop offset="1" stop-color="#004084"/>
</linearGradient>
<linearGradient id="paint5_linear_4003_1436" x1="301.644" y1="94.3176" x2="301.644" y2="104.657" gradientUnits="userSpaceOnUse">
<stop stop-color="#0060C6"/>
<stop offset="1" stop-color="#004084"/>
</linearGradient>
<linearGradient id="paint6_linear_4003_1436" x1="285.208" y1="97.8153" x2="285.208" y2="107.281" gradientUnits="userSpaceOnUse">
<stop stop-color="#0060C6"/>
<stop offset="1" stop-color="#004084"/>
</linearGradient>
<linearGradient id="paint7_linear_4003_1436" x1="283.688" y1="77.8214" x2="283.688" y2="86.577" gradientUnits="userSpaceOnUse">
<stop stop-color="#0060C6"/>
<stop offset="1" stop-color="#004084"/>
</linearGradient>
<linearGradient id="paint8_linear_4003_1436" x1="282.843" y1="77.8286" x2="282.843" y2="85.8744" gradientUnits="userSpaceOnUse">
<stop stop-color="#2D74BF"/>
<stop offset="1" stop-color="#114E8E"/>
</linearGradient>
<linearGradient id="paint9_linear_4003_1436" x1="281.463" y1="79.0818" x2="281.463" y2="85.1525" gradientUnits="userSpaceOnUse">
<stop stop-color="#0060C6"/>
<stop offset="1" stop-color="#004084"/>
</linearGradient>
<linearGradient id="paint10_linear_4003_1436" x1="279.583" y1="79.0803" x2="279.583" y2="85.1525" gradientUnits="userSpaceOnUse">
<stop stop-color="#2D74BF"/>
<stop offset="1" stop-color="#114E8E"/>
</linearGradient>
<linearGradient id="paint11_linear_4003_1436" x1="311.377" y1="96.766" x2="311.377" y2="107.289" gradientUnits="userSpaceOnUse">
<stop stop-color="#0060C6"/>
<stop offset="1" stop-color="#004084"/>
</linearGradient>
<linearGradient id="paint12_linear_4003_1436" x1="279.295" y1="97.8161" x2="279.295" y2="104.631" gradientUnits="userSpaceOnUse">
<stop stop-color="#2D74BF"/>
<stop offset="1" stop-color="#114E8E"/>
</linearGradient>
<linearGradient id="paint13_linear_4003_1436" x1="311.454" y1="97.3215" x2="311.454" y2="108.912" gradientUnits="userSpaceOnUse">
<stop stop-color="#2D74BF"/>
<stop offset="1" stop-color="#114E8E"/>
</linearGradient>
<linearGradient id="paint14_linear_4003_1436" x1="85.3824" y1="134.561" x2="85.3824" y2="150.097" gradientUnits="userSpaceOnUse">
<stop stop-color="#2D74BF"/>
<stop offset="1" stop-color="#114E8E"/>
</linearGradient>
<linearGradient id="paint15_linear_4003_1436" x1="76.1054" y1="144.47" x2="76.1054" y2="150.097" gradientUnits="userSpaceOnUse">
<stop stop-color="#2D74BF"/>
<stop offset="1" stop-color="#114E8E"/>
</linearGradient>
</defs>
</svg>
