<svg width="176" height="120" viewBox="0 0 176 120" fill="none" xmlns="http://www.w3.org/2000/svg">
<path d="M161.403 110.167C167.523 109.987 172.623 107.281 172.113 101.014C171.322 91.2823 159.618 90.4545 151.109 89.2371C146.892 88.6342 140.695 89.2515 138.821 84.8948C137.777 82.4701 138.39 79.6759 139.709 77.3643C140.048 76.7671 140.454 76.1713 141.072 75.799C141.747 75.3937 142.588 75.3049 143.394 75.2232C152.494 74.3095 161.541 72.9589 170.484 71.1787C171.746 70.9267 173.081 70.6316 173.986 69.7967C174.942 68.9159 175.225 67.6183 175.418 66.3952C176.485 59.5952 176.081 52.609 174.234 45.948C173.854 44.5774 173.323 43.1065 172.021 42.3303C171.093 41.776 169.931 41.6786 168.823 41.597C155.106 40.5844 141.391 39.5733 127.674 38.5608C124.782 38.3474 121.28 37.7287 120.343 35.241C119.408 32.7604 121.709 29.7227 120.093 27.5473C119.027 26.1093 116.824 25.9002 114.913 25.8344C99.2893 25.2944 83.6557 25.028 68.0204 25.0352C64.1124 25.0366 60.2028 25.0553 56.2948 25.0911C53.1082 25.1197 49.5577 24.8032 46.329 25.2071C45.8632 25.2658 45.4038 25.3388 44.9525 25.4305C40.1386 26.4087 33.4032 27.7521 30.5627 31.7421C28.4632 34.6924 28.6378 38.6854 30.4641 41.7817C32.2903 44.8781 35.5626 47.1281 39.1406 48.4786C41.3534 49.315 44.0887 50.2216 44.5012 52.3598C44.8813 54.3291 42.9516 56.0176 41.059 57.0431C34.8897 60.3801 27.4554 60.9716 20.3883 62.1488C14.2044 63.18 4.03324 65.4658 1.17826 71.3563C-0.508848 74.8394 0.0928822 80.7028 0.152732 84.4436C0.225522 88.998 0.735051 93.5466 1.68294 98.0207C2.11968 100.082 2.6842 102.198 4.10118 103.858C6.63265 106.823 11.1521 107.586 15.2591 108.043C28.8999 109.561 42.6523 110.052 56.3886 110.396C91.3876 111.271 126.412 111.195 161.403 110.167Z" fill="#CFE9FC"/>
<path d="M56.884 40.0669H53.3454C51.8219 40.0678 50.3611 40.6737 49.2842 41.7513C48.2072 42.8289 47.6023 44.2901 47.6023 45.8136V65.3715C47.6023 80.2655 59.6725 86.0334 74.5665 86.0334H140.749C141.657 86.0334 142.527 85.6729 143.169 85.0312C143.81 84.3895 144.171 83.5191 144.171 82.6116V65.7253C144.173 64.4627 143.926 63.212 143.444 62.045C142.962 60.8779 142.254 59.8174 141.362 58.924C140.469 58.0307 139.41 57.3221 138.243 56.8388C137.077 56.3555 135.826 56.1069 134.564 56.1074H106.563C104.015 56.1072 101.534 56.9231 99.4832 58.4355C97.4327 59.9479 95.9205 62.0773 95.1682 64.5116L90.3982 79.9682H87.9849C84.8562 79.9701 81.8548 78.7295 79.6405 76.5192C77.4262 74.3089 76.1803 71.3098 76.1765 68.1811L74.9168 50.3289C74.9168 47.6072 73.8356 44.997 71.9111 43.0726C69.9866 41.1481 67.3765 40.0669 64.6548 40.0669H56.884Z" fill="url(#paint0_linear_4082_11683)"/>
<path d="M72.9918 49.9927L74.34 70.5166C74.34 70.5166 75.7554 82.1126 90.3805 79.993H87.9707C86.4206 79.9921 84.8859 79.6858 83.4543 79.0916C82.0226 78.4975 80.722 77.6271 79.6268 76.5302C78.5315 75.4334 77.6631 74.1315 77.0711 72.6989C76.4791 71.2663 76.1751 69.7312 76.1765 68.1811L74.9168 50.3289C74.9168 47.6072 73.8356 44.997 71.9111 43.0726C69.9866 41.1481 67.3765 40.0669 64.6548 40.0669C64.6548 40.0669 72.5919 41.7053 72.9918 49.9927Z" fill="url(#paint1_linear_4082_11683)"/>
<path d="M96.7323 76.2766C97.3256 75.2019 97.7923 74.0619 98.1229 72.8796L100.667 64.0791C100.667 64.0791 102.16 56.9311 110.653 56.1172H106.563C104.015 56.117 101.534 56.9329 99.4831 58.4453C97.4327 59.9577 95.9205 62.0871 95.1682 64.5214L90.3946 79.978H91.4385C94.3366 79.6029 95.7025 78.1096 96.7323 76.2766Z" fill="url(#paint2_linear_4082_11683)"/>
<path d="M66.6223 73.1103C66.0428 70.7034 64.6678 68.5626 62.7199 67.0348C60.772 65.5069 58.3653 64.6814 55.8897 64.6919L47.5987 64.1895V65.3713C47.5987 80.2653 59.6689 86.0333 74.5629 86.0333H77.5919C70.3838 85.1699 67.8714 78.5102 66.6223 73.1103Z" fill="url(#paint3_linear_4082_11683)"/>
<path d="M62.4998 36.6445H56.884V40.0664H62.4998V36.6445Z" fill="#B3B3B3"/>
<path d="M49.7608 30.6081H41.1655C40.9177 30.6086 40.6722 30.5601 40.4432 30.4655C40.2142 30.3709 40.0061 30.2319 39.8308 30.0567C39.6556 29.8815 39.5167 29.6734 39.4221 29.4443C39.3275 29.2153 39.279 28.9698 39.2795 28.722C39.2795 28.2218 39.4782 27.7421 39.8319 27.3884C40.1856 27.0347 40.6653 26.8359 41.1655 26.8359H49.7608C50.0085 26.8359 50.2538 26.8847 50.4826 26.9795C50.7114 27.0743 50.9193 27.2132 51.0945 27.3884C51.2696 27.5635 51.4085 27.7714 51.5033 28.0002C51.5981 28.2291 51.6469 28.4743 51.6469 28.722C51.6473 28.9698 51.5989 29.2153 51.5043 29.4443C51.4096 29.6734 51.2707 29.8815 51.0955 30.0567C50.9203 30.2319 50.7122 30.3709 50.4831 30.4655C50.2541 30.5601 50.0086 30.6086 49.7608 30.6081Z" fill="#B3B3B3"/>
<path d="M59.0886 38.2548C64.6682 38.2548 69.1913 33.7316 69.1913 28.152C69.1913 22.5725 64.6682 18.0493 59.0886 18.0493C53.509 18.0493 48.9859 22.5725 48.9859 28.152C48.9859 33.7316 53.509 38.2548 59.0886 38.2548Z" fill="url(#paint4_linear_4082_11683)"/>
<path d="M48.9859 28.1519C48.985 29.7876 49.3821 31.3991 50.1428 32.8472C50.9036 34.2953 52.0051 35.5366 53.3525 36.4641C55.6227 36.8848 57.9685 36.515 59.9991 35.4162C62.0298 34.3173 63.6226 32.5559 64.5122 30.4254C65.4018 28.2948 65.5346 25.9237 64.8883 23.7071C64.2421 21.4906 62.8558 19.5624 60.9605 18.2438C59.5022 17.9663 58.0007 18.014 56.5629 18.3835C55.1252 18.7531 53.7868 19.4354 52.643 20.3817C51.4993 21.328 50.5786 22.5151 49.9464 23.8582C49.3142 25.2013 48.9863 26.6674 48.9859 28.1519Z" fill="url(#paint5_linear_4082_11683)"/>
<path d="M52.6837 20.9575H49.6157V34.9669H52.6837C55.78 34.9669 58.2888 31.8317 58.2888 27.9604C58.2888 24.0892 55.78 20.9575 52.6837 20.9575Z" fill="url(#paint6_linear_4082_11683)"/>
<path d="M76.3888 30.6081H67.7936C67.5457 30.6086 67.3003 30.5601 67.0712 30.4655C66.8422 30.3709 66.6341 30.2319 66.4589 30.0567C66.2836 29.8815 66.1447 29.6734 66.0501 29.4443C65.9555 29.2153 65.907 28.9698 65.9075 28.722C65.9075 28.4743 65.9563 28.2291 66.051 28.0002C66.1458 27.7714 66.2848 27.5635 66.4599 27.3884C66.635 27.2132 66.843 27.0743 67.0718 26.9795C67.3006 26.8847 67.5459 26.8359 67.7936 26.8359H76.3888C76.8891 26.8359 77.3688 27.0347 77.7225 27.3884C78.0762 27.7421 78.2749 28.2218 78.2749 28.722C78.2754 28.9698 78.2269 29.2153 78.1323 29.4443C78.0377 29.6734 77.8988 29.8815 77.7235 30.0567C77.5483 30.2319 77.3402 30.3709 77.1112 30.4655C76.8821 30.5601 76.6366 30.6086 76.3888 30.6081Z" fill="#B3B3B3"/>
<path d="M49.6157 34.967C52.7114 34.967 55.2209 31.8301 55.2209 27.9605C55.2209 24.091 52.7114 20.9541 49.6157 20.9541C46.5201 20.9541 44.0106 24.091 44.0106 27.9605C44.0106 31.8301 46.5201 34.967 49.6157 34.967Z" fill="url(#paint7_linear_4082_11683)"/>
<path d="M49.6157 33.1518C51.9081 33.1518 53.7665 30.8277 53.7665 27.9607C53.7665 25.0937 51.9081 22.7695 49.6157 22.7695C47.3233 22.7695 45.4649 25.0937 45.4649 27.9607C45.4649 30.8277 47.3233 33.1518 49.6157 33.1518Z" fill="#FF9800"/>
<path d="M141.566 72.0558C141.266 66.9991 138.488 64.4089 135.947 63.089C134.173 62.1967 132.211 61.744 130.225 61.7691H117.224C110.975 61.7691 108.109 68.0678 108.109 68.0678L103.134 86.051H140.749C141.504 86.0534 142.239 85.8044 142.837 85.3433L141.566 72.0558Z" fill="url(#paint8_linear_4082_11683)"/>
<path d="M50.189 73.6377H44.9837C41.2297 73.6377 37.6295 75.129 34.975 77.7834C32.3206 80.4379 30.8293 84.0381 30.8293 87.7921C30.8293 91.5461 32.3206 95.1464 34.975 97.8008C37.6295 100.455 41.2297 101.947 44.9837 101.947H50.189V73.6377Z" fill="#30342F"/>
<path d="M50.189 101.954C58.0082 101.954 64.3469 95.6149 64.3469 87.7957C64.3469 79.9764 58.0082 73.6377 50.189 73.6377C42.3697 73.6377 36.031 79.9764 36.031 87.7957C36.031 95.6149 42.3697 101.954 50.189 101.954Z" fill="#454744"/>
<path d="M50.189 92.0876C52.5596 92.0876 54.4813 90.1658 54.4813 87.7953C54.4813 85.4247 52.5596 83.5029 50.189 83.5029C47.8184 83.5029 45.8966 85.4247 45.8966 87.7953C45.8966 90.1658 47.8184 92.0876 50.189 92.0876Z" fill="#999999"/>
<path d="M48.6922 78.4009H51.6469V89.0167C51.6469 89.409 51.491 89.7852 51.2137 90.0626C50.9363 90.34 50.56 90.4958 50.1677 90.4958C49.9735 90.4958 49.7812 90.4576 49.6017 90.3832C49.4223 90.3089 49.2592 90.2 49.1218 90.0626C48.9845 89.9253 48.8755 89.7622 48.8012 89.5827C48.7269 89.4033 48.6886 89.2109 48.6886 89.0167V78.4009H48.6922Z" fill="#F2F2F2"/>
<path d="M51.6469 82.7456V78.4072H48.6922V81.0789L51.6469 82.7456Z" fill="#B3B3B3"/>
<path d="M63.5083 79.9177H34.8137C34.5274 79.9182 34.244 79.8601 33.981 79.747C33.718 79.6339 33.4809 79.4682 33.2844 79.26C33.0878 79.0518 32.9359 78.8057 32.8381 78.5366C32.7402 78.2675 32.6984 77.9813 32.7153 77.6955C32.9701 73.3607 35.2136 64.1922 49.6157 64.1922C49.6157 64.1922 64.2868 63.7251 65.1856 78.1166C65.2016 78.3468 65.1701 78.5779 65.0931 78.7954C65.0161 79.013 64.8952 79.2124 64.7379 79.3813C64.5807 79.5501 64.3904 79.6849 64.1788 79.7772C63.9673 79.8695 63.7391 79.9173 63.5083 79.9177Z" fill="url(#paint9_linear_4082_11683)"/>
<path d="M126.634 73.6377H121.432C119.573 73.6377 117.732 74.0038 116.015 74.7151C114.298 75.4265 112.737 76.4691 111.423 77.7834C110.109 79.0978 109.066 80.6582 108.355 82.3755C107.643 84.0928 107.277 85.9333 107.277 87.7921C107.277 89.6509 107.643 91.4915 108.355 93.2088C109.066 94.9261 110.109 96.4865 111.423 97.8008C112.737 99.1152 114.298 100.158 116.015 100.869C117.732 101.58 119.573 101.947 121.432 101.947H126.634V73.6377Z" fill="#30342F"/>
<path d="M126.634 101.954C134.453 101.954 140.792 95.6149 140.792 87.7957C140.792 79.9764 134.453 73.6377 126.634 73.6377C118.814 73.6377 112.476 79.9764 112.476 87.7957C112.476 95.6149 118.814 101.954 126.634 101.954Z" fill="#454744"/>
<path d="M126.634 92.0876C129.004 92.0876 130.926 90.1658 130.926 87.7953C130.926 85.4247 129.004 83.5029 126.634 83.5029C124.263 83.5029 122.341 85.4247 122.341 87.7953C122.341 90.1658 124.263 92.0876 126.634 92.0876Z" fill="#999999"/>
<path d="M138.212 89.7977H108.042C107.562 89.7949 107.089 89.6838 106.658 89.4725C106.227 89.2612 105.849 88.9553 105.553 88.5776C105.257 88.1999 105.05 87.7601 104.948 87.2913C104.846 86.8224 104.851 86.3365 104.963 85.8698C105.986 81.7473 107.649 75.1974 109.064 70.2398C109.655 68.1671 110.906 66.3437 112.627 65.0461C114.348 63.7485 116.446 63.0475 118.601 63.0493H130.384C132.875 63.0464 135.275 63.9812 137.107 65.6677C138.939 67.3542 140.069 69.6687 140.271 72.1506L141.439 86.3051C141.474 86.7503 141.417 87.198 141.271 87.62C141.124 88.042 140.892 88.4292 140.589 88.7572C140.286 89.0852 139.919 89.347 139.509 89.526C139.1 89.7051 138.658 89.7976 138.212 89.7977Z" fill="url(#paint10_linear_4082_11683)"/>
<path d="M140.517 50.769H99.8744C99.1427 50.769 98.4409 51.1335 97.9235 51.7823C97.4061 52.431 97.1154 53.3109 97.1154 54.2284C97.1154 55.1463 97.406 56.0266 97.9233 56.6761C98.4406 57.3255 99.1424 57.691 99.8744 57.6921H140.517C141.248 57.6875 141.948 57.3201 142.464 56.6702C142.98 56.0203 143.269 55.1408 143.269 54.224C143.267 53.3092 142.977 52.4324 142.461 51.7851C141.946 51.1378 141.247 50.7725 140.517 50.769Z" fill="#4D4D4D"/>
<defs>
<linearGradient id="paint0_linear_4082_11683" x1="95.8866" y1="40.0669" x2="95.8866" y2="86.0334" gradientUnits="userSpaceOnUse">
<stop stop-color="#2D74BF"/>
<stop offset="1" stop-color="#114E8E"/>
</linearGradient>
<linearGradient id="paint1_linear_4082_11683" x1="77.5177" y1="40.0669" x2="77.5177" y2="80.2518" gradientUnits="userSpaceOnUse">
<stop stop-color="#0060C6"/>
<stop offset="1" stop-color="#004084"/>
</linearGradient>
<linearGradient id="paint2_linear_4082_11683" x1="100.524" y1="56.1172" x2="100.524" y2="79.978" gradientUnits="userSpaceOnUse">
<stop stop-color="#0060C6"/>
<stop offset="1" stop-color="#004084"/>
</linearGradient>
<linearGradient id="paint3_linear_4082_11683" x1="62.5953" y1="64.1895" x2="62.5953" y2="86.0333" gradientUnits="userSpaceOnUse">
<stop stop-color="#0060C6"/>
<stop offset="1" stop-color="#004084"/>
</linearGradient>
<linearGradient id="paint4_linear_4082_11683" x1="59.0886" y1="18.0493" x2="59.0886" y2="38.2548" gradientUnits="userSpaceOnUse">
<stop stop-color="#0060C6"/>
<stop offset="1" stop-color="#004084"/>
</linearGradient>
<linearGradient id="paint5_linear_4082_11683" x1="57.1389" y1="18.0659" x2="57.1389" y2="36.6332" gradientUnits="userSpaceOnUse">
<stop stop-color="#2D74BF"/>
<stop offset="1" stop-color="#114E8E"/>
</linearGradient>
<linearGradient id="paint6_linear_4082_11683" x1="53.9523" y1="20.9575" x2="53.9523" y2="34.9669" gradientUnits="userSpaceOnUse">
<stop stop-color="#0060C6"/>
<stop offset="1" stop-color="#004084"/>
</linearGradient>
<linearGradient id="paint7_linear_4082_11683" x1="49.6157" y1="20.9541" x2="49.6157" y2="34.967" gradientUnits="userSpaceOnUse">
<stop stop-color="#2D74BF"/>
<stop offset="1" stop-color="#114E8E"/>
</linearGradient>
<linearGradient id="paint8_linear_4082_11683" x1="122.985" y1="61.7681" x2="122.985" y2="86.051" gradientUnits="userSpaceOnUse">
<stop stop-color="#0060C6"/>
<stop offset="1" stop-color="#004084"/>
</linearGradient>
<linearGradient id="paint9_linear_4082_11683" x1="48.9507" y1="64.1904" x2="48.9507" y2="79.9177" gradientUnits="userSpaceOnUse">
<stop stop-color="#2D74BF"/>
<stop offset="1" stop-color="#114E8E"/>
</linearGradient>
<linearGradient id="paint10_linear_4082_11683" x1="123.162" y1="63.0493" x2="123.162" y2="89.7977" gradientUnits="userSpaceOnUse">
<stop stop-color="#2D74BF"/>
<stop offset="1" stop-color="#114E8E"/>
</linearGradient>
</defs>
</svg>
