<svg width="80" height="80" viewBox="0 0 80 80" fill="none" xmlns="http://www.w3.org/2000/svg">
<g clip-path="url(#clip0_4128_4872)">
<path d="M62.8219 15.6843C60.8453 10.0968 55.8094 5.64839 50.075 4.91402C46.0422 4.41089 40.5391 3.99839 33.014 4.09996C25.489 4.21246 19.9765 4.78121 15.9312 5.39058C9.24999 6.44527 3.28124 12.3234 2.13436 19.0531C2.13436 19.0531 0.36405 28.55 0.0187378 41.3375H64.7875C64.7875 41.3375 64.7875 24.4015 62.8219 15.6843Z" fill="#1A1F28"/>
<path d="M79.3531 31.6737C78.5906 25.7253 73.2922 20.6924 67.0922 19.8674C56.1656 18.7846 40.0218 18.6956 40.0187 18.7346C33.0359 18.6628 16.689 19.3284 12.9453 19.8674C9.15466 20.3565 5.7281 22.4471 3.43435 25.3253V25.3284C1.97029 27.1721 0.976535 29.3409 0.684348 31.6737C0.239035 35.269 -0.110965 40.1831 0.0671601 46.9034C0.256223 53.6252 0.87341 58.5487 1.50466 62.1565C2.5906 68.1268 7.96247 73.3706 13.9406 74.3753C17.5625 75.0659 33.3015 76.0252 40.0203 75.9034C46.739 76.0268 62.4781 75.0674 66.1 74.3753C72.0781 73.3706 77.45 68.1268 78.5359 62.1565C79.1656 58.5471 79.7828 53.6237 79.9734 46.9034C80.1515 40.1815 79.8 35.269 79.3562 31.6737H79.3531Z" fill="url(#paint0_linear_4128_4872)"/>
<path d="M66.0594 52.861C63 52.861 60.5187 50.3813 60.5187 47.3204C60.5187 44.2595 62.9984 41.7798 66.0594 41.7798C69.1203 41.7798 71.6 44.2595 71.6 47.3204C71.6 50.3813 69.1203 52.861 66.0594 52.861Z" fill="white"/>
<path d="M62.3188 19.4734C52.0109 18.7625 40.0203 18.7 40.0172 18.7343C33.0344 18.6625 16.6875 19.3281 12.9438 19.8671C9.15313 20.3562 5.72657 22.4468 3.43282 25.325V25.3281C1.96876 27.1718 0.975009 29.3406 0.682822 31.6734C0.237509 35.2687 -0.112491 40.1828 0.0656342 46.9031C0.201572 51.7218 0.557822 55.6156 0.979697 58.7656C6.41563 61.2046 12.4406 62.5625 18.7844 62.5625C42.6797 62.5625 62.0766 43.3125 62.3188 19.4734Z" fill="#0060C6"/>
</g>
<defs>
<linearGradient id="paint0_linear_4128_4872" x1="40.0202" y1="18.7275" x2="40.0202" y2="75.9142" gradientUnits="userSpaceOnUse">
<stop stop-color="#0060C6"/>
<stop offset="1" stop-color="#004084"/>
</linearGradient>
<clipPath id="clip0_4128_4872">
<rect width="80" height="80" fill="white"/>
</clipPath>
</defs>
</svg>
