<svg width="139" height="80" viewBox="0 0 139 80" fill="none" xmlns="http://www.w3.org/2000/svg">
<path d="M135.306 30.2552C133.816 26.2464 127.287 22.4103 120.533 21.4735C116.421 20.7998 76.0992 19.8566 68.5027 20.0183C60.9061 19.8566 20.5821 20.7998 16.4721 21.4735C9.71844 22.4103 3.18953 26.2464 1.69912 30.2552C0.848223 32.6995 0.0133789 35.9998 0 40.5C0.0133789 44.9986 0.848223 48.3021 1.69645 50.7448C3.18686 54.7536 9.71576 58.5897 16.4694 59.5265C20.5821 60.2002 60.9035 61.1433 68.5 60.9816C76.0992 61.1433 116.421 60.2018 120.531 59.5265C127.284 58.5897 133.813 54.7536 135.304 50.7448C136.152 48.3021 136.987 45.0002 137 40.5C136.987 36.0013 136.152 32.6995 135.304 30.2568L135.306 30.2552Z" fill="#0060C6"/>
<path d="M62.2845 20.5344C54.2751 20.0781 42.947 19.7063 40.0079 19.8109C35.572 19.6516 12.0251 20.5813 9.6251 21.2453C5.68135 22.1688 1.86885 25.95 0.998535 29.9016C0.50166 32.3109 0.0141602 35.5641 0.00634766 40C0.0141602 44.4344 0.50166 47.6906 0.996973 50.0984C1.86729 54.05 5.67979 57.8313 9.62354 58.7547C11.4048 59.2469 24.8095 59.8859 33.4298 60.1172C49.8501 54.2687 61.7173 38.825 62.2845 20.5344Z" fill="url(#paint0_linear_4082_11684)"/>
<path d="M25.7813 41.4844L23.6984 42.1547L24.9938 43.9453C25.9547 45.2734 25.6578 47.1297 24.3297 48.0906C23.8031 48.4719 23.1953 48.6547 22.5922 48.6547C21.6719 48.6547 20.7656 48.2281 20.1844 47.4266L18.8953 45.6453L17.6063 47.4266C17.025 48.2281 16.1188 48.6547 15.1984 48.6547C14.5953 48.6547 13.9859 48.4719 13.4609 48.0906C12.1328 47.1297 11.8359 45.2734 12.7969 43.9453L14.0922 42.1547L12.0094 41.4844C10.4484 40.9828 9.59063 39.3109 10.0922 37.75C10.5938 36.1891 12.2656 35.3297 13.8266 35.8328L15.9266 36.5078V34.3156C15.9266 32.6766 17.2563 31.3469 18.8953 31.3469C20.5344 31.3469 21.8641 32.6766 21.8641 34.3156V36.5078L23.9641 35.8328C25.525 35.3313 27.1969 36.1891 27.6984 37.75C28.2 39.3109 27.3422 40.9828 25.7813 41.4844ZM46.8922 41.4844L44.8094 42.1547L46.1047 43.9453C47.0656 45.2734 46.7688 47.1297 45.4406 48.0906C44.9141 48.4719 44.3063 48.6547 43.7031 48.6547C42.7828 48.6547 41.8766 48.2281 41.2953 47.4266L40.0063 45.6453L38.7172 47.4266C38.1359 48.2281 37.2297 48.6547 36.3094 48.6547C35.7063 48.6547 35.0969 48.4719 34.5719 48.0906C33.2438 47.1297 32.9469 45.2734 33.9078 43.9453L35.2031 42.1547L33.1203 41.4844C31.5594 40.9828 30.7016 39.3109 31.2031 37.75C31.7047 36.1891 33.3766 35.3297 34.9375 35.8328L37.0375 36.5078V34.3156C37.0375 32.6766 38.3672 31.3469 40.0063 31.3469C41.6453 31.3469 42.975 32.6766 42.975 34.3156V36.5078L45.075 35.8328C46.6359 35.3313 48.3078 36.1891 48.8094 37.75C49.3109 39.3109 48.4531 40.9828 46.8922 41.4844ZM68.0031 41.4844L65.9203 42.1547L67.2156 43.9453C68.1766 45.2734 67.8797 47.1297 66.5516 48.0906C66.025 48.4719 65.4172 48.6547 64.8141 48.6547C63.8938 48.6547 62.9875 48.2281 62.4063 47.4266L61.1172 45.6453L59.8281 47.4266C59.2469 48.2281 58.3406 48.6547 57.4203 48.6547C56.8172 48.6547 56.2078 48.4719 55.6828 48.0906C54.3547 47.1297 54.0578 45.2734 55.0188 43.9453L56.3141 42.1547L54.2313 41.4844C52.6703 40.9828 51.8125 39.3109 52.3141 37.75C52.8156 36.1891 54.4875 35.3297 56.0484 35.8328L58.1484 36.5078V34.3156C58.1484 32.6766 59.4781 31.3469 61.1172 31.3469C62.7563 31.3469 64.0859 32.6766 64.0859 34.3156V36.5078L66.1859 35.8328C67.7469 35.3313 69.4188 36.1891 69.9203 37.75C70.4219 39.3109 69.5641 40.9828 68.0031 41.4844Z" fill="white"/>
<path d="M87.8323 41.4844L85.7495 42.1547L87.0448 43.9453C88.0057 45.2734 87.7088 47.1297 86.3807 48.0906C85.8542 48.4719 85.2463 48.6547 84.6432 48.6547C83.7229 48.6547 82.8167 48.2281 82.2354 47.4266L80.9463 45.6453L79.6573 47.4266C79.076 48.2281 78.1698 48.6547 77.2495 48.6547C76.6463 48.6547 76.037 48.4719 75.512 48.0906C74.1838 47.1297 73.887 45.2734 74.8479 43.9453L76.1432 42.1547L74.0604 41.4844C72.4995 40.9828 71.6417 39.3109 72.1432 37.75C72.6448 36.1891 74.3167 35.3297 75.8776 35.8328L77.9776 36.5078V34.3156C77.9776 32.6766 79.3073 31.3469 80.9463 31.3469C82.5854 31.3469 83.9151 32.6766 83.9151 34.3156V36.5078L86.0151 35.8328C87.576 35.3313 89.2479 36.1891 89.7495 37.75C90.251 39.3109 89.3932 40.9828 87.8323 41.4844ZM108.943 41.4844L106.86 42.1547L108.156 43.9453C109.117 45.2734 108.82 47.1297 107.492 48.0906C106.965 48.4719 106.357 48.6547 105.754 48.6547C104.834 48.6547 103.928 48.2281 103.346 47.4266L102.057 45.6453L100.768 47.4266C100.187 48.2281 99.2807 48.6547 98.3604 48.6547C97.7573 48.6547 97.1479 48.4719 96.6229 48.0906C95.2948 47.1297 94.9979 45.2734 95.9588 43.9453L97.2542 42.1547L95.1713 41.4844C93.6104 40.9828 92.7526 39.3109 93.2542 37.75C93.7557 36.1891 95.4276 35.3297 96.9885 35.8328L99.0885 36.5078V34.3156C99.0885 32.6766 100.418 31.3469 102.057 31.3469C103.696 31.3469 105.026 32.6766 105.026 34.3156V36.5078L107.126 35.8328C108.687 35.3313 110.359 36.1891 110.86 37.75C111.362 39.3109 110.504 40.9828 108.943 41.4844ZM130.054 41.4844L127.971 42.1547L129.267 43.9453C130.228 45.2734 129.931 47.1297 128.603 48.0906C128.076 48.4719 127.468 48.6547 126.865 48.6547C125.945 48.6547 125.039 48.2281 124.457 47.4266L123.168 45.6453L121.879 47.4266C121.298 48.2281 120.392 48.6547 119.471 48.6547C118.868 48.6547 118.259 48.4719 117.734 48.0906C116.406 47.1297 116.109 45.2734 117.07 43.9453L118.365 42.1547L116.282 41.4844C114.721 40.9828 113.864 39.3109 114.365 37.75C114.867 36.1891 116.539 35.3297 118.099 35.8328L120.199 36.5078V34.3156C120.199 32.6766 121.529 31.3469 123.168 31.3469C124.807 31.3469 126.137 32.6766 126.137 34.3156V36.5078L128.237 35.8328C129.798 35.3313 131.47 36.1891 131.971 37.75C132.473 39.3109 131.615 40.9828 130.054 41.4844Z" fill="white"/>
<defs>
<linearGradient id="paint0_linear_4082_11684" x1="31.1454" y1="19.7929" x2="31.1454" y2="60.1172" gradientUnits="userSpaceOnUse">
<stop stop-color="#0060C6"/>
<stop offset="1" stop-color="#004084"/>
</linearGradient>
</defs>
</svg>
