<svg width="160" height="50" viewBox="0 0 160 50" fill="none" xmlns="http://www.w3.org/2000/svg">
<path d="M104.195 12.0117C99.747 12.0117 96.5001 13.2484 94.5469 15.6904C92.9942 17.6318 92.2384 20.3035 92.2384 23.8566V29.7024C92.4446 37.1893 96.3156 41.3117 103.139 41.3117C110.96 41.3117 115.094 37.3503 115.094 29.8555V22.9653C115.094 16.3107 110.814 12.0098 104.193 12.0098L104.195 12.0117ZM98.9833 24.0843C99.0167 21.1947 99.4231 19.5831 100.342 18.6997C101.011 18.0558 102.002 17.7516 103.455 17.7516C103.551 17.7516 103.649 17.7516 103.752 17.7555C106.547 17.7555 108.408 18.8489 108.408 24.1903V29.1901C108.408 34.4784 106.639 35.5129 103.585 35.5129C100.53 35.5129 99.0324 33.7364 98.9833 29.5787V24.0843Z" fill="#0573EA"/>
<path d="M132.268 12.3455H125.779V3.68857C125.779 2.78755 125.779 0.677307 123.878 0.677307H123.211C120.628 0.677307 119.146 2.46365 119.146 5.57699V12.3474C118.297 12.3631 117.636 12.4691 117.179 12.8657C116.613 13.3545 116.535 14.1377 116.535 14.9111V15.8004C116.535 17.4277 117.177 17.9911 119.146 18.0303V32.1346C119.146 35.03 119.77 37.2698 121.004 38.7951C122.324 40.4283 124.338 41.2567 126.99 41.2567C131.558 41.2567 135.001 38.5536 135.001 34.9672V32.0227C135.001 30.1304 134.608 28.9565 132.657 28.9565H131.102C129.648 28.9565 128.813 29.9125 128.813 31.5791V33.8836C128.456 34.398 128.168 34.6237 127.323 34.6237C126.576 34.6237 125.779 34.1153 125.779 32.6901V18.0343H131.092C132.149 18.0382 133.061 18.0343 133.756 17.7437C134.594 17.3904 135.001 16.6641 135.001 15.5236V14.9131C135.001 13.2111 134.082 12.3474 132.268 12.3474V12.3455Z" fill="#0573EA"/>
<path d="M148.932 12.0117C144.484 12.0117 141.237 13.2484 139.284 15.6904C137.731 17.6318 136.975 20.3035 136.975 23.8566V29.7024C137.182 37.1893 141.053 41.3117 147.876 41.3117C155.697 41.3117 159.831 37.3503 159.831 29.8555V22.9653C159.831 16.3107 155.551 12.0098 148.93 12.0098L148.932 12.0117ZM143.72 24.0843C143.754 21.1947 144.16 19.5831 145.079 18.6997C145.748 18.0558 146.74 17.7516 148.192 17.7516C148.288 17.7516 148.386 17.7516 148.489 17.7555C151.284 17.7555 153.145 18.8489 153.145 24.1903V29.1901C153.145 34.4784 151.376 35.5129 148.322 35.5129C145.267 35.5129 143.769 33.7364 143.72 29.5787V24.0843Z" fill="#0573EA"/>
<path d="M90.0458 30.627C90.0458 28.3656 90.036 26.1023 90.0497 23.8409C90.0595 22.2862 89.7435 20.812 89.0898 19.4025C86.0589 12.8637 77.6454 10.2431 71.1341 13.5625C72.8851 14.6952 74.3633 16.2401 75.3723 18.1285C75.6549 18.0539 75.9415 17.999 76.2321 17.9695C79.475 17.6397 82.0249 18.9903 83.1164 21.6227C83.5247 22.6081 83.6424 23.6505 83.6424 24.7066C83.6444 29.1037 83.6483 33.4989 83.6424 37.8961C83.6424 38.7461 83.7465 39.543 84.3413 40.2105C85.2443 41.2234 86.7263 41.5689 88.1122 41.0722C89.3077 40.6423 90.0301 39.598 90.0419 38.1787C90.0595 35.6622 90.0478 33.1456 90.0478 30.629L90.0458 30.627Z" fill="#0573EA"/>
<path d="M75.8709 30.7016C75.8709 33.2182 75.8846 35.7348 75.865 38.2514C75.8551 39.6706 75.1328 40.7149 73.9373 41.1448C72.5514 41.6415 71.0693 41.296 70.1663 40.2831C69.5716 39.6157 69.4655 38.8187 69.4675 37.9687C69.4754 33.5715 69.4714 29.1763 69.4675 24.7792C69.4675 23.7231 69.3517 22.6807 68.9414 21.6953C67.85 19.0629 65.2981 17.7123 62.0571 18.0421C59.4718 18.3052 57.1574 20.4547 56.7099 23.0419C56.6078 23.6348 56.5548 24.2433 56.5528 24.844C56.5391 29.3039 56.5371 33.7639 56.5489 38.2239C56.5528 39.4567 56.0562 40.4067 54.9765 40.9662C53.8282 41.561 52.6307 41.5531 51.5177 40.8465C50.6559 40.3007 50.1888 39.4861 50.1888 38.4477C50.1888 33.3497 50.067 28.2498 50.2437 23.1578C50.3792 19.2317 52.5915 16.3716 55.8089 14.2967C62.4399 10.0173 71.6995 12.5457 74.9129 19.4771C75.5666 20.8865 75.8826 22.3627 75.8728 23.9155C75.8591 26.1769 75.8689 28.4402 75.8689 30.7016H75.8709Z" fill="#0573EA"/>
<path d="M58.7063 39.1013C58.7063 41.084 58.7024 43.0666 58.7063 45.0493C58.7122 47.613 60.685 49.5171 63.2409 49.4307C65.3865 49.3581 67.2827 47.4932 67.2984 45.3437C67.3279 41.1782 67.3298 37.0127 67.2984 32.8491C67.2827 30.6859 65.4532 28.9074 63.2036 28.7621C61.1091 28.6267 59.1087 30.2305 58.7731 32.3054C58.724 32.6096 58.7063 32.912 58.7083 33.2182C58.7083 35.1792 58.7083 37.1403 58.7083 39.1013H58.7063Z" fill="#02DF80"/>
<path d="M63.0289 2.67418e-05C66.3464 0.00984181 69.0259 2.70113 69.0279 6.02648C69.0318 9.36164 66.3366 12.0647 63.0073 12.0647C59.678 12.0647 56.9867 9.36164 56.9926 6.02255C56.9985 2.68347 59.6977 -0.00978833 63.0269 2.67418e-05H63.0289ZM63.0053 2.58728C61.1091 2.59121 59.5759 4.1361 59.5799 6.03825C59.5838 7.94238 61.1189 9.47745 63.0171 9.47353C64.9153 9.4696 66.4485 7.92667 66.4426 6.02648C66.4367 4.12235 64.8977 2.58335 63.0053 2.58728Z" fill="#02DF80"/>
<path d="M54.955 7.75002C53.7949 7.75002 52.6347 7.75983 51.4746 7.74609C50.548 7.73628 49.8178 7.10223 49.698 6.24046C49.5803 5.40029 50.1279 4.61705 50.9956 4.3756C51.1919 4.32064 51.3902 4.31082 51.5923 4.31082C53.8793 4.31082 56.1662 4.31278 58.4531 4.30493C58.7063 4.30493 58.8025 4.3599 58.7986 4.61705C58.7829 5.55537 58.7809 6.49369 58.7986 7.43201C58.8045 7.7088 58.7004 7.75591 58.4354 7.75394C57.2753 7.7402 56.1151 7.74806 54.955 7.74806V7.75002Z" fill="#02DF80"/>
<path d="M71.4011 7.75002C72.5613 7.75002 73.7214 7.75983 74.8816 7.74609C75.8081 7.73628 76.5383 7.10223 76.6581 6.24046C76.7759 5.40029 76.2282 4.61705 75.3605 4.3756C75.1642 4.32064 74.966 4.31082 74.7638 4.31082C72.4769 4.31082 70.19 4.31278 67.903 4.30493C67.6498 4.30493 67.5536 4.3599 67.5575 4.61705C67.5733 5.55537 67.5752 6.49369 67.5575 7.43201C67.5517 7.7088 67.6557 7.75591 67.9207 7.75394C69.0809 7.7402 70.241 7.74806 71.4011 7.74806V7.75002Z" fill="#02DF80"/>
<path d="M19.2634 15.1682C17.0001 12.7792 14.0065 12.2767 11.8923 12.2767C2.20288 12.2767 0.169197 18.6506 0.169197 23.9998V28.7797C0.169197 32.5173 1.21941 35.6601 3.20794 37.8685C5.28874 40.1789 8.37263 41.3999 12.1298 41.3999C15.3806 41.3999 17.8442 40.3929 20.0212 39.3054C20.9752 38.8029 21.0988 38.4338 21.1047 37.788L20.5139 34.3645C20.3961 33.6637 20.1586 33.171 19.8778 33.0473C19.6207 32.9335 19.2536 33.1141 18.9906 33.2848C16.5132 34.9357 14.7563 35.5816 12.7286 35.5816C10.0922 35.5816 7.35186 34.8984 7.00441 29.8339L6.96515 29.2724H19.2988C21.3835 29.2724 22.0705 29.0231 22.2394 26.0649C22.5044 21.2025 21.5013 17.5375 19.2615 15.1721L19.2634 15.1682ZM14.0438 24.7654C13.8357 24.7654 13.2664 24.7752 12.544 24.7889C10.9991 24.8164 9.54062 24.8419 8.6023 24.8419C8.16455 24.8419 7.83869 24.836 7.66987 24.8243L7.18501 24.787V24.3001C7.18501 19.954 7.94273 17.2608 11.7137 17.2608C14.4776 17.2608 16.0637 19.2611 16.0637 22.7454C16.0637 23.935 15.2334 24.7654 14.0438 24.7654Z" fill="#0173EC"/>
<path fill-rule="evenodd" clip-rule="evenodd" d="M31.889 12.2787H27.0251L27.0259 12.2807H26.183C24.6813 12.2807 24.2004 12.7636 24.2004 14.2633C24.2004 16.1615 24.3869 17.673 24.7736 18.8842C27.1469 26.2593 29.7636 33.33 32.3449 39.331C32.9358 40.7483 33.2931 41.2822 34.73 41.2822H38.1947C39.6591 41.2822 40.0105 40.7502 40.5739 39.3428C42.1286 35.6503 43.7618 31.0353 45.4912 26.1474L45.4873 26.1454L45.6107 25.797L45.6108 25.7966C46.4811 23.3398 47.3769 20.8106 48.2728 18.3817C48.5574 17.5867 48.7184 17.0626 48.7184 15.5766V14.4596C48.7243 12.9402 48.7263 12.369 46.8418 12.2787L46.5355 12.2787H36.4486C36.4542 14.1608 36.4546 16.0416 36.4182 17.9223C36.4005 18.8234 36.6949 19.0315 37.5351 19.004C38.7926 18.9626 40.051 18.9706 41.3657 18.9791C41.9207 18.9827 42.4857 18.9863 43.0649 18.9863C41.9262 21.6941 40.8042 24.361 39.6865 27.0176C38.6732 29.426 37.6634 31.8261 36.6478 34.2409C36.4063 34.029 36.427 33.7986 36.4458 33.5888C36.4507 33.5343 36.4555 33.4812 36.4555 33.4302C36.4539 32.9901 36.4522 32.5501 36.4504 32.1101C36.4405 29.69 36.4307 27.2699 36.4672 24.8498C36.479 24.1058 36.2317 23.9115 35.5289 23.9292C34.3266 23.9592 33.1233 23.9528 31.9197 23.9463C31.4725 23.9439 31.0254 23.9415 30.5782 23.9409C30.5345 23.9409 30.4925 23.9422 30.4524 23.9434C30.1467 23.9526 29.9576 23.9583 30.06 23.3717C30.7997 19.1136 31.2942 16.0579 31.889 12.2787Z" fill="#0173EC"/>
</svg>
