<svg width="18" height="18" viewBox="0 0 18 18" fill="none" xmlns="http://www.w3.org/2000/svg">
<path d="M9 18C13.9706 18 18 13.9706 18 9C18 4.02944 13.9706 0 9 0C4.02944 0 0 4.02944 0 9C0 13.9706 4.02944 18 9 18Z" fill="#008CEB"/>
<path d="M14.244 9.03925V11.5723C14.244 11.7371 14.1732 11.7717 14.0347 11.691C13.8495 11.5798 13.6568 11.4818 13.4579 11.3976C12.8573 11.1583 12.2066 11.0717 11.5643 11.1455C10.8632 11.2364 10.1752 11.409 9.51413 11.6596C8.85491 11.8821 8.20888 12.1228 7.53647 12.309C6.97955 12.4744 6.39996 12.5506 5.81921 12.5348C5.17559 12.5098 4.55009 12.3148 4.00635 11.9695C3.93803 11.9283 3.88198 11.8696 3.84402 11.7995C3.80605 11.7294 3.78756 11.6504 3.79046 11.5707C3.79046 9.91162 3.79046 8.25258 3.79046 6.59354C3.79046 6.51279 3.79046 6.4172 3.86297 6.376C3.93549 6.3348 4.00965 6.40237 4.07227 6.44357C4.66272 6.84281 5.36202 7.05001 6.07465 7.03687C6.5842 7.01597 7.08813 6.92217 7.57108 6.75835C8.25667 6.54575 8.91919 6.26393 9.59324 6.02497C10.1179 5.82332 10.6559 5.65812 11.2034 5.53055C11.6732 5.42053 12.1608 5.40897 12.6353 5.49662C13.1098 5.58426 13.561 5.7692 13.9606 6.0398C14.0522 6.09592 14.1272 6.17543 14.1779 6.27014C14.2285 6.36486 14.2531 6.47137 14.249 6.57871C14.249 7.40274 14.249 8.22676 14.249 9.05079L14.244 9.03925Z" fill="white"/>
</svg>
