<svg width="24" height="21" viewBox="0 0 24 21" fill="none" xmlns="http://www.w3.org/2000/svg">
<path d="M23.8551 6.85781C23.6854 5.35734 22.1236 3.94594 20.5214 3.77297C19.6209 3.68531 18.7204 3.61125 17.82 3.55125C17.3939 2.78906 16.9697 2.02172 16.5525 1.25062C16.1859 0.5775 15.5423 0.113906 14.8818 0.0773438C13.5548 -0.0257812 10.4447 -0.0257812 9.11762 0.0773438C8.45668 0.114375 7.81356 0.5775 7.447 1.25062C7.0584 1.96922 6.66372 2.685 6.26715 3.39609C6.21325 3.49078 6.11668 3.55594 6.01543 3.5625C5.16981 3.62063 4.32372 3.69047 3.47809 3.77297C1.87637 3.94594 0.314497 5.35734 0.144809 6.85781C-0.206753 10.1911 -0.0562847 13.5244 0.597153 16.8577C0.740122 17.5852 1.20981 18.3328 1.85668 18.9487C2.5059 19.5623 3.27278 19.9908 4.00028 20.1028C9.33372 20.9227 14.6672 20.9227 20.0001 20.1028C20.7276 19.9908 21.4945 19.5623 22.1437 18.9487C22.7906 18.3328 23.2603 17.5856 23.4032 16.8577C24.0567 13.5244 24.2072 10.1911 23.8556 6.85781H23.8551ZM12 17.6414C9.22684 17.6292 6.74528 15.1467 6.68668 12.2981C6.66231 9.44859 9.14387 7.01484 12 7.00172C14.8561 7.01484 17.3376 9.44906 17.3132 12.2981C17.2547 15.1467 14.7731 17.6292 12 17.6414ZM19.2951 8.26359C18.6815 8.21531 18.1842 7.71797 18.1359 7.10438C18.0745 6.32438 18.7204 5.67797 19.5004 5.73984C20.114 5.78813 20.6114 6.28547 20.6597 6.89906C20.7211 7.67906 20.0751 8.32547 19.2951 8.26359Z" fill="#145F9A"/>
<path d="M12 8.68164C10.0115 8.68586 8.35028 10.3293 8.36435 12.3107C8.38919 14.2916 10.0504 15.9576 12 15.9618C13.9495 15.958 15.6103 14.2916 15.6356 12.3107C15.6497 10.3293 13.9884 8.68586 12 8.68164Z" fill="#145F9A"/>
</svg>
