<svg width="16" height="16" viewBox="0 0 16 16" fill="none" xmlns="http://www.w3.org/2000/svg">
<g clip-path="url(#clip0_4082_10880)">
<path d="M8.15028 1.71762C7.42903 0.984184 6.51497 0.548246 5.55184 0.549809C5.54309 0.549809 5.53434 0.549809 5.52559 0.549809C3.56997 0.581371 1.83247 2.40731 1.78372 4.3545C1.77622 4.78637 1.8509 5.20762 2.00497 5.61231L2.00747 5.61887C2.01684 5.68168 2.80934 7.45762 5.27403 10.0989C5.28247 10.1104 5.29153 10.1217 5.30153 10.1326C5.36997 10.2067 5.46059 10.2442 5.55184 10.2442C5.63809 10.2442 5.72434 10.2104 5.79184 10.1432C6.98278 8.95043 7.83809 7.76418 8.32184 7.0095C8.85434 6.18012 9.08403 5.64793 9.09372 5.62481L9.09872 5.61231C9.25122 5.21137 9.3259 4.79387 9.31997 4.36606C9.30715 3.39418 8.87653 2.45981 8.15059 1.71762H8.15028ZM5.56215 5.86262C4.73872 5.86137 4.06809 5.19387 4.07247 4.37637C4.07809 3.55918 4.7484 2.87887 5.56215 2.87793C6.37559 2.87887 7.04622 3.5595 7.05184 4.37637C7.05622 5.19356 6.38559 5.86106 5.56215 5.86231V5.86262Z" fill="#0060C6"/>
<path d="M13.0624 7.5603L10.709 10.585L14.2874 15.1841C15.3771 14.9675 16.2793 13.7784 15.9196 12.7672C15.4602 11.4484 14.8621 10.0759 14.2009 8.65155C13.9662 8.15218 13.5421 7.75374 13.0624 7.5603Z" fill="#0060C6"/>
<path d="M10.1546 11.2976L6.92932 15.4429C9.03588 15.472 11.1428 15.4154 13.2481 15.2735L10.1546 11.2976Z" fill="#0060C6"/>
<path d="M9.16493 7.31274C9.13055 7.36774 9.09493 7.42399 9.05805 7.48149C8.63774 8.13712 7.73493 9.43462 6.40961 10.7621C6.1793 10.9921 5.8743 11.119 5.55149 11.119C5.2143 11.119 4.88868 10.9756 4.65836 10.7259C4.64086 10.7071 4.62399 10.6874 4.60774 10.6674C3.58805 9.57212 2.85524 8.62649 2.35743 7.91774C2.1268 8.11712 1.93243 8.36806 1.7993 8.65149C1.13774 10.0762 0.539927 11.4484 0.0805517 12.7671C-0.299448 13.8359 0.729302 15.1031 1.89993 15.2115C3.21243 15.3143 4.52555 15.3837 5.83899 15.4202L12.0702 7.41056C11.1021 7.35962 10.1337 7.32743 9.16493 7.31274Z" fill="#0060C6"/>
</g>
<defs>
<clipPath id="clip0_4082_10880">
<rect width="16" height="16" fill="white"/>
</clipPath>
</defs>
</svg>
