<svg width="16" height="16" viewBox="0 0 16 16" fill="none" xmlns="http://www.w3.org/2000/svg">
<path d="M10.4844 2H5.51562C3.57406 2 2 3.57406 2 5.51562V10.4844C2 12.4259 3.57406 14 5.51562 14H10.4844C12.4259 14 14 12.4259 14 10.4844V5.51562C14 3.57406 12.4259 2 10.4844 2ZM11.3984 8C11.3984 8.32367 11.1362 8.58594 10.8125 8.58594H8.58594V10.8125C8.58594 11.1362 8.32367 11.3984 8 11.3984C7.67633 11.3984 7.41406 11.1362 7.41406 10.8125V8.58594H5.1875C4.86383 8.58594 4.60156 8.32367 4.60156 8C4.60156 7.67633 4.86383 7.41406 5.1875 7.41406H7.41406V5.1875C7.41406 4.86383 7.67633 4.60156 8 4.60156C8.32367 4.60156 8.58594 4.86383 8.58594 5.1875V7.41406H10.8125C11.1362 7.41406 11.3984 7.67633 11.3984 8Z" fill="#0060C6"/>
</svg>
