<svg width="18" height="18" viewBox="0 0 18 18" fill="none" xmlns="http://www.w3.org/2000/svg">
<path d="M5.25 0.75V2.25H2.25C2.05109 2.25 1.86032 2.32902 1.71967 2.46967C1.57902 2.61032 1.5 2.80109 1.5 3V15C1.5 15.1989 1.57902 15.3897 1.71967 15.5303C1.86032 15.671 2.05109 15.75 2.25 15.75H8.06625C7.14314 14.597 6.67772 13.1441 6.75911 11.6694C6.8405 10.1946 7.46297 8.80173 8.50735 7.75735C9.55173 6.71297 10.9446 6.0905 12.4194 6.00911C13.8941 5.92772 15.347 6.39314 16.5 7.31625V3C16.5 2.80109 16.421 2.61032 16.2803 2.46967C16.1397 2.32902 15.9489 2.25 15.75 2.25H12.75V0.75H11.25V2.25H6.75V0.75H5.25ZM17.25 12C17.25 12.5909 17.1336 13.1761 16.9075 13.7221C16.6813 14.268 16.3498 14.7641 15.932 15.182C15.5141 15.5998 15.018 15.9313 14.4721 16.1575C13.9261 16.3836 13.3409 16.5 12.75 16.5C12.1591 16.5 11.5739 16.3836 11.0279 16.1575C10.482 15.9313 9.98588 15.5998 9.56802 15.182C9.15016 14.7641 8.81869 14.268 8.59254 13.7221C8.3664 13.1761 8.25 12.5909 8.25 12C8.25 10.8065 8.72411 9.66193 9.56802 8.81802C10.4119 7.97411 11.5565 7.5 12.75 7.5C13.9435 7.5 15.0881 7.97411 15.932 8.81802C16.7759 9.66193 17.25 10.8065 17.25 12ZM12 9V12.3105L13.7197 14.0303L14.7803 12.9697L13.5 11.6895V9H12Z" fill="#272727"/>
</svg>
