<svg width="24" height="24" viewBox="0 0 24 24" fill="none" xmlns="http://www.w3.org/2000/svg">
<path d="M18.25 21H13.6131C14.392 20.3044 15.1265 19.5608 15.8125 18.7734C18.3859 15.8138 19.75 12.6938 19.75 9.75C19.75 7.56196 18.8808 5.46354 17.3336 3.91637C15.7865 2.36919 13.688 1.5 11.5 1.5C9.31196 1.5 7.21354 2.36919 5.66637 3.91637C4.11919 5.46354 3.25 7.56196 3.25 9.75C3.25 12.6938 4.61031 15.8138 7.1875 18.7734C7.87346 19.5608 8.60802 20.3044 9.38688 21H4.75C4.55109 21 4.36032 21.079 4.21967 21.2197C4.07902 21.3603 4 21.5511 4 21.75C4 21.9489 4.07902 22.1397 4.21967 22.2803C4.36032 22.421 4.55109 22.5 4.75 22.5H18.25C18.4489 22.5 18.6397 22.421 18.7803 22.2803C18.921 22.1397 19 21.9489 19 21.75C19 21.5511 18.921 21.3603 18.7803 21.2197C18.6397 21.079 18.4489 21 18.25 21ZM11.5 6.75C12.0933 6.75 12.6734 6.92595 13.1667 7.25559C13.6601 7.58524 14.0446 8.05377 14.2716 8.60195C14.4987 9.15013 14.5581 9.75333 14.4424 10.3353C14.3266 10.9172 14.0409 11.4518 13.6213 11.8713C13.2018 12.2909 12.6672 12.5766 12.0853 12.6924C11.5033 12.8081 10.9001 12.7487 10.3519 12.5216C9.80377 12.2946 9.33524 11.9101 9.00559 11.4167C8.67595 10.9234 8.5 10.3433 8.5 9.75C8.5 8.95435 8.81607 8.19129 9.37868 7.62868C9.94129 7.06607 10.7044 6.75 11.5 6.75Z" fill="#EB5757"/>
</svg>
