<svg width="20" height="20" viewBox="0 0 20 20" fill="none" xmlns="http://www.w3.org/2000/svg">
<path fill-rule="evenodd" clip-rule="evenodd" d="M12.18 2.59023L9.77254 1.14648L7.36504 2.59023L4.56879 2.83773L3.46879 5.42023L1.35254 7.26398L1.98129 10.0002L1.35254 12.7365L3.46879 14.5802L4.56879 17.1627L7.36504 17.4102L9.77254 18.854L12.18 17.4102L14.9763 17.1627L16.0763 14.5802L18.1938 12.7365L17.5625 10.0002L18.1925 7.26398L16.075 5.42023L14.975 2.83773L12.18 2.59023ZM6.87504 8.12523C6.87504 7.95947 6.94089 7.8005 7.0581 7.68329C7.17531 7.56608 7.33428 7.50023 7.50004 7.50023C7.6658 7.50023 7.82477 7.56608 7.94198 7.68329C8.05919 7.8005 8.12504 7.95947 8.12504 8.12523C8.12504 8.29099 8.05919 8.44997 7.94198 8.56718C7.82477 8.68439 7.6658 8.75023 7.50004 8.75023C7.33428 8.75023 7.17531 8.68439 7.0581 8.56718C6.94089 8.44997 6.87504 8.29099 6.87504 8.12523ZM7.50004 6.25023C7.00276 6.25023 6.52585 6.44778 6.17421 6.79941C5.82258 7.15104 5.62504 7.62795 5.62504 8.12523C5.62504 8.62251 5.82258 9.09943 6.17421 9.45106C6.52585 9.80269 7.00276 10.0002 7.50004 10.0002C7.99732 10.0002 8.47424 9.80269 8.82587 9.45106C9.1775 9.09943 9.37504 8.62251 9.37504 8.12523C9.37504 7.62795 9.1775 7.15104 8.82587 6.79941C8.47424 6.44778 7.99732 6.25023 7.50004 6.25023ZM7.31754 13.5677L13.5675 7.31773L12.6825 6.43273L6.43254 12.6827L7.31754 13.5677ZM11.875 12.5002C11.875 12.3345 11.9409 12.1755 12.0581 12.0583C12.1753 11.9411 12.3343 11.8752 12.5 11.8752C12.6658 11.8752 12.8248 11.9411 12.942 12.0583C13.0592 12.1755 13.125 12.3345 13.125 12.5002C13.125 12.666 13.0592 12.825 12.942 12.9422C12.8248 13.0594 12.6658 13.1252 12.5 13.1252C12.3343 13.1252 12.1753 13.0594 12.0581 12.9422C11.9409 12.825 11.875 12.666 11.875 12.5002ZM12.5 10.6252C12.0028 10.6252 11.5258 10.8228 11.1742 11.1744C10.8226 11.526 10.625 12.003 10.625 12.5002C10.625 12.9975 10.8226 13.4744 11.1742 13.8261C11.5258 14.1777 12.0028 14.3752 12.5 14.3752C12.9973 14.3752 13.4742 14.1777 13.8259 13.8261C14.1775 13.4744 14.375 12.9975 14.375 12.5002C14.375 12.003 14.1775 11.526 13.8259 11.1744C13.4742 10.8228 12.9973 10.6252 12.5 10.6252Z" fill="#2E2E2E"/>
</svg>
