<svg width="16" height="16" viewBox="0 0 16 16" fill="none" xmlns="http://www.w3.org/2000/svg">
<path d="M15.6324 5.47469C15.4699 4.93312 14.9846 4.47937 14.5477 4.46094C14.3599 4.45364 14.1717 4.46211 13.9852 4.48625C13.2209 1.89562 10.8271 0 7.99993 0C5.17275 0 2.779 1.89562 2.01368 4.48625C1.82722 4.46211 1.63906 4.45364 1.45118 4.46094C1.01368 4.47937 0.528995 4.93312 0.366495 5.47469C0.22587 5.79375 -0.0441299 7.70281 0.00618263 8.3325C-0.0441299 8.96219 0.224933 10.8713 0.367433 11.1903C0.531183 11.7319 1.01525 12.1853 1.45212 12.2041C1.81403 12.2153 2.17561 12.1732 2.52524 12.0791C2.87487 11.9901 3.21259 11.8596 3.53118 11.6903C3.90931 11.4784 4.16525 10.975 4.16493 10.5425C4.14587 10.2741 4.08056 8.80656 4.09743 8.3325C4.08056 7.85844 4.14587 6.39094 4.16493 6.1225C4.16493 5.69 3.90931 5.185 3.53118 4.97469L3.44618 4.93094C4.02181 2.95094 5.84525 1.5 7.99993 1.5C10.1546 1.5 11.9781 2.95094 12.5534 4.93094L12.4684 4.97469C12.0902 5.18531 11.8343 5.69 11.8346 6.12281C11.8537 6.39125 11.919 7.85875 11.9021 8.33281C11.919 8.80688 11.8537 10.2744 11.8346 10.5428C11.8346 10.9753 12.0902 11.4788 12.4684 11.6906L12.539 11.7272C12.2395 12.3503 11.8033 12.8977 11.2628 13.3287C10.7223 13.7598 10.0915 14.0632 9.41743 14.2166C9.2789 13.9899 9.06736 13.817 8.81758 13.7264C8.56781 13.6359 8.29466 13.633 8.04301 13.7182C7.79137 13.8034 7.5762 13.9717 7.43287 14.1954C7.28954 14.4192 7.22657 14.685 7.25432 14.9492C7.28206 15.2134 7.39887 15.4604 7.58554 15.6494C7.77221 15.8385 8.01764 15.9584 8.2815 15.9895C8.54536 16.0206 8.81195 15.9611 9.03747 15.8206C9.26298 15.6801 9.43401 15.4671 9.52243 15.2166C11.2802 14.8606 12.7412 13.6722 13.4774 12.0806C13.8262 12.174 14.1869 12.2155 14.5477 12.2037C14.9852 12.1853 15.4699 11.7316 15.6324 11.19C15.774 10.8709 16.044 8.96187 15.9937 8.33219C16.044 7.70281 15.7737 5.79375 15.6324 5.47469Z" fill="#145F9A"/>
</svg>
