<svg width="16" height="16" viewBox="0 0 16 16" fill="none" xmlns="http://www.w3.org/2000/svg">
<path d="M1.34032 8.81445C1.30064 8.86102 1.26126 8.9082 1.22314 8.9532C1.22314 8.9532 0.196573 11.1945 0.00157347 14.8338C-0.00668797 14.9879 0.0176503 15.1419 0.0729973 15.2859C0.128344 15.4299 0.213454 15.5605 0.322763 15.6694C0.432072 15.7782 0.56312 15.8628 0.707339 15.9175C0.851559 15.9722 1.0057 15.9959 1.1597 15.987C4.61001 15.7913 6.71501 14.9154 7.00564 14.7879C5.78126 10.6507 2.55439 9.21602 1.34032 8.81445Z" fill="#145F9A"/>
<path d="M15.714 2.39704C15.0824 0.728602 13.5577 0.266414 13.5577 0.266414C12.8133 -0.000871927 12.0118 -0.0685262 11.2331 0.0701854C10.4544 0.208897 9.72564 0.549137 9.11929 1.05704C8.10804 1.90391 6.77554 3.11954 5.02961 4.8636C3.97367 5.91985 3.11242 6.82485 2.40836 7.59954C4.04429 8.26766 6.89336 9.93204 8.24992 13.7183C9.05617 12.9908 10.0084 12.0883 11.1312 10.9652C12.8749 9.2211 14.0909 7.88673 14.9374 6.87579C16.0055 5.60079 16.2759 3.8811 15.714 2.39704Z" fill="#145F9A"/>
</svg>
