<svg width="27" height="27" viewBox="0 0 27 27" fill="none" xmlns="http://www.w3.org/2000/svg">
<path d="M24.1312 8.8349C23.5454 7.4369 22.6933 6.16622 21.6223 5.09365C20.5544 4.01924 19.286 3.16501 17.8889 2.57947C16.4577 1.97672 14.92 1.66775 13.3671 1.67092H13.3149C11.7354 1.67875 10.2081 1.99205 8.76954 2.60819C7.38446 3.19974 6.12791 4.05548 5.0701 5.12759C4.00943 6.19774 3.16705 7.46398 2.58989 8.85579C1.99076 10.3031 1.68718 11.8556 1.69701 13.422C1.70484 15.2339 2.13823 17.0327 2.94756 18.641V22.6094C2.94756 23.2725 3.48537 23.8103 4.14589 23.8103H8.10902C9.72474 24.6257 11.5077 25.0546 13.3175 25.0635H13.3723C14.9335 25.0635 16.4451 24.7607 17.8706 24.168C19.2606 23.5895 20.5243 22.7452 21.5909 21.6825C22.6666 20.6147 23.5125 19.3668 24.1051 17.9752C24.7186 16.5341 25.0319 15.0016 25.0397 13.4194C25.045 11.8295 24.7369 10.2865 24.1312 8.8349ZM8.15601 14.6204C7.46677 14.6204 6.90546 14.0591 6.90546 13.3672C6.90546 12.6754 7.46677 12.114 8.15601 12.114C8.84525 12.114 9.40656 12.6754 9.40656 13.3672C9.40656 14.0591 8.84786 14.6204 8.15601 14.6204ZM13.3671 14.6204C12.6778 14.6204 12.1165 14.0591 12.1165 13.3672C12.1165 12.6754 12.6778 12.114 13.3671 12.114C14.0563 12.114 14.6176 12.6754 14.6176 13.3672C14.6176 14.0591 14.0563 14.6204 13.3671 14.6204ZM18.5781 14.6204C17.8889 14.6204 17.3276 14.0591 17.3276 13.3672C17.3276 12.6754 17.8889 12.114 18.5781 12.114C19.2674 12.114 19.8287 12.6754 19.8287 13.3672C19.8287 14.0591 19.2674 14.6204 18.5781 14.6204Z" fill="white"/>
</svg>
