<svg width="16" height="16" viewBox="0 0 16 16" fill="none" xmlns="http://www.w3.org/2000/svg">
<g clip-path="url(#clip0_4109_13350)">
<path d="M14.4748 0.0937008C9.73141 1.9962 4.75016 3.71058 0.643596 5.55964C-0.200154 5.94276 -0.213904 7.43651 0.630158 7.82839C2.14985 8.52651 3.80266 9.18151 5.52485 9.82339C5.67489 9.87932 5.81115 9.96687 5.92438 10.0801C6.03761 10.1933 6.12516 10.3296 6.1811 10.4796C6.82266 12.2018 7.47766 13.8546 8.1761 15.3746C8.56766 16.2184 10.0614 16.2046 10.4445 15.3609C12.2939 11.2559 14.007 6.27339 15.9133 1.52964C16.2936 0.578388 15.4255 -0.289424 14.4748 0.0937008Z" fill="url(#paint0_linear_4109_13350)"/>
<path d="M12.4605 3.83305C12.4613 2.89046 12.3085 1.95404 12.0083 1.06055C8.03953 2.5918 4.04172 4.0293 0.643596 5.56055C-0.200154 5.94367 -0.213904 7.43742 0.630158 7.8293C2.14985 8.52742 3.80266 9.18242 5.52485 9.8243C5.67489 9.88023 5.81115 9.96778 5.92438 10.081C6.03762 10.1942 6.12517 10.3305 6.1811 10.4805C6.37193 10.9935 6.56443 11.4996 6.7586 11.999C10.0858 10.778 12.4605 7.58273 12.4605 3.83305Z" fill="url(#paint1_linear_4109_13350)"/>
</g>
<defs>
<linearGradient id="paint0_linear_4109_13350" x1="8.00436" y1="0.000976562" x2="8.00436" y2="16.0006" gradientUnits="userSpaceOnUse">
<stop stop-color="#2D74BF"/>
<stop offset="1" stop-color="#114E8E"/>
</linearGradient>
<linearGradient id="paint1_linear_4109_13350" x1="6.23219" y1="1.06055" x2="6.23219" y2="11.999" gradientUnits="userSpaceOnUse">
<stop stop-color="#0060C6"/>
<stop offset="1" stop-color="#004084"/>
</linearGradient>
<clipPath id="clip0_4109_13350">
<rect width="16" height="16" fill="white"/>
</clipPath>
</defs>
</svg>
