<svg width="5" height="21" viewBox="0 0 5 21" fill="none" xmlns="http://www.w3.org/2000/svg">
<path fill-rule="evenodd" clip-rule="evenodd" d="M2.25 4.5C3.49264 4.5 4.5 3.49264 4.5 2.25C4.5 1.00736 3.49264 0 2.25 0C1.00736 0 0 1.00736 0 2.25C0 3.49264 1.00736 4.5 2.25 4.5ZM2.25 12.75C3.49264 12.75 4.5 11.7426 4.5 10.5C4.5 9.25736 3.49264 8.25 2.25 8.25C1.00736 8.25 0 9.25736 0 10.5C0 11.7426 1.00736 12.75 2.25 12.75ZM4.5 18.75C4.5 19.9926 3.49264 21 2.25 21C1.00736 21 0 19.9926 0 18.75C0 17.5074 1.00736 16.5 2.25 16.5C3.49264 16.5 4.5 17.5074 4.5 18.75Z" fill="#2E2E2E"/>
</svg>
