<svg width="14" height="11" viewBox="0 0 14 11" fill="none" xmlns="http://www.w3.org/2000/svg">
<path d="M1.33333 0C0.979711 0 0.640573 0.140476 0.390524 0.390524C0.140476 0.640573 0 0.979711 0 1.33333V4C0.353622 4 0.692761 4.14048 0.942809 4.39052C1.19286 4.64057 1.33333 4.97971 1.33333 5.33333C1.33333 5.68696 1.19286 6.02609 0.942809 6.27614C0.692761 6.52619 0.353622 6.66667 0 6.66667V9.33333C0 9.68696 0.140476 10.0261 0.390524 10.2761C0.640573 10.5262 0.979711 10.6667 1.33333 10.6667H12C12.3536 10.6667 12.6928 10.5262 12.9428 10.2761C13.1929 10.0261 13.3333 9.68696 13.3333 9.33333V6.66667C12.9797 6.66667 12.6406 6.52619 12.3905 6.27614C12.1405 6.02609 12 5.68696 12 5.33333C12 4.97971 12.1405 4.64057 12.3905 4.39052C12.6406 4.14048 12.9797 4 13.3333 4V1.33333C13.3333 0.979711 13.1929 0.640573 12.9428 0.390524C12.6928 0.140476 12.3536 0 12 0H1.33333ZM9 2L10 3L4.33333 8.66667L3.33333 7.66667L9 2ZM4.54 2.02667C5.19333 2.02667 5.72 2.55333 5.72 3.20667C5.72 3.51962 5.59568 3.81976 5.37439 4.04105C5.15309 4.26235 4.85296 4.38667 4.54 4.38667C3.88667 4.38667 3.36 3.86 3.36 3.20667C3.36 2.89371 3.48432 2.59357 3.70561 2.37228C3.92691 2.15099 4.22704 2.02667 4.54 2.02667ZM8.79333 6.28C9.44667 6.28 9.97333 6.80667 9.97333 7.46C9.97333 7.77296 9.84901 8.07309 9.62772 8.29439C9.40643 8.51568 9.10629 8.64 8.79333 8.64C8.14 8.64 7.61333 8.11333 7.61333 7.46C7.61333 7.14704 7.73765 6.84691 7.95895 6.62561C8.18024 6.40432 8.48038 6.28 8.79333 6.28Z" fill="#145F9A"/>
</svg>
