<svg width="18" height="18" viewBox="0 0 18 18" fill="none" xmlns="http://www.w3.org/2000/svg">
<path d="M8.922 1.79004C13.6963 0.162452 16.0834 -0.651337 17.3674 0.632613C18.6513 1.91656 17.8375 4.30371 16.21 9.078L15.1016 12.3292C13.8517 15.9958 13.2267 17.8291 12.1964 17.9808C11.9195 18.0216 11.6328 17.9971 11.3587 17.9091C10.3395 17.5819 9.8007 15.6489 8.7231 11.783C8.4841 10.9255 8.3646 10.4967 8.0924 10.1692C8.0134 10.0742 7.9258 9.9866 7.8308 9.9076C7.5033 9.6354 7.0745 9.5159 6.21705 9.2769C2.35111 8.1993 0.418136 7.6605 0.0908965 6.64127C0.00291649 6.36724 -0.0216334 6.08053 0.0191566 5.80355C0.170877 4.77332 2.00419 4.14834 5.6708 2.89838L8.922 1.79004Z" fill="#696969"/>
</svg>
