<svg width="32" height="32" viewBox="0 0 32 32" fill="none" xmlns="http://www.w3.org/2000/svg">
<path d="M31.4984 10.4728C32.1561 11.1305 32.1561 12.1923 31.4984 12.85C31.1614 13.1867 30.7399 13.3554 30.3016 13.3554C29.8633 13.3554 29.4419 13.1866 29.1048 12.85L25.3119 9.05708L21.5188 12.85C21.1986 13.1867 20.7603 13.3554 20.322 13.3554C19.9006 13.3554 19.4622 13.1866 19.1416 12.85C18.4844 12.1923 18.4844 11.1305 19.1416 10.4728L22.9346 6.67989L19.1416 2.88689C18.4844 2.2292 18.4844 1.15089 19.1416 0.493266C19.7993 -0.164422 20.8611 -0.164422 21.5188 0.493266L25.3117 4.2862L29.1047 0.493266C29.7619 -0.164422 30.8411 -0.164422 31.4983 0.493266C32.156 1.15095 32.156 2.22927 31.4983 2.88689L27.7054 6.67983L31.4984 10.4728Z" fill="white"/>
<path d="M30.1329 27.8531L27.4697 30.4994C26.5087 31.4608 25.2443 32 23.9632 32C23.8619 32 23.7775 32 23.6767 31.9827C10.966 31.2073 0.783975 21.0252 0.00859971 8.31543C-0.0757753 6.93262 0.463787 5.55055 1.49229 4.52249L4.1386 1.85887C5.25147 0.763303 6.78535 0.240616 8.3361 0.425803C9.88729 0.610991 11.2524 1.48762 12.0615 2.83674L14.2193 6.44368C15.0116 7.75905 14.8095 9.46124 13.6967 10.5568L11.303 12.9677C13.1575 16.1203 15.8376 18.8004 19.024 20.6887L21.4345 18.2951C22.5305 17.1822 24.2327 16.9797 25.5476 17.7724L29.1553 19.9298C30.504 20.7389 31.3807 22.1045 31.5658 23.6561C31.7684 25.2067 31.2288 26.7402 30.1329 27.8531Z" fill="white"/>
</svg>
