<svg width="20" height="20" viewBox="0 0 20 20" fill="none" xmlns="http://www.w3.org/2000/svg">
<path d="M19 3H1C0.447812 3 0 3.44781 0 4V14C0 14.5522 0.447812 15 1 15H19C19.5522 15 20 14.5522 20 14V4C20 3.44781 19.5522 3 19 3ZM1.5 13.5V11.5C2.60469 11.5 3.5 12.3953 3.5 13.5H1.5ZM1.5 6.5V4.5H3.5C3.5 5.60469 2.60469 6.5 1.5 6.5ZM10 12C8.61906 12 7.5 10.6566 7.5 9C7.5 7.34313 8.61938 6 10 6C11.3806 6 12.5 7.34313 12.5 9C12.5 10.6572 11.3803 12 10 12ZM18.5 13.5H16.5C16.5 12.3953 17.3953 11.5 18.5 11.5V13.5ZM18.5 6.5C17.3953 6.5 16.5 5.60469 16.5 4.5H18.5V6.5Z" fill="#0060C6"/>
</svg>
