<svg width="16" height="16" viewBox="0 0 16 16" fill="none" xmlns="http://www.w3.org/2000/svg">
<path d="M14.8094 0.0376301C10.2381 1.56885 5.36123 3.66236 0.456226 5.60456C-0.155961 5.84746 -0.151274 6.73653 0.465601 6.93112C1.89091 7.38036 3.32185 7.8514 4.7531 8.32881C4.84591 8.35968 4.94654 8.34592 5.02841 8.2909C7.31654 6.75331 9.62248 5.17378 11.8603 3.68014C11.9762 3.60264 12.1025 3.77777 12.0019 3.87674C10.1837 5.66831 8.29341 7.53167 6.43123 9.36584C6.31185 9.48326 6.29029 9.67651 6.37966 9.82245C7.57935 11.7814 8.77498 13.7501 9.89435 15.684C10.1787 16.1765 10.8515 16.0735 11.054 15.5132C12.8044 10.6468 14.6475 5.82934 15.9653 1.27461C16.1659 0.576106 15.459 -0.178431 14.8094 0.0376301Z" fill="white"/>
<path d="M4.53125 9.84403C4.5425 11.2058 4.56563 12.5676 4.60031 13.9294C4.61656 14.5112 5.25531 14.8342 5.63906 14.4467C6.04031 14.0428 6.44625 13.6352 6.85594 13.2252C7.05406 13.0269 7.09031 12.6985 6.94 12.4502C6.37 11.5088 5.79344 10.567 5.21812 9.62998C5.0125 9.29515 4.52812 9.4468 4.53156 9.84403H4.53125Z" fill="white"/>
</svg>
