<svg width="24" height="24" viewBox="0 0 24 24" fill="none" xmlns="http://www.w3.org/2000/svg">
<g clip-path="url(#clip0_4082_10664)">
<g filter="url(#filter0_d_4082_10664)">
<path d="M12 1.5C9.61401 1.50255 7.32649 2.42336 5.63926 4.06045C3.95202 5.69753 3.00286 7.91719 3 10.2325C3 12.4812 4.79441 16.0005 8.33363 20.6922C8.75497 21.2523 9.30663 21.708 9.94373 22.0221C10.5808 22.3363 11.2854 22.5 12 22.5C12.7146 22.5 13.4192 22.3363 14.0563 22.0221C14.6934 21.708 15.245 21.2523 15.6664 20.6922C19.2056 16.0005 21 12.4812 21 10.2325C20.9971 7.91719 20.048 5.69753 18.3607 4.06045C16.6735 2.42336 14.386 1.50255 12 1.5ZM12 13.7132C11.2866 13.7132 10.5893 13.508 9.99614 13.1234C9.403 12.7388 8.9407 12.1922 8.6677 11.5526C8.39471 10.9131 8.32328 10.2094 8.46245 9.53042C8.60162 8.85149 8.94514 8.22785 9.44957 7.73837C9.954 7.24888 10.5967 6.91554 11.2963 6.78049C11.996 6.64545 12.7212 6.71476 13.3803 6.97966C14.0393 7.24457 14.6027 7.69317 14.999 8.26874C15.3953 8.84432 15.6069 9.521 15.6069 10.2132C15.6069 11.1415 15.2268 12.0317 14.5504 12.6881C13.874 13.3445 12.9566 13.7132 12 13.7132Z" fill="#F44336"/>
</g>
</g>
<defs>
<filter id="filter0_d_4082_10664" x="-15" y="-17.5" width="54" height="57" filterUnits="userSpaceOnUse" color-interpolation-filters="sRGB">
<feFlood flood-opacity="0" result="BackgroundImageFix"/>
<feColorMatrix in="SourceAlpha" type="matrix" values="0 0 0 0 0 0 0 0 0 0 0 0 0 0 0 0 0 0 127 0" result="hardAlpha"/>
<feMorphology radius="2" operator="dilate" in="SourceAlpha" result="effect1_dropShadow_4082_10664"/>
<feOffset dy="-1"/>
<feGaussianBlur stdDeviation="8"/>
<feColorMatrix type="matrix" values="0 0 0 0 0 0 0 0 0 0 0 0 0 0 0 0 0 0 0.1 0"/>
<feBlend mode="normal" in2="BackgroundImageFix" result="effect1_dropShadow_4082_10664"/>
<feBlend mode="normal" in="SourceGraphic" in2="effect1_dropShadow_4082_10664" result="shape"/>
</filter>
<clipPath id="clip0_4082_10664">
<rect width="24" height="24" fill="white"/>
</clipPath>
</defs>
</svg>
