<svg width="6" height="34" viewBox="0 0 6 34" fill="none" xmlns="http://www.w3.org/2000/svg">
<path d="M0.000325441 2.66699C0.000325506 4.13975 1.19423 5.33366 2.66699 5.33366C4.13975 5.33366 5.33366 4.13975 5.33366 2.66699C5.33366 1.19423 4.13975 0.000325377 2.66699 0.000325441C1.19423 0.000325506 0.000325377 1.19423 0.000325441 2.66699ZM0.000326665 30.667C0.00032673 32.1398 1.19423 33.3337 2.66699 33.3337C4.13975 33.3337 5.33366 32.1398 5.33366 30.667C5.33366 29.1942 4.13975 28.0003 2.66699 28.0003C1.19423 28.0003 0.000326601 29.1942 0.000326665 30.667ZM2.66699 2.66699L2.16699 2.66699L2.16699 5.00033L2.66699 5.00033L3.16699 5.00033L3.16699 2.66699L2.66699 2.66699ZM2.66699 9.66699L2.16699 9.66699L2.16699 14.3337L2.66699 14.3337L3.16699 14.3337L3.16699 9.66699L2.66699 9.66699ZM2.66699 19.0003L2.16699 19.0003L2.16699 23.667L2.66699 23.667L3.16699 23.667L3.16699 19.0003L2.66699 19.0003ZM2.66699 28.3337L2.16699 28.3337L2.16699 30.667L2.66699 30.667L3.16699 30.667L3.16699 28.3337L2.66699 28.3337Z" fill="#B3B3B3"/>
</svg>
