<svg width="18" height="18" viewBox="0 0 18 18" fill="none" xmlns="http://www.w3.org/2000/svg">
<g clip-path="url(#clip0_4082_10632)">
<path d="M9 0C4.02961 0 0 4.02926 0 9C0 13.9707 4.02961 18 9 18C13.9704 18 18 13.9704 18 9C18 4.02961 13.9704 0 9 0ZM14.2537 9C14.2537 9.55055 13.8073 9.99703 13.2567 9.99703H9.99703V13.2567C9.99703 13.8073 9.55055 14.2537 9 14.2537C8.44945 14.2537 8.00297 13.8073 8.00297 13.2567V9.99703H4.74328C4.19273 9.99703 3.74625 9.55055 3.74625 9C3.74625 8.44945 4.19273 8.00297 4.74328 8.00297H8.00297V4.74328C8.00297 4.19273 8.44945 3.74625 9 3.74625C9.55055 3.74625 9.99703 4.19273 9.99703 4.74328V8.00297H13.2567C13.8073 8.00297 14.2537 8.44945 14.2537 9Z" fill="#0060C6"/>
</g>
<defs>
<clipPath id="clip0_4082_10632">
<rect width="18" height="18" fill="white"/>
</clipPath>
</defs>
</svg>
