<svg width="52" height="52" viewBox="0 0 52 52" fill="none" xmlns="http://www.w3.org/2000/svg">
<path d="M17.3399 38V38.2543C17.3399 41.2019 21.4586 43.5914 26.5392 43.5914C31.6199 43.5914 35.7386 41.2019 35.7386 38.2543V38" fill="url(#paint0_linear_4082_10599)"/>
<path d="M5.96664 20.1068C5.96664 31.4687 15.1773 40.6794 26.5392 40.6794C37.9011 40.6794 47.1118 31.4687 47.1118 20.1068C47.1118 13.5151 37.9011 8.17151 26.5392 8.17151C15.1773 8.17151 5.96664 13.5151 5.96664 20.1068Z" fill="url(#paint1_linear_4082_10599)"/>
<path d="M26.5392 30.1045C36.6405 30.1045 45.1743 25.5261 45.1743 20.1066C45.1743 14.6874 36.6405 10.109 26.5392 10.109C16.438 10.109 7.90421 14.6874 7.90421 20.1066C7.90421 25.5261 16.438 30.1045 26.5392 30.1045Z" fill="url(#paint2_linear_4082_10599)"/>
<path d="M16.0186 19.9265C17.6143 19.0052 16.8954 17.6657 18.3733 16.7231C15.7856 17.5985 13.5884 18.8679 12.0241 20.3867C13.6077 19.5314 14.4082 20.8562 16.0186 19.9265Z" fill="#FFC166"/>
<path d="M14.4384 24.7521C16.0758 23.8068 16.8759 25.1925 18.5132 24.2472C20.1506 23.3019 19.3506 21.9161 20.9879 20.9708C22.6253 20.0254 23.4254 21.4111 25.0628 20.4658C26.7006 19.5202 25.9005 18.1345 27.5383 17.1889C29.1753 16.2438 29.9753 17.6295 31.6123 16.6844C31.8958 16.5272 32.1458 16.316 32.3481 16.0627C30.4416 15.6345 28.4933 15.4194 26.5393 15.4214C26.2752 15.4214 26.0123 15.4252 25.7506 15.4328C24.8256 16.3399 25.2325 17.4873 23.8154 18.3054C22.178 19.2507 21.378 17.865 19.7406 18.8104C18.1032 19.7558 18.9033 21.1414 17.2659 22.0868C15.6285 23.0322 14.8285 21.6464 13.1911 22.5918C11.6974 23.4542 12.233 24.6837 11.0937 25.6102C11.6979 26.085 12.337 26.5135 13.0057 26.8921C13.3407 26.153 13.3838 25.361 14.4384 24.7521Z" fill="#FFC166"/>
<path d="M13.1912 22.5918C14.8285 21.6464 15.6286 23.0322 17.2659 22.0868C18.9033 21.1415 18.1033 19.7557 19.7406 18.8104C21.378 17.8651 22.1781 19.2507 23.8155 18.3054C25.2325 17.4873 24.8256 16.3399 25.7506 15.4329C23.2414 15.497 20.7554 15.9317 18.3733 16.723C16.8955 17.6657 17.6143 19.0051 16.0186 19.9264C14.4083 20.8561 13.6078 19.5313 12.0242 20.3866C10.8235 21.5524 9.99494 22.8644 9.64944 24.2571C10.0898 24.7501 10.5731 25.2029 11.0937 25.6102C12.233 24.6837 11.6974 23.4542 13.1912 22.5918Z" fill="#FF9800"/>
<path d="M15.6857 26.9125C17.3231 25.9673 18.1232 27.353 19.7605 26.4076C21.3979 25.4622 20.5978 24.0765 22.2352 23.1312C23.8726 22.1858 24.6727 23.5716 26.3101 22.6263C27.9479 21.6806 27.1478 20.2949 28.7857 19.3493C30.4226 18.4042 31.2226 19.7899 32.8596 18.8449C33.9626 18.2081 33.9605 17.3718 34.3412 16.6047C33.6983 16.3992 33.0339 16.2186 32.3481 16.0627C32.1458 16.316 31.8958 16.5272 31.6122 16.6844C29.9753 17.6295 29.1753 16.2438 27.5383 17.1889C25.9005 18.1344 26.7006 19.5202 25.0627 20.4659C23.4254 21.4111 22.6253 20.0254 20.9879 20.9708C19.3505 21.9162 20.1506 23.3018 18.5132 24.2472C16.8759 25.1926 16.0758 23.8068 14.4384 24.7521C13.3838 25.361 13.3407 26.153 13.0056 26.8921C13.5814 27.2204 14.1734 27.5192 14.7794 27.7875C14.9969 27.4193 15.3101 27.1169 15.6857 26.9125Z" fill="#FF9800"/>
<path d="M33.7749 27.9911C35.4119 27.046 36.2119 28.4318 37.8488 27.4866C39.4872 26.5407 38.6872 25.155 40.3255 24.2091C41.5802 23.4846 42.3434 24.1261 43.3673 24.0429C43.1376 23.2617 42.7806 22.5237 42.3105 21.8587C41.1873 22.0492 40.4094 21.2801 39.0782 22.0487C37.4398 22.9946 38.2398 24.3803 36.6015 25.3262C34.9646 26.2713 34.1645 24.8856 32.5276 25.8307C30.8898 26.7763 31.6898 28.162 30.052 29.1075C28.4146 30.0529 27.6146 28.6672 25.9772 29.6126C25.754 29.738 25.5506 29.8958 25.3734 30.0806C25.7599 30.0942 26.1477 30.1045 26.5392 30.1045C28.5628 30.1052 30.5819 29.9156 32.57 29.5385C32.7702 28.9863 32.9987 28.4392 33.7749 27.9911Z" fill="#FF9800"/>
<path d="M21.0079 28.568C22.6452 27.6227 21.8452 26.237 23.4826 25.2916C25.1199 24.3462 25.9201 25.732 27.5574 24.7867C29.1952 23.841 28.3952 22.4553 30.033 21.5098C31.6699 20.5646 32.47 21.9503 34.1069 21.0053C35.7453 20.0594 34.9452 18.6736 36.5836 17.7277C36.6733 17.6758 36.7657 17.6285 36.8604 17.586C36.0424 17.2057 35.201 16.8779 34.3413 16.6047C33.9605 17.3718 33.9626 18.208 32.8596 18.8449C31.2227 19.7899 30.4226 18.4042 28.7857 19.3493C27.1479 20.2948 27.9479 21.6806 26.3101 22.6263C24.6727 23.5716 23.8726 22.1859 22.2352 23.1312C20.5979 24.0765 21.3979 25.4623 19.7606 26.4076C18.1232 27.3529 17.3231 25.9673 15.6858 26.9125C15.3101 27.1169 14.9969 27.4193 14.7794 27.7875C15.6753 28.1854 16.5948 28.528 17.5326 28.8134C18.7923 28.4499 19.5834 29.3905 21.0079 28.568Z" fill="#FFC166"/>
<path d="M30.052 29.1075C31.6898 28.1619 30.8898 26.7762 32.5276 25.8306C34.1645 24.8855 34.9646 26.2712 36.6015 25.3262C38.2399 24.3803 37.4398 22.9945 39.0782 22.0486C40.4095 21.28 41.1874 22.0492 42.3105 21.8586C41.7382 21.0497 41.0566 20.3239 40.2852 19.702C39.5247 19.6037 38.8354 19.3083 37.8309 19.8882C36.1925 20.8342 36.9926 22.2199 35.3542 23.1658C33.7173 24.1108 32.9172 22.7251 31.2803 23.6702C29.6425 24.6157 30.4425 26.0015 28.8047 26.9471C27.1673 27.8925 26.3673 26.5068 24.7299 27.4521C23.5163 28.1527 23.6414 29.0954 23.121 29.9211C23.8597 29.9982 24.6101 30.0538 25.3735 30.0805C25.5506 29.8957 25.754 29.7379 25.9772 29.6125C27.6146 28.6672 28.4146 30.0529 30.052 29.1075Z" fill="#FFC166"/>
<path d="M43.429 24.2572C43.4112 24.1853 43.3877 24.1143 43.3673 24.0429C42.3434 24.1261 41.5802 23.4846 40.3255 24.209C38.6872 25.1549 39.4872 26.5407 37.8489 27.4866C36.2119 28.4317 35.4119 27.046 33.775 27.991C32.9987 28.4392 32.7702 28.9862 32.5701 29.5384C37.334 28.631 41.2847 26.6986 43.429 24.2572Z" fill="#FFC166"/>
<path d="M24.7299 27.4521C26.3673 26.5067 27.1673 27.8925 28.8047 26.9471C30.4425 26.0015 29.6425 24.6158 31.2803 23.6702C32.9172 22.725 33.7173 24.1108 35.3542 23.1657C36.9926 22.2198 36.1925 20.8341 37.8309 19.8882C38.8353 19.3082 39.5247 19.6037 40.2852 19.7019C39.2357 18.8573 38.0853 18.1466 36.8604 17.5861C36.7657 17.6285 36.6733 17.6758 36.5836 17.7278C34.9452 18.6737 35.7452 20.0594 34.1069 21.0053C32.47 21.9504 31.6699 20.5646 30.033 21.5098C28.3952 22.4553 29.1952 23.841 27.5574 24.7867C25.92 25.732 25.1199 24.3463 23.4825 25.2916C21.8452 26.2369 22.6452 27.6227 21.0079 28.568C19.5834 29.3905 18.7922 28.4499 17.5326 28.8135C19.3559 29.3597 21.2272 29.7306 23.121 29.9211C23.6414 29.0953 23.5163 28.1527 24.7299 27.4521Z" fill="#FF9800"/>
<path d="M19.6795 31.8801C19.6443 31.8802 19.6092 31.8766 19.5748 31.8695C15.7775 31.0905 12.4527 29.6929 9.96025 27.8277C9.90578 27.7869 9.85988 27.7359 9.82515 27.6774C9.79042 27.6189 9.76755 27.5541 9.75786 27.4868C9.74816 27.4194 9.75181 27.3509 9.76862 27.2849C9.78543 27.219 9.81505 27.1571 9.85581 27.1026C9.89656 27.0481 9.94764 27.0022 10.0061 26.9675C10.0646 26.9328 10.1294 26.9099 10.1967 26.9002C10.2641 26.8905 10.3326 26.8941 10.3986 26.911C10.4645 26.9278 10.5264 26.9574 10.5809 26.9981C12.952 28.7728 16.1342 30.1062 19.7832 30.8548C19.9088 30.8807 20.0204 30.9522 20.0963 31.0555C20.1722 31.1589 20.2071 31.2867 20.1942 31.4143C20.1813 31.5419 20.1215 31.6602 20.0265 31.7462C19.9314 31.8323 19.8078 31.88 19.6795 31.8801Z" fill="white"/>
<path d="M5.78321 9.95691L43.2548 31.5911L43.2552 32.7446L42.2558 33.3214L4.78424 11.6871V10.5336L5.78321 9.95691Z" fill="#FFC48F"/>
<path d="M9.64643 7.72632L47.118 29.3607L47.1184 30.5141L46.119 31.0909L8.64746 9.45664V8.30309L9.64643 7.72632Z" fill="#FFC48F"/>
<defs>
<linearGradient id="paint0_linear_4082_10599" x1="26.5392" y1="38" x2="26.5392" y2="43.5914" gradientUnits="userSpaceOnUse">
<stop stop-color="#2D74BF"/>
<stop offset="1" stop-color="#114E8E"/>
</linearGradient>
<linearGradient id="paint1_linear_4082_10599" x1="26.5392" y1="8.17151" x2="26.5392" y2="40.6794" gradientUnits="userSpaceOnUse">
<stop stop-color="#2D74BF"/>
<stop offset="1" stop-color="#114E8E"/>
</linearGradient>
<linearGradient id="paint2_linear_4082_10599" x1="26.5392" y1="10.109" x2="26.5392" y2="30.1045" gradientUnits="userSpaceOnUse">
<stop offset="0.458837" stop-color="white"/>
<stop offset="1" stop-color="#C3CADA"/>
</linearGradient>
</defs>
</svg>
