<svg width="52" height="52" viewBox="0 0 52 52" fill="none" xmlns="http://www.w3.org/2000/svg">
<path d="M24.9391 4.64613L8.2566 13.5054C8.02957 13.6258 7.8396 13.8057 7.70709 14.0259C7.57457 14.246 7.50451 14.4981 7.50443 14.7551V36.9984C7.50452 37.4388 7.62653 37.8705 7.85692 38.2458C8.08731 38.6211 8.4171 38.9253 8.80975 39.1247L25.1732 47.4249C25.4308 47.5556 25.7156 47.6236 26.0044 47.6236C26.2932 47.6236 26.578 47.5556 26.8356 47.4249L43.1947 39.1188C43.5873 38.9195 43.9171 38.6153 44.1475 38.24C44.3779 37.8647 44.4999 37.4329 44.5 36.9925V14.7493C44.4999 14.4923 44.4298 14.2402 44.2973 14.02C44.1648 13.7999 43.9748 13.6199 43.7478 13.4995L27.0653 4.64027C26.7377 4.46669 26.3723 4.37643 26.0015 4.37745C25.6307 4.37847 25.2658 4.47074 24.9391 4.64613Z" fill="#FFC166"/>
<path d="M26 47.6166C26.2887 47.6166 26.5734 47.549 26.8312 47.4191L43.1946 39.1188C43.5873 38.9194 43.9171 38.6152 44.1475 38.2399C44.3779 37.8646 44.4999 37.4329 44.5 36.9925V14.7492C44.4993 14.5222 44.4436 14.2988 44.3375 14.098L26 23.8719V47.6166Z" fill="#FFAD33"/>
<path d="M26 23.8719L7.66243 14.1039C7.55642 14.3046 7.50068 14.5281 7.5 14.7551V36.9984C7.5001 37.4387 7.6221 37.8705 7.8525 38.2458C8.08289 38.6211 8.41268 38.9253 8.80533 39.1247L25.1688 47.4249C25.4266 47.5548 25.7113 47.6225 26 47.6225V23.8719Z" fill="#FF9800"/>
<path d="M32.5383 7.56116L13.9784 17.4375V20.5998C13.9774 20.7503 14.0179 20.8981 14.0953 21.0272C14.1728 21.1562 14.2842 21.2615 14.4174 21.3315L17.6368 23.051C17.6953 23.0824 17.7611 23.0981 17.8275 23.0965C17.8939 23.0949 17.9588 23.0761 18.0158 23.0418C18.0727 23.0076 18.1198 22.9592 18.1524 22.9012C18.185 22.8433 18.202 22.7779 18.2017 22.7115V19.7525L36.7865 9.81183L32.5383 7.56116Z" fill="url(#paint0_linear_4082_10586)"/>
<path d="M28.6736 41.3065L33.6242 38.9388C33.9338 38.79 34.1938 38.5549 34.3729 38.2618C34.5521 37.9687 34.6427 37.6301 34.6339 37.2866V37.2676C34.6307 37.1346 34.5938 37.0046 34.5267 36.8897C34.4595 36.7748 34.3643 36.6789 34.2499 36.6109C34.1356 36.5429 34.0058 36.505 33.8728 36.5009C33.7398 36.4967 33.6079 36.5264 33.4895 36.5872L28.6692 39.0617L28.6736 41.3065Z" fill="white"/>
<path d="M28.6736 44.7587L31.3925 43.4958C31.7063 43.3485 31.9703 43.113 32.1522 42.818C32.3341 42.523 32.4261 42.1813 32.4169 41.8348C32.4136 41.7015 32.3764 41.5711 32.3088 41.4561C32.2412 41.341 32.1454 41.2451 32.0305 41.1773C31.9156 41.1095 31.7853 41.0721 31.6519 41.0686C31.5185 41.0651 31.3865 41.0956 31.2681 41.1573L28.6663 42.5124L28.6736 44.7587Z" fill="white"/>
<path d="M13.9784 17.4696V20.5998C13.9774 20.7502 14.0179 20.8981 14.0953 21.0271C14.1728 21.1562 14.2842 21.2614 14.4174 21.3314L17.6368 23.0509C17.6953 23.0824 17.7611 23.0981 17.8275 23.0965C17.8939 23.0949 17.9588 23.076 18.0158 23.0418C18.0727 23.0076 18.1198 22.9591 18.1524 22.9012C18.185 22.8433 18.202 22.7779 18.2017 22.7114V19.7525L18.2324 19.7364L13.9784 17.4696Z" fill="url(#paint1_linear_4082_10586)"/>
<defs>
<linearGradient id="paint0_linear_4082_10586" x1="25.3824" y1="7.56116" x2="25.3824" y2="23.0966" gradientUnits="userSpaceOnUse">
<stop stop-color="#2D74BF"/>
<stop offset="1" stop-color="#114E8E"/>
</linearGradient>
<linearGradient id="paint1_linear_4082_10586" x1="16.1054" y1="17.4696" x2="16.1054" y2="23.0966" gradientUnits="userSpaceOnUse">
<stop stop-color="#2D74BF"/>
<stop offset="1" stop-color="#114E8E"/>
</linearGradient>
</defs>
</svg>
