<svg width="16" height="16" viewBox="0 0 16 16" fill="none" xmlns="http://www.w3.org/2000/svg">
<path d="M8 0C3.58187 0 0 3.58187 0 8C0 12.4181 3.58187 16 8 16C12.4181 16 16 12.4181 16 8C16 3.58187 12.4181 0 8 0ZM14.3237 7.1875H11.9C11.8081 5.95906 11.5066 4.77031 11.0006 3.64344C10.7347 3.05125 10.4181 2.49 10.0541 1.96187C10.9681 2.27187 11.8056 2.78969 12.5081 3.49219C13.5184 4.5025 14.1478 5.7925 14.3241 7.1875H14.3237ZM8 14.0222C7.37594 13.3284 6.86656 12.5475 6.48187 11.6906C6.07031 10.7747 5.81938 9.80937 5.73125 8.8125H10.2694C10.1809 9.80969 9.93 10.7747 9.51875 11.6906C9.13406 12.5472 8.62469 13.3284 8.00062 14.0222H8ZM5.73094 7.1875C5.81969 6.18406 6.07344 5.21312 6.48969 4.29187C6.87375 3.44156 7.38 2.66625 7.99969 1.9775C8.62406 2.67125 9.13312 3.4525 9.51812 4.30906C9.92969 5.225 10.1806 6.19031 10.2688 7.18719H5.73094V7.1875ZM3.49219 3.49219C4.19438 2.79 5.03187 2.27219 5.94562 1.96219C5.58594 2.48406 5.27281 3.03844 5.00875 3.62313C4.49687 4.75594 4.1925 5.95187 4.1 7.18781H1.67625C1.8525 5.79281 2.48187 4.50281 3.49219 3.4925V3.49219ZM1.67625 8.8125H4.1C4.19187 10.0409 4.49344 11.2297 4.99937 12.3566C5.26531 12.9488 5.58188 13.51 5.94594 14.0381C5.03188 13.7281 4.19438 13.2103 3.49187 12.5078C2.48156 11.4975 1.85219 10.2075 1.67594 8.8125H1.67625ZM12.5078 12.5078C11.8053 13.2103 10.9678 13.7281 10.0538 14.0381C10.4178 13.51 10.7344 12.9488 11.0003 12.3566C11.5066 11.2297 11.8078 10.0409 11.8997 8.8125H14.3234C14.1472 10.2075 13.5178 11.4975 12.5075 12.5078H12.5078Z" fill="#145F9A"/>
</svg>
