<svg width="24" height="24" viewBox="0 0 24 24" fill="none" xmlns="http://www.w3.org/2000/svg">
<g clip-path="url(#clip0_4261_1918)">
<path d="M11.6522 18.9783C11.6526 17.792 11.9726 16.6278 12.5787 15.6081C13.1848 14.5884 14.0545 13.7509 15.0963 13.1837C16.1382 12.6165 17.3136 12.3405 18.499 12.3849C19.6844 12.4293 20.836 12.7923 21.8325 13.4358C21.8395 12.9469 21.8433 12.4252 21.8433 11.8622C21.8433 8.96766 21.7449 7.16109 21.5503 5.28984H21.578C21.4704 4.24712 21.0722 3.25556 20.4287 2.42808C19.7852 1.60059 18.9222 0.970436 17.9381 0.609375C17.8861 0.589688 17.8341 0.570938 17.7816 0.553125C17.3927 0.422396 16.9906 0.334838 16.5825 0.292031L16.5436 0.287813C14.9869 0.127969 14.737 0 11.4544 0C8.17173 0 7.64063 0.127969 6.08532 0.290156L6.04641 0.294375C5.61807 0.339359 5.19636 0.433736 4.7897 0.575625V0.554531C3.77571 0.899286 2.88184 1.52754 2.21404 2.36483C1.54623 3.20212 1.1325 4.21333 1.02188 5.27859C0.826883 7.15359 0.727509 8.96203 0.727509 11.8622C0.727509 14.7623 0.826883 16.5708 1.02188 18.4458C1.15504 19.7253 1.72419 20.92 2.63385 21.8296C3.54351 22.7392 4.73833 23.3082 6.01782 23.4412L6.05673 23.4455C7.61345 23.6077 7.86282 23.7356 11.1455 23.7356C12.233 23.7356 13.0205 23.7216 13.6388 23.6967C13.0091 23.0829 12.5089 22.3491 12.1677 21.5386C11.8265 20.7282 11.6512 19.8576 11.6522 18.9783ZM6.16782 6.24141H16.4011C16.6972 6.24141 16.9812 6.35904 17.1906 6.56844C17.4 6.77784 17.5177 7.06184 17.5177 7.35797C17.5177 7.6541 17.4 7.9381 17.1906 8.1475C16.9812 8.35689 16.6972 8.47453 16.4011 8.47453H6.17017C5.87403 8.47453 5.59003 8.35689 5.38064 8.1475C5.17124 7.9381 5.0536 7.6541 5.0536 7.35797C5.0536 7.06184 5.17124 6.77784 5.38064 6.56844C5.59003 6.35904 5.87403 6.24141 6.17017 6.24141H6.16782ZM6.16782 13.2525C5.87559 13.2465 5.59735 13.1262 5.39279 12.9174C5.18824 12.7086 5.07367 12.428 5.07367 12.1357C5.07367 11.8434 5.18824 11.5628 5.39279 11.354C5.59735 11.1452 5.87559 11.0249 6.16782 11.0189H12.0042C12.1528 11.0159 12.3005 11.0425 12.4387 11.0973C12.5768 11.152 12.7027 11.2338 12.8088 11.3378C12.915 11.4418 12.9993 11.5659 13.0569 11.703C13.1145 11.84 13.1441 11.9871 13.1441 12.1357C13.1441 12.2843 13.1145 12.4314 13.0569 12.5685C12.9993 12.7055 12.915 12.8296 12.8088 12.9336C12.7027 13.0376 12.5768 13.1194 12.4387 13.1742C12.3005 13.2289 12.1528 13.2555 12.0042 13.2525H6.16782Z" fill="#B3B3B3"/>
<path d="M18.2508 13.9565C17.2576 13.9565 16.2867 14.2511 15.4609 14.8029C14.6351 15.3546 13.9914 16.1389 13.6113 17.0565C13.2312 17.9741 13.1318 18.9838 13.3256 19.958C13.5193 20.9321 13.9976 21.8269 14.6999 22.5292C15.4022 23.2315 16.297 23.7097 17.2711 23.9035C18.2452 24.0973 19.2549 23.9978 20.1725 23.6177C21.0901 23.2376 21.8744 22.594 22.4262 21.7682C22.978 20.9424 23.2725 19.9715 23.2725 18.9783C23.2725 17.6464 22.7434 16.3691 21.8017 15.4274C20.8599 14.4856 19.5826 13.9565 18.2508 13.9565ZM20.2411 19.7133H18.1509C17.9924 19.7133 17.8404 19.6503 17.7283 19.5382C17.6163 19.4261 17.5533 19.2741 17.5533 19.1156V15.9047C17.5533 15.7462 17.6163 15.5941 17.7283 15.4821C17.8404 15.37 17.9924 15.307 18.1509 15.307C18.3095 15.307 18.4615 15.37 18.5735 15.4821C18.6856 15.5941 18.7486 15.7462 18.7486 15.9047V18.5179H20.2411C20.3996 18.5179 20.5516 18.5809 20.6637 18.693C20.7758 18.8051 20.8388 18.9571 20.8388 19.1156C20.8388 19.2741 20.7758 19.4261 20.6637 19.5382C20.5516 19.6503 20.3996 19.7133 20.2411 19.7133Z" fill="#B3B3B3"/>
</g>
<defs>
<clipPath id="clip0_4261_1918">
<rect width="24" height="24" fill="white"/>
</clipPath>
</defs>
</svg>
