<svg width="16" height="18" viewBox="0 0 16 18" fill="none" xmlns="http://www.w3.org/2000/svg">
<path d="M4.78067 3.5C4.78067 3.36739 4.72799 3.24021 4.63422 3.14645C4.54045 3.05268 4.41328 3 4.28067 3C4.14806 3 4.02088 3.05268 3.92711 3.14645C3.83335 3.24021 3.78067 3.36739 3.78067 3.5V4.55333C2.82067 4.63 2.19133 4.818 1.72867 5.28133C1.26533 5.744 1.07733 6.374 1 7.33333H14.228C14.1507 6.37333 13.9627 5.744 13.4993 5.28133C13.0367 4.818 12.4067 4.63 11.4473 4.55267V3.5C11.4473 3.36739 11.3947 3.24021 11.3009 3.14645C11.2071 3.05268 11.0799 3 10.9473 3C10.8147 3 10.6875 3.05268 10.5938 3.14645C10.5 3.24021 10.4473 3.36739 10.4473 3.5V4.50867C10.004 4.5 9.50667 4.5 8.94733 4.5H6.28067C5.72133 4.5 5.224 4.5 4.78067 4.50867V3.5Z" fill="#272727"/>
<path fill-rule="evenodd" clip-rule="evenodd" d="M1 9.8335C1 9.27416 1 8.77683 1.00867 8.3335H14.3247C14.3333 8.77683 14.3333 9.27416 14.3333 9.8335V11.1668C14.3333 13.6808 14.3333 14.9382 13.552 15.7188C12.7707 16.4995 11.514 16.5002 9 16.5002H6.33333C3.81933 16.5002 2.562 16.5002 1.78133 15.7188C1.00067 14.9375 1 13.6808 1 11.1668V9.8335ZM11 11.1668C11.1768 11.1668 11.3464 11.0966 11.4714 10.9716C11.5964 10.8465 11.6667 10.677 11.6667 10.5002C11.6667 10.3234 11.5964 10.1538 11.4714 10.0288C11.3464 9.90373 11.1768 9.8335 11 9.8335C10.8232 9.8335 10.6536 9.90373 10.5286 10.0288C10.4036 10.1538 10.3333 10.3234 10.3333 10.5002C10.3333 10.677 10.4036 10.8465 10.5286 10.9716C10.6536 11.0966 10.8232 11.1668 11 11.1668ZM11 13.8335C11.1768 13.8335 11.3464 13.7633 11.4714 13.6382C11.5964 13.5132 11.6667 13.3436 11.6667 13.1668C11.6667 12.99 11.5964 12.8204 11.4714 12.6954C11.3464 12.5704 11.1768 12.5002 11 12.5002C10.8232 12.5002 10.6536 12.5704 10.5286 12.6954C10.4036 12.8204 10.3333 12.99 10.3333 13.1668C10.3333 13.3436 10.4036 13.5132 10.5286 13.6382C10.6536 13.7633 10.8232 13.8335 11 13.8335ZM8.33333 10.5002C8.33333 10.677 8.2631 10.8465 8.13807 10.9716C8.01305 11.0966 7.84348 11.1668 7.66667 11.1668C7.48986 11.1668 7.32029 11.0966 7.19526 10.9716C7.07024 10.8465 7 10.677 7 10.5002C7 10.3234 7.07024 10.1538 7.19526 10.0288C7.32029 9.90373 7.48986 9.8335 7.66667 9.8335C7.84348 9.8335 8.01305 9.90373 8.13807 10.0288C8.2631 10.1538 8.33333 10.3234 8.33333 10.5002ZM8.33333 13.1668C8.33333 13.3436 8.2631 13.5132 8.13807 13.6382C8.01305 13.7633 7.84348 13.8335 7.66667 13.8335C7.48986 13.8335 7.32029 13.7633 7.19526 13.6382C7.07024 13.5132 7 13.3436 7 13.1668C7 12.99 7.07024 12.8204 7.19526 12.6954C7.32029 12.5704 7.48986 12.5002 7.66667 12.5002C7.84348 12.5002 8.01305 12.5704 8.13807 12.6954C8.2631 12.8204 8.33333 12.99 8.33333 13.1668ZM4.33333 11.1668C4.51014 11.1668 4.67971 11.0966 4.80474 10.9716C4.92976 10.8465 5 10.677 5 10.5002C5 10.3234 4.92976 10.1538 4.80474 10.0288C4.67971 9.90373 4.51014 9.8335 4.33333 9.8335C4.15652 9.8335 3.98695 9.90373 3.86193 10.0288C3.7369 10.1538 3.66667 10.3234 3.66667 10.5002C3.66667 10.677 3.7369 10.8465 3.86193 10.9716C3.98695 11.0966 4.15652 11.1668 4.33333 11.1668ZM4.33333 13.8335C4.51014 13.8335 4.67971 13.7633 4.80474 13.6382C4.92976 13.5132 5 13.3436 5 13.1668C5 12.99 4.92976 12.8204 4.80474 12.6954C4.67971 12.5704 4.51014 12.5002 4.33333 12.5002C4.15652 12.5002 3.98695 12.5704 3.86193 12.6954C3.7369 12.8204 3.66667 12.99 3.66667 13.1668C3.66667 13.3436 3.7369 13.5132 3.86193 13.6382C3.98695 13.7633 4.15652 13.8335 4.33333 13.8335Z" fill="#272727"/>
</svg>
