<svg width="13" height="16" viewBox="0 0 13 16" fill="none" xmlns="http://www.w3.org/2000/svg">
<path d="M10.4398 0.262266C7.54638 -0.0874219 4.65326 -0.0874219 1.75982 0.262266C0.998256 0.357891 0.291381 1.08289 0.229819 1.8757C-0.0839311 6.15414 -0.0764313 10.4323 0.252319 14.7107C0.342006 15.7182 1.60826 16.4016 2.26763 15.7348C3.31357 14.707 4.42794 13.5804 5.57419 12.4201C5.84951 12.1295 6.35076 12.1295 6.62638 12.4201C7.77263 13.5801 8.88701 14.707 9.93294 15.7348C10.5923 16.402 11.8586 15.7179 11.9483 14.7107C12.277 10.4323 12.2845 6.15414 11.9708 1.8757C11.9092 1.08289 11.2023 0.357891 10.4408 0.262266H10.4398Z" fill="#145F9A"/>
</svg>
