<svg width="17" height="22" viewBox="0 0 17 22" fill="none" xmlns="http://www.w3.org/2000/svg">
<path d="M8.25 0C6.06276 0.00260642 3.96584 0.881417 2.41922 2.44366C0.872608 4.00589 0.00258553 6.124 5.17814e-06 8.33333C-0.00200583 10.1387 0.581786 11.895 1.66201 13.3333C1.66201 13.3333 1.88701 13.6326 1.92376 13.6758L8.25 21.2121L14.5793 13.672C14.6123 13.6318 14.838 13.3333 14.838 13.3333L14.8388 13.3311C15.9182 11.8932 16.5017 10.1378 16.5 8.33333C16.4974 6.124 15.6274 4.00589 14.0808 2.44366C12.5342 0.881417 10.4372 0.00260642 8.25 0ZM8.25 11.3636C7.65666 11.3636 7.07664 11.1859 6.58329 10.8529C6.08995 10.52 5.70543 10.0467 5.47837 9.49298C5.2513 8.93927 5.19189 8.32997 5.30765 7.74215C5.4234 7.15433 5.70913 6.61438 6.12868 6.19059C6.54824 5.76679 7.08279 5.47818 7.66473 5.36126C8.24668 5.24433 8.84988 5.30434 9.39805 5.5337C9.94623 5.76305 10.4148 6.15146 10.7444 6.64979C11.0741 7.14812 11.25 7.734 11.25 8.33333C11.249 9.13671 10.9326 9.9069 10.3702 10.475C9.80783 11.043 9.04535 11.3626 8.25 11.3636Z" fill="#EB5757"/>
</svg>
