<svg width="14" height="14" viewBox="0 0 14 14" fill="none" xmlns="http://www.w3.org/2000/svg">
<g clip-path="url(#clip0_4162_6906)">
<path d="M4.16718 6.83818C4.11838 6.8879 4.08062 6.94735 4.05636 7.01266C4.03209 7.07796 4.02187 7.14764 4.02636 7.21716C4.03311 7.36899 4.09664 7.51274 4.20437 7.61994C4.32659 7.749 4.45648 7.81627 4.59784 7.82556C4.66661 7.82808 4.73514 7.81609 4.79896 7.79036C4.86278 7.76464 4.92047 7.72576 4.96827 7.67626C5.01607 7.62676 5.05291 7.56774 5.07638 7.50306C5.09986 7.43838 5.10945 7.36947 5.10452 7.30084C5.09413 7.15354 5.02905 7.01756 4.90929 6.89287C4.79426 6.7731 4.66666 6.70784 4.52648 6.69709C4.45974 6.69101 4.3925 6.7006 4.33012 6.72509C4.26775 6.74959 4.21195 6.78831 4.16718 6.83818Z" fill="#2E2E2E"/>
<path d="M9.01363 6.31632C8.96378 6.36418 8.9252 6.42252 8.90065 6.48712C8.87611 6.55171 8.86623 6.62095 8.87171 6.68984C8.8791 6.83476 8.94226 6.9682 9.06312 7.08824C9.19163 7.21675 9.32699 7.28429 9.47163 7.29523C9.5408 7.30071 9.61032 7.29069 9.67512 7.2659C9.73993 7.24112 9.79839 7.20219 9.84624 7.15195C9.89543 7.10398 9.93305 7.04544 9.95627 6.98077C9.97948 6.91611 9.98767 6.84701 9.98023 6.77871C9.9682 6.63178 9.90075 6.49615 9.77788 6.37183C9.65976 6.25225 9.52833 6.18735 9.38359 6.17714C9.3155 6.17194 9.2471 6.1817 9.18319 6.20574C9.11927 6.22979 9.0614 6.26753 9.01363 6.31632Z" fill="#2E2E2E"/>
<path d="M10.6794 3.32009C10.1407 2.7795 10.1429 1.92009 10.7035 1.37677C10.3311 1.05331 9.94267 0.748769 9.53971 0.464309C8.61713 -0.175534 7.22041 -0.140261 6.31314 0.518997C5.75943 0.915481 4.12373 2.36197 3.25064 3.25146C2.36225 4.12372 0.915761 5.75943 0.51955 6.31314C-0.140528 7.21986 -0.175801 8.61657 0.464863 9.5397C0.749678 9.94269 1.05458 10.3311 1.37842 10.7034C1.92174 10.1429 2.78115 10.1407 3.32174 10.6794C3.86232 11.2181 3.85822 12.0794 3.29768 12.6227C3.66971 12.946 4.05775 13.2503 4.46033 13.5346C5.38291 14.1745 6.77963 14.1392 7.68689 13.4799C8.24088 13.0834 9.87631 11.637 10.7494 10.7475C11.6389 9.87493 13.0854 8.23923 13.4819 7.68497C14.1419 6.77825 14.1772 5.38154 13.5365 4.45841C13.2517 4.05542 12.9468 3.66702 12.623 3.29466C12.0794 3.85658 11.22 3.85876 10.6794 3.32009ZM4.58311 8.72021C4.19373 8.71447 3.85959 8.56489 3.5815 8.26712C3.30342 7.96935 3.17135 7.61798 3.17135 7.20536C3.17135 6.79275 3.29521 6.44575 3.55416 6.1715C3.81311 5.89724 4.13494 5.76626 4.52514 5.78048C4.91533 5.7947 5.2574 5.94892 5.54479 6.24533C5.84046 6.55012 5.99122 6.90176 5.99705 7.30025C6.00074 7.48731 5.96674 7.67321 5.89709 7.84686C5.82744 8.02052 5.72356 8.17838 5.59163 8.31105C5.4597 8.44372 5.30242 8.54849 5.12915 8.61911C4.95589 8.68973 4.77019 8.72476 4.58311 8.72212V8.72021ZM7.99807 9.52384C8.05439 9.76501 7.89689 9.98486 7.64588 10.0196C7.39486 10.0543 7.14713 9.88997 7.09244 9.64907C6.69158 7.88103 6.3208 6.0047 5.91885 4.16911C5.90208 4.09947 5.90333 4.0267 5.92246 3.95767C5.9416 3.88864 5.978 3.82562 6.02822 3.77454L6.0326 3.77017C6.27869 3.52407 6.73342 3.68294 6.81189 4.04743C7.21248 5.87646 7.58764 7.75142 7.99807 9.52384ZM10.8724 6.78618C10.8815 7.18595 10.751 7.52447 10.4771 7.7979C10.2031 8.07134 9.87303 8.19521 9.4749 8.18236C9.07678 8.1695 8.72514 8.01638 8.42545 7.72107C8.12576 7.42575 7.97619 7.08232 7.96826 6.67845C7.96033 6.27458 8.09049 5.93497 8.36201 5.66345C8.63354 5.39193 8.97314 5.25849 9.37619 5.26943C9.77924 5.28036 10.1262 5.43103 10.4153 5.72661C10.7133 6.03232 10.8634 6.38642 10.8724 6.78618Z" fill="#2E2E2E"/>
</g>
<defs>
<clipPath id="clip0_4162_6906">
<rect width="14" height="14" fill="white"/>
</clipPath>
</defs>
</svg>
