<svg width="24" height="24" viewBox="0 0 24 24" fill="none" xmlns="http://www.w3.org/2000/svg">
<g clip-path="url(#clip0_4128_1907)">
<path d="M20.5016 12.8843C20.5016 12.3542 20.0717 11.9243 19.5416 11.9243C19.0114 11.9243 18.5816 12.3542 18.5816 12.8843C18.5816 13.6427 18.4409 14.3687 18.1863 15.0388L19.5656 16.6346C20.1622 15.515 20.5016 14.2389 20.5016 12.8843Z" fill="black"/>
<path d="M6.24237 3.45215C5.89725 3.04967 5.29101 3.00335 4.88853 3.34871C4.48605 3.69407 4.43973 4.29983 4.78485 4.70231L8.46861 8.99591V12.8846C8.46861 15.1075 10.277 16.9159 12.4999 16.9159C13.3116 16.9159 14.0661 16.6726 14.6988 16.2576L16.0416 17.8226C15.0434 18.541 13.8209 18.9662 12.4999 18.9662C9.14637 18.9662 6.41829 16.2382 6.41829 12.8846C6.41829 12.3545 5.98845 11.9246 5.45829 11.9246C4.92813 11.9246 4.49829 12.3545 4.49829 12.8846C4.49829 16.9716 7.57893 20.3506 11.5399 20.8265V21.8402C11.5399 22.3704 11.9697 22.8002 12.4999 22.8002C13.0301 22.8002 13.4599 22.3704 13.4599 21.8402V20.8265C14.8872 20.6549 16.1993 20.106 17.2949 19.2835L18.3173 20.4749C18.5071 20.6962 18.7759 20.8099 19.0464 20.8099C19.2677 20.8099 19.4901 20.7338 19.6711 20.5786C20.0736 20.2334 20.1199 19.6274 19.7748 19.225L6.24237 3.45215Z" fill="black"/>
<path d="M12.5001 1.12793C10.6811 1.12793 9.14127 2.33945 8.64111 3.99761L10.3888 6.01913L14.6114 10.9036L16.5198 13.1114C16.5242 13.0358 16.5314 12.9611 16.5314 12.8846V5.15921C16.5314 2.93633 14.723 1.12793 12.5001 1.12793Z" fill="black"/>
</g>
<defs>
<clipPath id="clip0_4128_1907">
<rect width="24" height="24" fill="white"/>
</clipPath>
</defs>
</svg>
