<svg width="11" height="15" viewBox="0 0 11 15" fill="none" xmlns="http://www.w3.org/2000/svg">
<path d="M5.5 0C4.04184 0.00173761 2.64389 0.587612 1.61282 1.6291C0.581739 2.6706 0.00172369 4.08266 3.45209e-06 5.55556C-0.00133722 6.75914 0.387857 7.93 1.108 8.88889C1.108 8.88889 1.258 9.08838 1.2825 9.11717L5.5 14.1414L9.7195 9.11465C9.7415 9.08788 9.892 8.88889 9.892 8.88889L9.8925 8.88737C10.6122 7.92883 11.0012 6.75856 11 5.55556C10.9983 4.08266 10.4183 2.6706 9.38719 1.6291C8.35611 0.587612 6.95817 0.00173761 5.5 0ZM5.5 7.57576C5.10444 7.57576 4.71776 7.45727 4.38886 7.23529C4.05996 7.01331 3.80362 6.6978 3.65224 6.32865C3.50087 5.95951 3.46126 5.55332 3.53843 5.16143C3.6156 4.76955 3.80608 4.40959 4.08579 4.12706C4.36549 3.84453 4.72186 3.65212 5.10982 3.57417C5.49778 3.49622 5.89992 3.53623 6.26537 3.68913C6.63082 3.84204 6.94318 4.10097 7.16294 4.43319C7.38271 4.76541 7.5 5.156 7.5 5.55556C7.49934 6.09114 7.28842 6.6046 6.91349 6.98332C6.53856 7.36203 6.03023 7.57509 5.5 7.57576Z" fill="#145F9A"/>
</svg>
