<svg width="32" height="32" viewBox="0 0 32 32" fill="none" xmlns="http://www.w3.org/2000/svg">
<g clip-path="url(#clip0_4128_3516)">
<mask id="path-1-inside-1_4128_3516" fill="white">
<path d="M0 16C0 7.16344 7.16344 0 16 0C24.8366 0 32 7.16344 32 16C32 24.8366 24.8366 32 16 32C7.16344 32 0 24.8366 0 16Z"/>
</mask>
<path d="M16 32C24.8366 32 32 24.8366 32 16C32 7.16344 24.8366 0 16 0C7.16344 0 0 7.16344 0 16C0 24.8366 7.16344 32 16 32Z" fill="#F2F2F2"/>
<path d="M19.6624 17.1C21.445 15.9132 22.6207 13.8878 22.6207 11.586C22.6207 7.92975 19.6563 4.96533 16.0001 4.96533C12.3438 4.96533 9.37937 7.92975 9.37937 11.586C9.37937 13.8878 10.5551 15.9132 12.3377 17.1C12.3377 17.1 12.3383 17.1005 12.3388 17.1005C12.3383 17.1005 12.3383 17.1 12.3383 17.1C8.07123 18.386 4.74875 21.8492 3.67896 26.2062L3.67951 26.2067C3.85385 26.4169 4.03482 26.6222 4.21964 26.8235C4.26433 26.8726 4.31123 26.9195 4.35702 26.9675C4.49937 27.1187 4.64337 27.2677 4.79123 27.4133C4.85247 27.4735 4.91482 27.5314 4.97716 27.5904C5.11399 27.7206 5.25247 27.8492 5.39371 27.9744C5.46378 28.0362 5.53495 28.0975 5.60558 28.1582C5.74406 28.2768 5.8842 28.3932 6.02709 28.5068C6.10213 28.567 6.17771 28.626 6.2533 28.6851C6.39785 28.7965 6.54461 28.9046 6.69302 29.0106C6.76971 29.0652 6.8453 29.1209 6.92309 29.1744C7.07978 29.2826 7.23923 29.3863 7.39978 29.4889C7.47206 29.5347 7.54268 29.5822 7.61551 29.6274C7.80089 29.7416 7.98958 29.8508 8.17992 29.9579C8.23013 29.986 8.27923 30.0164 8.32999 30.044C8.57606 30.1786 8.82599 30.3077 9.07978 30.4296C9.08585 30.4324 9.09247 30.4351 9.09854 30.4379C9.34075 30.5537 9.58682 30.6635 9.83564 30.7673C9.91289 30.7998 9.99178 30.8285 10.0696 30.8594C10.2494 30.9311 10.4293 31.0017 10.6125 31.0668C10.7096 31.1016 10.8078 31.1331 10.9054 31.1662C11.0721 31.2224 11.2398 31.2771 11.4086 31.3273C11.5156 31.3593 11.6232 31.3891 11.7314 31.4188C11.8947 31.4641 12.0591 31.5071 12.2252 31.5474C12.3372 31.5744 12.4497 31.6004 12.5628 31.6252C12.7289 31.6616 12.8955 31.6947 13.0632 31.7256C13.1769 31.7466 13.29 31.7681 13.4047 31.7863C13.578 31.8144 13.7523 31.8382 13.9272 31.8608C14.0376 31.8751 14.1474 31.8911 14.2583 31.9027C14.4514 31.9237 14.6461 31.9386 14.8409 31.9524C14.9352 31.959 15.0285 31.9689 15.1228 31.9739C15.4136 31.9904 15.7054 31.9998 16.0001 31.9998C16.2947 31.9998 16.5865 31.9904 16.8773 31.975C16.9716 31.97 17.0654 31.9601 17.1592 31.9535C17.3545 31.9397 17.5493 31.9248 17.7419 31.9038C17.8527 31.8917 17.9625 31.8762 18.0729 31.8619C18.2478 31.8393 18.4221 31.8155 18.5954 31.7874C18.7096 31.7686 18.8232 31.7477 18.9369 31.7267C19.1046 31.6958 19.2718 31.6627 19.4373 31.6263C19.5504 31.6015 19.663 31.5755 19.775 31.5485C19.9405 31.5082 20.1049 31.4652 20.2687 31.42C20.3763 31.3902 20.4845 31.3604 20.5915 31.3284C20.7609 31.2776 20.9281 31.223 21.0947 31.1673C21.1923 31.1342 21.2911 31.1027 21.3876 31.068C21.5703 31.0023 21.7507 30.9322 21.9305 30.8605C22.0083 30.8296 22.0872 30.8004 22.1645 30.7684C22.4122 30.6646 22.6572 30.556 22.8983 30.4401C22.9054 30.4368 22.9132 30.4335 22.9203 30.4302C23.1741 30.3082 23.4241 30.1791 23.6701 30.0445C23.7209 30.0169 23.77 29.9866 23.8202 29.9584C24.0105 29.8514 24.1992 29.7422 24.3846 29.628C24.4574 29.5833 24.5286 29.5358 24.6003 29.4895C24.7609 29.3868 24.9203 29.2826 25.077 29.175C25.1543 29.1215 25.2304 29.0663 25.3071 29.0111C25.4555 28.9046 25.6023 28.7965 25.7468 28.6856C25.823 28.6271 25.898 28.5675 25.973 28.5074C26.1154 28.3937 26.2561 28.2773 26.3945 28.1587C26.4657 28.098 26.5369 28.0368 26.6064 27.975C26.7476 27.8497 26.8861 27.7212 27.023 27.591C27.0847 27.532 27.1476 27.4735 27.2089 27.4139C27.3567 27.2682 27.5013 27.1193 27.6431 26.9681C27.6883 26.9195 27.7352 26.8726 27.7805 26.8241C27.9653 26.6227 28.1463 26.4175 28.3206 26.2073L28.3212 26.2067C27.2519 21.8492 23.9294 18.386 19.6624 17.1Z" fill="#D9D9D9"/>
</g>
<path d="M16 32V30.4444C8.02255 30.4444 1.55556 23.9774 1.55556 16H0H-1.55556C-1.55556 25.6957 6.30433 33.5556 16 33.5556V32ZM32 16H30.4444C30.4444 23.9774 23.9774 30.4444 16 30.4444V32V33.5556C25.6957 33.5556 33.5556 25.6957 33.5556 16H32ZM16 0V1.55556C23.9774 1.55556 30.4444 8.02255 30.4444 16H32H33.5556C33.5556 6.30433 25.6957 -1.55556 16 -1.55556V0ZM16 0V-1.55556C6.30433 -1.55556 -1.55556 6.30433 -1.55556 16H0H1.55556C1.55556 8.02255 8.02255 1.55556 16 1.55556V0Z" fill="#D9D9D9" mask="url(#path-1-inside-1_4128_3516)"/>
<defs>
<clipPath id="clip0_4128_3516">
<path d="M0 16C0 7.16344 7.16344 0 16 0C24.8366 0 32 7.16344 32 16C32 24.8366 24.8366 32 16 32C7.16344 32 0 24.8366 0 16Z" fill="white"/>
</clipPath>
</defs>
</svg>
