<svg width="16" height="32" viewBox="0 0 16 32" fill="none" xmlns="http://www.w3.org/2000/svg">
<ellipse cx="8" cy="30.481" rx="8" ry="1" fill="#808080" fill-opacity="0.24"/>
<path d="M9.07183 12.5302C9.07183 12.2385 8.95593 11.9587 8.74964 11.7524C8.54335 11.5461 8.26356 11.4302 7.97183 11.4302C7.68009 11.4302 7.4003 11.5461 7.19401 11.7524C6.98772 11.9587 6.87183 12.2385 6.87183 12.5302H9.07183ZM6.87183 25.8155C6.87183 26.1072 6.98772 26.387 7.19401 26.5933C7.4003 26.7996 7.70802 27.981 7.99976 27.981C8.29149 27.981 8.54335 26.7996 8.74964 26.5933C8.95593 26.387 9.07183 26.1072 9.07183 25.8155H6.87183ZM6.87183 12.5302V25.8155H9.07183V12.5302H6.87183Z" fill="#4F4F4F"/>
<path d="M5.08278 1.74913C6.40997 0.982883 7.9872 0.77524 9.46748 1.17188C10.9478 1.56853 12.2099 2.53697 12.9761 3.86416C13.7424 5.19135 13.95 6.76857 13.5534 8.24886C13.1567 9.72914 12.1883 10.9912 10.8611 11.7575C10.2039 12.1369 9.47847 12.3832 8.72615 12.4822C7.97382 12.5812 7.20935 12.5311 6.47639 12.3347C4.9961 11.9381 3.73401 10.9697 2.96776 9.64246C2.20151 8.31527 1.99387 6.73805 2.39051 5.25776C2.78716 3.77747 3.75559 2.51538 5.08278 1.74913Z" fill="#0060C6" stroke="#0060C6" stroke-width="1.95" stroke-linecap="round" stroke-linejoin="round"/>
</svg>
