<svg width="24" height="24" viewBox="0 0 24 24" fill="none" xmlns="http://www.w3.org/2000/svg">
<g clip-path="url(#clip0_4115_20745)">
<path d="M5.15762 21.8553H18.8426L18.8434 21.8545H5.15686L5.15762 21.8553Z" fill="#C42126"/>
<path d="M11.9999 -0.000976562C11.7642 -0.000976562 11.5304 0.00753557 11.2983 0.0208104H12.7017C12.4694 0.00753557 12.2356 -0.000976562 11.9999 -0.000976562Z" fill="#C42126"/>
<path d="M15.5467 4.38803H21.2768C20.5962 3.55947 19.8052 2.82601 18.9288 2.20508H14.626C14.9821 2.83148 15.2883 3.57062 15.5467 4.38803Z" fill="#E7E7E7"/>
<path d="M14.626 2.205H18.9288C17.15 0.944443 15.0145 0.155044 12.7017 0.0214844H12.3323C13.4208 0.158489 13.9208 0.964101 14.626 2.205Z" fill="#DC3027"/>
<path d="M23.5525 8.75425C23.3392 7.99332 23.0531 7.26325 22.7014 6.57129H16.1092C16.2428 7.27217 16.3481 8.00427 16.4262 8.75425H23.5525Z" fill="#E7E7E7"/>
<path d="M15.7384 6.57101H22.7012C22.3045 5.79058 21.8278 5.05823 21.2768 4.3877H15.1945C15.4089 5.06659 15.591 5.79894 15.7384 6.57101Z" fill="#DC3027"/>
<path d="M16.6786 13.1216H23.9459C23.9804 12.7523 23.9999 12.3781 23.9999 11.9999C23.9999 11.642 23.9811 11.2886 23.9504 10.9385H16.6803C16.704 11.6645 16.7036 12.3959 16.6786 13.1216Z" fill="#E7E7E7"/>
<path d="M23.9507 10.9378C23.8849 10.1881 23.7498 9.4586 23.5526 8.75488H16.1201C16.1947 9.46975 16.244 10.2011 16.2681 10.9378H23.9507Z" fill="#DC3027"/>
<path d="M15.9838 17.488H22.67C23.0266 16.7968 23.3172 16.0662 23.5351 15.3047H16.3071C16.2275 16.0558 16.1195 16.7877 15.9838 17.488Z" fill="#E7E7E7"/>
<path d="M23.5353 15.305C23.7368 14.6015 23.8766 13.872 23.9461 13.1221H16.4522C16.4266 13.8593 16.3758 14.5905 16.2997 15.305H23.5353Z" fill="#DC3027"/>
<path d="M18.8433 21.8548C19.7324 21.2364 20.5346 20.5022 21.226 19.6719H15.5958C15.3326 20.4927 15.0201 21.2307 14.6577 21.8548H18.8433Z" fill="#E7E7E7"/>
<path d="M15.3839 19.6716H21.226C21.7834 19.0018 22.2673 18.2695 22.6699 17.4883H15.9347C15.7852 18.2609 15.6013 18.9936 15.3839 19.6716Z" fill="#DC3027"/>
<path d="M11.5651 23.9909C11.5408 23.9902 11.5166 23.989 11.4923 23.9883C11.5166 23.989 11.5408 23.9902 11.5651 23.9909Z" fill="#DC3027"/>
<path d="M11.9999 23.9996C14.544 23.9996 16.9013 23.2055 18.8426 21.8555H14.4997C13.7289 23.1835 13.2203 23.9996 11.9999 23.9996Z" fill="#DC3027"/>
<path d="M12 23.9997C11.8542 23.9997 11.7095 23.9963 11.5651 23.9912C11.711 23.9961 11.8559 23.9997 12 23.9997Z" fill="#C42126"/>
<path d="M15.0233 2.20508H5.07139C4.19489 2.82601 3.40402 3.55942 2.72321 4.38803H15.9438C15.6854 3.57062 15.3794 2.83148 15.0233 2.20508Z" fill="#F3F4F5"/>
<path d="M5.07141 2.205H15.0234C14.318 0.964101 13.4208 0.158489 12.3323 0.0214844H11.2983C8.98557 0.155044 6.84999 0.944443 5.07141 2.205Z" fill="#E73625"/>
<path d="M0.447632 8.75425H16.8046C16.7265 8.00411 16.6212 7.27217 16.4876 6.57129H1.29874C0.947061 7.2633 0.660992 7.99332 0.447632 8.75425Z" fill="#F3F4F5"/>
<path d="M2.72321 4.3877C2.17261 5.05823 1.69552 5.79052 1.29895 6.57101H16.4876C16.3404 5.79909 16.1583 5.06679 15.9438 4.3877H2.72321Z" fill="#E73625"/>
<path d="M0.00012207 11.9998C0.00012207 12.3779 0.0198317 12.7522 0.0541336 13.1214H16.9513C16.9763 12.3957 16.9767 11.6645 16.953 10.9385H0.0495735C0.018869 11.2885 0.00012207 11.6418 0.00012207 11.9998Z" fill="#F3F4F5"/>
<path d="M0.0495605 10.9378H16.9528C16.9287 10.201 16.8793 9.4698 16.8048 8.75488H0.447452C0.250204 9.45875 0.115124 10.1881 0.0495605 10.9378Z" fill="#E73625"/>
<path d="M16.7987 15.3047H0.464844C0.682764 16.0664 0.973596 16.7968 1.32999 17.488H16.4755C16.6111 16.7879 16.7189 16.0559 16.7987 15.3047Z" fill="#F3F4F5"/>
<path d="M0.464899 15.305H16.7988C16.8748 14.5905 16.9257 13.8591 16.9513 13.1221H0.0541382C0.123654 13.8722 0.263699 14.6015 0.464899 15.305Z" fill="#E73625"/>
<path d="M5.15681 21.8548H14.9867C15.3492 21.2305 15.6618 20.4927 15.9249 19.6719H2.77417C3.46558 20.5022 4.26759 21.2364 5.15681 21.8548Z" fill="#F3F4F5"/>
<path d="M1.3302 17.4883C1.73285 18.2695 2.21673 19.0018 2.77417 19.6716H15.9249C16.142 18.9937 16.326 18.261 16.4755 17.4883H1.3302Z" fill="#E73625"/>
<path d="M11.4922 23.9884C11.5165 23.9892 11.5407 23.9903 11.565 23.9911C11.7094 23.9962 11.8541 23.9996 11.9998 23.9996C13.2202 23.9996 14.2153 23.1835 14.9863 21.8555H5.15753C6.96874 23.1152 9.14278 23.8905 11.4922 23.9884Z" fill="#E73625"/>
<path d="M11.7519 0.00585938C5.60252 0.130957 0.590492 4.87895 0.0510864 10.9185H11.7521V0.00585938H11.7519Z" fill="#283991"/>
<path d="M2.40114 6.79883L2.58395 7.36174H3.17625L2.69709 7.70983L2.8801 8.27315L2.40114 7.92486L1.92233 8.27315L2.10499 7.70983L1.62598 7.36174H2.21828L2.40114 6.79883Z" fill="#EFEFEF"/>
<path d="M2.40114 8.78711L2.58395 9.35038H3.17625L2.69709 9.69846L2.8801 10.2618L2.40114 9.9135L1.92233 10.2618L2.10499 9.69846L1.62598 9.35038H2.21828L2.40114 8.78711Z" fill="#EFEFEF"/>
<path d="M4.39023 3.81445L4.57309 4.37757H5.16519L4.68618 4.72586L4.86904 5.28877L4.39023 4.94089L3.91122 5.28877L4.09408 4.72586L3.61487 4.37757H4.20717L4.39023 3.81445Z" fill="#EFEFEF"/>
<path d="M4.39023 5.80371L4.57309 6.36683H5.16519L4.68618 6.71471L4.86904 7.27803L4.39023 6.93015L3.91122 7.27803L4.09408 6.71471L3.61487 6.36683H4.20717L4.39023 5.80371Z" fill="#EFEFEF"/>
<path d="M4.39023 7.79297L4.57309 8.35629H5.16519L4.68618 8.70397L4.86904 9.26729L4.39023 8.91905L3.91122 9.26729L4.09408 8.70397L3.61487 8.35629H4.20717L4.39023 7.79297Z" fill="#EFEFEF"/>
<path d="M0.890986 9.26675L0.707976 8.70343L1.18699 8.35554H0.595038L0.581763 8.31445C0.516757 8.5155 0.458033 8.71898 0.40387 8.92474L0.41223 8.91851L0.890986 9.26675Z" fill="#EFEFEF"/>
<path d="M1.92232 6.28404L2.40113 5.93581L2.88014 6.28404L2.69713 5.72072L3.17614 5.37249H2.58384L2.40098 4.80957L2.21812 5.37249H1.99985C1.95931 5.43389 1.9201 5.49566 1.88068 5.55798L2.10503 5.72072L1.92232 6.28404Z" fill="#EFEFEF"/>
<path d="M4.39024 2.95194L4.86905 3.29982L4.68619 2.73691L5.165 2.38867H4.82299C4.53252 2.60583 4.25228 2.83566 3.98303 3.07815L3.91083 3.29982L4.39024 2.95194Z" fill="#EFEFEF"/>
<path d="M5.90033 2.30536L6.37934 1.95712L6.85815 2.30536L6.67529 1.74204L7.1541 1.39416H6.562L6.53717 1.31836C6.33653 1.42086 6.13796 1.52751 5.9439 1.64101L6.08299 1.74199L5.90033 2.30536Z" fill="#EFEFEF"/>
<path d="M6.37932 2.82031L6.56218 3.38308H7.15428L6.67527 3.73131L6.85812 4.29463L6.37932 3.94635L5.90031 4.29463L6.08317 3.73131L5.604 3.38308H6.19626L6.37932 2.82031Z" fill="#EFEFEF"/>
<path d="M6.37932 4.80957L6.56218 5.37233H7.15428L6.67527 5.72057L6.85812 6.28389L6.37932 5.9356L5.90031 6.28389L6.08317 5.72057L5.604 5.37233H6.19626L6.37932 4.80957Z" fill="#EFEFEF"/>
<path d="M6.37932 6.79883L6.56218 7.36174H7.15428L6.67527 7.70983L6.85812 8.27315L6.37932 7.92486L5.90031 8.27315L6.08317 7.70983L5.604 7.36174H6.19626L6.37932 6.79883Z" fill="#EFEFEF"/>
<path d="M6.37932 8.78711L6.56218 9.35038H7.15428L6.67527 9.69846L6.85812 10.2618L6.37932 9.9135L5.90031 10.2618L6.08317 9.69846L5.604 9.35038H6.19626L6.37932 8.78711Z" fill="#EFEFEF"/>
<path d="M8.36845 1.8252L8.55131 2.38831H9.14341L8.6646 2.7366L8.84726 3.29952L8.36845 2.95163L7.88929 3.29952L8.0723 2.7366L7.59314 2.38831H8.18539L8.36845 1.8252Z" fill="#EFEFEF"/>
<path d="M8.36845 3.81445L8.55131 4.37757H9.14341L8.6646 4.72586L8.84726 5.28877L8.36845 4.94089L7.88929 5.28877L8.0723 4.72586L7.59314 4.37757H8.18539L8.36845 3.81445Z" fill="#EFEFEF"/>
<path d="M8.36845 5.80371L8.55131 6.36683H9.14341L8.6646 6.71471L8.84726 7.27803L8.36845 6.93015L7.88929 7.27803L8.0723 6.71471L7.59314 6.36683H8.18539L8.36845 5.80371Z" fill="#EFEFEF"/>
<path d="M8.36845 7.79297L8.55131 8.35629H9.14341L8.6646 8.70397L8.84726 9.26729L8.36845 8.91905L7.88929 9.26729L8.0723 8.70397L7.59314 8.35629H8.18539L8.36845 7.79297Z" fill="#EFEFEF"/>
<path d="M10.3575 0.831055L10.5404 1.39417H11.1325L10.6535 1.74206L10.8363 2.30538L10.3575 1.95709L9.87837 2.30538L10.0614 1.74206L9.58221 1.39417H10.1743L10.3575 0.831055Z" fill="#EFEFEF"/>
<path d="M10.3575 2.82031L10.5404 3.38308H11.1325L10.6535 3.73131L10.8363 4.29463L10.3575 3.94635L9.87837 4.29463L10.0614 3.73131L9.58221 3.38308H10.1743L10.3575 2.82031Z" fill="#EFEFEF"/>
<path d="M10.3575 4.80957L10.5404 5.37233H11.1325L10.6535 5.72057L10.8363 6.28389L10.3575 5.9356L9.87837 6.28389L10.0614 5.72057L9.58221 5.37233H10.1743L10.3575 4.80957Z" fill="#EFEFEF"/>
<path d="M10.3575 6.79883L10.5404 7.36174H11.1325L10.6535 7.70983L10.8363 8.27315L10.3575 7.92486L9.87837 8.27315L10.0614 7.70983L9.58221 7.36174H10.1743L10.3575 6.79883Z" fill="#EFEFEF"/>
<path d="M10.3575 8.78711L10.5404 9.35038H11.1325L10.6535 9.69846L10.8363 10.2618L10.3575 9.9135L9.87837 10.2618L10.0614 9.69846L9.58221 9.35038H10.1743L10.3575 8.78711Z" fill="#EFEFEF"/>
</g>
<defs>
<clipPath id="clip0_4115_20745">
<rect width="24" height="24" fill="white"/>
</clipPath>
</defs>
</svg>
