<svg width="24" height="24" viewBox="0 0 24 24" fill="none" xmlns="http://www.w3.org/2000/svg">
<mask id="mask0_4128_1880" style="mask-type:luminance" maskUnits="userSpaceOnUse" x="0" y="0" width="24" height="24">
<path d="M0 0H24V24H0V0Z" fill="white"/>
</mask>
<g mask="url(#mask0_4128_1880)">
<path d="M7 5.5C7 2.73858 9.23858 0.5 12 0.5C14.7614 0.5 17 2.73858 17 5.5V11C17 13.7614 14.7614 16 12 16C9.23858 16 7 13.7614 7 11V5.5Z" fill="#2E2E2E"/>
<path d="M12.006 18.0002C12.004 18.0002 12.002 18.0002 12 18.0002C11.998 18.0002 11.996 18.0002 11.994 18.0002C9.06076 17.9974 6.54761 16.1902 5.50923 13.625C5.30201 13.1131 4.71901 12.8661 4.20708 13.0733C3.69515 13.2805 3.44813 13.8635 3.65536 14.3754C4.87027 17.3768 7.65858 19.5756 11 19.9452V23.0002C11 23.5525 11.4477 24.0002 12 24.0002C12.5523 24.0002 13 23.5525 13 23.0002V19.9454C16.3421 19.5762 19.1311 17.3772 20.3462 14.3754C20.5534 13.8635 20.3064 13.2805 19.7945 13.0733C19.2825 12.8661 18.6995 13.1131 18.4923 13.625C17.4538 16.1907 14.9399 17.9981 12.006 18.0002Z" fill="#2E2E2E"/>
</g>
</svg>
