<svg width="16" height="16" viewBox="0 0 16 16" fill="none" xmlns="http://www.w3.org/2000/svg">
<path d="M12.3399 10.352C11.615 9.73192 10.8792 9.35633 10.1632 9.97544L9.73562 10.3496C9.42279 10.6212 8.84114 11.8904 6.5923 9.30341C4.34392 6.71972 5.68189 6.31744 5.99519 6.04816L6.42511 5.67351C7.13741 5.05299 6.8686 4.27184 6.35486 3.46775L6.04484 2.9807C5.52875 2.17848 4.96678 1.65162 4.2526 2.2712L3.86671 2.60839C3.55106 2.83833 2.66876 3.58576 2.45474 5.00569C2.19717 6.70942 3.00969 8.66041 4.87124 10.8011C6.73045 12.9427 8.55079 14.0184 10.2751 13.9997C11.7082 13.9842 12.5736 13.2152 12.8443 12.9357L13.2316 12.598C13.9439 11.9789 13.5013 11.3485 12.7759 10.7271L12.3399 10.352Z" fill="#0060C6"/>
</svg>
