<svg width="16" height="16" viewBox="0 0 16 16" fill="none" xmlns="http://www.w3.org/2000/svg">
<path d="M13.391 7.96379C13.889 7.96168 14.18 7.41799 13.8762 7.02826C13.8473 6.99123 13.8173 6.95467 13.7863 6.91858C13.6615 6.77516 13.522 6.61838 13.365 6.4473C12.9416 5.98258 12.3946 5.41053 11.6976 4.707C10.7435 3.74381 10.0304 3.06232 9.49929 2.59221C9.05879 2.20084 8.53146 2 8.00529 2H7.9971C7.47117 2 6.94384 2.20084 6.50264 2.59197C5.97156 3.06232 5.25839 3.74381 4.3046 4.707C3.70143 5.31632 3.21038 5.82603 2.81505 6.25373C2.58521 6.50214 2.3872 6.72243 2.21704 6.91882C2.18427 6.95678 2.15306 6.99522 2.12341 7.03412C1.82054 7.42455 2.11054 7.96778 2.60885 7.96918H2.78346C2.78041 8.18549 2.77971 8.41305 2.78182 8.65302C2.78369 8.84957 2.78728 9.03822 2.79258 9.21898C2.82231 10.2258 2.89721 10.993 2.97819 11.5794C3.14414 12.7263 4.1101 13.715 5.22656 13.876C5.54113 13.9201 5.90954 13.9609 6.34067 13.9932C6.3271 13.7061 6.31727 13.4219 6.31141 13.1891C6.2948 12.5503 6.29409 11.2939 6.33248 10.8815C6.35743 10.6013 6.47919 10.3387 6.67678 10.1388C6.87543 9.93985 7.13662 9.81567 7.41617 9.78729H7.42483C7.63525 9.76621 7.84688 9.75979 8.05819 9.76807C8.05819 9.76807 8.24544 9.75237 8.58552 9.78729H8.59418C8.87375 9.81563 9.13494 9.93981 9.33357 10.1388C9.53129 10.3388 9.65307 10.6016 9.67787 10.8819C9.71626 11.2946 9.71532 12.551 9.69847 13.1896C9.69285 13.424 9.68279 13.7106 9.66898 14C10.1675 13.966 10.5865 13.9196 10.9383 13.8695C12.0547 13.7054 13.0235 12.7157 13.1913 11.5716C13.2739 10.9858 13.3498 10.2176 13.3797 9.21172C13.385 9.03299 13.3887 8.8466 13.3907 8.65255C13.3931 8.41117 13.3924 8.18244 13.3893 7.96496L13.391 7.96379Z" fill="#0060C6"/>
</svg>
