<svg width="24" height="24" viewBox="0 0 24 24" fill="none" xmlns="http://www.w3.org/2000/svg">
<g clip-path="url(#clip0_4261_1925)">
<path d="M12.3281 23.9953C10.4625 24.0422 6.79687 23.7516 5.60015 23.467C4.78124 23.2969 4.01484 22.8197 3.4364 22.1583C2.85796 21.4969 2.49327 20.6794 2.40843 19.8534C2.40843 19.845 2.40843 19.8366 2.40609 19.8281C2.34357 19.211 2.32431 18.5903 2.34843 17.9705C2.34843 17.9705 2.30156 17.4239 2.40609 16.4316L2.4089 16.4067C2.49548 15.5921 2.8596 14.8321 3.44015 14.2542C4.0234 13.67 4.78815 13.3016 5.60859 13.2098C6.80999 13.0828 10.4662 13.013 12.3244 13.0134C14.1825 13.0139 17.1656 13.0823 18.367 13.2098C19.1876 13.3016 19.9524 13.6701 20.5355 14.2547C21.1158 14.8329 21.4799 15.593 21.5667 16.4076C21.5667 16.4161 21.5667 16.4241 21.5691 16.4325C21.6727 17.4253 21.6586 17.9695 21.6591 17.97C21.6619 18.5913 21.632 19.2123 21.5695 19.8305L21.5667 19.8558C21.4819 20.6822 21.1172 21.4987 20.5387 22.1611C19.9603 22.8234 19.1953 23.2969 18.3787 23.4694C17.1802 23.7408 14.1919 24.008 12.3281 23.9953Z" fill="#B3B3B3"/>
<path d="M11.8791 11.6175C15.0871 11.6175 17.6878 9.01683 17.6878 5.80875C17.6878 2.60067 15.0871 0 11.8791 0C8.67098 0 6.07031 2.60067 6.07031 5.80875C6.07031 9.01683 8.67098 11.6175 11.8791 11.6175Z" fill="#B3B3B3"/>
</g>
<defs>
<clipPath id="clip0_4261_1925">
<rect width="24" height="24" fill="white"/>
</clipPath>
</defs>
</svg>
