<svg width="15" height="17" viewBox="0 0 15 17" fill="none" xmlns="http://www.w3.org/2000/svg">
<path d="M3.57333 9.76083C3.41333 9.60083 3.33333 9.40278 3.33333 9.16667C3.33333 8.93056 3.41333 8.73278 3.57333 8.57333C3.73333 8.41389 3.93111 8.33389 4.16667 8.33333C4.40222 8.33278 4.60028 8.41278 4.76083 8.57333C4.92139 8.73389 5.00111 8.93167 5 9.16667C4.99889 9.40167 4.91889 9.59972 4.76 9.76083C4.60111 9.92194 4.40333 10.0017 4.16667 10C3.93 9.99833 3.73222 9.91833 3.57333 9.76M6.90667 9.76C6.74667 9.60111 6.66667 9.40333 6.66667 9.16667C6.66667 8.93 6.74667 8.73222 6.90667 8.57333C7.06667 8.41444 7.26444 8.33444 7.5 8.33333C7.73556 8.33222 7.93361 8.41222 8.09417 8.57333C8.25472 8.73444 8.33444 8.93222 8.33333 9.16667C8.33222 9.40111 8.25222 9.59917 8.09333 9.76083C7.93444 9.9225 7.73667 10.0022 7.5 10C7.26333 9.99778 7.06556 9.91778 6.90667 9.76ZM10.24 9.76C10.08 9.60111 10 9.40333 10 9.16667C10 8.93 10.08 8.73222 10.24 8.57333C10.4 8.41444 10.5978 8.33444 10.8333 8.33333C11.0689 8.33222 11.2669 8.41222 11.4275 8.57333C11.5881 8.73444 11.6678 8.93222 11.6667 9.16667C11.6656 9.40111 11.5856 9.59917 11.4267 9.76083C11.2678 9.9225 11.07 10.0022 10.8333 10C10.5967 9.99778 10.3989 9.91778 10.24 9.76ZM1.66667 16.6667C1.20833 16.6667 0.816111 16.5036 0.49 16.1775C0.163889 15.8514 0.000555556 15.4589 0 15V3.33333C0 2.875 0.163333 2.48278 0.49 2.15667C0.816667 1.83056 1.20889 1.66722 1.66667 1.66667H2.5V0H4.16667V1.66667H10.8333V0H12.5V1.66667H13.3333C13.7917 1.66667 14.1842 1.83 14.5108 2.15667C14.8375 2.48333 15.0006 2.87556 15 3.33333V15C15 15.4583 14.8369 15.8508 14.5108 16.1775C14.1847 16.5042 13.7922 16.6672 13.3333 16.6667H1.66667ZM1.66667 15H13.3333V6.66667H1.66667V15Z" fill="#0060C6"/>
</svg>
