<svg width="32" height="53" viewBox="0 0 32 53" fill="none" xmlns="http://www.w3.org/2000/svg">
<g clip-path="url(#clip0_596_547)">
<g clip-path="url(#clip1_596_547)">
<g filter="url(#filter0_d_596_547)">
<path d="M14.2478 0.520589C14.2486 0.0802966 14.6012 -0.277262 15.0353 -0.278079L18.3453 -0.28402C18.7795 -0.284837 19.1308 0.0714158 19.1298 0.511696L19.122 4.63478L14.2398 4.64356L14.2478 0.520589Z" fill="#2E2E2E"/>
<path d="M13.2689 1.77192C13.27 1.18494 13.7402 0.708261 14.319 0.707131L18.0815 0.700364C18.6603 0.699332 19.1285 1.17433 19.1275 1.76133L19.1182 6.6028L13.2596 6.6134L13.2689 1.77192Z" fill="url(#paint0_linear_596_547)"/>
<path d="M8.44923 38.3215C8.3376 38.0595 8.17581 37.8387 7.94962 37.6504C6.84852 36.7338 5.97614 35.6344 5.24187 34.4308C4.45515 33.1411 3.8567 31.7694 3.39122 30.3428C3.31734 30.1167 3.31764 30.1167 3.55978 30.0332C3.7513 29.9672 3.94246 29.9009 4.13359 29.8348C4.20961 29.7056 4.35342 29.6899 4.4788 29.6464C5.4649 29.3039 6.4609 28.9897 7.45313 28.6644C7.65649 28.6042 7.85954 28.5427 8.05948 28.4732C8.26993 28.4002 8.38539 28.469 8.44793 28.6718C8.74801 29.6463 9.15486 30.5788 9.64841 31.4761C9.94179 32.0323 10.3211 32.5341 10.716 33.0259C10.8329 33.2844 10.819 33.5736 10.9276 33.8364C11.3586 34.8775 12.1448 35.5912 13.1569 36.0946C14.2058 36.6164 15.3321 36.8265 16.5041 36.7568C17.9045 36.6734 19.1927 36.2599 20.2563 35.3416C20.8921 34.7926 21.3375 34.1179 21.4728 33.2846C21.4878 33.1916 21.5049 33.1002 21.5555 33.0178C21.9825 32.4908 22.384 31.9473 22.6897 31.3436C23.1338 30.6018 23.4438 29.805 23.726 28.9978C23.9761 28.2816 23.9468 28.3623 24.6069 28.5656C24.6809 28.5886 24.7553 28.6086 24.8287 28.6326C25.8234 28.9592 26.8252 29.2662 27.8144 29.6081C27.9491 29.6548 28.0974 29.6784 28.1903 29.8009C28.3804 29.8681 28.5701 29.936 28.7605 30.0025C28.9697 30.0756 28.9711 30.0756 28.9064 30.2741C28.6442 31.076 28.3334 31.8601 27.9761 32.6273C27.3822 33.9023 26.6582 35.1027 25.7394 36.1894C25.3036 36.7046 24.8382 37.1933 24.3111 37.6231C24.0743 37.8164 23.9043 38.0443 23.8052 38.3246C23.6599 38.7136 23.3786 39.0144 23.0985 39.3122C22.7649 39.6664 22.398 39.9881 21.9975 40.2734C20.6964 41.2113 19.2212 41.7391 17.6273 41.9413C15.7581 42.1785 13.9272 42.0156 12.1708 41.3208C11.4872 41.0502 10.839 40.7152 10.2448 40.2891C9.66677 39.8618 9.14236 39.3831 8.71039 38.8131C8.59565 38.6602 8.48383 38.5114 8.44923 38.3215Z" fill="#808080"/>
<path d="M23.9584 14.3164C23.8749 14.3878 23.7745 14.3515 23.6828 14.3525C23.2317 14.3576 22.7806 14.3561 22.2575 14.3571C22.4294 14.4864 22.5542 14.5752 22.6728 14.6706C22.7976 14.7712 22.9165 14.8784 23.038 14.983C23.3359 15.1811 23.5162 15.4517 23.5723 15.7976C23.938 16.5917 23.9635 17.3983 23.6609 18.2176C23.645 18.2606 23.6379 18.3069 23.6268 18.3516C23.4813 18.4206 23.363 18.3347 23.2463 18.2798C23.0115 18.1694 22.77 18.0736 22.5308 17.9729C22.3329 17.8897 22.1733 17.9436 22.0448 18.1049C21.9853 18.1797 21.939 18.2617 21.899 18.3471C21.6982 18.7755 21.759 18.9261 22.1995 19.1078C22.4117 19.1952 22.6378 19.2585 22.81 19.419C22.8016 19.6338 22.5925 19.6787 22.4659 19.7918C22.3825 19.8663 22.2819 19.9227 22.1842 19.9815C21.6716 20.2858 21.1044 20.4064 20.5147 20.4089C17.6132 20.4214 14.7119 20.4256 11.8101 20.4255C11.2184 20.4254 10.6566 20.2937 10.1444 19.9985C9.91431 19.8347 9.66851 19.6904 9.45041 19.5103C9.45039 19.3837 9.56803 19.3776 9.64738 19.3376C9.86978 19.2258 10.1098 19.1506 10.3308 19.0338C10.469 18.9605 10.565 18.8656 10.5464 18.7036C10.5143 18.4245 10.388 18.1897 10.1703 18.004C10.052 17.9032 9.92178 17.9242 9.7935 17.9907C9.55499 18.1143 9.29918 18.2007 9.05606 18.3151C8.94677 18.3666 8.83544 18.439 8.70178 18.3806C8.70322 18.2548 8.63181 18.1494 8.59852 18.0333C8.40502 17.3558 8.4281 16.6867 8.68132 16.0252C8.70826 15.9553 8.7302 15.8836 8.75453 15.8126C8.84546 15.4882 9.02297 15.2179 9.29688 15.0078C9.54412 14.8187 9.76564 14.5997 10.0565 14.4246C9.96588 14.3619 9.88833 14.3805 9.8179 14.3802C9.42244 14.3786 9.02725 14.3826 8.63171 14.3795C8.54901 14.3788 8.45749 14.4117 8.38366 14.3445C8.45669 14.2616 8.55827 14.2715 8.65353 14.2711C9.09001 14.2697 9.52656 14.2597 9.9628 14.2738C10.081 14.2774 10.1944 14.2767 10.3028 14.2234C10.8184 13.9702 11.3724 13.892 11.9412 13.9081C12.1468 13.9139 12.1746 13.8406 12.1662 13.6627C12.1463 13.2431 12.1556 12.8229 12.1866 12.4022C12.2365 11.7295 12.5364 11.1626 12.9535 10.6446C13.0438 10.5325 13.1297 10.3617 13.3396 10.4126C13.305 11.1672 13.7914 11.5482 14.434 11.791C15.6766 12.2603 16.9178 12.231 18.1358 11.6917C18.6307 11.4724 18.9838 11.1293 19.0218 10.5662C19.0251 10.5194 19.0459 10.4759 19.0815 10.441C19.3098 10.444 19.411 10.6192 19.522 10.7624C19.9944 11.3726 20.2153 12.0651 20.2104 12.8268C20.2086 13.1067 20.2084 13.3868 20.2096 13.6667C20.2102 13.8143 20.2677 13.8902 20.4346 13.8832C20.9967 13.8591 21.5303 13.9742 22.0398 14.1986C22.1486 14.2464 22.2642 14.2473 22.3813 14.2446C22.7974 14.2348 23.2139 14.2389 23.63 14.2395C23.7453 14.2395 23.8665 14.2242 23.9584 14.3164Z" fill="url(#paint1_linear_596_547)"/>
<path d="M13.3099 10.4042C12.6895 10.9477 12.3408 11.6151 12.2632 12.4246C12.2228 12.8453 12.2549 13.2644 12.2276 13.6834C12.2219 13.7697 12.294 13.8414 12.2498 13.9534C12.0249 14.0002 11.7763 13.9804 11.5359 13.9898C11.1408 14.0054 10.7702 14.0934 10.4212 14.2545C10.2455 14.3357 10.0795 14.3452 9.89481 14.3425C9.39164 14.335 8.88815 14.3429 8.38486 14.3447C8.33486 13.8426 8.33818 13.3377 8.38403 12.8375C8.50114 11.5582 8.9347 10.3806 9.69597 9.31997C10.5567 8.12081 11.6854 7.23658 13.076 6.66348C13.111 6.64916 13.1506 6.64484 13.1878 6.63581C13.407 6.41737 13.7064 6.37242 13.9887 6.29556C14.2839 6.21529 14.5892 6.18059 14.8901 6.12474C15.7532 6.00556 16.6161 6.00232 17.4788 6.11922C17.91 6.17285 18.3353 6.25349 18.7497 6.38325C18.8973 6.42956 19.0448 6.47278 19.1658 6.57166C19.2856 6.67218 19.4407 6.705 19.5786 6.77073C22.1352 7.99153 23.6039 9.96392 23.9612 12.6962C24.0278 13.2063 23.9962 13.7237 23.9874 14.2378C23.987 14.264 23.9687 14.2898 23.9587 14.3156C23.3867 14.3228 22.8145 14.2918 22.2434 14.3367C22.1575 14.3433 22.0958 14.3036 22.0257 14.276C21.8563 14.2091 21.6861 14.1458 21.5126 14.0877C21.1416 13.9632 20.758 13.9596 20.3736 13.9527C20.1354 13.9485 20.1325 13.949 20.1306 13.7225C20.1283 13.414 20.1286 13.1053 20.1321 12.7968C20.1402 12.0547 19.9009 11.3888 19.4588 10.7915C19.3601 10.6584 19.2418 10.5284 19.0803 10.4518C19.0096 10.455 18.9776 10.4051 18.9521 10.3558C18.6947 9.85861 18.2302 9.60285 17.717 9.44973C16.5944 9.11495 15.4706 9.11702 14.3683 9.5644C14.0119 9.709 13.7191 9.93322 13.4967 10.2401C13.4469 10.3082 13.4096 10.3894 13.3099 10.4042Z" fill="url(#paint2_linear_596_547)"/>
<path d="M20.7097 46.7654C20.5589 48.2943 19.9317 49.6252 18.8927 50.7823C18.5544 51.159 18.1651 51.4827 17.719 51.7381C16.6246 52.3643 15.5329 52.3554 14.4515 51.7219C13.7089 51.2867 13.1454 50.6768 12.6782 49.981C12.1367 49.1745 11.7623 48.3012 11.5917 47.35C11.5653 47.2021 11.5486 47.0548 11.5565 46.9049C11.2906 45.9531 11.7859 44.9696 12.7261 44.5758C13.3125 44.3302 13.933 44.2169 14.5625 44.1815C15.2189 44.1443 15.8769 44.0693 16.5352 44.1142C17.5069 44.1804 18.4915 44.1542 19.4178 44.5309C20.3626 44.9148 20.7315 45.5959 20.776 46.4962C20.7806 46.5896 20.7469 46.679 20.7097 46.7654Z" fill="url(#paint3_linear_596_547)"/>
<path d="M28.1906 29.8009C27.0811 29.4412 25.9718 29.0816 24.8628 28.721C24.8463 28.7157 24.8338 28.698 24.8192 28.6863C24.7437 28.5874 24.7949 28.4877 24.8239 28.3916C25.3969 26.4895 25.7288 24.5454 25.9489 22.5813C25.9641 22.4461 25.9558 22.3192 25.8798 22.204C25.6634 21.8763 25.5546 21.508 25.4473 21.1391C25.4358 20.5996 25.5149 20.078 25.7974 19.6004C25.9321 19.3728 26.0741 19.1477 26.339 19.0338C26.6613 18.7554 27.0234 18.5456 27.4455 18.4433C28.3394 18.2267 29.1256 18.4287 29.8103 19.0109C30.3732 19.4896 30.5995 20.1168 30.6546 20.8184C30.6575 20.8555 30.6655 20.8922 30.6713 20.929C30.6992 21.5508 30.4112 22.0529 30.0133 22.5106C29.884 22.6593 29.7149 22.7733 29.6036 22.9385C29.4942 23.0634 29.521 23.2261 29.5053 23.3648C29.4238 24.0839 29.3114 24.799 29.1902 25.5124C29.0561 26.2997 28.9017 27.0833 28.7074 27.8597C28.5627 28.4378 28.3988 29.0107 28.2242 29.581C28.2028 29.6516 28.2012 29.7277 28.1906 29.8009Z" fill="#F0BC86"/>
<path d="M7.46438 28.7178C7.10677 28.8821 6.72305 28.9763 6.35099 29.1018C5.61344 29.351 4.87271 29.5912 4.13335 29.8353C3.93741 29.2218 3.76762 28.6018 3.6116 27.9774C3.47369 27.4255 3.35805 26.8703 3.24899 26.3131C3.14371 25.7744 3.05801 25.2328 2.98387 24.6894C2.91125 24.1554 2.83418 23.6216 2.75666 23.0882C2.75171 23.0537 2.72587 23.0224 2.70961 22.9893C2.51791 22.7351 2.25121 22.5449 2.07384 22.2767C1.81098 21.8797 1.60795 21.4686 1.64792 20.9802C1.70838 20.8993 1.70449 20.806 1.71012 20.7123C1.76492 19.8105 2.21639 19.1492 3.03145 18.7119C3.44631 18.4891 3.8921 18.3673 4.36464 18.4013C4.83087 18.4346 5.27412 18.5596 5.66152 18.8289C5.77842 18.9101 5.90288 18.9809 6.02397 19.0564C6.5476 19.4799 6.79724 20.0356 6.85279 20.6808C6.86796 20.8559 6.86556 21.0336 6.84044 21.2096C6.77807 21.5724 6.65561 21.915 6.45062 22.227C6.37353 22.3441 6.359 22.4653 6.37301 22.6009C6.57194 24.5428 6.90464 26.4605 7.4456 28.3417C7.48124 28.4632 7.54973 28.588 7.46438 28.7178Z" fill="#F0BC86"/>
<path d="M20.7097 46.7652C20.7338 46.5022 20.6865 46.2378 20.6322 45.9895C20.4925 45.3513 20.0953 44.8906 19.4598 44.6324C18.7544 44.3457 18.0148 44.2646 17.2557 44.2345C16.8215 44.2173 16.3873 44.201 15.9526 44.1894C15.4674 44.1763 14.9857 44.2346 14.5042 44.2638C13.9203 44.2992 13.338 44.4035 12.7894 44.636C12.1917 44.8895 11.7977 45.3056 11.6267 45.913C11.5352 46.2385 11.5385 46.5716 11.5559 46.9047C11.2943 46.4594 10.9919 46.0385 10.7366 45.589C9.86819 44.0604 9.25006 42.4411 8.83603 40.7461C8.65857 40.0204 8.53569 39.2853 8.45261 38.5439C8.44428 38.4704 8.44974 38.3953 8.44866 38.3213C8.79307 38.8275 9.17455 39.3046 9.64232 39.7118C9.84179 39.8852 10.0494 40.0498 10.2533 40.2184C10.3075 40.3255 10.2854 40.4356 10.2733 40.5479C10.1648 41.5568 10.6205 42.2924 11.5954 42.6727C12.2854 42.9421 13.0155 43.0404 13.7508 43.1024C15.047 43.2121 16.348 43.1659 17.6457 43.144C18.6138 43.1276 19.5842 43.0425 20.5077 42.7121C21.2311 42.4534 21.775 42.025 21.9427 41.2562C21.9994 40.9971 21.9743 40.7347 21.9702 40.4734C21.9686 40.3805 21.9449 40.2871 21.9905 40.1975C22.628 39.7046 23.217 39.1675 23.6598 38.4969C23.7015 38.4338 23.7396 38.3683 23.8046 38.3232C23.7924 38.9141 23.6782 39.4933 23.5584 40.0697C23.1574 41.997 22.4818 43.8313 21.4988 45.5578C21.2619 45.9758 21.0194 46.3913 20.7097 46.7652Z" fill="url(#paint4_linear_596_547)"/>
<path d="M8.70209 18.3805C9.07983 18.2348 9.45778 18.0867 9.81372 17.8975C9.9855 17.8062 10.1237 17.8455 10.2347 17.9506C10.4522 18.1563 10.5964 18.4074 10.627 18.7094C10.6439 18.8778 10.5822 18.993 10.4192 19.0707C10.1065 19.2197 9.78798 19.3548 9.4633 19.4771C9.45736 19.5552 9.39147 19.5833 9.33312 19.6118C8.82798 19.8603 8.30716 20.0757 7.78927 20.2967C7.74497 20.3156 7.69663 20.3201 7.64893 20.3039C7.51661 19.8647 7.27972 19.4708 7.07259 19.0639C7.25788 19.0411 7.41071 18.9389 7.57626 18.869C7.95304 18.7094 8.32699 18.5438 8.70209 18.3805Z" fill="#B3B3B3"/>
<path d="M22.8104 19.4359C22.5107 19.3082 22.2077 19.1872 21.9125 19.0508C21.7207 18.9621 21.7045 18.8765 21.7285 18.6677C21.7504 18.4754 21.8224 18.3058 21.9238 18.1473C22.0929 17.8826 22.257 17.7666 22.6213 17.9262C22.9542 18.0722 23.2748 18.247 23.627 18.3516C24.088 18.5515 24.5485 18.7519 25.01 18.95C25.0877 18.9833 25.1601 19.0331 25.2507 19.034C25.2593 19.0719 25.2575 19.1115 25.2322 19.1405C24.9444 19.4696 24.8419 19.8833 24.6741 20.2669C24.4497 20.3075 24.2974 20.1467 24.1126 20.0783C23.7602 19.9481 23.4228 19.7842 23.0788 19.6344C22.9755 19.5897 22.8579 19.5542 22.8104 19.4359Z" fill="#B3B3B3"/>
<path d="M29.603 22.9385C29.5269 22.8435 29.5943 22.7957 29.6654 22.7378C29.9612 22.4961 30.2122 22.2203 30.3765 21.8756C30.4896 21.6385 30.5804 21.397 30.6044 21.1357C30.6113 21.0621 30.6114 20.9869 30.6704 20.9286C30.8284 20.9991 30.9893 21.0639 31.1439 21.1408C31.7015 21.4191 31.9318 22.0525 31.6792 22.601C31.4294 23.1429 30.7778 23.3973 30.1882 23.178C29.9906 23.1048 29.7979 23.0187 29.603 22.9385Z" fill="#2E2E2E"/>
<path d="M1.64826 20.9795C1.71315 21.0096 1.70345 21.0689 1.70947 21.1231C1.78048 21.7819 2.08842 22.3186 2.60677 22.7471C2.68332 22.8101 2.8011 22.8582 2.71006 22.9885C2.50568 23.0731 2.30516 23.169 2.09561 23.2403C1.43155 23.4664 0.751603 23.119 0.573206 22.4706C0.439848 21.9865 0.679392 21.4579 1.15188 21.2091C1.31254 21.1246 1.48241 21.0555 1.64826 20.9795Z" fill="#2E2E2E"/>
<path d="M7.07277 19.0641C7.39777 19.4127 7.59647 19.8192 7.67039 20.2829C7.78564 20.6205 7.70338 20.855 7.38448 20.9858C7.19071 21.0653 7.02295 21.2405 6.77988 21.1787C6.76781 20.9376 6.79246 20.6965 6.74744 20.4552C6.66364 20.0039 6.47037 19.6077 6.16034 19.2622C6.10488 19.2006 6.03124 19.1485 6.02448 19.0562C6.10198 19.0212 6.1847 18.9938 6.25619 18.9499C6.56525 18.7602 6.83301 18.8161 7.07277 19.0641Z" fill="#2E2E2E"/>
<path d="M24.6576 20.2532C24.7303 19.7905 24.9306 19.3854 25.251 19.0339C25.4953 18.7854 25.7645 18.719 26.0783 18.9152C26.1583 18.9653 26.2518 18.9948 26.339 19.034C26.2012 19.2021 26.0422 19.3534 25.9265 19.539C25.6765 19.9406 25.5438 20.3719 25.5418 20.8409C25.5413 20.9384 25.5899 21.0475 25.4899 21.1298C25.1253 21.1022 24.816 20.9759 24.6402 20.6492C24.5728 20.5247 24.549 20.3813 24.6576 20.2532Z" fill="#2E2E2E"/>
<path d="M21.6144 33.0202C21.5347 33.376 21.4747 33.7353 21.3153 34.0718C20.8721 35.0076 20.1308 35.6601 19.2021 36.126C17.9959 36.731 16.7127 36.9352 15.3655 36.7953C14.2853 36.6833 13.287 36.3587 12.4044 35.7456C11.579 35.1723 10.9764 34.4406 10.7432 33.4606C10.7089 33.3155 10.7325 33.1595 10.6538 33.0235C10.4905 32.5433 10.6498 32.099 10.821 31.6557C10.8694 31.565 10.9224 31.4762 10.9519 31.3771C11.2058 30.827 11.589 30.3717 12.0749 30.0006C12.3231 29.8113 12.5142 29.5996 12.6601 29.322C13.138 28.412 13.9523 27.8928 14.9441 27.6288C16.1714 27.3024 17.3473 27.4471 18.4423 28.0755C19.0119 28.4025 19.4545 28.8514 19.7116 29.4518C19.7723 29.5932 19.8521 29.7154 19.9818 29.8076C20.6347 30.2711 21.131 30.856 21.4494 31.5785C21.6118 32.0471 21.797 32.5136 21.6144 33.0202Z" fill="#1A1A1A"/>
<path d="M22.2027 25.2605C22.5745 25.7648 22.7237 26.3303 22.7196 26.9459C22.7112 28.3197 22.7123 29.6936 22.7103 31.0675C22.71 31.1795 22.7174 31.2912 22.7213 31.4034C22.5921 31.7478 22.3647 32.0384 22.1598 32.3403C21.9968 32.5799 21.8315 32.8201 21.6145 33.0207C21.6341 32.5177 21.545 32.0311 21.3796 31.5566C21.2549 31.1563 21.2062 30.7371 21.0461 30.3452C20.5071 29.0248 19.5355 28.1197 18.1947 27.5605C18.0075 27.4826 17.7652 27.485 17.6579 27.2671C17.5781 26.5468 17.6504 25.8584 18.1239 25.2553C18.8932 24.2623 20.1503 24.036 21.14 24.4047C21.3597 24.4865 21.5557 24.6035 21.745 24.734C21.939 24.8756 22.1321 25.0187 22.2027 25.2605Z" fill="#B3B3B3"/>
<path d="M9.59179 31.4968C9.59636 31.3946 9.60446 31.2924 9.60459 31.1903C9.60819 29.7737 9.6261 28.3568 9.60611 26.9406C9.59736 26.3291 9.74025 25.7814 10.104 25.2838C10.1637 24.9985 10.4359 24.8925 10.6214 24.7128C11.7141 23.9423 13.2825 24.1542 14.1571 25.2111C14.644 25.8212 14.6894 26.5331 14.6604 27.2624C14.596 27.4418 14.4175 27.459 14.2685 27.5149C12.712 28.0975 11.6613 29.1443 11.1354 30.6758C11.0651 30.8805 11.0414 31.0939 10.9909 31.3022C10.9284 31.4023 10.9599 31.5293 10.8898 31.6272C10.7223 32.0788 10.6551 32.546 10.6542 33.0233C10.2214 32.5655 9.87678 32.0502 9.59179 31.4968Z" fill="#B3B3B3"/>
<path d="M21.9908 40.1988C22.2609 41.3111 21.8429 42.1539 20.9838 42.5931C20.4979 42.8415 19.9763 42.9766 19.4386 43.0612C18.6337 43.1875 17.8223 43.2389 17.0081 43.2404C16.1544 43.242 15.3 43.2578 14.4476 43.2266C13.6364 43.1969 12.8255 43.1279 12.039 42.9099C11.6551 42.8033 11.2911 42.6589 10.9662 42.4293C10.482 42.0875 10.2351 41.62 10.1835 41.0529C10.1581 40.7734 10.1705 40.4927 10.2532 40.2195C10.9561 40.688 11.6933 41.0979 12.5042 41.3659C15.3079 42.2929 18.0605 42.1808 20.75 40.9299C21.1881 40.7259 21.591 40.4644 21.9908 40.1988Z" fill="#2E2E2E"/>
<path d="M14.6133 27.2955C14.5644 27.1308 14.5839 26.9615 14.5907 26.7953C14.6108 26.2845 14.4728 25.8208 14.1803 25.3975C14.149 25.3521 14.1296 25.2988 14.1049 25.2488C14.0405 25.1098 14.0254 24.9636 14.0265 24.812C14.0306 24.2145 14.0338 23.6166 14.0303 23.0191C14.025 22.1378 13.2922 21.4285 12.3955 21.4307C11.431 21.4333 10.711 22.1129 10.7025 23.0319C10.6985 23.4894 10.7004 23.9468 10.699 24.4046C10.6988 24.5357 10.7008 24.6674 10.615 24.7811C10.4449 24.9487 10.2745 25.116 10.1044 25.2836C10.0991 25.2096 10.0884 25.1358 10.0885 25.0617C10.0908 23.3863 10.0941 21.711 10.0979 20.0357C10.098 19.9894 10.1027 19.9428 10.1054 19.8965C10.3445 20.0192 10.5913 20.1227 10.8506 20.2027C11.1382 20.2915 11.4339 20.3378 11.731 20.3378C14.6776 20.3381 17.6244 20.3341 20.571 20.3221C21.158 20.3196 21.714 20.1699 22.2236 19.8768C22.2217 21.6344 22.2201 23.3917 22.2176 25.1489C22.2175 25.186 22.2084 25.2231 22.2034 25.2601C22.0412 25.1021 21.8793 24.9438 21.7171 24.7858C21.6541 24.664 21.6593 24.5327 21.6593 24.4019C21.6592 23.9818 21.669 23.5613 21.6591 23.1414C21.6391 22.3165 21.1852 21.7014 20.4426 21.4784C19.4146 21.1696 18.311 21.9159 18.2775 22.9553C18.2574 23.5804 18.2713 24.2062 18.2699 24.8319C18.2695 24.9818 18.2681 25.131 18.1921 25.2687C18.1001 25.4319 17.9979 25.5907 17.9183 25.7592C17.7601 26.0941 17.6937 26.4481 17.7046 26.8166C17.7093 26.9741 17.6979 27.1321 17.694 27.2901C17.5667 27.3836 17.4319 27.3248 17.3041 27.3013C16.5164 27.1562 15.7306 27.1643 14.9447 27.3201C14.8321 27.3422 14.7164 27.3846 14.6133 27.2955Z" fill="url(#paint5_linear_596_547)"/>
<path d="M13.3102 10.4045C13.5034 9.99017 13.8356 9.70746 14.2577 9.53297C15.5447 9.0005 16.8366 8.99588 18.121 9.53075C18.5627 9.71462 18.8997 10.0107 19.0802 10.4524C19.1401 10.9573 18.8861 11.3102 18.4796 11.5846C18.0419 11.8799 17.5454 12.0329 17.0257 12.1155C16.1306 12.2577 15.2555 12.1947 14.4084 11.8668C14.173 11.7757 13.9554 11.6565 13.76 11.5042C13.398 11.2216 13.2018 10.8698 13.3102 10.4045Z" fill="#FF9800"/>
<path d="M14.6135 27.2955C15.0667 27.2166 15.5148 27.1181 15.9805 27.1089C16.5621 27.0972 17.1292 27.1717 17.6934 27.2902C17.8881 27.3667 18.0849 27.4388 18.2771 27.5204C19.7428 28.142 20.754 29.1643 21.2268 30.653C21.3193 30.9449 21.3945 31.2446 21.3803 31.5565C21.2779 31.4634 21.2543 31.3285 21.1889 31.2158C20.8717 30.6679 20.4436 30.2179 19.919 29.8509C19.8244 29.7846 19.7378 29.7185 19.6935 29.6052C19.3234 28.6603 18.5763 28.0927 17.6217 27.7798C16.2911 27.3432 15.0025 27.4674 13.8019 28.205C13.2566 28.5399 12.8449 28.9956 12.609 29.5841C12.569 29.6837 12.5196 29.7644 12.4269 29.8274C11.8195 30.2388 11.342 30.7607 11.0039 31.3989C10.8932 31.4023 10.9326 31.3314 10.9392 31.2767C11.0281 30.4749 11.371 29.7715 11.8705 29.1378C12.5267 28.3052 13.3729 27.7198 14.4065 27.3929C14.4791 27.3695 14.5554 27.3495 14.6135 27.2955Z" fill="url(#paint6_linear_596_547)"/>
<path d="M10.9386 31.2762C10.951 31.3214 10.9544 31.371 11.0032 31.3985C10.9981 31.4897 10.9578 31.5647 10.8898 31.6274C10.8932 31.5087 10.8673 31.3864 10.9386 31.2762Z" fill="#C3A381"/>
<path d="M18.1913 25.2685C18.1901 24.4846 18.1658 23.6998 18.1935 22.9164C18.2372 21.6759 19.7615 20.9136 20.8555 21.565C21.3994 21.8888 21.6962 22.3651 21.7255 22.967C21.7553 23.5718 21.7221 24.1796 21.7163 24.7858C21.2677 24.493 20.7818 24.3121 20.2308 24.3108C19.4692 24.3088 18.8437 24.5968 18.3276 25.1273C18.2823 25.1743 18.2586 25.2411 18.1913 25.2685Z" fill="#1A1A1A"/>
<path d="M10.6148 24.7812C10.6137 24.1748 10.6148 23.5682 10.6104 22.9617C10.6049 22.2168 11.2841 21.4073 12.2659 21.3451C13.1144 21.2914 13.8928 21.8802 14.0691 22.5973C14.0867 22.6694 14.1134 22.7423 14.1141 22.8153C14.1236 23.6265 14.1346 24.4376 14.1048 25.2488C13.9885 25.1386 13.8789 25.0206 13.7548 24.9193C12.9058 24.2262 11.8246 24.1321 10.843 24.661C10.7672 24.7018 10.6909 24.7413 10.6148 24.7812Z" fill="#1A1A1A"/>
</g>
</g>
</g>
<defs>
<filter id="filter0_d_596_547" x="-31.4634" y="-33.2841" width="95.2446" height="116.486" filterUnits="userSpaceOnUse" color-interpolation-filters="sRGB">
<feFlood flood-opacity="0" result="BackgroundImageFix"/>
<feColorMatrix in="SourceAlpha" type="matrix" values="0 0 0 0 0 0 0 0 0 0 0 0 0 0 0 0 0 0 127 0" result="hardAlpha"/>
<feOffset dy="-1"/>
<feGaussianBlur stdDeviation="16"/>
<feColorMatrix type="matrix" values="0 0 0 0 0 0 0 0 0 0 0 0 0 0 0 0 0 0 0.3 0"/>
<feBlend mode="normal" in2="BackgroundImageFix" result="effect1_dropShadow_596_547"/>
<feBlend mode="normal" in="SourceGraphic" in2="effect1_dropShadow_596_547" result="shape"/>
</filter>
<linearGradient id="paint0_linear_596_547" x1="16.2002" y1="0.703748" x2="16.2109" y2="6.608" gradientUnits="userSpaceOnUse">
<stop stop-color="#0060C6"/>
<stop offset="1" stop-color="#004084"/>
</linearGradient>
<linearGradient id="paint1_linear_596_547" x1="16.1786" y1="10.3981" x2="16.1967" y2="20.4218" gradientUnits="userSpaceOnUse">
<stop stop-color="#0060C6"/>
<stop offset="1" stop-color="#004084"/>
</linearGradient>
<linearGradient id="paint2_linear_596_547" x1="16.1899" y1="6.03344" x2="16.2049" y2="14.3483" gradientUnits="userSpaceOnUse">
<stop stop-color="#0060C6"/>
<stop offset="1" stop-color="#004084"/>
</linearGradient>
<linearGradient id="paint3_linear_596_547" x1="16.1353" y1="44.1002" x2="16.1499" y2="52.2023" gradientUnits="userSpaceOnUse">
<stop stop-color="#2D74BF"/>
<stop offset="1" stop-color="#114E8E"/>
</linearGradient>
<linearGradient id="paint4_linear_596_547" x1="16.1264" y1="38.3074" x2="16.1419" y2="46.8964" gradientUnits="userSpaceOnUse">
<stop stop-color="#2D74BF"/>
<stop offset="1" stop-color="#114E8E"/>
</linearGradient>
<linearGradient id="paint5_linear_596_547" x1="16.1627" y1="19.8855" x2="16.1762" y2="27.3472" gradientUnits="userSpaceOnUse">
<stop stop-color="#0060C6"/>
<stop offset="1" stop-color="#004084"/>
</linearGradient>
<linearGradient id="paint6_linear_596_547" x1="16.1612" y1="27.8955" x2="16.1679" y2="31.5658" gradientUnits="userSpaceOnUse">
<stop stop-color="white"/>
<stop offset="1" stop-color="#CDE2F8"/>
</linearGradient>
<clipPath id="clip0_596_547">
<rect width="32" height="53" fill="white"/>
</clipPath>
<clipPath id="clip1_596_547">
<rect width="82" height="104" fill="white" transform="translate(-18 -32) rotate(7.43)"/>
</clipPath>
</defs>
</svg>
