<svg width="16" height="16" viewBox="0 0 16 16" fill="none" xmlns="http://www.w3.org/2000/svg">
<g clip-path="url(#clip0_4082_10624)">
<path d="M2.55999 3.18759C3.37905 3.05884 6.73999 2.91416 7.99999 2.93259C9.08374 2.92228 11.7209 3.01384 12.9594 3.13603C12.5641 2.01853 11.5569 1.12884 10.41 0.981969C9.60343 0.881344 8.50374 0.798844 6.99781 0.819469C5.49187 0.840094 4.39031 0.956344 3.58124 1.07853C2.24499 1.28916 1.04999 2.46478 0.821867 3.81072C0.816242 3.84447 0.810617 3.88291 0.804367 3.92478C1.31687 3.54384 1.91874 3.27697 2.55999 3.18759Z" fill="#0060C6"/>
<path d="M15.8672 6.33483C15.7147 5.14514 14.655 4.13858 13.4147 3.97389C11.2294 3.75733 8 3.7392 8 3.74701C6.60343 3.73264 3.33406 3.86576 2.58531 3.97389C1.82687 4.07139 1.14156 4.48983 0.683122 5.06514C0.390309 5.43389 0.191559 5.86764 0.133122 6.33389C0.0443717 7.05264 -0.0259408 8.03576 0.00968424 9.38014C0.0453092 10.7245 0.171247 11.7089 0.297184 12.4308C0.515934 13.6248 1.58875 14.6736 2.78437 14.8745C3.50843 15.0136 6.65625 15.2055 8 15.1811C9.34375 15.2055 12.4916 15.0136 13.2159 14.8755C14.4116 14.6745 15.4859 13.6255 15.7031 12.4317C15.8281 11.7098 15.9531 10.7251 15.9906 9.38108C16.0281 8.03701 15.9559 7.0542 15.8672 6.33483ZM13.2081 10.5723C12.9889 10.5723 12.7747 10.5073 12.5924 10.3856C12.4102 10.2638 12.2682 10.0907 12.1843 9.88819C12.1005 9.68569 12.0785 9.46286 12.1213 9.2479C12.1641 9.03294 12.2697 8.83549 12.4247 8.68053C12.5797 8.52557 12.7772 8.42005 12.9921 8.37733C13.2071 8.33461 13.4299 8.3566 13.6324 8.44052C13.8349 8.52444 14.0079 8.66652 14.1296 8.84879C14.2514 9.03106 14.3163 9.24533 14.3162 9.46451C14.3162 9.61002 14.2876 9.7541 14.2319 9.88853C14.1762 10.023 14.0946 10.1451 13.9917 10.248C13.8888 10.3508 13.7666 10.4324 13.6322 10.4881C13.4977 10.5437 13.3536 10.5724 13.2081 10.5723Z" fill="#0060C6"/>
</g>
<defs>
<clipPath id="clip0_4082_10624">
<rect width="16" height="16" fill="white"/>
</clipPath>
</defs>
</svg>
