<svg width="52" height="52" viewBox="0 0 52 52" fill="none" xmlns="http://www.w3.org/2000/svg">
<path d="M12.7331 17.3621H11.1997C10.5395 17.3625 9.90649 17.625 9.43981 18.092C8.97314 18.5589 8.71098 19.1921 8.71098 19.8523V28.3274C8.71098 34.7814 13.9414 37.2809 20.3955 37.2809H49.0746C49.4678 37.2809 49.845 37.1247 50.1231 36.8466C50.4012 36.5685 50.5574 36.1913 50.5574 35.7981V28.4807C50.5582 27.9336 50.4511 27.3916 50.2422 26.8859C50.0333 26.3802 49.7268 25.9206 49.3401 25.5335C48.9534 25.1464 48.4942 24.8393 47.9887 24.6299C47.4832 24.4204 46.9414 24.3127 46.3942 24.3129H34.2604C33.1563 24.3129 32.0813 24.6664 31.1927 25.3218C30.3042 25.9772 29.6489 26.8999 29.3229 27.9548L27.2559 34.6526H26.2101C24.8544 34.6535 23.5538 34.1159 22.5942 33.1581C21.6347 32.2003 21.0948 30.9007 21.0932 29.5449L20.5473 21.8089C20.5473 20.6295 20.0788 19.4985 19.2448 18.6645C18.4109 17.8306 17.2798 17.3621 16.1004 17.3621H12.7331Z" fill="url(#paint0_linear_4082_10556)"/>
<path d="M19.7131 21.6632L20.2973 30.5569C20.2973 30.5569 20.9107 35.5819 27.2482 34.6634H26.204C25.5323 34.663 24.8672 34.5303 24.2468 34.2728C23.6265 34.0153 23.0629 33.6382 22.5883 33.1628C22.1137 32.6875 21.7373 32.1234 21.4808 31.5026C21.2243 30.8818 21.0925 30.2166 21.0932 29.5449L20.5473 21.8089C20.5473 20.6295 20.0788 19.4985 19.2448 18.6645C18.4109 17.8306 17.2798 17.3621 16.1004 17.3621C16.1004 17.3621 19.5398 18.072 19.7131 21.6632Z" fill="url(#paint1_linear_4082_10556)"/>
<path d="M30.0006 33.0534C30.2578 32.5877 30.46 32.0937 30.6033 31.5813L31.7058 27.7678C31.7058 27.7678 32.3529 24.6703 36.033 24.3176H34.2604C33.1563 24.3175 32.0812 24.6711 31.1927 25.3265C30.3041 25.9818 29.6489 26.9046 29.3229 27.9594L27.2543 34.6573H27.7067C28.9625 34.4948 29.5544 33.8477 30.0006 33.0534Z" fill="url(#paint2_linear_4082_10556)"/>
<path d="M16.953 31.681C16.7019 30.638 16.106 29.7104 15.262 29.0483C14.4179 28.3862 13.375 28.0285 12.3022 28.0331L8.70945 27.8153V28.3275C8.70945 34.7815 13.9399 37.281 20.3939 37.281H21.7065C18.583 36.9068 17.4943 34.021 16.953 31.681Z" fill="url(#paint3_linear_4082_10556)"/>
<path d="M15.1666 15.8793H12.7331V17.3621H15.1666V15.8793Z" fill="#B3B3B3"/>
<path d="M9.64635 13.2634H5.92172C5.81434 13.2636 5.70797 13.2426 5.60872 13.2016C5.50947 13.1606 5.41929 13.1004 5.34336 13.0245C5.26742 12.9485 5.20723 12.8583 5.16623 12.7591C5.12523 12.6598 5.10422 12.5535 5.10442 12.4461C5.10442 12.2293 5.19053 12.0214 5.34381 11.8682C5.49708 11.7149 5.70496 11.6288 5.92172 11.6288H9.64635C9.75368 11.6288 9.85995 11.6499 9.95911 11.691C10.0583 11.7321 10.1484 11.7923 10.2243 11.8682C10.3002 11.9441 10.3604 12.0342 10.4014 12.1333C10.4425 12.2325 10.4636 12.3388 10.4636 12.4461C10.4638 12.5535 10.4428 12.6598 10.4018 12.7591C10.3608 12.8583 10.3006 12.9485 10.2247 13.0245C10.1488 13.1004 10.0586 13.1606 9.95935 13.2016C9.8601 13.2426 9.75373 13.2636 9.64635 13.2634Z" fill="#B3B3B3"/>
<path d="M13.6884 16.577C16.1062 16.577 18.0662 14.617 18.0662 12.1991C18.0662 9.78132 16.1062 7.82129 13.6884 7.82129C11.2706 7.82129 9.31054 9.78132 9.31054 12.1991C9.31054 14.617 11.2706 16.577 13.6884 16.577Z" fill="url(#paint4_linear_4082_10556)"/>
<path d="M9.31054 12.1992C9.31018 12.908 9.48225 13.6063 9.8119 14.2338C10.1415 14.8613 10.6189 15.3992 11.2028 15.8012C12.1865 15.9835 13.203 15.8232 14.083 15.347C14.9629 14.8709 15.6531 14.1076 16.0386 13.1844C16.4241 12.2611 16.4817 11.2337 16.2016 10.2731C15.9216 9.31263 15.3208 8.47708 14.4996 7.90569C13.8676 7.78543 13.217 7.80611 12.5939 7.96624C11.9709 8.12638 11.3909 8.42204 10.8953 8.83211C10.3997 9.24219 10.0007 9.75659 9.72677 10.3386C9.45283 10.9206 9.31071 11.5559 9.31054 12.1992Z" fill="url(#paint5_linear_4082_10556)"/>
<path d="M10.9129 9.08179H9.58347V15.1525H10.9129C12.2546 15.1525 13.3418 13.7939 13.3418 12.1164C13.3418 10.4388 12.2546 9.08179 10.9129 9.08179Z" fill="url(#paint6_linear_4082_10556)"/>
<path d="M21.1852 13.2634H17.4605C17.3532 13.2636 17.2468 13.2426 17.1475 13.2016C17.0483 13.1606 16.9581 13.1004 16.8822 13.0245C16.8062 12.9485 16.746 12.8583 16.705 12.7591C16.664 12.6598 16.643 12.5535 16.6432 12.4461C16.6432 12.3388 16.6644 12.2325 16.7055 12.1333C16.7465 12.0342 16.8067 11.9441 16.8826 11.8682C16.9585 11.7923 17.0486 11.7321 17.1478 11.691C17.2469 11.6499 17.3532 11.6288 17.4605 11.6288H21.1852C21.4019 11.6288 21.6098 11.7149 21.7631 11.8682C21.9163 12.0214 22.0025 12.2293 22.0025 12.4461C22.0027 12.5535 21.9817 12.6598 21.9407 12.7591C21.8997 12.8583 21.8395 12.9485 21.7635 13.0245C21.6876 13.1004 21.5974 13.1606 21.4982 13.2016C21.3989 13.2426 21.2925 13.2636 21.1852 13.2634Z" fill="#B3B3B3"/>
<path d="M9.58348 15.1524C10.9249 15.1524 12.0124 13.7931 12.0124 12.1163C12.0124 10.4395 10.9249 9.0802 9.58348 9.0802C8.24203 9.0802 7.15458 10.4395 7.15458 12.1163C7.15458 13.7931 8.24203 15.1524 9.58348 15.1524Z" fill="url(#paint7_linear_4082_10556)"/>
<path d="M9.58348 14.3658C10.5769 14.3658 11.3822 13.3587 11.3822 12.1163C11.3822 10.874 10.5769 9.86682 9.58348 9.86682C8.5901 9.86682 7.78481 10.874 7.78481 12.1163C7.78481 13.3587 8.5901 14.3658 9.58348 14.3658Z" fill="#FF9800"/>
<path d="M49.4288 31.224C49.2985 29.0328 48.0947 27.9103 46.9938 27.3384C46.2251 26.9517 45.3747 26.7555 44.5143 26.7664H38.8806C36.1726 26.7664 34.9305 29.4959 34.9305 29.4959L32.7746 37.2886H49.0746C49.4018 37.2897 49.7201 37.1818 49.9793 36.9819L49.4288 31.224Z" fill="url(#paint8_linear_4082_10556)"/>
<path d="M9.83189 31.9094H7.57627C5.94954 31.9094 4.38944 32.5556 3.23917 33.7059C2.0889 34.8562 1.44268 36.4163 1.44268 38.043C1.44268 39.6697 2.0889 41.2298 3.23917 42.3801C4.38944 43.5304 5.94954 44.1766 7.57627 44.1766H9.83189V31.9094Z" fill="#30342F"/>
<path d="M9.83187 44.1797C13.2202 44.1797 15.967 41.4329 15.967 38.0445C15.967 34.6562 13.2202 31.9094 9.83187 31.9094C6.44354 31.9094 3.69675 34.6562 3.69675 38.0445C3.69675 41.4329 6.44354 44.1797 9.83187 44.1797Z" fill="#454744"/>
<path d="M9.83189 39.9046C10.8591 39.9046 11.6919 39.0718 11.6919 38.0446C11.6919 37.0173 10.8591 36.1846 9.83189 36.1846C8.80463 36.1846 7.97188 37.0173 7.97188 38.0446C7.97188 39.0718 8.80463 39.9046 9.83189 39.9046Z" fill="#999999"/>
<path d="M9.18326 33.9734H10.4636V38.5736C10.4636 38.7436 10.3961 38.9066 10.2759 39.0268C10.1557 39.147 9.99268 39.2145 9.82268 39.2145C9.73851 39.2145 9.65516 39.198 9.5774 39.1657C9.49963 39.1335 9.42898 39.0863 9.36946 39.0268C9.30994 38.9673 9.26272 38.8966 9.23051 38.8189C9.1983 38.7411 9.18172 38.6578 9.18172 38.5736V33.9734H9.18326Z" fill="#F2F2F2"/>
<path d="M10.4636 35.8564V33.9764H9.18326V35.1342L10.4636 35.8564Z" fill="#B3B3B3"/>
<path d="M15.6036 34.6312H3.16928C3.04522 34.6314 2.92242 34.6062 2.80845 34.5572C2.69448 34.5082 2.59174 34.4364 2.50656 34.3462C2.42138 34.256 2.35557 34.1493 2.31316 34.0327C2.27075 33.9161 2.25265 33.7921 2.25998 33.6682C2.37038 31.7898 3.34256 27.8168 9.58348 27.8168C9.58348 27.8168 15.9409 27.6144 16.3304 33.8507C16.3374 33.9505 16.3237 34.0506 16.2903 34.1449C16.257 34.2391 16.2046 34.3255 16.1364 34.3987C16.0683 34.4719 15.9858 34.5303 15.8942 34.5703C15.8025 34.6103 15.7036 34.631 15.6036 34.6312Z" fill="url(#paint9_linear_4082_10556)"/>
<path d="M42.9578 31.9094H40.7038C39.8983 31.9094 39.1007 32.0681 38.3565 32.3763C37.6124 32.6846 36.9362 33.1364 36.3667 33.7059C35.7971 34.2755 35.3453 34.9516 35.0371 35.6958C34.7288 36.4399 34.5702 37.2375 34.5702 38.043C34.5702 38.8485 34.7288 39.6461 35.0371 40.3902C35.3453 41.1344 35.7971 41.8106 36.3667 42.3801C36.9362 42.9497 37.6124 43.4015 38.3565 43.7097C39.1007 44.0179 39.8983 44.1766 40.7038 44.1766H42.9578V31.9094Z" fill="#30342F"/>
<path d="M42.9579 44.1797C46.3462 44.1797 49.093 41.4329 49.093 38.0445C49.093 34.6562 46.3462 31.9094 42.9579 31.9094C39.5695 31.9094 36.8227 34.6562 36.8227 38.0445C36.8227 41.4329 39.5695 44.1797 42.9579 44.1797Z" fill="#454744"/>
<path d="M42.9579 39.9046C43.9851 39.9046 44.8179 39.0718 44.8179 38.0446C44.8179 37.0173 43.9851 36.1846 42.9579 36.1846C41.9306 36.1846 41.0979 37.0173 41.0979 38.0446C41.0979 39.0718 41.9306 39.9046 42.9579 39.9046Z" fill="#999999"/>
<path d="M47.9751 38.9125H34.9014C34.6934 38.9113 34.4884 38.8631 34.3017 38.7716C34.115 38.68 33.9514 38.5475 33.8231 38.3838C33.6948 38.2201 33.6052 38.0296 33.5609 37.8264C33.5166 37.6232 33.5188 37.4126 33.5673 37.2104C34.0105 35.424 34.7312 32.5857 35.3445 30.4374C35.6007 29.5392 36.1428 28.7491 36.8885 28.1868C37.6343 27.6245 38.5431 27.3207 39.477 27.3215H44.5833C45.6623 27.3203 46.7023 27.7254 47.4962 28.4562C48.2901 29.187 48.7797 30.19 48.8676 31.2654L49.3736 37.399C49.3888 37.592 49.364 37.786 49.3006 37.9688C49.2372 38.1517 49.1367 38.3195 49.0054 38.4616C48.874 38.6038 48.7147 38.7172 48.5374 38.7948C48.3601 38.8724 48.1687 38.9124 47.9751 38.9125Z" fill="url(#paint10_linear_4082_10556)"/>
<path d="M48.9741 22H31.3623C31.0452 22 30.7411 22.1579 30.5169 22.4391C30.2926 22.7202 30.1667 23.1015 30.1667 23.4991C30.1667 23.8968 30.2926 24.2783 30.5168 24.5597C30.7409 24.8411 31.045 24.9995 31.3623 25H48.9741C49.2909 24.998 49.5943 24.8388 49.8177 24.5572C50.0412 24.2755 50.1667 23.8944 50.1667 23.4972C50.1659 23.1007 50.04 22.7208 49.8166 22.4403C49.5932 22.1598 49.2903 22.0015 48.9741 22Z" fill="#4D4D4D"/>
<defs>
<linearGradient id="paint0_linear_4082_10556" x1="29.6342" y1="17.3621" x2="29.6342" y2="37.2809" gradientUnits="userSpaceOnUse">
<stop stop-color="#2D74BF"/>
<stop offset="1" stop-color="#114E8E"/>
</linearGradient>
<linearGradient id="paint1_linear_4082_10556" x1="21.6743" y1="17.3621" x2="21.6743" y2="34.7755" gradientUnits="userSpaceOnUse">
<stop stop-color="#0060C6"/>
<stop offset="1" stop-color="#004084"/>
</linearGradient>
<linearGradient id="paint2_linear_4082_10556" x1="31.6437" y1="24.3176" x2="31.6437" y2="34.6573" gradientUnits="userSpaceOnUse">
<stop stop-color="#0060C6"/>
<stop offset="1" stop-color="#004084"/>
</linearGradient>
<linearGradient id="paint3_linear_4082_10556" x1="15.208" y1="27.8153" x2="15.208" y2="37.281" gradientUnits="userSpaceOnUse">
<stop stop-color="#0060C6"/>
<stop offset="1" stop-color="#004084"/>
</linearGradient>
<linearGradient id="paint4_linear_4082_10556" x1="13.6884" y1="7.82129" x2="13.6884" y2="16.577" gradientUnits="userSpaceOnUse">
<stop stop-color="#0060C6"/>
<stop offset="1" stop-color="#004084"/>
</linearGradient>
<linearGradient id="paint5_linear_4082_10556" x1="12.8435" y1="7.82861" x2="12.8435" y2="15.8744" gradientUnits="userSpaceOnUse">
<stop stop-color="#2D74BF"/>
<stop offset="1" stop-color="#114E8E"/>
</linearGradient>
<linearGradient id="paint6_linear_4082_10556" x1="11.4627" y1="9.08179" x2="11.4627" y2="15.1525" gradientUnits="userSpaceOnUse">
<stop stop-color="#0060C6"/>
<stop offset="1" stop-color="#004084"/>
</linearGradient>
<linearGradient id="paint7_linear_4082_10556" x1="9.58348" y1="9.0802" x2="9.58348" y2="15.1524" gradientUnits="userSpaceOnUse">
<stop stop-color="#2D74BF"/>
<stop offset="1" stop-color="#114E8E"/>
</linearGradient>
<linearGradient id="paint8_linear_4082_10556" x1="41.3769" y1="26.766" x2="41.3769" y2="37.2886" gradientUnits="userSpaceOnUse">
<stop stop-color="#0060C6"/>
<stop offset="1" stop-color="#004084"/>
</linearGradient>
<linearGradient id="paint9_linear_4082_10556" x1="9.29529" y1="27.816" x2="9.29529" y2="34.6312" gradientUnits="userSpaceOnUse">
<stop stop-color="#2D74BF"/>
<stop offset="1" stop-color="#114E8E"/>
</linearGradient>
<linearGradient id="paint10_linear_4082_10556" x1="41.4536" y1="27.3215" x2="41.4536" y2="38.9125" gradientUnits="userSpaceOnUse">
<stop stop-color="#2D74BF"/>
<stop offset="1" stop-color="#114E8E"/>
</linearGradient>
</defs>
</svg>
