<svg width="24" height="24" viewBox="0 0 24 24" fill="none" xmlns="http://www.w3.org/2000/svg">
<g clip-path="url(#clip0_4088_12387)">
<path d="M11.5909 23.9137C11.8548 24.0286 12.1562 24.0286 12.4201 23.9137C15.542 22.5544 21.9465 16.0706 21.9465 9.93562C21.9465 4.44844 17.4981 0 12.0109 0H11.9898C6.50215 0 2.05371 4.44844 2.05371 9.93562C2.05371 16.0711 8.46809 22.5548 11.5904 23.9137H11.5909Z" fill="url(#paint0_linear_4088_12387)"/>
<path d="M2.05371 9.93562C2.05371 13.0322 3.68777 16.2173 5.70809 18.788C12.8832 18.757 18.6901 12.9319 18.6901 5.74969C18.6901 4.50234 18.5143 3.29578 18.1871 2.15344C16.4912 0.805312 14.3453 0 12.0109 0H11.9898C6.50215 0 2.05371 4.44844 2.05371 9.93562Z" fill="#0060C6"/>
<path d="M12.0003 15.3577C8.91543 15.3577 6.40527 12.8481 6.40527 9.76274C6.40527 6.67743 8.91496 4.16821 12.0003 4.16821C15.0856 4.16821 17.5948 6.6779 17.5948 9.76274C17.5948 12.8476 15.0851 15.3577 12.0003 15.3577Z" fill="white"/>
<path d="M11.4975 10.453L13.4016 11.863C13.5553 11.968 13.7302 12.0187 13.9036 12.0187C14.1877 12.0187 14.4671 11.8827 14.6396 11.6305C14.9171 11.2246 14.813 10.6701 14.4071 10.3926L12.8911 9.24788V6.61304C12.8911 6.12132 12.4922 5.72241 12.0005 5.72241C11.5088 5.72241 11.1099 6.12132 11.1099 6.61304V9.71757C11.1099 10.0115 11.2552 10.2866 11.498 10.4526L11.4975 10.453Z" fill="#1A1F28"/>
</g>
<defs>
<linearGradient id="paint0_linear_4088_12387" x1="12.0001" y1="0" x2="12.0001" y2="23.9999" gradientUnits="userSpaceOnUse">
<stop stop-color="#2D74BF"/>
<stop offset="1" stop-color="#114E8E"/>
</linearGradient>
<clipPath id="clip0_4088_12387">
<rect width="24" height="24" fill="white"/>
</clipPath>
</defs>
</svg>
