<svg width="24" height="24" viewBox="0 0 24 24" fill="none" xmlns="http://www.w3.org/2000/svg">
<g clip-path="url(#clip0_4126_2644)">
<path d="M23.798 4.34906C23.7038 3.28086 23.2367 2.27989 22.4784 1.52163C21.7201 0.76337 20.7192 0.296205 19.651 0.202031C18.3282 0.0848437 16.5075 0 14.0199 0C11.5322 0 9.71348 0.0848437 8.39066 0.202031C7.63263 0.268935 6.90334 0.524212 6.26906 0.944663C5.63478 1.36511 5.11563 1.93741 4.75879 2.60953C6.21895 2.50078 7.97254 2.44594 9.98254 2.44594C12.2508 2.44594 14.1924 2.51578 15.7543 2.65359C17.1955 2.78026 18.5461 3.41068 19.5688 4.43413C20.5915 5.45758 21.2209 6.80863 21.3464 8.25C21.4843 9.81187 21.5541 11.7534 21.5541 14.0217C21.5541 16.0317 21.4993 17.7853 21.3905 19.2455C22.0626 18.8886 22.6349 18.3695 23.0554 17.7352C23.4758 17.1009 23.7311 16.3716 23.798 15.6136C23.9152 14.2866 24 12.4687 24 9.98016C24 7.49156 23.9152 5.67187 23.798 4.34906Z" fill="#145F9A"/>
<path d="M19.7587 8.39059C19.6644 7.32245 19.1972 6.32158 18.4389 5.56336C17.6807 4.80513 16.6799 4.33791 15.6117 4.24355C14.2866 4.12637 12.4683 4.04199 9.98016 4.04199C7.49203 4.04199 5.67422 4.12496 4.34906 4.24121C3.28053 4.33556 2.27932 4.80309 1.52103 5.56181C0.762736 6.32053 0.295772 7.322 0.202031 8.39059C0.0848437 9.7134 0 11.5312 0 14.0198C0 16.5084 0.0848437 18.3281 0.202031 19.6509C0.296205 20.7191 0.76337 21.7201 1.52163 22.4783C2.27989 23.2366 3.28086 23.7038 4.34906 23.7979C5.67422 23.9151 7.4925 24 9.98016 24C12.4678 24 14.2866 23.9151 15.6117 23.7979C16.6799 23.7037 17.6808 23.2365 18.439 22.4782C19.1973 21.72 19.6645 20.7191 19.7587 19.6509C19.8759 18.3262 19.9603 16.5075 19.9603 14.0198C19.9603 11.5321 19.875 9.7134 19.7587 8.39059ZM2.44312 8.58887C2.48992 8.04639 2.72654 7.53781 3.11133 7.15258C3.49613 6.76736 4.00446 6.53018 4.54687 6.48277C5.99672 6.35434 7.82484 6.28965 9.98016 6.28965C12.1355 6.28965 13.9645 6.35434 15.4134 6.48277C15.9555 6.53008 16.4636 6.76691 16.8485 7.15165C17.2333 7.53639 17.4702 8.04443 17.5177 8.58652C17.6456 10.0364 17.7103 11.864 17.7103 14.0198C17.7103 16.1395 17.6475 17.9414 17.5228 19.379C16.7601 18.3214 15.9346 17.3105 15.0506 16.3518C14.715 15.9937 14.2167 15.8362 13.7208 15.8362C13.2248 15.8362 12.727 15.9956 12.3914 16.3518C12.2548 16.4987 12.1186 16.6486 11.9827 16.8014C11.8613 16.9382 11.7115 17.0469 11.5439 17.1201C11.3763 17.1932 11.1947 17.229 11.0118 17.225C10.829 17.2209 10.6492 17.1771 10.485 17.0966C10.3207 17.0161 10.176 16.9008 10.0608 16.7587C9.48562 16.0448 8.87672 15.3351 8.26969 14.6836C7.83937 14.2237 7.20047 14.0221 6.56531 14.0198C5.93016 14.0175 5.29125 14.2237 4.86047 14.6836C3.98531 15.6239 3.10547 16.6846 2.32922 17.7046C2.27625 16.6157 2.25 15.3839 2.25 14.0198C2.25 11.864 2.31516 10.0364 2.44312 8.58652V8.58887Z" fill="#145F9A"/>
<path d="M12.3005 14.0841C13.1574 14.0841 13.852 13.3894 13.852 12.5325C13.852 11.6756 13.1574 10.981 12.3005 10.981C11.4436 10.981 10.7489 11.6756 10.7489 12.5325C10.7489 13.3894 11.4436 14.0841 12.3005 14.0841Z" fill="#145F9A"/>
</g>
<defs>
<clipPath id="clip0_4126_2644">
<rect width="24" height="24" fill="white"/>
</clipPath>
</defs>
</svg>
