<svg width="18" height="18" viewBox="0 0 18 18" fill="none" xmlns="http://www.w3.org/2000/svg">
<path d="M16.6641 3.41016C16.5905 2.57272 16.2244 1.78791 15.6302 1.19331C15.0359 0.598711 14.2513 0.232262 13.4139 0.158203C12.375 0.0664453 10.9501 0 9 0C7.04988 0 5.625 0.0664453 4.58613 0.158203C3.74879 0.232396 2.96425 0.598889 2.37 1.19346C1.77575 1.78804 1.40968 2.57277 1.33594 3.41016C1.24418 4.44867 1.17773 7.85426 1.17773 9.80437C1.17773 11.7545 1.24348 15.1583 1.33594 16.1972C1.37429 16.6339 1.49262 17.0598 1.68504 17.4537C1.74327 17.5718 1.82472 17.6769 1.92453 17.7627C2.02435 17.8486 2.14046 17.9134 2.26592 17.9533C2.39138 17.9932 2.5236 18.0074 2.65467 17.995C2.78574 17.9826 2.91296 17.9439 3.02871 17.8812L5.2193 16.6992C5.36454 16.6208 5.52723 16.5805 5.69226 16.5818C5.85729 16.5832 6.0193 16.6262 6.16324 16.707L8.00684 17.7402C8.31026 17.9101 8.65222 17.9994 9 17.9994C9.34778 17.9994 9.68974 17.9101 9.99316 17.7402L11.8368 16.707C11.9807 16.6262 12.1427 16.5832 12.3077 16.5818C12.4728 16.5805 12.6355 16.6208 12.7807 16.6992L14.9723 17.8815C15.0881 17.9442 15.2153 17.9829 15.3463 17.9952C15.4773 18.0076 15.6095 17.9934 15.7349 17.9535C15.8603 17.9136 15.9764 17.8488 16.0762 17.7629C16.176 17.6771 16.2574 17.5721 16.3157 17.454C16.508 17.06 16.6261 16.634 16.6641 16.1972C16.7562 15.1583 16.8223 11.7531 16.8223 9.80297C16.8223 7.85285 16.7565 4.44727 16.6641 3.41016ZM4.28906 10.9146C4.13609 10.9146 3.98655 10.8692 3.85936 10.7843C3.73217 10.6993 3.63304 10.5785 3.5745 10.4372C3.51596 10.2958 3.50064 10.1403 3.53049 9.99028C3.56033 9.84025 3.63399 9.70244 3.74216 9.59427C3.85033 9.4861 3.98814 9.41244 4.13817 9.3826C4.2882 9.35275 4.44372 9.36807 4.58504 9.42661C4.72637 9.48515 4.84717 9.58428 4.93215 9.71147C5.01714 9.83866 5.0625 9.9882 5.0625 10.1412C5.0625 10.3463 4.98101 10.543 4.83597 10.6881C4.69092 10.8331 4.49419 10.9146 4.28906 10.9146ZM4.28906 7.58777C4.13609 7.58777 3.98655 7.54241 3.85936 7.45743C3.73217 7.37244 3.63304 7.25165 3.5745 7.11032C3.51596 6.96899 3.50064 6.81348 3.53049 6.66345C3.56033 6.51341 3.63399 6.3756 3.74216 6.26743C3.85033 6.15927 3.98814 6.0856 4.13817 6.05576C4.2882 6.02592 4.44372 6.04123 4.58504 6.09977C4.72637 6.15831 4.84717 6.25745 4.93215 6.38464C5.01714 6.51183 5.0625 6.66136 5.0625 6.81434C5.0625 7.01946 4.98101 7.21619 4.83597 7.36124C4.69092 7.50629 4.49419 7.58777 4.28906 7.58777ZM10.9315 10.9146H6.87551C6.67245 10.9103 6.47916 10.8266 6.33708 10.6815C6.195 10.5363 6.11543 10.3413 6.11543 10.1382C6.11543 9.93508 6.195 9.74005 6.33708 9.59492C6.47916 9.44978 6.67245 9.36608 6.87551 9.36176H10.9311C11.1342 9.36608 11.3275 9.44978 11.4696 9.59492C11.6116 9.74005 11.6912 9.93508 11.6912 10.1382C11.6912 10.3413 11.6116 10.5363 11.4696 10.6815C11.3275 10.8266 11.1342 10.9103 10.9311 10.9146H10.9315ZM13.9876 7.59375H6.87551C6.66963 7.59375 6.47219 7.51197 6.32662 7.36639C6.18104 7.22082 6.09926 7.02337 6.09926 6.8175C6.09926 6.61163 6.18104 6.41418 6.32662 6.26861C6.47219 6.12303 6.66963 6.04125 6.87551 6.04125H13.9876C14.1935 6.04125 14.3909 6.12303 14.5365 6.26861C14.6821 6.41418 14.7639 6.61163 14.7639 6.8175C14.7639 7.02337 14.6821 7.22082 14.5365 7.36639C14.3909 7.51197 14.1935 7.59375 13.9876 7.59375Z" fill="#0060C6"/>
</svg>
