<svg width="32" height="32" viewBox="0 0 32 32" fill="none" xmlns="http://www.w3.org/2000/svg">
<path d="M30.6746 11.5559C30.6746 12.4942 29.9068 13.2624 28.9681 13.2624H20.4355C20.2822 13.2624 20.1456 13.2458 20.0089 13.1941C19.9234 13.1941 19.8556 13.1599 19.7698 13.1258C19.5652 13.0408 19.3773 12.9208 19.2239 12.7675C19.0702 12.6142 18.9506 12.4259 18.8656 12.2218C18.8314 12.1359 18.7973 12.0676 18.7973 11.9826C18.7461 11.8459 18.729 11.7093 18.729 11.556V3.02338C18.729 2.08513 19.4968 1.31688 20.4355 1.31688C21.3742 1.31688 22.142 2.08513 22.142 3.02338V7.42631L27.7565 1.81181C28.4219 1.14606 29.5143 1.14606 30.1796 1.81181C30.8454 2.47756 30.8454 3.56913 30.1796 4.23494L24.5651 9.84944H28.9681C29.9068 9.84944 30.6746 10.6177 30.6746 11.5559Z" fill="white"/>
<path d="M30.5038 27.802L27.8078 30.481C26.835 31.4542 25.5551 32 24.2581 32C24.1556 32 24.0701 32 23.9681 31.9825C11.101 31.1975 0.793585 20.8902 0.00870953 8.02386C-0.076728 6.62398 0.469522 5.22492 1.51065 4.18423L4.18958 1.48779C5.31608 0.37873 6.8689 -0.150395 8.43871 0.0371055C10.009 0.224605 11.391 1.11198 12.21 2.47773L14.3944 6.12904C15.1964 7.46061 14.9918 9.18373 13.8653 10.2929L11.4421 12.7335C13.3195 15.9249 16.0326 18.6379 19.2581 20.5494L21.6983 18.1263C22.8078 16.9997 24.531 16.7947 25.8621 17.5972L29.5143 19.7812C30.8796 20.6002 31.767 21.9826 31.9545 23.5533C32.1595 25.1231 31.6133 26.6755 30.5038 27.802Z" fill="white"/>
</svg>
