<svg width="16" height="16" viewBox="0 0 16 16" fill="none" xmlns="http://www.w3.org/2000/svg">
<g clip-path="url(#clip0_4115_20725)">
<path d="M10.9698 8.00012H16.0001C16.0001 3.58158 12.4184 0 8 0C10.2091 0 10.97 3.99992 10.9698 8.00012Z" fill="#BB2029"/>
<path d="M0 8H11.3333C11.3335 3.99986 10.2269 0 8.01388 0C3.58798 0 0 3.58153 0 8Z" fill="#CD2029"/>
<path d="M10.8014 8C10.8014 11.9999 10.2093 15.9999 8 15.9999C12.4184 15.9999 16.0001 12.4182 16.0001 8H10.8014Z" fill="#E4E4E4"/>
<path d="M11.3333 8H0C0 12.4182 3.58798 16 8.01388 16C10.2269 16 11.3333 12 11.3333 8Z" fill="#F3F4F5"/>
</g>
<defs>
<clipPath id="clip0_4115_20725">
<rect width="16" height="16" fill="white"/>
</clipPath>
</defs>
</svg>
