<svg width="14" height="14" viewBox="0 0 14 14" fill="none" xmlns="http://www.w3.org/2000/svg">
<path d="M6.66667 13.3333C2.98467 13.3333 0 10.3487 0 6.66667C0 2.98467 2.98467 0 6.66667 0C10.3487 0 13.3333 2.98533 13.3333 6.66667C13.3333 10.348 10.3487 13.3333 6.66667 13.3333ZM6.66667 3.33333C6.48986 3.33333 6.32029 3.40357 6.19526 3.5286C6.07024 3.65362 6 3.82319 6 4V7.33333C6 7.51014 6.07024 7.67971 6.19526 7.80474C6.32029 7.92976 6.48986 8 6.66667 8C6.84348 8 7.01305 7.92976 7.13807 7.80474C7.2631 7.67971 7.33333 7.51014 7.33333 7.33333V4C7.33333 3.82319 7.2631 3.65362 7.13807 3.5286C7.01305 3.40357 6.84348 3.33333 6.66667 3.33333ZM6.66667 10C6.84348 10 7.01305 9.92976 7.13807 9.80474C7.2631 9.67971 7.33333 9.51014 7.33333 9.33333C7.33333 9.15652 7.2631 8.98695 7.13807 8.86193C7.01305 8.73691 6.84348 8.66667 6.66667 8.66667C6.48986 8.66667 6.32029 8.73691 6.19526 8.86193C6.07024 8.98695 6 9.15652 6 9.33333C6 9.51014 6.07024 9.67971 6.19526 9.80474C6.32029 9.92976 6.48986 10 6.66667 10Z" fill="#A65226"/>
</svg>
