<svg width="16" height="16" viewBox="0 0 16 16" fill="none" xmlns="http://www.w3.org/2000/svg">
<path d="M12.7926 3.51554C12.6407 2.40187 11.7426 1.40058 10.6905 1.21192C10.055 1.10255 9.1871 1.00138 8.00042 1.00001C6.81375 0.998646 5.94564 1.10255 5.31032 1.21137C4.25825 1.40004 3.36017 2.40132 3.20825 3.51554C3.10748 4.19035 2.98476 6.98286 3.00155 8.23515C2.99458 9.48745 3.11162 11.8501 3.20825 12.5247C3.36017 13.6383 4.25851 14.6399 5.31032 14.8288C5.702 14.8966 6.18256 14.9598 6.77138 15C6.76337 14.4884 6.76569 13.599 6.79127 13.2968C6.80772 13.0817 6.89522 12.8796 7.03842 12.726C7.18162 12.5723 7.37137 12.477 7.57438 12.4566H7.58058C7.73281 12.4411 7.88585 12.4364 8.03866 12.4426C8.16601 12.4362 8.29365 12.4409 8.42027 12.4566H8.42647C8.62914 12.4771 8.81855 12.5723 8.96156 12.7257C9.10457 12.879 9.19209 13.0807 9.2088 13.2955C9.23464 13.5976 9.23671 14.4871 9.2287 14.9986C9.81752 14.9584 10.2981 14.8953 10.6898 14.8275C11.7416 14.6385 12.6399 13.637 12.7916 12.5233C12.8887 11.8488 13.0058 9.48608 12.9983 8.23379C13.0161 6.98231 12.8931 4.18981 12.7926 3.51554ZM6.34895 8.50038C6.34007 8.60732 6.29563 8.70745 6.22352 8.78296C6.15142 8.85846 6.05633 8.90444 5.9552 8.9127C5.82886 8.92364 5.65601 8.93075 5.41909 8.92856C5.18217 8.92638 5.00906 8.91626 4.88298 8.90313C4.78228 8.89335 4.68786 8.84709 4.61565 8.77217C4.54344 8.69725 4.49788 8.59825 4.48664 8.4919C4.47502 8.36175 4.46649 8.1832 4.46649 7.93876C4.46649 7.69432 4.47553 7.51604 4.48716 7.38562C4.49815 7.27889 4.5437 7.17948 4.61609 7.10427C4.68848 7.02905 4.78324 6.98268 4.88427 6.97302C5.01035 6.95989 5.18372 6.9495 5.42038 6.94567C5.65704 6.94185 5.83015 6.95005 5.95623 6.96071C6.05733 6.96875 6.15243 7.01459 6.22452 7.09003C6.29661 7.16547 6.34099 7.2656 6.34972 7.37249C6.36057 7.5051 6.36832 7.68721 6.36832 7.93602C6.36832 8.18484 6.3598 8.36776 6.34895 8.50038ZM6.36264 5.06012C6.35224 5.16788 6.3072 5.26859 6.23507 5.34543C6.16293 5.42227 6.06806 5.47058 5.96631 5.48229C5.84074 5.49651 5.66841 5.50964 5.43304 5.51429C5.19767 5.51893 5.02534 5.51702 4.90003 5.50909C4.80126 5.50498 4.70739 5.46245 4.6364 5.38964C4.56542 5.31684 4.52231 5.21889 4.51532 5.11454C4.5068 4.98493 4.50266 4.80666 4.50886 4.56249C4.51506 4.31832 4.52772 4.13922 4.54245 4.00853C4.55612 3.90071 4.60246 3.80051 4.67454 3.72295C4.74661 3.6454 4.84051 3.59468 4.94214 3.57843C5.06616 3.56011 5.23616 3.54288 5.46844 3.53222C5.70071 3.52155 5.87019 3.52347 5.99395 3.53222C6.09308 3.53812 6.18671 3.58235 6.25706 3.6565C6.3274 3.73064 6.36957 3.82955 6.37556 3.93443C6.3846 4.06677 6.39029 4.24859 6.38744 4.49769C6.3846 4.74678 6.37504 4.92724 6.36264 5.06012ZM9.03932 8.50202C9.02993 8.60951 8.98525 8.71012 8.91302 8.78636C8.8408 8.86259 8.74561 8.90962 8.64402 8.91927C8.51767 8.9313 8.34483 8.94032 8.10791 8.94032C7.87098 8.94032 7.69788 8.93184 7.5718 8.91981C7.47016 8.91016 7.37494 8.86309 7.30271 8.7868C7.23048 8.71051 7.18582 8.60983 7.17649 8.50229C7.16513 8.36913 7.15712 8.18648 7.15712 7.93657C7.15712 7.68666 7.16538 7.50401 7.17675 7.37085C7.18597 7.26331 7.23057 7.16261 7.30276 7.08631C7.37495 7.01001 7.47017 6.96294 7.5718 6.95333C7.69814 6.9413 7.87098 6.93255 8.10791 6.93255C8.34483 6.93255 8.51767 6.94185 8.64376 6.95388C8.74528 6.96362 8.84038 7.01064 8.91258 7.0868C8.98478 7.16296 9.02952 7.26345 9.03906 7.37085C9.05043 7.50401 9.05869 7.68639 9.05869 7.93602C9.05869 8.18566 9.05068 8.36886 9.03932 8.50202ZM9.03079 5.05083C9.0227 5.15755 8.97898 5.25773 8.90744 5.33344C8.83591 5.40914 8.74124 5.45542 8.6404 5.46397C8.51509 5.47491 8.34276 5.48257 8.10739 5.48229C7.87202 5.48202 7.69969 5.47409 7.57412 5.46261C7.47318 5.45382 7.37846 5.40738 7.30686 5.33156C7.23527 5.25574 7.19144 5.15548 7.18321 5.04864C7.17288 4.91548 7.1659 4.73311 7.16719 4.48319C7.16849 4.23328 7.17779 4.05036 7.18967 3.9172C7.1987 3.81014 7.24251 3.7097 7.31364 3.63297C7.38477 3.55625 7.47883 3.50799 7.5798 3.4964C7.70356 3.48355 7.87331 3.47398 8.10584 3.47452C8.33837 3.47507 8.50786 3.48519 8.63161 3.49831C8.7327 3.51035 8.82678 3.55887 8.89802 3.63572C8.96927 3.71256 9.01332 3.81302 9.02278 3.92021C9.03467 4.05337 9.04423 4.23602 9.04603 4.48593C9.04784 4.73584 9.04087 4.91794 9.03079 5.05083ZM11.7178 8.458C11.7066 8.56435 11.661 8.66333 11.5886 8.73809C11.5163 8.81286 11.4217 8.85881 11.3209 8.86814C11.1949 8.88126 11.0215 8.89138 10.7848 8.89384C10.5482 8.8963 10.3748 8.88892 10.2487 8.87825C10.1476 8.87011 10.0526 8.82425 9.98045 8.74883C9.90833 8.67342 9.86387 8.57335 9.85498 8.46647C9.84387 8.33413 9.83612 8.15258 9.83612 7.90376C9.83612 7.65494 9.84361 7.47339 9.85446 7.34105C9.86348 7.23447 9.90796 7.13474 9.97998 7.05963C10.052 6.98452 10.1469 6.9389 10.2477 6.93091C10.3738 6.92052 10.5469 6.91368 10.7835 6.91642C11.0202 6.91915 11.1936 6.93009 11.3197 6.94376C11.4206 6.95333 11.5153 6.99956 11.5878 7.07461C11.6602 7.14967 11.7059 7.24892 11.717 7.35554C11.7287 7.48542 11.7374 7.66342 11.7377 7.90704C11.738 8.15066 11.7297 8.32785 11.7181 8.458H11.7178ZM11.6863 5.09102C11.6794 5.19514 11.6364 5.29289 11.5655 5.36548C11.4946 5.43806 11.4009 5.48035 11.3023 5.48421C11.177 5.49159 11.005 5.4946 10.7693 5.48804C10.5337 5.48147 10.3616 5.46917 10.2361 5.45468C10.1343 5.44282 10.0394 5.39443 9.96729 5.31757C9.89513 5.24071 9.85002 5.14001 9.83948 5.03223C9.82682 4.89962 9.817 4.71779 9.81364 4.46925C9.81028 4.2207 9.81597 4.03915 9.82475 3.90708C9.83042 3.80238 9.87243 3.70358 9.94271 3.62965C10.013 3.55572 10.1066 3.51187 10.2056 3.50651C10.3291 3.49995 10.4986 3.49859 10.7308 3.51007C10.9631 3.52155 11.1331 3.5396 11.2571 3.55847C11.3587 3.57513 11.4525 3.626 11.5246 3.70352C11.5967 3.78105 11.6432 3.8811 11.6573 3.98884C11.6723 4.11926 11.6855 4.29754 11.692 4.54116C11.6984 4.78478 11.6951 4.96169 11.6865 5.09102H11.6863Z" fill="#0060C6"/>
</svg>
