<svg width="13" height="16" viewBox="0 0 13 16" fill="none" xmlns="http://www.w3.org/2000/svg">
<path d="M12.8307 3.51435C12.8092 3.31997 12.7876 3.16404 12.762 2.96935C12.6842 2.38091 12.1817 1.8681 11.5845 1.76529C11.0154 1.66841 10.0735 1.56247 8.97634 1.49779C8.96572 1.36591 8.95509 1.23404 8.94322 1.10185C8.89822 0.608412 8.56603 0.200599 8.16197 0.141537C6.83259 -0.0459634 6.22447 -0.0459634 4.89509 0.134349C4.49072 0.191849 4.15978 0.598724 4.11572 1.09372C4.10447 1.22435 4.09415 1.35497 4.08447 1.48529C2.89103 1.55029 1.85853 1.66247 1.25072 1.76654C0.652905 1.86841 0.150092 2.38091 0.0735298 2.96872C0.0482173 3.16341 0.0266548 3.31935 0.00509232 3.51372C-0.0480327 3.98247 0.32103 4.35372 0.80728 4.33122C4.54832 4.14872 8.28916 4.14872 12.0298 4.33122C12.5148 4.35435 12.8838 3.98216 12.8307 3.51435Z" fill="#F44336"/>
<path d="M11.9583 7.98419C11.9511 7.19857 11.9329 6.49794 11.9226 6.38888C11.8758 5.88607 11.4539 5.47201 10.9348 5.41044C10.0717 5.30888 8.21794 5.26951 6.37232 5.27263H6.34107C6.25294 5.27263 6.16877 5.27263 6.08857 5.27263C4.37763 5.27919 2.72013 5.31482 1.91825 5.40919C1.39794 5.47169 0.977003 5.88451 0.930441 6.38763C0.921066 6.48919 0.904816 7.05138 0.896379 7.81638C0.865129 8.69982 0.884816 9.15013 0.977004 10.3323C1.08825 11.7014 1.227 12.3654 1.40982 13.2614C1.53482 13.8708 1.87013 14.4633 2.342 14.9283C2.81388 15.3933 3.39294 15.7067 3.99075 15.7989L4.00919 15.8017C4.73794 15.9073 4.85607 15.9892 6.38013 15.9992C7.90388 15.9914 8.15169 15.9054 8.88013 15.7992L8.89825 15.7964C9.49607 15.7026 10.0776 15.3901 10.5442 14.9248C11.0108 14.4595 11.347 13.8676 11.4692 13.2586C11.6483 12.3629 11.7817 11.6998 11.8864 10.3314C11.967 9.22357 11.9836 8.85201 11.9583 7.98419ZM5.38419 12.2673C5.37305 12.431 5.30339 12.5852 5.18795 12.7017C5.07251 12.8182 4.91899 12.8893 4.75544 12.902C4.55325 12.9161 4.56013 12.9158 4.49607 12.9145C4.40912 12.9116 4.32241 12.9037 4.23638 12.8908C4.07066 12.8697 3.91684 12.7935 3.79963 12.6745C3.68242 12.5555 3.60863 12.4005 3.59013 12.2345C3.567 12.0298 3.532 10.547 3.53013 10.1636C3.52825 9.78013 3.53013 8.29763 3.55138 8.09326C3.56691 7.92775 3.63999 7.77294 3.75791 7.65577C3.87582 7.5386 4.03109 7.46649 4.19669 7.45201C4.28442 7.44112 4.37267 7.43497 4.46107 7.43357C4.54945 7.43427 4.63771 7.44001 4.72544 7.45076C4.89139 7.46497 5.04702 7.53725 5.16494 7.65488C5.28286 7.77252 5.35551 7.92796 5.37013 8.09388C5.38794 8.29982 5.40325 9.79482 5.40513 10.1814C5.407 10.5679 5.40044 12.0626 5.38419 12.2673ZM9.2445 12.2333C9.22594 12.3993 9.15214 12.5542 9.03494 12.6732C8.91774 12.7922 8.76395 12.8684 8.59825 12.8895C8.51223 12.9025 8.42552 12.9104 8.33857 12.9133C8.25194 12.9142 8.16533 12.91 8.07919 12.9008C7.91565 12.8881 7.76213 12.817 7.64668 12.7004C7.53124 12.5839 7.46158 12.4297 7.45044 12.2661C7.43419 12.0604 7.42888 10.5654 7.4295 10.1789C7.43013 9.79232 7.44669 8.29732 7.4645 8.09138C7.47912 7.92547 7.55178 7.77002 7.66969 7.65238C7.78761 7.53475 7.94324 7.46247 8.10919 7.44826C8.19694 7.43774 8.28519 7.432 8.37357 7.43107C8.46197 7.43221 8.55024 7.43837 8.63794 7.44951C8.80354 7.46399 8.95881 7.5361 9.07673 7.65327C9.19464 7.77044 9.26772 7.92525 9.28325 8.09076C9.30294 8.29513 9.30982 9.77826 9.3045 10.1611C9.29919 10.5439 9.26763 12.0286 9.2445 12.2333Z" fill="#F44336"/>
</svg>
