<svg width="33" height="39" viewBox="0 0 33 39" fill="none" xmlns="http://www.w3.org/2000/svg">
<g clip-path="url(#clip0_96_712)">
<path d="M16.501 1.08301L16.8076 1.08691C19.9717 1.16981 22.9867 2.476 25.2275 4.73926C27.5402 7.07531 28.8399 10.2407 28.8438 13.54C28.8463 16.1787 28.0093 18.7467 26.4609 20.8711L26.4561 20.8877L26.3564 21.0195L26.3555 21.0205L26.3525 21.0244C26.3502 21.0275 26.3471 21.0324 26.3428 21.0381C26.3342 21.0495 26.3215 21.0654 26.3066 21.085C26.2766 21.1246 26.2354 21.1781 26.1934 21.2334C26.1189 21.3313 26.0141 21.4697 25.9756 21.5166L25.9688 21.5254L25.9678 21.5244L17.2656 31.8926L16.5 32.8047L15.7344 31.8926L7.03517 21.5303C6.98401 21.4692 6.87488 21.3246 6.80567 21.2334C6.76329 21.1775 6.72245 21.1238 6.69239 21.084C6.6773 21.064 6.66496 21.0467 6.65626 21.0352C6.65198 21.0295 6.64783 21.0255 6.64552 21.0225L6.64356 21.0186L6.64161 21.0166C5.02565 18.8648 4.15325 16.2384 4.15626 13.54L4.16017 13.2314C4.24202 10.0438 5.53198 7.00238 7.77247 4.73926C10.0855 2.40305 13.2237 1.08691 16.499 1.08301H16.501ZM17.6924 10.6143C17.1227 10.376 16.4966 10.3142 15.8926 10.4355C15.2883 10.557 14.7316 10.8567 14.2939 11.2988C13.8562 11.741 13.5569 12.3057 13.4355 12.9219C13.3142 13.5381 13.3765 14.177 13.6143 14.7568C13.852 15.3364 14.254 15.8301 14.7676 16.1768C15.281 16.5233 15.8835 16.7068 16.499 16.707C17.3245 16.7059 18.1183 16.3749 18.7051 15.7822C19.2918 15.1894 19.6237 14.3836 19.625 13.541C19.6249 12.9126 19.4403 12.2992 19.0957 11.7783C18.7511 11.2574 18.2623 10.8527 17.6924 10.6143Z" fill="#EB5757" stroke="white" stroke-width="2"/>
<path d="M16.5 37.3337C18.7782 37.3337 20.625 36.9606 20.625 36.5003C20.625 36.0401 18.7782 35.667 16.5 35.667C14.2218 35.667 12.375 36.0401 12.375 36.5003C12.375 36.9606 14.2218 37.3337 16.5 37.3337Z" fill="#A7A7A7"/>
</g>
<defs>
<clipPath id="clip0_96_712">
<rect width="33" height="39" fill="white"/>
</clipPath>
</defs>
</svg>
