<svg width="26" height="26" viewBox="0 0 26 26" fill="none" xmlns="http://www.w3.org/2000/svg">
<path fill-rule="evenodd" clip-rule="evenodd" d="M22.111 10.6817C22.0479 10.6788 21.9846 10.6777 21.9214 10.6785H19.2835C17.1255 10.6785 15.2773 12.3912 15.2773 14.625C15.2773 16.8589 17.1255 18.5716 19.2846 18.5716H21.9203C21.9868 18.5723 22.05 18.5709 22.1099 18.5673C22.5552 18.5384 22.9749 18.3488 23.2909 18.0338C23.6069 17.7188 23.7978 17.2997 23.8281 16.8545C23.8324 16.7906 23.8324 16.7224 23.8324 16.6595V12.5905C23.8324 12.5277 23.8324 12.4595 23.8281 12.3955C23.7978 11.9505 23.6071 11.5316 23.2913 11.2166C22.9755 10.9016 22.5561 10.7119 22.111 10.6828M19.0528 15.678C19.6085 15.678 20.0603 15.2079 20.0603 14.6261C20.0603 14.0444 19.6085 13.5742 19.0528 13.5742C18.497 13.5742 18.0463 14.0444 18.0463 14.6261C18.0463 15.2079 18.4959 15.678 19.0528 15.678Z" fill="white"/>
<path fill-rule="evenodd" clip-rule="evenodd" d="M21.92 20.1498C21.9563 20.1486 21.9924 20.1558 22.0254 20.1711C22.0583 20.1863 22.0872 20.2091 22.1098 20.2375C22.1324 20.266 22.1479 20.2993 22.1552 20.3349C22.1625 20.3705 22.1614 20.4073 22.1518 20.4423C21.9417 21.192 21.6091 21.8312 21.075 22.3685C20.2939 23.1561 19.3027 23.506 18.0785 23.6718C16.889 23.8332 15.3702 23.8332 13.4505 23.8332H11.2438C9.32517 23.8332 7.80525 23.8332 6.61575 23.6718C5.39159 23.506 4.40034 23.1561 3.61925 22.3685C2.83817 21.5831 2.4915 20.5832 2.32684 19.3503C2.1665 18.15 2.1665 16.6182 2.1665 14.6844V14.5653C2.1665 12.6315 2.1665 11.0986 2.32684 9.90042C2.4915 8.6665 2.83817 7.66984 3.61817 6.88009C4.39925 6.09359 5.3905 5.74259 6.61467 5.57792C7.80525 5.4165 9.32517 5.4165 11.2438 5.4165H13.4505C15.3691 5.4165 16.889 5.4165 18.0785 5.57792C19.3027 5.74367 20.2939 6.09359 21.075 6.88009C21.6091 7.4185 21.9417 8.05767 22.1518 8.80842C22.1612 8.84339 22.1622 8.88007 22.1548 8.9155C22.1474 8.95093 22.1318 8.98414 22.1093 9.01247C22.0867 9.04079 22.0579 9.06345 22.025 9.07862C21.9921 9.09379 21.9562 9.10106 21.92 9.09984H19.2843C16.3224 9.09984 13.7127 11.4583 13.7127 14.6248C13.7127 17.7914 16.3235 20.1498 19.2853 20.1498H21.92ZM6.08167 9.62634C5.97853 9.62676 5.87648 9.6475 5.78135 9.68737C5.68622 9.72723 5.59988 9.78544 5.52725 9.85868C5.45462 9.93191 5.39712 10.0187 5.35804 10.1142C5.31897 10.2096 5.29908 10.3119 5.2995 10.415C5.2995 10.8516 5.64942 11.2048 6.08167 11.2048H10.259C10.6923 11.2048 11.0423 10.8516 11.0423 10.415C11.0428 10.2066 10.9607 10.0065 10.8138 9.85861C10.667 9.71074 10.4674 9.6272 10.259 9.62634H6.08167Z" fill="white"/>
<path d="M8.42529 4.35954L10.5465 2.79629C11.1 2.38724 11.7702 2.1665 12.4585 2.1665C13.1469 2.1665 13.817 2.38724 14.3706 2.79629L16.5037 4.36821C15.611 4.33354 14.6144 4.33354 13.5235 4.33354H11.1726C10.1738 4.33354 9.25621 4.33354 8.42529 4.35954Z" fill="white"/>
</svg>
