<svg width="35" height="53" viewBox="0 0 35 53" fill="none" xmlns="http://www.w3.org/2000/svg">
<path d="M17.501 1L17.9111 1.00586C22.1409 1.11717 26.1717 2.86954 29.167 5.90625C32.1617 8.94251 33.8847 13.0225 33.9941 17.2988L34 17.7129L33.9873 18.3906C33.8565 21.711 32.7395 24.9184 30.7803 27.5957L30.7754 27.6123L30.6758 27.7451L30.6748 27.7461C30.674 27.7472 30.6725 27.7489 30.6709 27.751C30.6677 27.7552 30.6631 27.7617 30.6572 27.7695C30.6454 27.7852 30.6288 27.808 30.6084 27.835C30.5675 27.8892 30.5123 27.9625 30.4551 28.0381C30.3499 28.1769 30.2116 28.3582 30.165 28.415L30.1582 28.4229L18.2676 42.6416L17.5 43.5586L16.7334 42.6416L4.85156 28.4346C4.82881 28.4077 4.80377 28.3761 4.78613 28.3535C4.76515 28.3267 4.74047 28.2951 4.71484 28.2617C4.66345 28.1947 4.60259 28.1144 4.54492 28.0381C4.51066 27.9928 4.47737 27.9482 4.44727 27.9082H4.44629L4.32812 27.751L4.32715 27.749C4.32556 27.7469 4.32407 27.7453 4.32324 27.7441L4.32227 27.7432V27.7422C2.16244 24.8557 0.995983 21.3325 1 17.7129C1.00521 13.2865 2.74182 9.04037 5.83301 5.90625C8.92493 2.77158 13.1204 1.00524 17.499 1H17.501ZM19.2695 13.3574C18.424 13.0024 17.4943 12.909 16.5977 13.0898C15.7011 13.2707 14.8758 13.7178 14.2266 14.376C13.5771 15.0344 13.1331 15.8749 12.9531 16.792C12.7732 17.7091 12.8662 18.6594 13.2188 19.5225C13.5713 20.3855 14.1674 21.1213 14.9297 21.6377C15.6915 22.1537 16.5855 22.4275 17.499 22.4277C18.7239 22.4261 19.9011 21.9332 20.7715 21.0508C21.6422 20.168 22.135 18.9681 22.1367 17.7139L22.124 17.3652C22.0647 16.553 21.799 15.7687 21.3516 15.0898C20.8405 14.3144 20.1152 13.7125 19.2695 13.3574Z" fill="#EB5757" stroke="white" stroke-width="2"/>
<circle cx="17.5198" cy="49.5191" r="2.50001" transform="rotate(-0.455959 17.5198 49.5191)" fill="#EB5757"/>
</svg>
