<svg width="16" height="16" viewBox="0 0 16 16" fill="none" xmlns="http://www.w3.org/2000/svg">
<g clip-path="url(#clip0_4111_13965)">
<path d="M15.5828 6.92092L13.8884 5.22655C13.75 5.09193 13.5641 5.01721 13.371 5.01857C13.178 5.01993 12.9932 5.09726 12.8566 5.23382C12.7201 5.37038 12.6429 5.5552 12.6416 5.74829C12.6403 5.94138 12.715 6.12722 12.8497 6.26561L13.7609 7.17686H10.2391C10.1408 7.174 10.043 7.19087 9.9514 7.22649C9.85979 7.2621 9.77627 7.31574 9.70576 7.38421C9.63526 7.45269 9.57921 7.53462 9.54094 7.62514C9.50267 7.71567 9.48295 7.81295 9.48295 7.91124C9.48295 8.00952 9.50267 8.10681 9.54094 8.19733C9.57921 8.28786 9.63526 8.36978 9.70576 8.43826C9.77627 8.50674 9.85979 8.56037 9.9514 8.59599C10.043 8.6316 10.1408 8.64848 10.2391 8.64561H13.7937L12.8825 9.55717C12.8143 9.62538 12.7602 9.70635 12.7233 9.79547C12.6864 9.88458 12.6674 9.98009 12.6674 10.0765C12.6674 10.173 12.6864 10.2685 12.7233 10.3576C12.7602 10.4467 12.8143 10.5277 12.8825 10.5959C13.0202 10.7337 13.2071 10.8111 13.4019 10.8111C13.4983 10.8111 13.5938 10.7921 13.683 10.7551C13.7721 10.7182 13.853 10.6641 13.9212 10.5959L15.5828 8.93436C15.7151 8.80212 15.82 8.64513 15.8916 8.47234C15.9631 8.29955 16 8.11436 16 7.92733C16 7.7403 15.9631 7.55511 15.8916 7.38232C15.82 7.20953 15.7151 7.05254 15.5828 6.9203V6.92092Z" fill="#F44336"/>
<path d="M11.525 9.58727C11.3381 9.59046 11.159 9.66267 11.0221 9.79C10.8853 9.91733 10.8004 10.0908 10.7837 10.277C10.7566 10.6348 10.7294 10.7551 10.6956 11.0216C10.6466 11.3785 10.482 11.7095 10.2269 11.9638C9.97213 12.2223 9.64024 12.391 9.28125 12.4445L9.26 12.4473C9.04125 12.4785 8.83812 12.506 8.62656 12.531C8.66781 11.7098 8.69406 10.7604 8.70062 9.8182C8.7125 8.26008 8.66937 6.65258 8.58406 5.61508C8.52017 4.88959 8.3048 4.18558 7.95187 3.54852C7.60281 2.92102 7.14906 2.42789 6.67344 2.16695L6.65875 2.15914C6.24406 1.93227 5.89281 1.74008 5.28656 1.48445C5.54469 1.47602 5.79594 1.4707 6.13031 1.4707C7.77812 1.47727 8.36125 1.57633 9.17156 1.69852L9.19156 1.70164C9.54854 1.76252 9.87646 1.93661 10.1269 2.1982C10.3813 2.45752 10.5473 2.79054 10.6012 3.14977C10.6878 3.77758 10.7575 4.49352 10.7994 5.52695C10.8147 5.91633 11.1431 6.23414 11.5425 6.24352C11.9531 6.25289 12.2784 5.9407 12.2597 5.54945C12.2116 4.5332 12.1319 3.7807 12.0278 3.10133C11.9256 2.43664 11.5866 1.7857 11.0872 1.2657C10.5878 0.745703 9.9525 0.384766 9.29062 0.268828L9.27031 0.265391C8.46219 0.131016 7.82656 0.0107031 6.13281 0.00195312C4.43937 0.0119531 3.84375 0.130391 3.03437 0.264141L3.01406 0.267891C2.35219 0.383516 1.71531 0.745391 1.21531 1.26445C0.715312 1.78352 0.376874 2.43539 0.274687 3.10008C0.123124 4.07852 0.0134368 5.61039 0.00187435 7.10695C-0.00968815 8.60352 0.0684368 10.1335 0.204374 11.1088C0.264924 11.5243 0.40942 11.9232 0.629062 12.281C0.689999 12.406 0.755624 12.531 0.825937 12.6504C1.19062 13.2726 1.65906 13.7773 2.14156 14.0604L2.15625 14.0691C2.74437 14.4129 3.21062 14.6907 4.42594 15.2098C5.63781 15.7223 6.08219 15.8254 6.64875 15.9598L6.66281 15.9632C7.12594 16.071 7.56312 15.9223 7.90187 15.552C8.23 15.1932 8.45156 14.6432 8.52375 14.0023C8.82094 13.967 9.08625 13.927 9.37344 13.8823L9.39406 13.8788C10.0687 13.7735 10.715 13.4251 11.2162 12.9179C11.7175 12.4107 12.05 11.7682 12.1416 11.1054C12.1809 10.8185 12.2116 10.6776 12.2422 10.3091C12.2756 9.9082 11.9462 9.57883 11.525 9.58727Z" fill="#F44336"/>
</g>
<defs>
<clipPath id="clip0_4111_13965">
<rect width="16" height="16" fill="white"/>
</clipPath>
</defs>
</svg>
