<svg width="48" height="48" viewBox="0 0 48 48" fill="none" xmlns="http://www.w3.org/2000/svg">
<g clip-path="url(#clip0_4093_13071)">
<mask id="path-1-inside-1_4093_13071" fill="white">
<path d="M0 24C0 10.7452 10.7452 0 24 0C37.2548 0 48 10.7452 48 24C48 37.2548 37.2548 48 24 48C10.7452 48 0 37.2548 0 24Z"/>
</mask>
<path d="M24 48C37.2548 48 48 37.2548 48 24C48 10.7452 37.2548 0 24 0C10.7452 0 0 10.7452 0 24C0 37.2548 10.7452 48 24 48Z" fill="#CFE9FC"/>
<path d="M29.4935 25.6502C32.1674 23.87 33.931 20.832 33.931 17.3793C33.931 11.8949 29.4844 7.44824 24 7.44824C18.5156 7.44824 14.069 11.8949 14.069 17.3793C14.069 20.832 15.8326 23.87 18.5065 25.6502C18.5065 25.6502 18.5073 25.651 18.5081 25.651C18.5073 25.651 18.5073 25.6502 18.5073 25.6502C12.1068 27.5793 7.12303 32.774 5.51834 39.3095L5.51917 39.3103C5.78069 39.6256 6.05214 39.9335 6.32938 40.2355C6.39641 40.3092 6.46676 40.3796 6.53545 40.4516C6.74897 40.6783 6.96497 40.9018 7.18676 41.1202C7.27862 41.2104 7.37214 41.2973 7.46565 41.3859C7.6709 41.5812 7.87862 41.774 8.09048 41.9619C8.19559 42.0546 8.30234 42.1464 8.40828 42.2375C8.616 42.4154 8.82621 42.59 9.04055 42.7605C9.1531 42.8507 9.26648 42.9393 9.37986 43.0278C9.59669 43.195 9.81683 43.3572 10.0394 43.5161C10.1545 43.598 10.2679 43.6816 10.3846 43.7619C10.6196 43.9241 10.8588 44.0797 11.0996 44.2336C11.208 44.3023 11.3139 44.3735 11.4232 44.4413C11.7012 44.6127 11.9843 44.7765 12.2698 44.9371C12.3451 44.9793 12.4188 45.0248 12.4949 45.0662C12.864 45.2681 13.2389 45.4618 13.6196 45.6447C13.6287 45.6488 13.6386 45.6529 13.6477 45.6571C14.011 45.8309 14.3801 45.9955 14.7534 46.1511C14.8692 46.2 14.9876 46.243 15.1043 46.2893C15.3741 46.3969 15.6439 46.5029 15.9186 46.6005C16.0643 46.6527 16.2116 46.6998 16.3581 46.7495C16.608 46.8339 16.8596 46.9158 17.1128 46.9911C17.2734 47.0391 17.4348 47.0838 17.597 47.1285C17.8419 47.1964 18.0886 47.2609 18.3377 47.3213C18.5057 47.3619 18.6745 47.4008 18.8441 47.438C19.0932 47.4927 19.3432 47.5423 19.5948 47.5887C19.7652 47.6201 19.9349 47.6524 20.107 47.6797C20.3669 47.7219 20.6284 47.7575 20.8908 47.7914C21.0563 47.8129 21.221 47.8369 21.3873 47.8543C21.677 47.8858 21.9691 47.9081 22.2612 47.9288C22.4028 47.9387 22.5426 47.9536 22.6841 47.9611C23.1203 47.9859 23.5581 48 24 48C24.4419 48 24.8797 47.9859 25.3159 47.9627C25.4574 47.9553 25.5981 47.9404 25.7388 47.9304C26.0317 47.9098 26.3239 47.8874 26.6127 47.856C26.779 47.8378 26.9437 47.8146 27.1092 47.7931C27.3716 47.7591 27.6331 47.7236 27.893 47.6813C28.0643 47.6532 28.2348 47.6218 28.4052 47.5903C28.6568 47.544 28.9076 47.4943 29.1559 47.4397C29.3255 47.4025 29.4943 47.3636 29.6623 47.323C29.9106 47.2626 30.1572 47.198 30.403 47.1302C30.5644 47.0855 30.7266 47.0408 30.8872 46.9928C31.1412 46.9167 31.392 46.8347 31.6419 46.7511C31.7884 46.7015 31.9366 46.6543 32.0814 46.6022C32.3553 46.5037 32.6259 46.3986 32.8957 46.291C33.0124 46.2447 33.1308 46.2008 33.2466 46.1528C33.6182 45.9972 33.9857 45.8342 34.3473 45.6604C34.3581 45.6554 34.3697 45.6504 34.3804 45.6455C34.7611 45.4626 35.136 45.2689 35.5051 45.067C35.5812 45.0256 35.6549 44.9801 35.7302 44.9379C36.0157 44.7773 36.2988 44.6135 36.5768 44.4422C36.6861 44.3751 36.7928 44.304 36.9004 44.2344C37.1412 44.0805 37.3804 43.9241 37.6154 43.7627C37.7313 43.6824 37.8455 43.5997 37.9606 43.5169C38.1832 43.3572 38.4033 43.195 38.6201 43.0287C38.7343 42.9409 38.8469 42.8516 38.9594 42.7613C39.173 42.5909 39.384 42.4162 39.5917 42.2383C39.6985 42.1473 39.8052 42.0554 39.9095 41.9627C40.1214 41.7749 40.3291 41.582 40.5343 41.3867C40.627 41.2982 40.7214 41.2104 40.8132 41.1211C41.035 40.9026 41.2519 40.6791 41.4646 40.4524C41.5324 40.3796 41.6028 40.3092 41.6706 40.2364C41.9479 39.9343 42.2193 39.6264 42.4808 39.3111L42.4817 39.3103C40.8778 32.774 35.8941 27.5793 29.4935 25.6502Z" fill="#0060C6"/>
</g>
<path d="M24 48V46.5C11.5736 46.5 1.5 36.4264 1.5 24H0H-1.5C-1.5 38.0833 9.91674 49.5 24 49.5V48ZM48 24H46.5C46.5 36.4264 36.4264 46.5 24 46.5V48V49.5C38.0833 49.5 49.5 38.0833 49.5 24H48ZM24 0V1.5C36.4264 1.5 46.5 11.5736 46.5 24H48H49.5C49.5 9.91674 38.0833 -1.5 24 -1.5V0ZM24 0V-1.5C9.91674 -1.5 -1.5 9.91674 -1.5 24H0H1.5C1.5 11.5736 11.5736 1.5 24 1.5V0Z" fill="#0060C6" mask="url(#path-1-inside-1_4093_13071)"/>
<defs>
<clipPath id="clip0_4093_13071">
<path d="M0 24C0 10.7452 10.7452 0 24 0C37.2548 0 48 10.7452 48 24C48 37.2548 37.2548 48 24 48C10.7452 48 0 37.2548 0 24Z" fill="white"/>
</clipPath>
</defs>
</svg>
