<svg width="27" height="27" viewBox="0 0 27 27" fill="none" xmlns="http://www.w3.org/2000/svg">
<path d="M13.3333 26.6667C5.96933 26.6667 0 20.6973 0 13.3333C0 5.96933 5.96933 0 13.3333 0C20.6973 0 26.6667 5.96933 26.6667 13.3333C26.6667 20.6973 20.6973 26.6667 13.3333 26.6667ZM13.3333 18.6667C14.7479 18.6667 16.1044 18.1048 17.1045 17.1045C18.1048 16.1044 18.6667 14.7479 18.6667 13.3333C18.6667 11.9188 18.1048 10.5623 17.1045 9.56209C16.1044 8.56191 14.7479 8 13.3333 8C11.9188 8 10.5623 8.56191 9.56209 9.56209C8.56191 10.5623 8 11.9188 8 13.3333C8 14.7479 8.56191 16.1044 9.56209 17.1045C10.5623 18.1048 11.9188 18.6667 13.3333 18.6667Z" fill="#01AC63"/>
</svg>
