<svg width="18" height="18" viewBox="0 0 18 18" fill="none" xmlns="http://www.w3.org/2000/svg">
<path d="M9.7955 1.92049C10.2348 1.48116 10.2348 0.768845 9.7955 0.329505C9.35615 -0.109835 8.64384 -0.109835 8.2045 0.329505L0.329505 8.2045C0.221644 8.31237 0.140263 8.43668 0.0853634 8.56937C0.0303584 8.70201 0 8.84746 0 9C0 9.15254 0.030359 9.29799 0.0853638 9.43063C0.139016 9.56031 0.21796 9.68198 0.322195 9.78812" fill="#2E2E2E"/>
<path d="M0.3304 9.79639L8.2045 17.6705C8.64384 18.1098 9.35615 18.1098 9.7955 17.6705C10.2348 17.2312 10.2348 16.5188 9.7955 16.0795L3.84099 10.125H16.875C17.4963 10.125 18 9.62132 18 9C18 8.37868 17.4963 7.875 16.875 7.875H3.84099L9.7955 1.92049" fill="#2E2E2E"/>
</svg>
