<svg width="33" height="39" viewBox="0 0 33 39" fill="none" xmlns="http://www.w3.org/2000/svg">
<path d="M16.501 1.08301L16.8076 1.08691C19.9717 1.16981 22.9867 2.476 25.2275 4.73926C27.5402 7.07531 28.8399 10.2407 28.8438 13.54C28.8463 16.1787 28.0093 18.7467 26.4609 20.8711L26.4561 20.8877L26.3564 21.0195H26.3555V21.0205C26.3549 21.0213 26.3537 21.0229 26.3525 21.0244C26.3502 21.0275 26.3471 21.0324 26.3428 21.0381C26.3342 21.0495 26.3215 21.0654 26.3066 21.085C26.2766 21.1246 26.2354 21.1781 26.1934 21.2334C26.1189 21.3313 26.0141 21.4697 25.9756 21.5166L25.9688 21.5254L25.9678 21.5244L17.2656 31.8926L16.5 32.8047L15.7344 31.8926L7.03516 21.5303V21.5293C6.984 21.4682 6.87487 21.3246 6.80566 21.2334C6.76328 21.1775 6.72244 21.1238 6.69238 21.084C6.67729 21.064 6.66495 21.0467 6.65625 21.0352C6.65197 21.0295 6.64782 21.0255 6.64551 21.0225C6.6444 21.021 6.64417 21.0194 6.64355 21.0186L6.6416 21.0166C5.02564 18.8648 4.15324 16.2384 4.15625 13.54L4.16016 13.2314C4.24201 10.0438 5.53197 7.00238 7.77246 4.73926C10.0855 2.40305 13.2237 1.08691 16.499 1.08301H16.501ZM17.6924 10.6143C17.1227 10.376 16.4966 10.3142 15.8926 10.4355C15.2883 10.557 14.7316 10.8567 14.2939 11.2988C13.8562 11.741 13.5569 12.3057 13.4355 12.9219C13.3142 13.5381 13.3765 14.177 13.6143 14.7568C13.852 15.3364 14.254 15.8301 14.7676 16.1768C15.281 16.5233 15.8835 16.7068 16.499 16.707C17.3245 16.7059 18.1183 16.3749 18.7051 15.7822C19.2918 15.1894 19.6237 14.3836 19.625 13.541C19.6249 12.9126 19.4403 12.2992 19.0957 11.7783C18.7511 11.2574 18.2623 10.8527 17.6924 10.6143Z" fill="#01AC63" stroke="white" stroke-width="2"/>
<ellipse cx="16.5" cy="36.5003" rx="4.125" ry="0.833333" fill="#A7A7A7"/>
</svg>
