<svg width="8" height="68" viewBox="0 0 8 68" fill="none" xmlns="http://www.w3.org/2000/svg">
<path d="M0 4C9.65645e-08 6.20914 1.79086 8 4 8C6.20914 8 8 6.20914 8 4C8 1.79086 6.20914 -9.65645e-08 4 0C1.79086 9.65645e-08 -9.65645e-08 1.79086 0 4ZM2.62268e-06 64C2.71925e-06 66.2091 1.79086 68 4 68C6.20914 68 8 66.2091 8 64C8 61.7909 6.20914 60 4 60C1.79086 60 2.52612e-06 61.7909 2.62268e-06 64ZM4 4L3.25 4L3.25 6.5L4 6.5L4.75 6.5L4.75 4L4 4ZM4 11.5L3.25 11.5L3.25 16.5L4 16.5L4.75 16.5L4.75 11.5L4 11.5ZM4 21.5L3.25 21.5L3.25 26.5L4 26.5L4.75 26.5L4.75 21.5L4 21.5ZM4 31.5L3.25 31.5L3.25 36.5L4 36.5L4.75 36.5L4.75 31.5L4 31.5ZM4 41.5L3.25 41.5L3.25 46.5L4 46.5L4.75 46.5L4.75 41.5L4 41.5ZM4 51.5L3.25 51.5L3.25 56.5L4 56.5L4.75 56.5L4.75 51.5L4 51.5ZM4 61.5L3.25 61.5L3.25 64L4 64L4.75 64L4.75 61.5L4 61.5Z" fill="#B3B3B3"/>
</svg>
