<svg width="16" height="16" viewBox="0 0 16 16" fill="none" xmlns="http://www.w3.org/2000/svg">
<g clip-path="url(#clip0_4115_20969)">
<path fill-rule="evenodd" clip-rule="evenodd" d="M13.9137 2.47082C14.9062 2.63457 15.8259 3.74707 15.8922 4.72832C16.036 6.9072 16.036 9.09319 15.8922 11.2721C15.8222 12.2558 14.9578 12.8283 13.9738 12.7521C12.1077 12.5883 10.2495 12.8925 8.39883 13.1955C6.28485 13.5416 4.18075 13.8862 2.08625 13.5296C1.09375 13.3674 0.174062 12.2533 0.107812 11.2721C-0.0359374 9.09361 -0.0359374 6.90804 0.107812 4.72957C0.177812 3.74551 1.04219 3.17332 2.02625 3.24957C3.89168 3.41276 5.74936 3.10843 7.59946 2.80534C9.71402 2.45894 11.8187 2.11415 13.9137 2.47082ZM9.02896 11.016C8.85226 11.016 8.71554 10.9676 8.61877 10.8709C8.52201 10.7741 8.47363 10.6332 8.47363 10.4481V7.22339C8.47363 7.04249 8.51991 6.90366 8.61246 6.8069C8.70923 6.71014 8.84595 6.66176 9.02265 6.66176C9.20355 6.66176 9.34028 6.71014 9.43283 6.8069C9.5121 6.88617 9.5589 6.99368 9.57323 7.12942C9.64108 7.00866 9.74152 6.90747 9.87457 6.82583C10.0639 6.70803 10.2784 6.64914 10.5182 6.64914C10.7875 6.64914 11.0231 6.71434 11.225 6.84476C11.4312 6.97518 11.591 7.16029 11.7046 7.40009C11.8182 7.63989 11.875 7.93017 11.875 8.27094C11.875 8.60329 11.8182 8.89147 11.7046 9.13548C11.591 9.37948 11.4312 9.5667 11.225 9.69711C11.0231 9.82753 10.7875 9.89274 10.5182 9.89274C10.2869 9.89274 10.0786 9.83805 9.8935 9.72867C9.76544 9.65299 9.66657 9.56121 9.5969 9.45333V10.4481C9.5969 10.6332 9.54642 10.7741 9.44545 10.8709C9.34869 10.9676 9.20986 11.016 9.02896 11.016ZM10.1649 9.06606C10.2784 9.06606 10.3773 9.03872 10.4614 8.98403C10.5498 8.92513 10.6192 8.83888 10.6697 8.72529C10.7202 8.6075 10.7454 8.45605 10.7454 8.27094C10.7454 7.98907 10.6907 7.78713 10.5813 7.66513C10.472 7.53892 10.3331 7.47581 10.1649 7.47581C10.0513 7.47581 9.95029 7.50316 9.86195 7.55785C9.7736 7.61254 9.70418 7.69878 9.6537 7.81658C9.60321 7.93017 9.57797 8.08162 9.57797 8.27094C9.57797 8.5486 9.63266 8.75054 9.74205 8.87675C9.85143 9.00296 9.99236 9.06606 10.1649 9.06606ZM4.2452 9.72876C4.34617 9.82973 4.48921 9.88021 4.67432 9.88021C4.86784 9.88021 5.01298 9.82973 5.10974 9.72876C5.2065 9.62359 5.25488 9.47844 5.25488 9.29334V8.16375H5.60196C5.70293 8.16375 5.79128 8.18269 5.867 8.22055C5.94694 8.25421 6.01215 8.31731 6.06263 8.40986L6.63689 9.46372C6.71682 9.60676 6.80727 9.71193 6.90824 9.77925C7.01341 9.84656 7.14804 9.88021 7.31211 9.88021C7.47618 9.88021 7.60029 9.84445 7.68443 9.77294C7.77278 9.69721 7.81906 9.60255 7.82326 9.48896C7.82747 9.37117 7.79592 9.25127 7.7286 9.12926L7.41308 8.56132C7.32052 8.38462 7.20483 8.25421 7.066 8.17007C7.00043 8.12834 6.93017 8.09647 6.85522 8.07445C6.93937 8.05079 7.01804 8.02166 7.09124 7.98706C7.32684 7.87347 7.50563 7.7136 7.62764 7.50746C7.75385 7.29711 7.81695 7.051 7.81695 6.76913C7.81695 6.3316 7.67812 5.99084 7.40046 5.74683C7.127 5.49862 6.73785 5.37451 6.23301 5.37451H4.68063C4.49552 5.37451 4.35038 5.42499 4.2452 5.52596C4.14423 5.62693 4.09375 5.77207 4.09375 5.96139V9.29334C4.09375 9.47844 4.14423 9.62359 4.2452 9.72876ZM6.02477 7.34339H5.25488V6.26429H6.02477C6.24774 6.26429 6.41812 6.31057 6.53592 6.40312C6.65371 6.49147 6.71261 6.62399 6.71261 6.80068C6.71261 6.98579 6.65371 7.12252 6.53592 7.21087C6.41812 7.29921 6.24774 7.34339 6.02477 7.34339Z" fill="#0060C6"/>
</g>
<defs>
<clipPath id="clip0_4115_20969">
<rect width="16" height="16" fill="white"/>
</clipPath>
</defs>
</svg>
