<svg width="15" height="16" viewBox="0 0 15 16" fill="none" xmlns="http://www.w3.org/2000/svg">
<path d="M13.9334 4.80088C13.94 4.80776 13.9459 4.81463 13.9525 4.82182C12.7375 4.78015 11.5225 4.7489 10.3075 4.72807C10.1175 4.72389 9.93648 4.64628 9.80246 4.51151C9.66845 4.37673 9.59185 4.19529 9.58875 4.00526C9.57333 2.75776 9.55104 1.51026 9.52187 0.262758C9.51437 0.250258 11.8619 2.10057 13.9334 4.80088Z" fill="#145F9A"/>
<path d="M0 8.00594C0.0028125 9.88344 0.105625 11.0547 0.28125 12.2772C0.40125 13.1081 0.82 13.9116 1.4425 14.5434C2.065 15.1753 2.86281 15.6025 3.6925 15.7272L3.71781 15.7309C4.72969 15.875 5.07375 15.9909 7.19875 16C9.32375 15.985 9.48656 15.875 10.4997 15.7309L10.525 15.7272C11.3547 15.6022 12.1519 15.1741 12.775 14.5434C13.3981 13.9128 13.8162 13.1081 13.9362 12.2772C14.1106 11.0547 14.2134 9.88344 14.2175 8.00594C14.2175 7.09062 14.1906 6.34375 14.1453 5.67625C12.8697 5.64292 11.5941 5.61875 10.3184 5.60375C9.89406 5.59789 9.48882 5.42624 9.18936 5.12549C8.88989 4.82474 8.71998 4.41877 8.71594 3.99437C8.70552 2.6775 8.6901 1.36073 8.66969 0.0440625C8.58531 0.0384375 8.49687 0.0334375 8.4025 0.02875C8.03687 0.01125 7.59031 0 7.01094 0C4.88594 0.0153125 4.72312 0.125 3.71 0.269375L3.68469 0.273125C2.855 0.398125 2.05781 0.82625 1.43469 1.45719C0.811562 2.08812 0.393125 2.89219 0.273125 3.72312L0.280625 3.72844V3.735C0.105312 4.9575 0.0025 6.12875 0 8.00594ZM2.9375 11.1019C2.93604 11.0048 2.9542 10.9084 2.99091 10.8186C3.02761 10.7287 3.0821 10.6472 3.15109 10.5789C3.22009 10.5106 3.30217 10.4569 3.39241 10.4211C3.48266 10.3854 3.5792 10.3682 3.67625 10.3706C4.98104 10.3869 6.28583 10.3939 7.59062 10.3916C7.68903 10.3912 7.78653 10.4104 7.87747 10.448C7.9684 10.4857 8.05097 10.541 8.12038 10.6107C8.18979 10.6805 8.24467 10.7633 8.28183 10.8544C8.31899 10.9456 8.3377 11.0432 8.33687 11.1416C8.33631 11.3407 8.25725 11.5317 8.11686 11.6729C7.97646 11.8142 7.78604 11.8944 7.58687 11.8962C6.28937 11.9 4.99198 11.8885 3.69469 11.8619C3.49525 11.8559 3.30567 11.7738 3.16482 11.6325C3.02397 11.4912 2.94252 11.3013 2.93719 11.1019H2.9375ZM2.9125 7.92812C2.91456 7.72969 2.99486 7.54008 3.13594 7.40052C3.27702 7.26096 3.46749 7.18272 3.66594 7.18281C5.96094 7.17281 8.25594 7.17281 10.5509 7.18281C10.6488 7.18281 10.7456 7.20208 10.836 7.23952C10.9264 7.27696 11.0086 7.33184 11.0777 7.40102C11.1469 7.4702 11.2018 7.55233 11.2392 7.64271C11.2767 7.7331 11.2959 7.82998 11.2959 7.92781C11.2959 8.02565 11.2767 8.12252 11.2392 8.21291C11.2018 8.3033 11.1469 8.38543 11.0777 8.45461C11.0086 8.52379 10.9264 8.57866 10.836 8.6161C10.7456 8.65354 10.6488 8.67281 10.5509 8.67281C8.25552 8.68094 5.9601 8.68094 3.66469 8.67281C3.46638 8.67307 3.27602 8.59494 3.13506 8.45545C2.99411 8.31596 2.914 8.12642 2.91219 7.92812H2.9125Z" fill="#145F9A"/>
</svg>
