<svg width="16" height="16" viewBox="0 0 16 16" fill="none" xmlns="http://www.w3.org/2000/svg">
<g clip-path="url(#clip0_4162_6166)">
<path d="M11.3342 8.31452C11.3184 8.11931 11.2288 7.9391 11.0655 7.7739C10.9084 7.61515 10.7338 7.5289 10.5417 7.51515C10.4508 7.50951 10.3598 7.52328 10.2746 7.55553C10.1895 7.58779 10.1121 7.6378 10.0478 7.70223C9.98345 7.76666 9.93355 7.84405 9.90141 7.92925C9.86927 8.01445 9.85563 8.10552 9.86139 8.1964C9.87108 8.3889 9.95514 8.56608 10.1158 8.72577C10.2867 8.89608 10.4664 8.98608 10.6586 9.00046C10.7505 9.00795 10.8429 8.99474 10.9291 8.9618C11.0152 8.92887 11.0929 8.87705 11.1564 8.81015C11.2217 8.74648 11.2717 8.66875 11.3025 8.58287C11.3334 8.49699 11.3442 8.40522 11.3342 8.31452Z" fill="url(#paint0_linear_4162_6166)"/>
<path d="M4.85594 9.00836C4.8425 8.81242 4.75562 8.63179 4.59687 8.46617C4.44416 8.307 4.27448 8.22033 4.08781 8.20617C3.99922 8.19818 3.90998 8.21097 3.8272 8.24352C3.74441 8.27607 3.67036 8.32748 3.61094 8.39367C3.54609 8.45965 3.49588 8.53856 3.46357 8.62525C3.43126 8.71194 3.41759 8.80446 3.42344 8.89679C3.43031 9.09211 3.50812 9.27179 3.66 9.43242C3.82219 9.60367 3.995 9.69304 4.1825 9.70523C4.27382 9.70872 4.36485 9.69291 4.44964 9.65884C4.53444 9.62477 4.6111 9.5732 4.67462 9.5075C4.73814 9.4418 4.78709 9.36344 4.81828 9.27754C4.84947 9.19164 4.86219 9.10013 4.85562 9.00898L4.85594 9.00836Z" fill="url(#paint1_linear_4162_6166)"/>
<path d="M7.35867 0.754688C6.77242 1.19219 4.73773 3.08531 3.81429 4.05719C2.86773 5.00625 1.03148 7.10313 0.603355 7.70469C-0.112583 8.68344 -0.21852 10.2344 0.430542 11.2684C0.82773 11.8878 1.41179 12.6913 2.35835 13.6416C3.30492 14.5919 4.1121 15.1728 4.73148 15.5694C5.76554 16.2172 7.31648 16.1125 8.29398 15.3966C8.89679 14.9684 10.9937 13.1322 11.9427 12.1872C12.9146 11.2638 14.8074 9.22906 15.2452 8.64281C15.7096 8.06438 15.8152 7.01781 15.8152 7.01781C15.8687 6.40188 15.9196 5.58281 15.9602 4.51188C16.0062 3.31188 16.0099 2.45125 15.9849 1.83375C15.9496 0.799688 15.2012 0.0525002 14.1671 0.0159377C13.5496 -0.0087498 12.689 -0.0053123 11.489 0.0406252C10.418 0.0812502 9.59898 0.132188 8.98304 0.185625C8.98304 0.184688 7.95054 0.283125 7.35867 0.754688ZM4.16492 10.8928C3.64773 10.885 3.20398 10.6866 2.83492 10.2909C2.46585 9.89531 2.29085 9.42875 2.2896 8.88063C2.28835 8.3325 2.45429 7.87156 2.79648 7.5075C3.13867 7.14344 3.56773 6.96906 4.08586 6.98844C4.60398 7.00781 5.05867 7.21188 5.44054 7.60469C5.8345 8.0099 6.03523 8.47688 6.04273 9.00563C6.05054 9.53406 5.86773 9.98281 5.49523 10.3553C5.12679 10.7184 4.68211 10.9003 4.16492 10.8928ZM8.23304 12.6184C7.89929 12.6647 7.57054 12.4463 7.49773 12.1266C6.96648 9.77781 6.47304 7.28594 5.93898 4.84781C5.91932 4.754 5.92267 4.65682 5.94874 4.56458C5.9748 4.47234 6.02281 4.38778 6.08867 4.31813C6.41523 3.99188 7.01929 4.2025 7.12398 4.68625C7.65648 7.11563 8.15648 9.60594 8.70054 11.96C8.77554 12.2809 8.56648 12.5725 8.23304 12.6184ZM11.993 9.66844C11.6349 10.0284 11.1909 10.1963 10.6621 10.1791C10.1334 10.1619 9.66648 9.95875 9.26835 9.56656C8.87023 9.17438 8.67148 8.71781 8.66086 8.18156C8.65023 7.64531 8.82335 7.19438 9.18398 6.83344C9.54461 6.4725 9.99648 6.29563 10.5312 6.31C11.0659 6.32438 11.5274 6.525 11.9109 6.9175C12.3068 7.32375 12.5062 7.7925 12.5184 8.32375C12.5305 8.855 12.3571 9.30281 11.993 9.66844ZM13.8015 3.61438C13.6565 3.74165 13.4779 3.82444 13.2871 3.85283C13.0963 3.88121 12.9013 3.85399 12.7256 3.77442C12.5498 3.69485 12.4008 3.56631 12.2962 3.40418C12.1916 3.24206 12.136 3.05323 12.136 2.86031C12.136 2.6674 12.1916 2.47857 12.2962 2.31644C12.4008 2.15432 12.5498 2.02578 12.7256 1.9462C12.9013 1.86663 13.0963 1.83941 13.2871 1.8678C13.4779 1.89618 13.6565 1.97897 13.8015 2.10625C13.9083 2.2007 13.9938 2.31677 14.0524 2.44677C14.111 2.57676 14.1413 2.71773 14.1413 2.86031C14.1413 3.0029 14.111 3.14386 14.0524 3.27386C13.9938 3.40386 13.9083 3.51992 13.8015 3.61438Z" fill="url(#paint2_linear_4162_6166)"/>
</g>
<defs>
<linearGradient id="paint0_linear_4162_6166" x1="10.599" y1="7.51392" x2="10.599" y2="9.0025" gradientUnits="userSpaceOnUse">
<stop stop-color="#2D74BF"/>
<stop offset="1" stop-color="#114E8E"/>
</linearGradient>
<linearGradient id="paint1_linear_4162_6166" x1="4.13971" y1="8.20386" x2="4.13971" y2="9.7057" gradientUnits="userSpaceOnUse">
<stop stop-color="#2D74BF"/>
<stop offset="1" stop-color="#114E8E"/>
</linearGradient>
<linearGradient id="paint2_linear_4162_6166" x1="8.00001" y1="0.000732422" x2="8.00001" y2="15.9997" gradientUnits="userSpaceOnUse">
<stop stop-color="#2D74BF"/>
<stop offset="1" stop-color="#114E8E"/>
</linearGradient>
<clipPath id="clip0_4162_6166">
<rect width="16" height="16" fill="white"/>
</clipPath>
</defs>
</svg>
