<svg width="21" height="34" viewBox="0 0 21 34" fill="none" xmlns="http://www.w3.org/2000/svg">
<path d="M8.86646 0.805031C8.86646 0.360424 9.22688 0 9.67149 0L11.2281 0C11.6727 0 12.0331 0.360425 12.0331 0.805031V3.14689L8.86646 3.14689V0.805031Z" fill="#2E2E2E"/>
<path d="M8.2334 1.70268C8.2334 1.10987 8.71396 0.629303 9.30677 0.629303L10.96 0.629303C11.5529 0.629303 12.0334 1.10987 12.0334 1.70268V4.40558H8.2334V1.70268Z" fill="url(#paint0_linear_202_715)"/>
<path d="M5.15259 24.6806C5.07987 24.513 4.97466 24.3715 4.8277 24.2509C4.11236 23.6634 3.54512 22.9591 3.06741 22.1885C2.55552 21.3627 2.16564 20.4847 1.86191 19.5717C1.81374 19.4271 1.81393 19.4271 1.9709 19.3739C2.095 19.3319 2.21891 19.2897 2.34282 19.2477C2.39194 19.1651 2.48525 19.1553 2.56647 19.1276C3.20568 18.9097 3.85132 18.7099 4.49449 18.5029C4.62634 18.4647 4.758 18.4256 4.88758 18.3814C5.02396 18.3349 5.09895 18.3791 5.13975 18.5089C5.33563 19.1325 5.60064 19.7294 5.92195 20.3038C6.11292 20.6599 6.35961 20.9813 6.61632 21.2963C6.69244 21.4618 6.68375 21.6467 6.75459 21.8149C7.03547 22.4813 7.54623 22.9387 8.20339 23.2618C8.88434 23.5968 9.61517 23.7325 10.3753 23.6892C11.2835 23.6375 12.1186 23.3745 12.8073 22.7884C13.219 22.438 13.5071 22.007 13.5938 21.4742C13.6034 21.4148 13.6144 21.3563 13.6471 21.3037C13.9234 20.9671 14.1831 20.6199 14.3807 20.2341C14.6678 19.7602 14.8679 19.251 15.05 18.735C15.2113 18.2773 15.1924 18.3288 15.6208 18.4597C15.6688 18.4744 15.7171 18.4873 15.7647 18.5028C16.4104 18.7128 17.0605 18.9102 17.7026 19.1301C17.79 19.1601 17.8862 19.1754 17.9466 19.2538C18.07 19.2971 18.1931 19.3407 18.3167 19.3834C18.4525 19.4305 18.4534 19.4305 18.4117 19.5574C18.2426 20.0699 18.042 20.5711 17.8112 21.0613C17.4275 21.8761 16.9595 22.643 16.3648 23.337C16.0828 23.666 15.7815 23.978 15.4402 24.2523C15.2868 24.3757 15.1769 24.5212 15.1129 24.7004C15.0192 24.949 14.8371 25.1411 14.6557 25.3312C14.4398 25.5574 14.2022 25.7627 13.9429 25.9448C13.1 26.5431 12.1439 26.8789 11.1102 27.0064C9.89813 27.1559 8.71037 27.0497 7.57022 26.6032C7.12651 26.4294 6.70566 26.2144 6.31976 25.9412C5.94424 25.6672 5.60348 25.3605 5.3226 24.9953C5.24798 24.8975 5.17526 24.8022 5.15259 24.6806Z" fill="#808080"/>
<path d="M15.1825 9.34519C15.1284 9.39078 15.0633 9.36745 15.0038 9.36798C14.7112 9.37068 14.4186 9.36924 14.0793 9.36924C14.191 9.45218 14.272 9.50908 14.3491 9.57029C14.4301 9.63474 14.5074 9.70349 14.5863 9.77045C14.7797 9.89754 14.897 10.0708 14.9339 10.2921C15.1721 10.8005 15.1896 11.3164 14.9943 11.84C14.9841 11.8675 14.9796 11.8971 14.9724 11.9257C14.8781 11.9696 14.8013 11.9145 14.7255 11.8794C14.5731 11.8084 14.4163 11.7469 14.261 11.6822C14.1326 11.6288 14.0291 11.663 13.946 11.7661C13.9074 11.8138 13.8776 11.8662 13.8517 11.9208C13.7219 12.1946 13.7616 12.291 14.0476 12.4077C14.1853 12.4638 14.3321 12.5046 14.4439 12.6074C14.4388 12.7448 14.3032 12.7733 14.2212 12.8455C14.1672 12.8931 14.102 12.929 14.0387 12.9665C13.7066 13.1605 13.3389 13.237 12.9564 13.2379C11.0744 13.2426 9.1925 13.2418 7.31038 13.2384C6.92655 13.2377 6.56199 13.1528 6.22935 12.9634C6.07994 12.8584 5.92032 12.7658 5.77866 12.6504C5.77847 12.5694 5.85478 12.5656 5.90616 12.5401C6.05028 12.4689 6.20593 12.4211 6.34911 12.3466C6.43864 12.2999 6.50079 12.2393 6.48851 12.1357C6.46736 11.9571 6.38519 11.8068 6.24371 11.6878C6.16683 11.6232 6.08239 11.6365 5.99928 11.6788C5.84477 11.7576 5.67892 11.8126 5.52139 11.8855C5.45055 11.9183 5.37839 11.9644 5.29169 11.9269C5.29245 11.8465 5.24598 11.779 5.22426 11.7047C5.09789 11.2712 5.11206 10.8432 5.27545 10.4205C5.29283 10.3758 5.30699 10.33 5.32267 10.2846C5.38123 10.0772 5.49607 9.90454 5.67344 9.77045C5.83362 9.64982 5.97699 9.50998 6.16551 9.39832C6.10657 9.35811 6.05633 9.36996 6.01062 9.3696C5.7541 9.36816 5.49777 9.37032 5.24126 9.3678C5.18761 9.36727 5.1283 9.38827 5.08032 9.34519C5.12755 9.29223 5.19347 9.29869 5.25524 9.29851C5.53839 9.29815 5.82153 9.29223 6.10449 9.30174C6.18118 9.30426 6.25466 9.3039 6.32493 9.26997C6.65908 9.10859 7.01835 9.05922 7.38726 9.07017C7.52062 9.07412 7.53856 9.02727 7.5329 8.91346C7.51948 8.64509 7.52496 8.37636 7.54461 8.10727C7.57615 7.67716 7.76996 7.31491 8.03988 6.98407C8.09825 6.91245 8.15378 6.8033 8.28997 6.83615C8.26844 7.31868 8.58446 7.563 9.00153 7.71899C9.8081 8.02057 10.6132 8.00334 11.4025 7.65975C11.7233 7.52009 11.9518 7.30109 11.9758 6.94099C11.9779 6.91101 11.9913 6.88319 12.0144 6.86093C12.1624 6.86308 12.2284 6.97527 12.3005 7.067C12.6077 7.4578 12.7518 7.90102 12.7495 8.38821C12.7488 8.56718 12.749 8.74634 12.7501 8.92531C12.7507 9.01973 12.7881 9.06838 12.8963 9.06407C13.2609 9.04935 13.6071 9.12349 13.9378 9.26764C14.0085 9.29833 14.0835 9.29905 14.1594 9.29744C14.4293 9.29169 14.6995 9.29474 14.9694 9.29564C15.0442 9.29582 15.1228 9.28613 15.1825 9.34519Z" fill="url(#paint1_linear_202_715)"/>
<path d="M8.27105 6.83126C7.86927 7.17825 7.64393 7.60459 7.59463 8.1223C7.56894 8.39139 7.59028 8.6594 7.57309 8.92741C7.5695 8.98252 7.61635 9.02848 7.58783 9.1001C7.442 9.12972 7.28069 9.1168 7.12485 9.12254C6.86852 9.13206 6.62825 9.18788 6.40215 9.29056C6.28825 9.34226 6.18058 9.34819 6.06082 9.34621C5.73442 9.34083 5.40782 9.34532 5.08142 9.34585C5.04836 9.02471 5.04987 8.70177 5.07896 8.38188C5.15339 7.56384 5.43314 6.81115 5.92558 6.13367C6.48243 5.3677 7.21344 4.80349 8.11465 4.43855C8.13731 4.42939 8.163 4.4267 8.18718 4.42095C8.32904 4.28147 8.52322 4.25311 8.70625 4.20428C8.8976 4.1533 9.09556 4.1314 9.29069 4.09604C9.85037 4.02082 10.4101 4.01975 10.9697 4.0955C11.2495 4.13033 11.5255 4.18238 11.7944 4.26586C11.8902 4.29566 11.986 4.32348 12.0646 4.38685C12.1424 4.45129 12.2431 4.47247 12.3326 4.51466C13.9924 5.29841 14.9474 6.56163 15.1826 8.30953C15.2264 8.63589 15.2066 8.96673 15.2015 9.29559C15.2013 9.31229 15.1894 9.3288 15.183 9.34532C14.812 9.34926 14.4408 9.3288 14.0704 9.3568C14.0147 9.36093 13.9746 9.33544 13.9291 9.31767C13.8192 9.27477 13.7087 9.23402 13.5961 9.19668C13.3553 9.11662 13.1065 9.11393 12.8572 9.10908C12.7026 9.10603 12.7008 9.10639 12.6992 8.96152C12.6974 8.76424 12.6972 8.56677 12.6991 8.36949C12.7034 7.89486 12.5474 7.4687 12.2599 7.08616C12.1957 7.00089 12.1188 6.9176 12.0139 6.86842C11.968 6.87039 11.9473 6.83844 11.9306 6.80684C11.7631 6.48857 11.4614 6.32449 11.1284 6.22594C10.3999 6.01053 9.67093 6.01053 8.95654 6.29541C8.72552 6.3875 8.53587 6.53057 8.39194 6.7266C8.35983 6.77004 8.33565 6.82192 8.27105 6.83126Z" fill="url(#paint2_linear_202_715)"/>
<path d="M13.1157 30.0954C13.0197 31.073 12.6145 31.9235 11.9421 32.6624C11.7232 32.903 11.471 33.1096 11.182 33.2724C10.4729 33.6716 9.76473 33.6646 9.06262 33.2582C8.58038 32.9791 8.21412 32.5883 7.91019 32.1427C7.55791 31.6263 7.31405 31.0673 7.20222 30.4587C7.18485 30.3641 7.17389 30.2699 7.1788 30.174C7.00521 29.5649 7.32519 28.9365 7.93456 28.6857C8.31461 28.5293 8.71695 28.4575 9.12514 28.4356C9.55091 28.4126 9.97761 28.3654 10.4047 28.3949C11.035 28.4383 11.6737 28.4227 12.2749 28.6647C12.8883 28.9113 13.1283 29.3474 13.1584 29.9232C13.1614 29.983 13.1397 30.0401 13.1157 30.0954Z" fill="url(#paint3_linear_202_715)"/>
<path d="M17.9472 19.2542C17.2272 19.0228 16.5071 18.7916 15.7874 18.5596C15.7767 18.5562 15.7685 18.5449 15.7591 18.5374C15.71 18.474 15.743 18.4103 15.7617 18.3489C16.131 17.1331 16.3439 15.89 16.4842 14.6341C16.4939 14.5476 16.4884 14.4664 16.4389 14.3926C16.2982 14.1828 16.2272 13.9471 16.1571 13.711C16.149 13.366 16.1996 13.0325 16.3822 12.7273C16.4693 12.5819 16.5611 12.4381 16.7328 12.3656C16.9416 12.1879 17.1762 12.0542 17.4499 11.9892C18.0294 11.8517 18.5396 11.9818 18.9844 12.355C19.3501 12.6618 19.4976 13.0632 19.5343 13.512C19.5362 13.5357 19.5415 13.5592 19.5452 13.5827C19.5641 13.9805 19.3779 14.3013 19.1204 14.5935C19.0367 14.6885 18.9272 14.7612 18.8552 14.8667C18.7844 14.9464 18.802 15.0506 18.7919 15.1392C18.74 15.5991 18.668 16.0564 18.5902 16.5125C18.5043 17.0158 18.4051 17.5169 18.28 18.0132C18.1869 18.3828 18.0813 18.749 17.9688 19.1136C17.955 19.1587 17.954 19.2073 17.9472 19.2542Z" fill="#F0BC86"/>
<path d="M4.50204 18.537C4.27027 18.6417 4.0215 18.7015 3.78028 18.7814C3.3022 18.9399 2.82204 19.0926 2.34282 19.2479C2.21494 18.8553 2.10406 18.4586 2.00205 18.059C1.91195 17.7059 1.83621 17.3507 1.76481 16.9941C1.69586 16.6495 1.63957 16.303 1.59084 15.9553C1.54305 15.6137 1.49242 15.2723 1.44142 14.931C1.43821 14.9089 1.4214 14.8888 1.41082 14.8676C1.28615 14.7048 1.11294 14.5829 0.997528 14.4111C0.82658 14.157 0.694356 13.8938 0.719667 13.5814C0.758768 13.5297 0.756124 13.4701 0.759713 13.4102C0.794091 12.8334 1.08612 12.411 1.61426 12.1322C1.88305 11.9903 2.17206 11.9129 2.47863 11.9351C2.78105 11.957 3.06873 12.0375 3.32033 12.2102C3.39627 12.2622 3.47711 12.3076 3.55569 12.3561C3.89589 12.6275 4.05852 12.9833 4.09536 13.396C4.10537 13.508 4.10404 13.6217 4.08799 13.7342C4.04794 13.9661 3.96899 14.1851 3.83638 14.3844C3.78652 14.4593 3.77726 14.5368 3.78652 14.6235C3.91799 15.8657 4.13616 17.0927 4.48938 18.2965C4.51262 18.3742 4.5572 18.4541 4.50204 18.537Z" fill="#F0BC86"/>
<path d="M13.1158 30.095C13.1311 29.9268 13.1001 29.7577 13.0646 29.5988C12.9732 29.1904 12.7149 28.8953 12.3024 28.7294C11.8445 28.5453 11.3647 28.4925 10.8723 28.4724C10.5907 28.4609 10.309 28.4499 10.027 28.4421C9.71231 28.4331 9.39988 28.4699 9.08765 28.488C8.70892 28.5099 8.33132 28.576 7.97583 28.7241C7.58841 28.8854 7.33341 29.1511 7.22328 29.5394C7.16435 29.7475 7.1668 29.9605 7.17851 30.1736C7.00832 29.8886 6.81169 29.6189 6.64546 29.3312C6.0803 28.3525 5.67739 27.3162 5.40671 26.2315C5.29073 25.7671 5.21007 25.2968 5.15529 24.8226C5.14982 24.7755 5.15322 24.7276 5.15246 24.6802C5.37649 25.0044 5.6245 25.3099 5.92843 25.5709C6.05801 25.6821 6.19288 25.7876 6.32529 25.8957C6.36061 25.9643 6.34645 26.0346 6.3387 26.1064C6.26957 26.7516 6.56613 27.2226 7.19891 27.4669C7.64678 27.64 8.12052 27.7037 8.59747 27.7443C9.43842 27.8159 10.2822 27.7879 11.1239 27.7753C11.7518 27.766 12.3812 27.7127 12.9798 27.5025C13.4486 27.3379 13.8009 27.0645 13.9087 26.573C13.9452 26.4073 13.9286 26.2394 13.9255 26.0723C13.9244 26.0129 13.9089 25.9531 13.9384 25.8959C14.3513 25.5814 14.7327 25.2385 15.019 24.8102C15.0461 24.7698 15.0706 24.728 15.1127 24.6992C15.1056 25.0771 15.0323 25.4474 14.9552 25.816C14.6975 27.0481 14.2616 28.2205 13.6262 29.3236C13.473 29.5907 13.3162 29.8562 13.1158 30.095Z" fill="url(#paint4_linear_202_715)"/>
<path d="M5.29169 11.9264C5.53649 11.8336 5.78149 11.7394 6.01212 11.6188C6.12338 11.5606 6.21311 11.5859 6.28526 11.6532C6.42655 11.785 6.52043 11.9458 6.54064 12.139C6.55179 12.2467 6.51193 12.3203 6.40634 12.3698C6.20366 12.4648 5.9972 12.5508 5.78678 12.6287C5.783 12.6786 5.74031 12.6965 5.70253 12.7147C5.37518 12.873 5.03763 13.0102 4.70197 13.1509C4.67326 13.1629 4.6419 13.1658 4.61092 13.1554C4.5246 12.8743 4.37046 12.622 4.2356 12.3616C4.35573 12.3472 4.45471 12.2821 4.562 12.2375C4.80624 12.1359 5.04859 12.0304 5.29169 11.9264Z" fill="#B3B3B3"/>
<path d="M14.4447 12.6183C14.2501 12.5363 14.0535 12.4585 13.8617 12.3709C13.7373 12.314 13.7267 12.2593 13.742 12.1257C13.756 12.0028 13.8024 11.8943 13.868 11.7931C13.9773 11.624 14.0837 11.55 14.3202 11.6525C14.5363 11.7462 14.7444 11.8584 14.973 11.9257C15.2722 12.0541 15.5712 12.1828 15.8708 12.3101C15.9212 12.3314 15.9683 12.3634 16.027 12.3641C16.0327 12.3883 16.0315 12.4137 16.0151 12.4321C15.8289 12.6424 15.7629 12.9068 15.6545 13.152C15.5091 13.1777 15.4101 13.0746 15.2901 13.0306C15.0614 12.947 14.8423 12.8418 14.619 12.7456C14.5519 12.7169 14.4756 12.6941 14.4447 12.6183Z" fill="#B3B3B3"/>
<path d="M18.8546 14.8664C18.8052 14.8056 18.8488 14.775 18.8949 14.7381C19.0864 14.5839 19.2489 14.4078 19.355 14.1875C19.4281 14.036 19.4867 13.8816 19.502 13.7145C19.5063 13.6675 19.5063 13.6193 19.5445 13.5822C19.647 13.6274 19.7515 13.6691 19.8518 13.7184C20.2139 13.897 20.3641 14.3024 20.2009 14.653C20.0396 14.9992 19.6172 15.1612 19.2345 15.0203C19.1062 14.9732 18.9812 14.9179 18.8546 14.8664Z" fill="#2E2E2E"/>
<path d="M0.719578 13.5808C0.761701 13.6002 0.755467 13.6381 0.759434 13.6727C0.806279 14.0942 1.00669 14.4378 1.34349 14.7125C1.39317 14.7528 1.46967 14.7837 1.41073 14.867C1.27832 14.9209 1.14836 14.9819 1.01255 15.0273C0.582064 15.1711 0.140624 14.9481 0.0240774 14.5333C-0.0630018 14.2235 0.0917007 13.8856 0.397895 13.7271C0.501974 13.6733 0.612098 13.6293 0.719578 13.5808Z" fill="#2E2E2E"/>
<path d="M4.23592 12.3618C4.4471 12.5851 4.57649 12.8454 4.62504 13.142C4.70022 13.3581 4.64714 13.508 4.44049 13.5913C4.31488 13.6419 4.20626 13.7538 4.04854 13.7139C4.04042 13.5597 4.05609 13.4055 4.02663 13.2511C3.97166 12.9625 3.84586 12.7088 3.64431 12.4875C3.60823 12.448 3.56044 12.4146 3.55591 12.3555C3.60615 12.3333 3.6598 12.3159 3.70608 12.2879C3.9063 12.1669 4.08008 12.203 4.23592 12.3618Z" fill="#2E2E2E"/>
<path d="M15.6429 13.143C15.6896 12.8472 15.819 12.5883 16.0264 12.3639C16.1845 12.2052 16.359 12.1631 16.5628 12.2889C16.6148 12.321 16.6754 12.3401 16.7321 12.3652C16.6429 12.4725 16.54 12.5691 16.4652 12.6878C16.3035 12.9443 16.2179 13.22 16.2171 13.52C16.217 13.5823 16.2487 13.6521 16.1839 13.7047C15.9474 13.6866 15.7466 13.6054 15.6321 13.3963C15.5883 13.3166 15.5726 13.2249 15.6429 13.143Z" fill="#2E2E2E"/>
<path d="M13.6859 21.3054C13.6347 21.5329 13.5962 21.7626 13.4932 21.9777C13.2069 22.5757 12.7269 22.9921 12.1251 23.289C11.3434 23.6746 10.5114 23.8037 9.63736 23.7127C8.93657 23.6398 8.28867 23.431 7.71539 23.0379C7.17931 22.6703 6.78755 22.2016 6.63511 21.5745C6.61264 21.4817 6.62775 21.3819 6.57656 21.2948C6.47002 20.9875 6.57278 20.7035 6.68328 20.4203C6.71464 20.3623 6.74883 20.3056 6.7679 20.2422C6.93186 19.8907 7.17988 19.5999 7.49457 19.3631C7.65532 19.2423 7.77904 19.1071 7.8733 18.9298C8.18214 18.3483 8.70971 18.0171 9.3527 17.8495C10.1483 17.6421 10.9113 17.736 11.6222 18.1392C11.9921 18.3491 12.2798 18.6366 12.4473 19.021C12.4868 19.1114 12.5387 19.1897 12.623 19.2488C13.0471 19.546 13.3697 19.9207 13.5771 20.3831C13.6831 20.6831 13.8038 20.9816 13.6859 21.3054Z" fill="#1A1A1A"/>
<path d="M14.0574 16.3429C14.2992 16.6658 14.3966 17.0277 14.3947 17.4214C14.391 18.3001 14.3934 19.1788 14.3938 20.0575C14.3938 20.1291 14.3987 20.2006 14.4014 20.2724C14.3181 20.4925 14.1709 20.6781 14.0383 20.8709C13.9329 21.024 13.826 21.1775 13.6855 21.3055C13.6975 20.9838 13.6392 20.6725 13.5313 20.3688C13.4499 20.1126 13.4178 19.8444 13.3135 19.5937C12.9622 18.7485 12.3309 18.1685 11.4605 17.8093C11.339 17.7592 11.1819 17.7605 11.112 17.621C11.0593 17.1602 11.1054 16.72 11.4118 16.3348C11.9095 15.7006 12.7246 15.5573 13.367 15.7943C13.5096 15.8469 13.6369 15.9219 13.7599 16.0056C13.8859 16.0964 14.0113 16.1881 14.0574 16.3429Z" fill="#B3B3B3"/>
<path d="M5.88501 20.3165C5.88784 20.2511 5.89294 20.1858 5.89294 20.1204C5.89351 19.2144 5.90333 18.3083 5.8886 17.4024C5.88218 17.0113 5.97417 16.6612 6.20953 16.3433C6.24787 16.1609 6.4243 16.0935 6.54443 15.9787C7.25221 15.4872 8.26977 15.6246 8.83834 16.3015C9.15492 16.6923 9.18533 17.1477 9.16739 17.6141C9.12583 17.7288 9.01004 17.7396 8.91351 17.7751C7.90464 18.146 7.22444 18.8143 6.88519 19.7932C6.83986 19.924 6.82475 20.0605 6.79226 20.1937C6.75183 20.2576 6.77242 20.3389 6.72709 20.4014C6.61904 20.69 6.57598 20.9887 6.57598 21.2941C6.29472 21.0008 6.0705 20.6708 5.88501 20.3165Z" fill="#B3B3B3"/>
<path d="M13.9384 25.8968C14.115 26.6086 13.8449 27.1471 13.2882 27.427C12.9733 27.5853 12.6352 27.6711 12.2865 27.7246C11.7646 27.8045 11.2384 27.8365 10.7102 27.8365C10.1566 27.8365 9.60236 27.8456 9.04947 27.8246C8.52322 27.8047 7.99716 27.7596 7.48677 27.6193C7.23762 27.5507 7.00132 27.4579 6.79033 27.3107C6.47582 27.0915 6.31507 26.7922 6.28088 26.4295C6.26407 26.2507 6.27182 26.0711 6.32508 25.8965C6.78164 26.197 7.26029 26.46 7.78654 26.6323C9.60633 27.2285 11.3915 27.1599 13.1345 26.363C13.4184 26.2331 13.6794 26.0663 13.9384 25.8968Z" fill="#2E2E2E"/>
<path d="M9.13756 17.6356C9.10564 17.5302 9.11811 17.422 9.12226 17.3157C9.13473 16.989 9.04463 16.6923 8.85441 16.4212C8.83401 16.3921 8.82136 16.358 8.8053 16.3261C8.76337 16.237 8.75336 16.1435 8.75392 16.0466C8.75581 15.6644 8.75713 15.282 8.75411 14.8998C8.74958 14.3362 8.27338 13.8816 7.69178 13.882C7.06617 13.8825 6.59999 14.3164 6.59564 14.9041C6.59357 15.1967 6.59545 15.4894 6.59508 15.7821C6.59508 15.866 6.59659 15.9502 6.54105 16.0229C6.43093 16.1298 6.32062 16.2367 6.21049 16.3436C6.2069 16.2963 6.19991 16.249 6.19991 16.2017C6.19935 15.1301 6.19935 14.0586 6.19973 12.9871C6.19973 12.9575 6.20275 12.9277 6.20445 12.8981C6.35972 12.9769 6.5199 13.0433 6.6882 13.0948C6.87483 13.1519 7.06674 13.1819 7.25941 13.1823C9.17062 13.1859 11.082 13.1868 12.9932 13.1824C13.374 13.1816 13.7344 13.0864 14.0646 12.8995C14.0656 14.0236 14.0667 15.1476 14.0673 16.2715C14.0673 16.2952 14.0614 16.3189 14.0582 16.3426C13.9528 16.2413 13.8476 16.1399 13.7422 16.0387C13.7012 15.9607 13.7044 15.8767 13.7042 15.7931C13.7036 15.5244 13.7095 15.2554 13.7025 14.9869C13.6885 14.4593 13.3933 14.0653 12.9114 13.9219C12.2443 13.7231 11.5293 14.1992 11.5089 14.8639C11.4966 15.2637 11.5065 15.664 11.5063 16.0641C11.5063 16.16 11.5055 16.2555 11.4564 16.3435C11.3969 16.4478 11.3308 16.5492 11.2794 16.6569C11.1772 16.8709 11.1345 17.0972 11.1421 17.3329C11.1453 17.4336 11.1381 17.5347 11.1359 17.6358C11.0533 17.6954 10.9658 17.6577 10.8829 17.6424C10.3718 17.5487 9.86215 17.553 9.35252 17.6517C9.27961 17.6657 9.20462 17.6927 9.13756 17.6356Z" fill="url(#paint5_linear_202_715)"/>
<path d="M8.2707 6.83093C8.39555 6.56615 8.6107 6.38574 8.88422 6.27462C9.71836 5.93552 10.5563 5.93409 11.3901 6.27767C11.6768 6.39579 11.8957 6.58554 12.0134 6.86827C12.0529 7.19121 11.8885 7.41667 11.6252 7.5917C11.3417 7.78001 11.0198 7.8773 10.6828 7.92954C10.1024 8.01947 9.53476 7.97819 8.9849 7.76744C8.83208 7.70892 8.69079 7.63245 8.56386 7.53479C8.32869 7.35367 8.20099 7.12838 8.2707 6.83093Z" fill="#FF9800"/>
<path d="M9.13709 17.6359C9.43101 17.586 9.72152 17.5235 10.0236 17.5182C10.4008 17.5113 10.7687 17.5596 11.1348 17.6361C11.2612 17.6853 11.3889 17.7316 11.5137 17.784C12.4652 18.1832 13.1223 18.8383 13.4308 19.791C13.4912 19.9778 13.5404 20.1695 13.5315 20.369C13.465 20.3094 13.4495 20.223 13.407 20.1509C13.2005 19.8001 12.9223 19.5118 12.5815 19.2765C12.5201 19.2339 12.4639 19.1916 12.435 19.119C12.1937 18.5143 11.7085 18.1504 11.0889 17.9492C10.2253 17.6684 9.38964 17.7463 8.61178 18.2166C8.25856 18.4303 7.99203 18.7212 7.83978 19.0973C7.8139 19.161 7.78198 19.2126 7.72191 19.2528C7.32845 19.5152 7.01942 19.8484 6.80088 20.2562C6.7291 20.2582 6.7546 20.213 6.75875 20.178C6.81542 19.6653 7.03699 19.2158 7.36019 18.811C7.78482 18.2793 8.33298 17.9059 9.00298 17.698C9.05001 17.6831 9.0995 17.6704 9.13709 17.6359Z" fill="url(#paint6_linear_202_715)"/>
<path d="M6.7584 20.1771C6.76652 20.206 6.76879 20.2378 6.80053 20.2554C6.79731 20.3137 6.77125 20.3617 6.72724 20.4017C6.72931 20.3258 6.71231 20.2475 6.7584 20.1771Z" fill="#C3A381"/>
<path d="M11.4558 16.3434C11.4541 15.8421 11.4373 15.3402 11.4543 14.8391C11.4811 14.0457 12.4689 13.5599 13.1793 13.9778C13.5325 14.1855 13.7256 14.4905 13.7454 14.8756C13.7654 15.2624 13.7446 15.6511 13.7416 16.0388C13.4503 15.851 13.1349 15.7347 12.7775 15.7333C12.2836 15.7311 11.8782 15.9146 11.544 16.2533C11.5148 16.2833 11.4995 16.326 11.4558 16.3434Z" fill="#1A1A1A"/>
<path d="M6.54078 16.0236C6.53927 15.6356 6.53927 15.2477 6.53568 14.8598C6.53115 14.3834 6.9707 13.8664 7.60745 13.8278C8.1577 13.7944 8.66336 14.1719 8.77858 14.6307C8.79011 14.6769 8.80748 14.7235 8.80805 14.7702C8.81523 15.289 8.82335 15.8078 8.80503 16.3266C8.72947 16.256 8.65826 16.1805 8.5776 16.1155C8.02604 15.6712 7.32468 15.6098 6.68868 15.9469C6.63957 15.9729 6.59008 15.9981 6.54078 16.0236Z" fill="#1A1A1A"/>
<defs>
<linearGradient id="paint0_linear_202_715" x1="10.1334" y1="0.629303" x2="10.1334" y2="4.40558" gradientUnits="userSpaceOnUse">
<stop stop-color="#0060C6"/>
<stop offset="1" stop-color="#004084"/>
</linearGradient>
<linearGradient id="paint1_linear_202_715" x1="10.1314" y1="6.83014" x2="10.1314" y2="13.2412" gradientUnits="userSpaceOnUse">
<stop stop-color="#0060C6"/>
<stop offset="1" stop-color="#004084"/>
</linearGradient>
<linearGradient id="paint2_linear_202_715" x1="10.1336" y1="4.03915" x2="10.1336" y2="9.35725" gradientUnits="userSpaceOnUse">
<stop stop-color="#0060C6"/>
<stop offset="1" stop-color="#004084"/>
</linearGradient>
<linearGradient id="paint3_linear_202_715" x1="10.1452" y1="28.3855" x2="10.1452" y2="33.5675" gradientUnits="userSpaceOnUse">
<stop stop-color="#2D74BF"/>
<stop offset="1" stop-color="#114E8E"/>
</linearGradient>
<linearGradient id="paint4_linear_202_715" x1="10.1324" y1="24.6802" x2="10.1324" y2="30.1736" gradientUnits="userSpaceOnUse">
<stop stop-color="#2D74BF"/>
<stop offset="1" stop-color="#114E8E"/>
</linearGradient>
<linearGradient id="paint5_linear_202_715" x1="10.1334" y1="12.8981" x2="10.1334" y2="17.6705" gradientUnits="userSpaceOnUse">
<stop stop-color="#0060C6"/>
<stop offset="1" stop-color="#004084"/>
</linearGradient>
<linearGradient id="paint6_linear_202_715" x1="10.1417" y1="18.0214" x2="10.1417" y2="20.369" gradientUnits="userSpaceOnUse">
<stop stop-color="white"/>
<stop offset="1" stop-color="#CDE2F8"/>
</linearGradient>
</defs>
</svg>
