<svg width="19" height="16" viewBox="0 0 19 16" fill="none" xmlns="http://www.w3.org/2000/svg">
<path d="M1.296 0.100002C1.24347 0.0606055 1.1837 0.0319411 1.12009 0.0156453C1.05648 -0.000650529 0.99029 -0.00425856 0.925289 0.0050273C0.860288 0.0143132 0.797753 0.036311 0.741253 0.0697649C0.684754 0.103219 0.635397 0.147473 0.596 0.200002C0.556603 0.252531 0.527939 0.312305 0.511643 0.375912C0.495347 0.439518 0.491739 0.505712 0.501025 0.570713C0.510311 0.635714 0.532309 0.698249 0.565763 0.754749C0.599217 0.811248 0.643471 0.860606 0.696 0.900002L2.698 2.402C2.75053 2.4414 2.8103 2.47006 2.87391 2.48636C2.93752 2.50266 3.00371 2.50626 3.06871 2.49698C3.13371 2.48769 3.19625 2.46569 3.25275 2.43224C3.30925 2.39879 3.3586 2.35453 3.398 2.302C3.4374 2.24947 3.46606 2.1897 3.48236 2.12609C3.49865 2.06249 3.50226 1.99629 3.49297 1.93129C3.48369 1.86629 3.46169 1.80376 3.42824 1.74726C3.39478 1.69076 3.35053 1.6414 3.298 1.602L1.296 0.100002ZM0.5 5.002C0.367392 5.002 0.240215 5.05468 0.146447 5.14845C0.0526784 5.24222 0 5.36939 0 5.502C0 5.63461 0.0526784 5.76179 0.146447 5.85556C0.240215 5.94932 0.367392 6.002 0.5 6.002H2C2.13261 6.002 2.25979 5.94932 2.35355 5.85556C2.44732 5.76179 2.5 5.63461 2.5 5.502C2.5 5.36939 2.44732 5.24222 2.35355 5.14845C2.25979 5.05468 2.13261 5.002 2 5.002H0.5ZM11.95 14.002C11.8343 14.5663 11.5273 15.0734 11.0809 15.4375C10.6345 15.8016 10.0761 16.0005 9.5 16.0005C8.92393 16.0005 8.36553 15.8016 7.91914 15.4375C7.47275 15.0734 7.16574 14.5663 7.05 14.002H11.95ZM9.498 0.002002C12.647 0.002002 15.242 2.336 15.482 5.357L15.496 5.579L15.5 5.804L15.499 9.41L16.453 11.997L16.478 12.081L16.494 12.168L16.499 12.256C16.499 12.571 16.303 12.846 15.977 12.963L15.864 12.996L15.749 13.006H3.251C3.16272 13.0051 3.0752 12.9895 2.992 12.96C2.705 12.854 2.516 12.588 2.51 12.244L2.514 12.126L2.548 11.996L3.499 9.413L3.5 5.794L3.504 5.57C3.627 2.452 6.271 0.002002 9.498 0.002002ZM18.404 0.200002C18.3244 0.0939154 18.206 0.0237809 18.0747 0.0050273C17.9434 -0.0137263 17.8101 0.0204371 17.704 0.100002L15.702 1.602C15.5959 1.68157 15.5258 1.80002 15.507 1.93129C15.4883 2.06257 15.5224 2.19592 15.602 2.302C15.6816 2.40809 15.8 2.47822 15.9313 2.49698C16.0626 2.51573 16.1959 2.48157 16.302 2.402L18.304 0.900002C18.4101 0.820437 18.4802 0.701988 18.499 0.570713C18.5177 0.439437 18.4836 0.306089 18.404 0.200002ZM19 5.502C19 5.36939 18.9473 5.24222 18.8536 5.14845C18.7598 5.05468 18.6326 5.002 18.5 5.002H17C16.8674 5.002 16.7402 5.05468 16.6464 5.14845C16.5527 5.24222 16.5 5.36939 16.5 5.502C16.5 5.63461 16.5527 5.76179 16.6464 5.85556C16.7402 5.94932 16.8674 6.002 17 6.002H18.5C18.6326 6.002 18.7598 5.94932 18.8536 5.85556C18.9473 5.76179 19 5.63461 19 5.502Z" fill="#7D7D7D"/>
</svg>
