<svg width="12" height="14" viewBox="0 0 12 14" fill="none" xmlns="http://www.w3.org/2000/svg">
<path fill-rule="evenodd" clip-rule="evenodd" d="M8.66667 0C8.84348 0 9.01305 0.0702379 9.13807 0.195262C9.2631 0.320286 9.33333 0.489856 9.33333 0.666667V1.33333H10.6667C11.0203 1.33333 11.3594 1.47381 11.6095 1.72386C11.8595 1.97391 12 2.31304 12 2.66667V10.6667C12 11.0203 11.8595 11.3594 11.6095 11.6095C11.3594 11.8595 11.0203 12 10.6667 12H1.33333C0.979711 12 0.640573 11.8595 0.390524 11.6095C0.140476 11.3594 0 11.0203 0 10.6667V2.66667C0 2.31304 0.140476 1.97391 0.390524 1.72386C0.640573 1.47381 0.979711 1.33333 1.33333 1.33333H2.66667V0.666667C2.66667 0.489856 2.7369 0.320286 2.86193 0.195262C2.98695 0.0702379 3.15652 0 3.33333 0C3.51014 0 3.67971 0.0702379 3.80474 0.195262C3.92976 0.320286 4 0.489856 4 0.666667V1.33333H8V0.666667C8 0.489856 8.07024 0.320286 8.19526 0.195262C8.32029 0.0702379 8.48986 0 8.66667 0ZM3.34 8.66667H3.33333C3.16341 8.66686 2.99998 8.73192 2.87642 8.84857C2.75286 8.96521 2.67851 9.12464 2.66855 9.29426C2.65859 9.46389 2.71378 9.63092 2.82284 9.76122C2.9319 9.89152 3.0866 9.97526 3.25533 9.99533L3.34 10C3.51681 10 3.68638 9.92976 3.8114 9.80474C3.93643 9.67971 4.00667 9.51014 4.00667 9.33333C4.00667 9.15652 3.93643 8.98695 3.8114 8.86193C3.68638 8.7369 3.51681 8.66667 3.34 8.66667ZM6.00667 8.66667H6C5.83008 8.66686 5.66665 8.73192 5.54309 8.84857C5.41953 8.96521 5.34518 9.12464 5.33522 9.29426C5.32526 9.46389 5.38045 9.63092 5.48951 9.76122C5.59857 9.89152 5.75327 9.97526 5.922 9.99533L6.00667 10C6.18348 10 6.35305 9.92976 6.47807 9.80474C6.6031 9.67971 6.67333 9.51014 6.67333 9.33333C6.67333 9.15652 6.6031 8.98695 6.47807 8.86193C6.35305 8.7369 6.18348 8.66667 6.00667 8.66667ZM8.67333 8.66667H8.66667C8.49675 8.66686 8.33331 8.73192 8.20975 8.84857C8.0862 8.96521 8.01184 9.12464 8.00189 9.29426C7.99193 9.46389 8.04712 9.63092 8.15618 9.76122C8.26524 9.89152 8.41994 9.97526 8.58867 9.99533L8.67333 10C8.85014 10 9.01971 9.92976 9.14474 9.80474C9.26976 9.67971 9.34 9.51014 9.34 9.33333C9.34 9.15652 9.26976 8.98695 9.14474 8.86193C9.01971 8.7369 8.85014 8.66667 8.67333 8.66667ZM3.34 6H3.33333C3.16341 6.00019 2.99998 6.06525 2.87642 6.1819C2.75286 6.29854 2.67851 6.45797 2.66855 6.6276C2.65859 6.79722 2.71378 6.96425 2.82284 7.09455C2.9319 7.22486 3.0866 7.3086 3.25533 7.32867L3.34 7.33333C3.51681 7.33333 3.68638 7.2631 3.8114 7.13807C3.93643 7.01305 4.00667 6.84348 4.00667 6.66667C4.00667 6.48986 3.93643 6.32029 3.8114 6.19526C3.68638 6.07024 3.51681 6 3.34 6ZM6.00667 6H6C5.83008 6.00019 5.66665 6.06525 5.54309 6.1819C5.41953 6.29854 5.34518 6.45797 5.33522 6.6276C5.32526 6.79722 5.38045 6.96425 5.48951 7.09455C5.59857 7.22486 5.75327 7.3086 5.922 7.32867L6.00667 7.33333C6.18348 7.33333 6.35305 7.2631 6.47807 7.13807C6.6031 7.01305 6.67333 6.84348 6.67333 6.66667C6.67333 6.48986 6.6031 6.32029 6.47807 6.19526C6.35305 6.07024 6.18348 6 6.00667 6ZM8.67333 6H8.66667C8.49675 6.00019 8.33331 6.06525 8.20975 6.1819C8.0862 6.29854 8.01184 6.45797 8.00189 6.6276C7.99193 6.79722 8.04712 6.96425 8.15618 7.09455C8.26524 7.22486 8.41994 7.3086 8.58867 7.32867L8.67333 7.33333C8.85014 7.33333 9.01971 7.2631 9.14474 7.13807C9.26976 7.01305 9.34 6.84348 9.34 6.66667C9.34 6.48986 9.26976 6.32029 9.14474 6.19526C9.01971 6.07024 8.85014 6 8.67333 6ZM10.6667 2.66667H1.33333V4H10.6667V2.66667Z" fill="#B3B3B3"/>
</svg>
