<svg width="17" height="18" viewBox="0 0 17 18" fill="none" xmlns="http://www.w3.org/2000/svg">
<path d="M16.6667 12.5017C16.6666 13.6414 16.2772 14.7469 15.5629 15.635C14.8486 16.5231 13.8523 17.1405 12.7392 17.385L12.2075 15.79C12.6944 15.71 13.1575 15.5229 13.5633 15.2421C13.9691 14.9614 14.3076 14.5941 14.5542 14.1667H12.5C12.058 14.1667 11.634 13.9911 11.3215 13.6785C11.0089 13.3659 10.8333 12.942 10.8333 12.5V9.16667C10.8333 8.72464 11.0089 8.30071 11.3215 7.98815C11.634 7.67559 12.058 7.5 12.5 7.5H14.9483C14.745 5.88908 13.9608 4.40773 12.7429 3.3339C11.5249 2.26007 9.95704 1.66756 8.33333 1.66756C6.70963 1.66756 5.14172 2.26007 3.92381 3.3339C2.7059 4.40773 1.92169 5.88908 1.71833 7.5H4.16667C4.60869 7.5 5.03262 7.67559 5.34518 7.98815C5.65774 8.30071 5.83333 8.72464 5.83333 9.16667V12.5C5.83333 12.942 5.65774 13.3659 5.34518 13.6785C5.03262 13.9911 4.60869 14.1667 4.16667 14.1667H1.66667C1.22464 14.1667 0.800716 13.9911 0.488155 13.6785C0.175595 13.3659 0 12.942 0 12.5V8.33333C0 3.73083 3.73083 0 8.33333 0C12.9358 0 16.6667 3.73083 16.6667 8.33333V12.5017Z" fill="#7D7D7D"/>
</svg>
