<svg width="16" height="16" viewBox="0 0 16 16" fill="none" xmlns="http://www.w3.org/2000/svg">
<path d="M8 2C6.81331 2 5.65328 2.35189 4.66658 3.01118C3.67989 3.67047 2.91085 4.60754 2.45673 5.7039C2.0026 6.80025 1.88378 8.00665 2.11529 9.17054C2.3468 10.3344 2.91825 11.4035 3.75736 12.2426C4.59648 13.0818 5.66557 13.6532 6.82946 13.8847C7.99335 14.1162 9.19975 13.9974 10.2961 13.5433C11.3925 13.0891 12.3295 12.3201 12.9888 11.3334C13.6481 10.3467 14 9.18669 14 8C13.9995 6.40886 13.3672 4.88305 12.2421 3.75794C11.117 2.63284 9.59114 2.00053 8 2ZM8 11.6C7.84178 11.6 7.6871 11.5531 7.55554 11.4652C7.42399 11.3773 7.32145 11.2523 7.2609 11.1061C7.20035 10.96 7.1845 10.7991 7.21537 10.6439C7.24624 10.4887 7.32243 10.3462 7.43432 10.2343C7.5462 10.1224 7.68874 10.0462 7.84393 10.0154C7.99911 9.9845 8.15997 10.0003 8.30615 10.0609C8.45233 10.1214 8.57727 10.224 8.66518 10.3555C8.75308 10.4871 8.8 10.6418 8.8 10.8C8.79937 11.012 8.71488 11.2151 8.56499 11.365C8.4151 11.5149 8.21198 11.5994 8 11.6ZM8.916 5.396L8.648 8.604C8.63403 8.76623 8.5597 8.91732 8.43972 9.02741C8.31974 9.1375 8.16283 9.19858 8 9.19858C7.83717 9.19858 7.68026 9.1375 7.56028 9.02741C7.4403 8.91732 7.36598 8.76623 7.352 8.604L7.084 5.396C7.07244 5.27174 7.08629 5.14643 7.12469 5.02769C7.16309 4.90895 7.22525 4.79927 7.30738 4.70531C7.38951 4.61135 7.4899 4.53509 7.60244 4.48115C7.71498 4.42722 7.83731 4.39674 7.962 4.39158C8.08668 4.38642 8.21112 4.40668 8.32773 4.45113C8.44434 4.49558 8.55069 4.56329 8.6403 4.65014C8.72992 4.73698 8.80093 4.84116 8.84901 4.95632C8.8971 5.07147 8.92125 5.19521 8.92 5.32C8.92066 5.3454 8.91933 5.37081 8.916 5.396Z" fill="#A32A21"/>
</svg>
