<svg width="20" height="20" viewBox="0 0 20 20" fill="none" xmlns="http://www.w3.org/2000/svg">
<path d="M10 6.875C9.1712 6.875 8.37634 7.20424 7.79029 7.79029C7.20424 8.37634 6.875 9.1712 6.875 10C6.875 10.8288 7.20424 11.6237 7.79029 12.2097C8.37634 12.7958 9.1712 13.125 10 13.125C10.8288 13.125 11.6237 12.7958 12.2097 12.2097C12.7958 11.6237 13.125 10.8288 13.125 10C13.125 9.1712 12.7958 8.37634 12.2097 7.79029C11.6237 7.20424 10.8288 6.875 10 6.875Z" fill="#0060C6"/>
<path fill-rule="evenodd" clip-rule="evenodd" d="M9.99984 1.04199C10.1656 1.04199 10.3246 1.10784 10.4418 1.22505C10.559 1.34226 10.6248 1.50123 10.6248 1.66699V2.73533C12.3365 2.88254 13.9412 3.6294 15.156 4.84418C16.3708 6.05897 17.1176 7.66368 17.2648 9.37533H18.3332C18.4989 9.37533 18.6579 9.44117 18.7751 9.55838C18.8923 9.67559 18.9582 9.83457 18.9582 10.0003C18.9582 10.1661 18.8923 10.3251 18.7751 10.4423C18.6579 10.5595 18.4989 10.6253 18.3332 10.6253H17.2648C17.1176 12.337 16.3708 13.9417 15.156 15.1565C13.9412 16.3713 12.3365 17.1181 10.6248 17.2653V18.3337C10.6248 18.4994 10.559 18.6584 10.4418 18.7756C10.3246 18.8928 10.1656 18.9587 9.99984 18.9587C9.83408 18.9587 9.67511 18.8928 9.5579 18.7756C9.44069 18.6584 9.37484 18.4994 9.37484 18.3337V17.2653C7.66319 17.1181 6.05848 16.3713 4.8437 15.1565C3.62891 13.9417 2.88206 12.337 2.73484 10.6253H1.6665C1.50074 10.6253 1.34177 10.5595 1.22456 10.4423C1.10735 10.3251 1.0415 10.1661 1.0415 10.0003C1.0415 9.83457 1.10735 9.67559 1.22456 9.55838C1.34177 9.44117 1.50074 9.37533 1.6665 9.37533H2.73484C2.88206 7.66368 3.62891 6.05897 4.8437 4.84418C6.05848 3.6294 7.66319 2.88254 9.37484 2.73533V1.66699C9.37484 1.50123 9.44069 1.34226 9.5579 1.22505C9.67511 1.10784 9.83408 1.04199 9.99984 1.04199ZM3.95817 10.0003C3.95817 10.7937 4.11444 11.5794 4.41807 12.3124C4.72169 13.0454 5.16671 13.7114 5.72773 14.2724C6.28875 14.8335 6.95478 15.2785 7.68779 15.5821C8.4208 15.8857 9.20643 16.042 9.99984 16.042C10.7932 16.042 11.5789 15.8857 12.3119 15.5821C13.0449 15.2785 13.7109 14.8335 14.2719 14.2724C14.833 13.7114 15.278 13.0454 15.5816 12.3124C15.8852 11.5794 16.0415 10.7937 16.0415 10.0003C16.0415 8.39798 15.405 6.86125 14.2719 5.72822C13.1389 4.59519 11.6022 3.95866 9.99984 3.95866C8.39749 3.95866 6.86077 4.59519 5.72773 5.72822C4.5947 6.86125 3.95817 8.39798 3.95817 10.0003Z" fill="#0060C6"/>
</svg>
